<?xml version="1.0" encoding="UTF-8" standalone="no"?>
<!-- Created with Inkscape (http://www.inkscape.org/) -->

<svg
   xmlns:dc="http://purl.org/dc/elements/1.1/"
   xmlns:cc="http://creativecommons.org/ns#"
   xmlns:rdf="http://www.w3.org/1999/02/22-rdf-syntax-ns#"
   xmlns:svg="http://www.w3.org/2000/svg"
   xmlns="http://www.w3.org/2000/svg"
   xmlns:sodipodi="http://sodipodi.sourceforge.net/DTD/sodipodi-0.dtd"
   xmlns:inkscape="http://www.inkscape.org/namespaces/inkscape"
   width="600"
   height="195"
   id="svg2"
   version="1.1"
   inkscape:version="0.48.3.1 r9886"
   sodipodi:docname="email_header.svg"
   inkscape:export-filename="/home/phil/src/vr/dev/public/images/email_header.png"
   inkscape:export-xdpi="90"
   inkscape:export-ydpi="90">
  <defs
     id="defs4" />
  <sodipodi:namedview
     id="base"
     pagecolor="#ffffff"
     bordercolor="#666666"
     borderopacity="1.0"
     inkscape:pageopacity="0.0"
     inkscape:pageshadow="2"
     inkscape:zoom="0.59375"
     inkscape:cx="380.89405"
     inkscape:cy="51.436623"
     inkscape:document-units="px"
     inkscape:current-layer="g3031"
     showgrid="false"
     fit-margin-top="0"
     fit-margin-left="0"
     fit-margin-right="0"
     fit-margin-bottom="0"
     inkscape:window-width="531"
     inkscape:window-height="292"
     inkscape:window-x="534"
     inkscape:window-y="1686"
     inkscape:window-maximized="0" />
  <metadata
     id="metadata7">
    <rdf:RDF>
      <cc:Work
         rdf:about="">
        <dc:format>image/svg+xml</dc:format>
        <dc:type
           rdf:resource="http://purl.org/dc/dcmitype/StillImage" />
        <dc:title></dc:title>
      </cc:Work>
    </rdf:RDF>
  </metadata>
  <g
     inkscape:label="Layer 1"
     inkscape:groupmode="layer"
     id="layer1"
     transform="translate(-62.857151,-240.57646)">
    <g
       id="g3031"
       transform="translate(145.68421,0)">
      <path
         style="fill:#52c3c5"
         d="m -82.827059,338.07646 0,-97.5 299.999999,0 300,0 0,97.5 0,97.5 -300,0 -299.999999,0 z"
         id="path3043"
         inkscape:connector-curvature="0"
         sodipodi:nodetypes="ccccccccc" />
      <path
         style="fill:#ef2b48"
         d="m 33.046361,335.89915 c -1.64659,-2.10248 -16.6296,-22.72269 -33.29557,-45.82269 -16.66597,-23.1 -31.62029,-43.6875 -33.23182,-45.75 l -2.93006,-3.75 15.9674,0 c 14.34095,0 16.02072,0.17826 16.4909,1.75 1.08661,3.63241 38.35108,53.75 39.96532,53.75 1.44442,0 33.39825,-42.79677 39.012,-52.25 l 1.92999,-3.25 16.15123,0.0318 c 12.872659,0.0254 15.839949,0.27909 14.617809,1.25 -0.84338,0.67001 -16.772979,22.3682 -35.399109,48.2182 -18.62614,25.85 -34.40988,47.59521 -35.07499,48.32269 -0.98274,1.07489 -1.77015,0.60654 -4.2031,-2.5 z M 363.74235,291.89634 c -18.95063,-26.22407 -35.33472,-48.49907 -36.4091,-49.50001 -1.89487,-1.76534 -1.46928,-1.81987 14.20322,-1.81987 15.94108,0 16.17373,0.0314 17.43856,2.35604 0.70507,1.29582 9.60694,13.88951 19.78194,27.98597 11.59533,16.06419 19.05661,25.53737 19.99136,25.38193 1.4741,-0.24513 8.32841,-9.30146 30.2521,-39.97093 l 11.25654,-15.747 15.25,-0.003 c 8.3875,-0.002 15.25,0.22199 15.25,0.49699 0,0.275 -0.7875,1.32091 -1.75,2.32424 -0.9625,1.00334 -17.05,23.04589 -35.75,48.98347 -18.7,25.93757 -34.23826,47.16666 -34.52947,47.17576 -0.29121,0.009 -16.03453,-21.43953 -34.98515,-47.66359 z"
         id="path3035"
         inkscape:connector-curvature="0"
         sodipodi:nodetypes="ssscsssscssssssssssssccssscs" />
      <path
         style="fill:#3764b0;fill-opacity:1"
         inkscape:connector-curvature="0"
         d="m 259.36241,318.91438 h -84.37894 l 42.18947,-58.15702 42.18947,58.15702 z m -77.3962,-3.56462 h 70.41346 l -35.20673,-48.53743 -35.20673,48.53743 z"
         id="path3378" />
      <path
         style="fill:#3764b0;fill-opacity:1"
         inkscape:connector-curvature="0"
         d="m 216.33699,294.49917 c 0.14649,-0.29298 0.14649,-0.34181 -0.0977,-0.34181 h -2.83216 c -0.19532,0 -0.29298,0.0488 -0.34182,0.19532 -0.53713,1.51375 -2.53918,6.64094 -2.53918,6.64094 0,0 -2.2462,-5.17602 -2.83216,-6.68977 -0.0488,-0.14649 -0.14649,-0.14649 -0.34181,-0.14649 h -3.12515 c -0.24415,0 -0.24415,0.0488 -0.0977,0.34181 2.2462,4.83421 3.90643,8.15468 6.00614,12.20761 0.0488,0.14649 0.14649,0.24415 0.24415,0.24415 0.0977,0 0.19532,-0.0977 0.29298,-0.24415 2.2462,-4.83421 3.32047,-7.17807 5.66433,-12.20761 z m 13.81901,11.57281 c -1.07427,-1.70906 -2.09971,-3.56462 -2.58801,-4.29707 1.1231,-0.53714 1.70906,-1.70907 1.70906,-3.41813 0,-2.2462 -1.51374,-4.19942 -4.29708,-4.19942 h -5.66432 c -0.0488,0 -0.14649,0 -0.14649,0.14649 v 12.06111 c 0,0.19533 0,0.14649 0.14649,0.14649 h 2.97865 c 0.14649,0 0.14649,0 0.14649,-0.14649 V 302.898 l 2.09971,-0.0488 c 0,0 1.31842,2.09971 1.95322,3.27164 0.14649,0.34181 0.24415,0.39064 0.39064,0.39064 h 3.22281 c 0.24415,0.0488 0.29298,-0.0488 0.0488,-0.43947 z m -4.34591,-7.47105 c 0,1.07427 -0.53713,1.80672 -1.51374,1.80672 l -1.85556,0.0977 v -3.61345 h 1.80673 c 1.07427,0 1.56257,0.73246 1.56257,1.70907 z"
         id="path3380" />
      <text
         xml:space="preserve"
         style="font-size:32px;font-style:normal;font-variant:normal;font-weight:normal;font-stretch:normal;text-align:start;line-height:125%;letter-spacing:0px;word-spacing:0px;text-anchor:start;fill:#000000;fill-opacity:1;stroke:none;font-family:Eagle;-inkscape-font-specification:Eagle"
         x="269.05264"
         y="-326.30515"
         id="text3409"
         sodipodi:linespacing="125%"
         transform="scale(1,-1)"><tspan
           sodipodi:role="line"
           id="tspan3411"
           x="269.05264"
           y="-326.30515"
           style="font-size:32px" /></text>
      <g
         style="font-size:144px;font-style:normal;font-variant:normal;font-weight:normal;font-stretch:normal;text-align:start;line-height:125%;letter-spacing:0px;word-spacing:0px;text-anchor:start;fill:#3764b0;fill-opacity:1;stroke:none;font-family:Eagle;-inkscape-font-specification:Eagle"
         id="text3413"
         transform="translate(-145.69014,0)">
        <path
           d="m 347.61555,331.54323 c 0.112,-0.238 0.098,-0.252 -0.084,-0.252 l -2.17,0 c -0.168,0 -0.238,0.042 -0.28,0.168 -0.406,1.148 -1.946,5.096 -1.946,5.096 0,0 -1.68,-3.99 -2.142,-5.152 -0.042,-0.098 -0.126,-0.112 -0.252,-0.112 l -2.38,0 c -0.182,0 -0.182,0.028 -0.07,0.252 1.722,3.696 2.996,6.23001 4.578,9.338 0.056,0.112 0.112,0.168 0.182,0.168 0.07,0 0.154,-0.084 0.21,-0.196 1.722,-3.68199 2.576,-5.474 4.354,-9.31"
           style="font-size:14px;text-align:center;letter-spacing:1.34000003px;text-anchor:middle;fill:#3764b0"
           id="path4232"
           inkscape:connector-curvature="0" />
        <path
           d="m 359.05764,336.06523 c 0,-2.74399 -2.142,-4.97 -4.97,-4.97 -2.82799,0 -4.97,2.22601 -4.97,4.97 0,2.744 2.14201,4.956 4.97,4.956 2.828,0 4.97,-2.212 4.97,-4.956 m -2.618,0 c 0,1.442 -0.868,2.562 -2.352,2.562 -1.51199,0 -2.352,-1.12 -2.352,-2.562 0,-1.44199 0.84001,-2.576 2.352,-2.576 1.484,0 2.352,1.13401 2.352,2.576"
           style="font-size:14px;text-align:center;letter-spacing:1.34000003px;text-anchor:middle;fill:#3764b0"
           id="path4234"
           inkscape:connector-curvature="0" />
        <path
           d="m 364.58452,340.65723 c 0,-2.19799 0,-7.07 0,-9.24 0,-0.112 -0.014,-0.126 -0.14,-0.126 -0.924,0 -1.442,0 -2.324,0 -0.126,0 -0.126,-0.014 -0.126,0.126 0,3.346 0,5.62801 0,9.24 0,0.14 0,0.126 0.126,0.126 0.882,0 1.4,0 2.324,0 0.126,0 0.14,-0.014 0.14,-0.126"
           style="font-size:14px;text-align:center;letter-spacing:1.34000003px;text-anchor:middle;fill:#3764b0"
           id="path4236"
           inkscape:connector-curvature="0" />
        <path
           d="m 376.89964,338.12323 c 0.028,-0.084 0.014,-0.154 -0.126,-0.182 l -2.1,-0.574 c -0.112,-0.028 -0.126,0.028 -0.168,0.098 -0.336,0.714 -1.008,1.176 -1.96,1.176 -1.17599,0 -2.338,-0.798 -2.338,-2.548 0,-1.49799 0.89601,-2.604 2.296,-2.604 0.966,0 1.638,0.434 2.044,1.274 0.028,0.07 0.042,0.098 0.126,0.07 l 2.086,-0.812 c 0.056,-0.028 0.112,-0.084 0.042,-0.252 -0.62999,-1.42799 -2.044,-2.674 -4.354,-2.674 -2.74399,0 -4.9,2.11401 -4.9,4.984 0,2.688 1.98801,4.942 4.97,4.942 2.184,0 3.75201,-1.372 4.382,-2.898"
           style="font-size:14px;text-align:center;letter-spacing:1.34000003px;text-anchor:middle;fill:#3764b0"
           id="path4238"
           inkscape:connector-curvature="0" />
        <path
           d="m 386.17349,340.58723 c 0,-0.574 0,-1.106 0,-1.806 0,-0.182 0,-0.182 -0.154,-0.182 l -4.102,0.042 0,-1.624 3.92,0 c 0.126,0 0.14,-0.028 0.14,-0.196 0,-0.56 0,-1.022 0,-1.708 0,-0.168 -0.014,-0.196 -0.14,-0.196 l -3.92,0 0,-1.582 4.004,0.042 c 0.112,0 0.154,-0.07 0.154,-0.196 0,-0.602 0,-1.008 0,-1.708 0,-0.168 -0.014,-0.182 -0.154,-0.182 l -6.328,0 c -0.14,0 -0.126,0.014 -0.126,0.14 0,2.688 0,6.70601 0,9.156 0,0.168 0.014,0.196 0.154,0.196 l 6.398,0 c 0.14,0 0.154,-0.028 0.154,-0.196"
           style="font-size:14px;text-align:center;letter-spacing:1.34000003px;text-anchor:middle;fill:#3764b0"
           id="path4240"
           inkscape:connector-curvature="0" />
        <path
           d="m 333.01572,357.90523 c -0.812,-1.316 -1.61,-2.73 -1.974,-3.304 0.854,-0.406 1.302,-1.316 1.302,-2.604 0,-1.72199 -1.148,-3.206 -3.304,-3.206 l -4.34,0 c -0.042,0 -0.112,-0.014 -0.112,0.126 0,3.346 0,5.62801 0,9.24 0,0.14 0,0.126 0.112,0.126 0.84,0 1.4,0 2.296,0 0.098,0 0.112,-0.014 0.112,-0.126 0,-1.092 0,-2.646 0,-2.646 l 1.61,-0.028 c 0,0 1.022,1.61 1.498,2.52 0.126,0.252 0.182,0.28 0.294,0.28 l 2.478,0 c 0.154,0 0.196,-0.098 0.028,-0.378 m -3.332,-5.726 c 0,0.812 -0.42,1.372 -1.176,1.4 l -1.4,0.042 0,-2.744 1.386,0 c 0.812,0 1.19,0.56 1.19,1.302"
           style="font-size:14px;text-align:center;letter-spacing:1.34000003px;text-anchor:middle;fill:#3764b0"
           id="path4242"
           inkscape:connector-curvature="0" />
        <path
           d="m 342.34075,358.08723 c 0,-0.574 0,-1.106 0,-1.806 0,-0.182 0,-0.182 -0.154,-0.182 l -4.102,0.042 0,-1.624 3.92,0 c 0.126,0 0.14,-0.028 0.14,-0.196 0,-0.56 0,-1.022 0,-1.708 0,-0.168 -0.014,-0.196 -0.14,-0.196 l -3.92,0 0,-1.582 4.004,0.042 c 0.112,0 0.154,-0.07 0.154,-0.196 0,-0.602 0,-1.008 0,-1.708 0,-0.168 -0.014,-0.182 -0.154,-0.182 l -6.328,0 c -0.14,0 -0.126,0.014 -0.126,0.14 0,2.688 0,6.70601 0,9.156 0,0.168 0.014,0.196 0.154,0.196 l 6.398,0 c 0.14,0 0.154,-0.028 0.154,-0.196"
           style="font-size:14px;text-align:center;letter-spacing:1.34000003px;text-anchor:middle;fill:#3764b0"
           id="path4244"
           inkscape:connector-curvature="0" />
        <path
           d="m 352.83588,352.43123 c 0,-2.15599 -1.246,-3.64 -3.332,-3.64 l -4.2,0 c -0.056,0 -0.126,-0.014 -0.126,0.126 0,3.346 0,5.62801 0,9.24 0,0.14 0,0.126 0.126,0.126 0.826,0 1.386,0 2.268,0 0.112,0 0.126,-0.014 0.126,-0.126 0,-1.092 0,-2.254 0,-2.254 0,0 1.582,-0.014 1.988,-0.056 1.792,-0.21 3.15,-1.12 3.15,-3.416 m -2.59,-0.084 c 0,0.798 -0.392,1.414 -1.372,1.456 l -1.176,0.042 0,-2.968 1.148,0 c 0.854,0 1.4,0.532 1.4,1.47"
           style="font-size:14px;text-align:center;letter-spacing:1.34000003px;text-anchor:middle;fill:#3764b0"
           id="path4246"
           inkscape:connector-curvature="0" />
        <path
           d="m 363.33866,354.83923 0,-5.95 c 0,-0.098 0,-0.098 -0.07,-0.098 -0.756,0 -1.624,0 -2.296,0 -0.084,0 -0.084,0.014 -0.084,0.098 l 0,6.244 c 0,0.952 -0.798,1.33 -1.47,1.33 -0.686,0 -1.47,-0.392 -1.47,-1.33 l 0,-6.23 c 0,-0.112 0,-0.112 -0.098,-0.112 -0.672,0 -1.582,0 -2.352,0 -0.07,0 -0.07,0 -0.07,0.084 l 0,5.824 c 0,2.31 1.288,3.822 3.962,3.822 2.786,0 3.948,-1.428 3.948,-3.682"
           style="font-size:14px;text-align:center;letter-spacing:1.34000003px;text-anchor:middle;fill:#3764b0"
           id="path4248"
           inkscape:connector-curvature="0" />
        <path
           d="m 374.73504,355.70723 c 0,-1.106 -0.74201,-2.198 -1.946,-2.324 1.09199,-0.308 1.68,-1.078 1.68,-2.1 0,-1.56799 -1.03601,-2.492 -2.758,-2.492 -1.834,0 -3.36001,0 -4.9,0 -0.126,0 -0.168,0.028 -0.168,0.14 0,3.542 0,5.61401 0,9.156 0,0.182 0.014,0.196 0.126,0.196 2.02999,0 3.304,0 5.292,0 1.66599,0 2.674,-1.036 2.674,-2.576 m -2.814,-4.06 c 0,0.56 -0.32201,0.896 -0.896,0.896 l -1.876,0 0,-1.792 1.876,0 c 0.57399,0 0.896,0.308 0.896,0.896 m 0.21,3.654 c 0,0.658 -0.37801,1.022 -0.966,1.022 l -2.016,0 0,-2.058 2.016,0 c 0.55999,0 0.966,0.434 0.966,1.036"
           style="font-size:14px;text-align:center;letter-spacing:1.34000003px;text-anchor:middle;fill:#3764b0"
           id="path4250"
           inkscape:connector-curvature="0" />
        <path
           d="m 383.74069,358.15723 c 0,-1.092 0,-1.484 0,-2.03 0,-0.112 -0.014,-0.14 -0.126,-0.14 l -3.514,0.07 c 0,0 0,-5.67 0,-7.14 0,-0.112 -0.014,-0.126 -0.126,-0.126 -0.868,0 -1.442,0 -2.268,0 -0.126,0 -0.126,-0.014 -0.126,0.126 0,3.346 0,5.62801 0,9.24 0,0.14 0,0.126 0.126,0.126 0.826,0 5.04,0 5.922,0 0.112,0 0.112,-0.014 0.112,-0.126"
           style="font-size:14px;text-align:center;letter-spacing:1.34000003px;text-anchor:middle;fill:#3764b0"
           id="path4252"
           inkscape:connector-curvature="0" />
        <path
           d="m 388.81147,358.15723 c 0,-2.19799 0,-7.07 0,-9.24 0,-0.112 -0.014,-0.126 -0.14,-0.126 -0.924,0 -1.442,0 -2.324,0 -0.126,0 -0.126,-0.014 -0.126,0.126 0,3.346 0,5.62801 0,9.24 0,0.14 0,0.126 0.126,0.126 0.882,0 1.4,0 2.324,0 0.126,0 0.14,-0.014 0.14,-0.126"
           style="font-size:14px;text-align:center;letter-spacing:1.34000003px;text-anchor:middle;fill:#3764b0"
           id="path4254"
           inkscape:connector-curvature="0" />
        <path
           d="m 401.12659,355.62323 c 0.028,-0.084 0.014,-0.154 -0.126,-0.182 l -2.1,-0.574 c -0.112,-0.028 -0.126,0.028 -0.168,0.098 -0.336,0.714 -1.008,1.176 -1.96,1.176 -1.17599,0 -2.338,-0.798 -2.338,-2.548 0,-1.49799 0.89601,-2.604 2.296,-2.604 0.966,0 1.638,0.434 2.044,1.274 0.028,0.07 0.042,0.098 0.126,0.07 l 2.086,-0.812 c 0.056,-0.028 0.112,-0.084 0.042,-0.252 -0.63,-1.42799 -2.044,-2.674 -4.354,-2.674 -2.74399,0 -4.9,2.11401 -4.9,4.984 0,2.688 1.98801,4.942 4.97,4.942 2.184,0 3.752,-1.372 4.382,-2.898"
           style="font-size:14px;text-align:center;letter-spacing:1.34000003px;text-anchor:middle;fill:#3764b0"
           id="path4256"
           inkscape:connector-curvature="0" />
      </g>
      <g
         style="font-size:144px;font-style:normal;font-variant:normal;font-weight:normal;font-stretch:normal;text-align:start;line-height:125%;letter-spacing:0px;word-spacing:0px;text-anchor:start;fill:#ffffff;fill-opacity:1;stroke:none;font-family:Eagle;-inkscape-font-specification:Eagle"
         id="text3419"
         transform="translate(-145.68421,0)">
        <path
           d="m 210.14642,405.72513 c 0,-6.45599 0,-10.32 0,-15.84 0,-0.24 0,-0.216 -0.216,-0.216 -1.416,0 -2.352,0 -3.864,0 -0.216,0 -0.24,0.024 -0.24,0.216 0,1.872 0,5.664 0,5.664 l -5.448,0 c 0,0 0,-3.792 0,-5.664 0,-0.192 -0.024,-0.216 -0.192,-0.216 -1.512,0 -2.496,0 -3.912,0 -0.216,0 -0.216,-0.024 -0.216,0.216 0,5.736 0,9.64801 0,15.84 0,0.24 0,0.216 0.216,0.216 1.416,0 2.4,0 3.912,0 0.168,0 0.192,-0.024 0.192,-0.216 0,-1.872 0,-6.336 0,-6.336 l 5.448,0 c 0,0 0,4.464 0,6.336 0,0.192 0.024,0.216 0.24,0.216 1.512,0 2.448,0 3.864,0 0.216,0 0.216,0.024 0.216,-0.216"
           style="font-size:24px;word-spacing:11.62999153px;fill:#ffffff"
           id="path4259"
           inkscape:connector-curvature="0" />
        <path
           d="m 225.4663,399.91713 c 0,-3.81599 -2.66401,-6.456 -6.408,-6.456 -3.816,0 -6.408,2.78401 -6.408,6.456 0,3.84 2.712,6.432 6.408,6.432 3.74399,0 6.408,-2.616 6.408,-6.432 m -3.984,0 c 0,1.56 -1.056,2.64 -2.376,2.64 -1.344,0 -2.472,-1.128 -2.472,-2.64 0,-1.536 1.104,-2.592 2.448,-2.592 1.32,0 2.4,1.008 2.4,2.592"
           style="font-size:24px;word-spacing:11.62999153px;fill:#ffffff"
           id="path4261"
           inkscape:connector-curvature="0" />
        <path
           d="m 246.19517,405.58113 0,-8.28 c 0,-3.12 -1.872,-3.84 -3.792,-3.84 -1.704,0 -3.216,0.84 -3.624,2.304 -0.504,-1.632 -1.68,-2.304 -3.6,-2.304 -1.704,0 -3.048,0.912 -3.552,2.304 l 0,-1.656 c 0,-0.288 -0.024,-0.288 -0.216,-0.288 -1.248,0 -2.28,0 -3.576,0 -0.168,0 -0.168,0 -0.168,0.288 0,4.44 0,7.08001 0,11.496 0,0.336 0.024,0.336 0.192,0.336 1.344,0 2.448,0 3.72,0 0.144,0 0.168,-0.048 0.168,-0.264 l 0,-7.68 c 0.096,-0.432 0.768,-1.056 1.632,-1.056 0.84,0 1.512,0.552 1.512,1.872 l 0,6.864 c 0,0.264 0.072,0.264 0.216,0.264 1.344,0 2.328,0 3.648,0 0.192,0 0.216,-0.072 0.216,-0.36 l 0,-7.584 c 0.144,-0.48 0.768,-1.056 1.632,-1.056 1.056,0 1.512,0.72 1.512,1.872 l 0,6.864 c 0,0.264 0.072,0.264 0.216,0.264 1.344,0 2.328,0 3.648,0 0.192,0 0.216,-0.072 0.216,-0.36"
           style="font-size:24px;word-spacing:11.62999153px;fill:#ffffff"
           id="path4263"
           inkscape:connector-curvature="0" />
        <path
           d="m 260.10505,398.98113 c 0,-3.384 -2.47201,-5.472 -5.424,-5.472 -3.888,0 -6.312,2.66401 -6.312,6.312 0,4.08 2.664,6.48 6.312,6.48 1.848,0 3.504,-0.768 4.248,-1.416 0.192,-0.168 0.264,-0.336 0.12,-0.552 -0.48,-0.744 -1.152,-1.704 -1.656,-2.4 -0.12,-0.168 -0.264,-0.216 -0.336,-0.12 -0.408,0.48 -1.176,1.2 -2.304,1.2 -1.416,0 -2.424,-0.816 -2.448,-2.112 0,0 5.088,0 7.176,0 0.36,0 0.432,-0.048 0.48,-0.288 0.096,-0.408 0.144,-0.792 0.144,-1.632 m -3.744,-0.192 -4.056,0 c 0.12,-1.008 0.696,-2.04 2.016,-2.04 1.224,0 1.944,0.768 2.04,2.04"
           style="font-size:24px;word-spacing:11.62999153px;fill:#ffffff"
           id="path4265"
           inkscape:connector-curvature="0" />
        <path
           d="m 285.87216,405.22113 c -0.048,-0.336 -0.312,-2.016 -0.36,-2.28 -0.048,-0.264 -0.168,-0.36 -0.456,-0.288 -1.248,0.264 -1.992,-0.264 -1.992,-1.32 l 0,-4.44 c 0.552,0 1.536,0.024 2.016,0.024 0.192,0 0.264,-0.096 0.264,-0.336 l 0,-2.568 c 0,-0.12 -0.072,-0.192 -0.24,-0.192 -0.72,0 -1.728,0 -2.04,0 l 0.048,-2.928 c 0,-0.144 -0.12,-0.408 -0.456,-0.408 -1.272,0 -2.208,0 -3.408,0 -0.168,0 -0.192,0.096 -0.192,0.336 l -0.072,3 c -0.576,0 -0.888,0 -1.056,0 -0.168,0 -0.192,0.168 -0.192,0.288 l 0,2.52 c 0,0.264 0.096,0.264 0.264,0.264 0.36,0 0.648,0 0.984,0 l 0,4.2 c 0,2.424 0.16801,5.16 4.224,5.16 1.032,0 1.896,-0.408 2.448,-0.672 0.144,-0.072 0.24,-0.168 0.216,-0.36"
           style="font-size:24px;word-spacing:11.62999153px;fill:#ffffff"
           id="path4267"
           inkscape:connector-curvature="0" />
        <path
           d="m 299.72129,399.91713 c 0,-3.81599 -2.66401,-6.456 -6.408,-6.456 -3.816,0 -6.408,2.78401 -6.408,6.456 0,3.84 2.712,6.432 6.408,6.432 3.74399,0 6.408,-2.616 6.408,-6.432 m -3.984,0 c 0,1.56 -1.056,2.64 -2.376,2.64 -1.344,0 -2.472,-1.128 -2.472,-2.64 0,-1.536 1.104,-2.592 2.448,-2.592 1.32,0 2.4,1.008 2.4,2.592"
           style="font-size:24px;word-spacing:11.62999153px;fill:#ffffff"
           id="path4269"
           inkscape:connector-curvature="0" />
        <path
           d="m 325.9084,405.22113 c -0.048,-0.336 -0.312,-2.016 -0.36,-2.28 -0.048,-0.264 -0.168,-0.36 -0.456,-0.288 -1.248,0.264 -1.992,-0.264 -1.992,-1.32 l 0,-4.44 c 0.552,0 1.536,0.024 2.016,0.024 0.192,0 0.264,-0.096 0.264,-0.336 l 0,-2.568 c 0,-0.12 -0.072,-0.192 -0.24,-0.192 -0.72,0 -1.728,0 -2.04,0 l 0.048,-2.928 c 0,-0.144 -0.12,-0.408 -0.456,-0.408 -1.272,0 -2.208,0 -3.408,0 -0.168,0 -0.192,0.096 -0.192,0.336 l -0.072,3 c -0.576,0 -0.888,0 -1.056,0 -0.168,0 -0.192,0.168 -0.192,0.288 l 0,2.52 c 0,0.264 0.096,0.264 0.264,0.264 0.36,0 0.648,0 0.984,0 l 0,4.2 c 0,2.424 0.16801,5.16 4.224,5.16 1.032,0 1.896,-0.408 2.448,-0.672 0.144,-0.072 0.24,-0.168 0.216,-0.36"
           style="font-size:24px;word-spacing:11.62999153px;fill:#ffffff"
           id="path4271"
           inkscape:connector-curvature="0" />
        <path
           d="m 339.08553,405.58113 0,-8.16 c 0,-2.592 -1.22401,-3.96 -3.72,-3.96 -1.848,0 -3.072,0.888 -3.624,2.256 l 0,-6.024 c 0,-0.312 -0.048,-0.36 -0.216,-0.36 -1.272,0 -2.4,0 -3.696,0 -0.168,0 -0.168,0 -0.168,0.288 0,4.44 0,11.56801 0,15.984 0,0.336 0.024,0.336 0.192,0.336 1.344,0 2.448,0 3.72,0 0.144,0 0.168,-0.048 0.168,-0.264 l 0,-7.584 c 0.288,-0.648 0.792,-1.152 1.752,-1.152 0.816,0 1.512,0.504 1.512,1.584 l 0,7.152 c 0,0.264 0.048,0.264 0.216,0.264 1.368,0 2.304,0 3.624,0 0.192,0 0.24,-0.024 0.24,-0.36"
           style="font-size:24px;word-spacing:11.62999153px;fill:#ffffff"
           id="path4273"
           inkscape:connector-curvature="0" />
        <path
           d="m 352.9744,398.98113 c 0,-3.384 -2.472,-5.472 -5.424,-5.472 -3.88799,0 -6.312,2.66401 -6.312,6.312 0,4.08 2.66401,6.48 6.312,6.48 1.848,0 3.504,-0.768 4.248,-1.416 0.192,-0.168 0.264,-0.336 0.12,-0.552 -0.48,-0.744 -1.152,-1.704 -1.656,-2.4 -0.12,-0.168 -0.264,-0.216 -0.336,-0.12 -0.408,0.48 -1.176,1.2 -2.304,1.2 -1.416,0 -2.424,-0.816 -2.448,-2.112 0,0 5.088,0 7.176,0 0.36,0 0.432,-0.048 0.48,-0.288 0.096,-0.408 0.144,-0.792 0.144,-1.632 m -3.744,-0.192 -4.056,0 c 0.12,-1.008 0.696,-2.04 2.016,-2.04 1.224,0 1.944,0.768 2.04,2.04"
           style="font-size:24px;word-spacing:11.62999153px;fill:#ffffff"
           id="path4275"
           inkscape:connector-curvature="0" />
        <path
           d="m 383.90152,401.02113 c 0,-3 -1.77601,-4.632 -4.848,-5.064 -0.312,-0.048 -0.576,-0.096 -0.792,-0.12 -2.16,-0.36 -3.048,-0.816 -3.048,-1.92 0,-0.888 0.528,-1.512 2.208,-1.512 1.248,0 2.352,0.936 2.688,1.896 0.048,0.12 0.12,0.168 0.288,0.096 l 2.808,-1.128 c 0.144,-0.048 0.24,-0.144 0.168,-0.408 -0.624,-2.016 -2.59201,-3.528 -5.784,-3.528 -4.248,0 -6.384,2.184 -6.384,5.304 0,2.976 2.016,4.608 4.92,4.896 0.168,0.024 0.408,0.048 0.576,0.072 2.20799,0.264 2.904,0.888 2.904,1.872 0,1.104 -0.768,1.608 -2.424,1.608 -1.512,0 -2.616,-1.056 -2.904,-1.944 -0.048,-0.192 -0.048,-0.192 -0.264,-0.12 l -2.952,1.2 c -0.168,0.072 -0.192,0.192 -0.096,0.456 0.816,2.352 2.856,3.672 6.12,3.672 3.76799,0 6.816,-1.632 6.816,-5.328"
           style="font-size:24px;word-spacing:11.62999153px;fill:#ffffff"
           id="path4277"
           inkscape:connector-curvature="0" />
        <path
           d="m 399.05452,399.84513 c 0,-4.39199 -2.76001,-6.24 -5.712,-6.24 -1.296,0 -2.952,0.576 -3.312,1.656 l 0,-1.152 c 0,-0.288 -0.024,-0.288 -0.192,-0.288 -1.344,0 -2.136,0 -3.504,0 -0.168,0 -0.168,0 -0.168,0.288 0,4.44 0,11.06401 0,15.48 0,0.336 0.024,0.336 0.168,0.336 1.44,0 2.4,0 3.72,0 0.168,0 0.192,-0.048 0.192,-0.312 l 0,-4.872 c 0.408,0.768 1.704,1.368 2.904,1.416 3.38399,0.144 5.904,-1.968 5.904,-6.312 m -3.984,0.096 c 0,1.56 -1.104,2.544 -2.328,2.544 -1.272,0 -2.496,-0.912 -2.496,-2.544 0,-1.488 0.984,-2.544 2.424,-2.544 1.272,0 2.4,0.984 2.4,2.544"
           style="font-size:24px;word-spacing:11.62999153px;fill:#ffffff"
           id="path4279"
           inkscape:connector-curvature="0" />
        <path
           d="m 413.49689,399.91713 c 0,-3.81599 -2.664,-6.456 -6.408,-6.456 -3.81599,0 -6.408,2.78401 -6.408,6.456 0,3.84 2.71201,6.432 6.408,6.432 3.744,0 6.408,-2.616 6.408,-6.432 m -3.984,0 c 0,1.56 -1.056,2.64 -2.376,2.64 -1.344,0 -2.472,-1.128 -2.472,-2.64 0,-1.536 1.104,-2.592 2.448,-2.592 1.32,0 2.4,1.008 2.4,2.592"
           style="font-size:24px;word-spacing:11.62999153px;fill:#ffffff"
           id="path4281"
           inkscape:connector-curvature="0" />
        <path
           d="m 428.10577,405.65313 c -1.464,-2.208 -4.368,-6.696 -4.368,-6.696 0,0 2.664,-3.264 3.84,-4.704 0.096,-0.144 0.216,-0.432 -0.072,-0.432 -1.224,0 -2.784,0 -4.152,0 -0.216,0 -0.24,0.096 -0.288,0.192 -1.056,1.56 -3.288,4.68 -3.288,4.68 l 0,-9.048 c 0,-0.288 -0.048,-0.312 -0.216,-0.312 -1.248,0 -2.4,0 -3.696,0 -0.168,0 -0.168,0.024 -0.168,0.312 0,4.416 0,11.54401 0,15.96 0,0.336 0.024,0.336 0.192,0.336 1.32,0 2.448,0 3.696,0 0.144,0 0.192,-0.048 0.192,-0.264 l 0,-1.992 1.296,-1.632 2.04,3.552 c 0.168,0.264 0.24,0.336 0.408,0.336 1.536,0 2.424,0 4.368,0 0.264,0 0.336,-0.072 0.216,-0.288"
           style="font-size:24px;word-spacing:11.62999153px;fill:#ffffff"
           id="path4283"
           inkscape:connector-curvature="0" />
        <path
           d="m 440.30752,398.98113 c 0,-3.384 -2.47201,-5.472 -5.424,-5.472 -3.888,0 -6.312,2.66401 -6.312,6.312 0,4.08 2.664,6.48 6.312,6.48 1.84799,0 3.504,-0.768 4.248,-1.416 0.192,-0.168 0.264,-0.336 0.12,-0.552 -0.48,-0.744 -1.152,-1.704 -1.656,-2.4 -0.12,-0.168 -0.264,-0.216 -0.336,-0.12 -0.408,0.48 -1.176,1.2 -2.304,1.2 -1.416,0 -2.424,-0.816 -2.448,-2.112 0,0 5.088,0 7.176,0 0.36,0 0.432,-0.048 0.48,-0.288 0.096,-0.408 0.144,-0.792 0.144,-1.632 m -3.744,-0.192 -4.056,0 c 0.12,-1.008 0.696,-2.04 2.016,-2.04 1.224,0 1.944,0.768 2.04,2.04"
           style="font-size:24px;word-spacing:11.62999153px;fill:#ffffff"
           id="path4285"
           inkscape:connector-curvature="0" />
        <path
           d="m 453.51239,405.58113 0,-8.16 c 0,-2.592 -1.224,-3.96 -3.72,-3.96 -1.848,0 -3.264,0.888 -3.744,2.304 l 0,-1.56 c 0,-0.24 -0.096,-0.384 -0.264,-0.384 -1.272,0 -2.232,0 -3.528,0 -0.168,0 -0.168,0 -0.168,0.288 0,4.44 0,7.08001 0,11.496 0,0.336 0.024,0.336 0.192,0.336 1.344,0 2.448,0 3.72,0 0.144,0 0.168,-0.048 0.168,-0.264 l 0,-7.584 c 0.288,-0.648 0.792,-1.152 1.752,-1.152 0.816,0 1.512,0.504 1.512,1.584 l 0,7.152 c 0,0.264 0.048,0.264 0.216,0.264 1.368,0 2.304,0 3.624,0 0.192,0 0.24,-0.024 0.24,-0.36"
           style="font-size:24px;word-spacing:11.62999153px;fill:#ffffff"
           id="path4287"
           inkscape:connector-curvature="0" />
        <path
           d="m 491.89263,389.98113 c 0.096,-0.312 0.096,-0.312 -0.216,-0.312 l -3.72,0 c -0.192,0 -0.192,-0.024 -0.24,0.24 -0.6,2.112 -2.448,7.752 -2.448,7.752 0,0 -2.376,-6.552 -2.928,-7.92 -0.048,-0.144 -0.168,-0.216 -0.288,-0.216 -0.12,0 -0.216,0.072 -0.288,0.216 -0.6,1.296 -3.144,7.92 -3.144,7.92 0,0 -1.848,-5.52 -2.4,-7.56 -0.12,-0.336 -0.216,-0.408 -0.624,-0.432 l -3.696,0 c -0.312,0 -0.264,0.048 -0.096,0.432 2.496,6.93599 3.792,10.15201 6.096,16.056 0.048,0.12 0.168,0.144 0.288,0.144 0.12,0 0.216,-0.024 0.264,-0.144 1.776,-4.00799 3.312,-7.368 3.312,-7.368 0,0 1.368,3.04801 3.264,7.344 0.048,0.12 0.168,0.144 0.288,0.144 0.12,0 0.24,-0.048 0.288,-0.192 2.256,-5.92799 3.624,-9.26401 6.288,-16.104"
           style="font-size:24px;word-spacing:11.62999153px;fill:#ffffff"
           id="path4289"
           inkscape:connector-curvature="0" />
        <path
           d="m 503.97063,399.91713 c 0,-3.81599 -2.664,-6.456 -6.408,-6.456 -3.81599,0 -6.408,2.78401 -6.408,6.456 0,3.84 2.71201,6.432 6.408,6.432 3.744,0 6.408,-2.616 6.408,-6.432 m -3.984,0 c 0,1.56 -1.056,2.64 -2.376,2.64 -1.344,0 -2.472,-1.128 -2.472,-2.64 0,-1.536 1.104,-2.592 2.448,-2.592 1.32,0 2.4,1.008 2.4,2.592"
           style="font-size:24px;word-spacing:11.62999153px;fill:#ffffff"
           id="path4291"
           inkscape:connector-curvature="0" />
        <path
           d="m 516.08351,396.36513 c -0.048,-1.92 -1.29601,-2.904 -3.072,-2.904 -1.056,0 -2.376,0.624 -2.88,1.824 l 0,-1.176 c 0,-0.288 -0.024,-0.288 -0.192,-0.288 -1.344,0 -2.20801,0 -3.576,0 -0.192,0 -0.192,0 -0.192,0.288 0,4.44 0,7.08001 0,11.496 0,0.336 0.024,0.336 0.192,0.336 1.41599,0 2.376,0 3.696,0 0.144,0 0.192,-0.048 0.192,-0.264 l 0,-7.368 c 0.288,-0.432 0.672,-0.912 1.416,-0.912 0.864,0 1.32,0.576 1.32,1.656 0.24,0 0.48,-0.024 0.6,-0.144 0.288,-0.264 1.992,-2.04 2.496,-2.544"
           style="font-size:24px;word-spacing:11.62999153px;fill:#ffffff"
           id="path4293"
           inkscape:connector-curvature="0" />
        <path
           d="m 529.65588,405.58113 c 0,-4.41599 0,-11.496 0,-15.912 0,-0.336 -0.024,-0.336 -0.192,-0.336 -1.488,0 -2.208,0 -3.6,0 -0.168,0 -0.192,0.048 -0.192,0.312 l 0,5.256 c -0.6,-0.744 -1.896,-1.224 -3.072,-1.224 -3.264,0 -5.664,2.35201 -5.664,6.192 0,3.984 2.256,6.24 5.784,6.24 1.224,0 2.448,-0.36 3.072,-1.224 l 0,0.696 c 0,0.288 0.048,0.384 0.264,0.384 1.416,0 1.896,0 3.336,0 0.192,0 0.264,-0.096 0.264,-0.384 m -3.888,-5.64 c 0,1.536 -1.032,2.52 -2.352,2.52 -1.44,0 -2.496,-1.056 -2.496,-2.544 0,-1.536 1.104,-2.496 2.424,-2.496 1.344,0 2.424,0.96 2.424,2.52"
           style="font-size:24px;word-spacing:11.62999153px;fill:#ffffff"
           id="path4295"
           inkscape:connector-curvature="0" />
      </g>
      <rect
         style="color:#000000;fill:none;stroke:#ffffff;stroke-width:3;stroke-miterlimit:4;stroke-dasharray:none;marker:none;visibility:visible;display:inline;overflow:visible;enable-background:accumulate"
         id="rect3423"
         width="362.94733"
         height="42.105263"
         x="35.699276"
         y="376.99377" />
    </g>
  </g>
</svg>
