<svg id="Layer_1" data-name="Layer 1" xmlns="http://www.w3.org/2000/svg" viewBox="0 0 500 405.26"><title>graphic</title><path d="M500,146.4a5.56,5.56,0,0,0-.14-1c0-.11,0-0.23-0.08-0.34a5.59,5.59,0,0,0-.51-1.23h0a5.58,5.58,0,0,0-.81-1.06c-0.08-.08-0.17-0.16-0.26-0.24a5.56,5.56,0,0,0-.82-0.63c-0.06,0-.11-0.1-0.18-0.14L252.82,0.75a5.64,5.64,0,0,0-5.64,0L2.82,141.73c-0.07,0-.12.1-0.18,0.14a5.56,5.56,0,0,0-.8.62c-0.09.08-.18,0.16-0.27,0.25a5.61,5.61,0,0,0-.81,1.05h0A5.6,5.6,0,0,0,.24,145c0,0.11-.05.23-0.08,0.34a5.56,5.56,0,0,0-.14,1c0,0.07,0,.14,0,0.22V259.4a5.64,5.64,0,0,0,2.82,4.88L66,300.71l10.78-6.8L13,257.23A3.9,3.9,0,0,1,11,254V162.89a3.87,3.87,0,0,1,5.78-3.26L242.23,289.77A3.66,3.66,0,0,1,244,293V384.1a3.63,3.63,0,0,1-5.46,3.26L90.16,301.7l-11.24,6.51,168.24,97c0.07,0,.15,0,0.22.08a5.62,5.62,0,0,0,1,.39l0.34,0.11a5.17,5.17,0,0,0,2.65,0l0.34-.11a5.56,5.56,0,0,0,1-.39c0.07,0,.14,0,0.2-0.08l244.36-141A5.64,5.64,0,0,0,500,259.4V146.62C500,146.54,500,146.47,500,146.4ZM251.88,280a3.76,3.76,0,0,1-3.76,0L26.73,152.27a6.53,6.53,0,0,1,0-11.31L246.74,14a6.53,6.53,0,0,1,6.53,0L473.27,141a6.53,6.53,0,0,1,0,11.31ZM489,254a3.9,3.9,0,0,1-2,3.26L261.53,387.36A3.68,3.68,0,0,1,256,384.1V293a3.6,3.6,0,0,1,1.7-3.26L483.31,159.63a3.8,3.8,0,0,1,5.69,3.26V254Zm-371.79-6.45L100,258.22v20.34L0,336.29v4.6l111.35-64.29-2-3.46L104,276.26V262.82l23,13.6v17.08L117.55,288l4.52-2.57-1.94-3.46L0,351.29v4.62l113.68-65.63,16.09,9.19L147,288.77V264.64Zm12,25.41-23.4-13.66,11.28-7.08,23.65,13.65ZM143,286.55l-12,7.16V276.38l12-7v17.19Z"/></svg>