<svg id="Layer_1" data-name="Layer 1" xmlns="http://www.w3.org/2000/svg" viewBox="0 0 500 405.26"><title>graphic</title><path d="M147,264.64v26.49l-32-18.24V246.39Zm-17.75,32.5,15.41-31.34M63.93,249.17l9.92,10.26-1.34-14Zm40.54,91.4L97,328.4l-1.73,14Zm29.73-39.18-13.87,3.35,12.75,5.94ZM91.8,245.25L91,259.5,100.38,249ZM500,146.62V259.4a5.64,5.64,0,0,1-2.82,4.88l-244.36,141c-0.06,0-.14,0-0.2.08a5.56,5.56,0,0,1-1,.39l-0.34.11a5.17,5.17,0,0,1-2.65,0l-0.34-.11a5.62,5.62,0,0,1-1-.39c-0.07,0-.15,0-0.22-0.08L94.05,316.94l10.39-7,134.11,77.42A3.63,3.63,0,0,0,244,384.1V293a3.66,3.66,0,0,0-1.77-3.26L16.78,159.63A3.87,3.87,0,0,0,11,162.89V254a3.9,3.9,0,0,0,2,3.26l51,29.33v13L2.82,264.28A5.64,5.64,0,0,1,0,259.4V146.62c0-.07,0-0.14,0-0.22a5.56,5.56,0,0,1,.14-1c0-.12,0-0.23.08-0.34a5.6,5.6,0,0,1,.51-1.23h0a5.61,5.61,0,0,1,.81-1.05c0.08-.09.18-0.16,0.27-0.25a5.56,5.56,0,0,1,.8-0.62c0.07,0,.11-0.1.18-0.14l244.36-141a5.64,5.64,0,0,1,5.64,0l244.36,141c0.07,0,.11.1,0.18,0.14a5.56,5.56,0,0,1,.82.63c0.09,0.08.18,0.15,0.26,0.24a5.58,5.58,0,0,1,.81,1.06h0a5.6,5.6,0,0,1,.51,1.23c0,0.11.05,0.23,0.08,0.34a5.55,5.55,0,0,1,.14,1C500,146.47,500,146.54,500,146.62Zm-26.73,5.66a6.53,6.53,0,0,0,0-11.31L253.26,14a6.53,6.53,0,0,0-6.53,0L26.73,141a6.53,6.53,0,0,0,0,11.31L248.12,280a3.76,3.76,0,0,0,3.76,0ZM489,162.89a3.8,3.8,0,0,0-5.69-3.26L257.7,289.77A3.6,3.6,0,0,0,256,293V384.1a3.68,3.68,0,0,0,5.53,3.26L487,257.23a3.9,3.9,0,0,0,2-3.26V162.89ZM114,282.11v24.12L91.1,321.08l-15.64-9.17L0,356V351.4l81.85-47.86,2,3.45-4.43,2.6L89,315.09V298l-23-13.6V297.9l5.23-3.15,1.86,3.45L0,341v-4.57l62-36.2v-20.4L84.74,265Zm-5.38,1.23L84.94,269.67,67.51,280.85l23.42,13.67ZM110,286.9L93,298v17.31L110,304V286.9Z"/></svg>