<?xml version="1.0" encoding="utf-8"?>
<!-- Generator: Adobe Illustrator 19.0.0, SVG Export Plug-In . SVG Version: 6.00 Build 0)  -->
<svg version="1.1" id="Layer_1" xmlns="http://www.w3.org/2000/svg" xmlns:xlink="http://www.w3.org/1999/xlink" x="0px" y="0px"
	 viewBox="0 0 172.8 119.1" enable-background="new 0 0 172.8 119.1" xml:space="preserve">
<g>
	<g>
		<path fill="#EE2F4A" d="M172.8,119.1H0L86.4,0L172.8,119.1z M14.3,111.8h144.2L86.4,12.4L14.3,111.8z"/>
	</g>
	<path fill="#EE2F4A" d="M84.5,69.1c0.3-0.6,0.3-0.7-0.2-0.7h-5.8c-0.4,0-0.6,0.1-0.7,0.4c-1.1,3.1-5.2,13.6-5.2,13.6
		S68,71.8,66.8,68.7c-0.1-0.3-0.3-0.3-0.7-0.3h-6.4c-0.5,0-0.5,0.1-0.2,0.7c4.6,9.9,8,16.7,12.3,25c0.1,0.3,0.3,0.5,0.5,0.5
		c0.2,0,0.4-0.2,0.6-0.5C77.5,84.2,79.7,79.4,84.5,69.1L84.5,69.1z M112.8,92.8c-2.2-3.5-4.3-7.3-5.3-8.8c2.3-1.1,3.5-3.5,3.5-7
		c0-4.6-3.1-8.6-8.8-8.6H90.6c-0.1,0-0.3,0-0.3,0.3c0,9,0,15.1,0,24.7c0,0.4,0,0.3,0.3,0.3c2.2,0,3.7,0,6.1,0c0.3,0,0.3,0,0.3-0.3
		c0-2.9,0-7.1,0-7.1l4.3-0.1c0,0,2.7,4.3,4,6.7c0.3,0.7,0.5,0.8,0.8,0.8h6.6C113.2,93.8,113.3,93.6,112.8,92.8L112.8,92.8z
		 M103.9,77.5c0,2.2-1.1,3.7-3.1,3.7L97,81.4V74h3.7C102.9,74,103.9,75.5,103.9,77.5L103.9,77.5z"/>
</g>
</svg>
