<svg version="1.1" id="Layer_1" xmlns="http://www.w3.org/2000/svg" xmlns:xlink="http://www.w3.org/1999/xlink" x="0px" y="0px"
	 viewBox="0 0 160.6 48.8" style="enable-background:new 0 0 160.6 48.8;" xml:space="preserve">
<style type="text/css">
	.st0{fill:#FEF1DF;}
</style>
<g>
	<path class="st0" d="M15.3,47.7c-1.5-2.4-2.9-5-3.6-6c1.6-0.7,2.4-2.4,2.4-4.7c0-3.1-2.1-5.8-6-5.8H0.2c-0.1,0-0.2,0-0.2,0.2
		c0,6.1,0,10.2,0,16.8c0,0.3,0,0.2,0.2,0.2c1.5,0,2.5,0,4.2,0c0.2,0,0.2,0,0.2-0.2c0-2,0-4.8,0-4.8l2.9-0.1c0,0,1.9,2.9,2.7,4.6
		c0.2,0.5,0.3,0.5,0.5,0.5h4.5C15.5,48.4,15.6,48.2,15.3,47.7L15.3,47.7z M9.3,37.3c0,1.5-0.8,2.5-2.1,2.5l-2.5,0.1v-5h2.5
		C8.6,34.9,9.3,36,9.3,37.3L9.3,37.3z M35.3,48c0-1,0-2,0-3.3c0-0.3,0-0.3-0.3-0.3l-7.5,0.1v-3h7.1c0.2,0,0.3-0.1,0.3-0.4
		c0-1,0-1.9,0-3.1c0-0.3,0-0.4-0.3-0.4h-7.1v-2.9l7.3,0.1c0.2,0,0.3-0.1,0.3-0.4c0-1.1,0-1.8,0-3.1c0-0.3,0-0.3-0.3-0.3H23.3
		c-0.3,0-0.2,0-0.2,0.3c0,4.9,0,12.2,0,16.6c0,0.3,0,0.4,0.3,0.4H35C35.2,48.4,35.3,48.3,35.3,48L35.3,48z M57.8,37.8
		c0-3.9-2.3-6.6-6.1-6.6h-7.6c-0.1,0-0.2,0-0.2,0.2c0,6.1,0,10.2,0,16.8c0,0.3,0,0.2,0.2,0.2c1.5,0,2.5,0,4.1,0c0.2,0,0.2,0,0.2-0.2
		c0-2,0-4.1,0-4.1s2.9,0,3.6-0.1C55.3,43.6,57.8,41.9,57.8,37.8L57.8,37.8z M53.1,37.6c0,1.4-0.7,2.6-2.5,2.6l-2.1,0.1v-5.4h2.1
		C52.1,34.9,53.1,35.9,53.1,37.6L53.1,37.6z M79.8,42.1V31.3c0-0.2,0-0.2-0.1-0.2c-1.4,0-3,0-4.2,0c-0.2,0-0.2,0-0.2,0.2v11.3
		c0,1.7-1.4,2.4-2.7,2.4c-1.2,0-2.7-0.7-2.7-2.4V31.3c0-0.2,0-0.2-0.2-0.2c-1.2,0-2.9,0-4.3,0c-0.1,0-0.1,0-0.1,0.2v10.6
		c0,4.2,2.3,6.9,7.2,6.9C77.7,48.8,79.8,46.2,79.8,42.1L79.8,42.1z M103.7,43.7c0-2-1.3-4-3.5-4.2c2-0.6,3.1-2,3.1-3.8
		c0-2.8-1.9-4.5-5-4.5c-3.3,0-6.1,0-8.9,0c-0.2,0-0.3,0.1-0.3,0.3c0,6.4,0,10.2,0,16.6c0,0.3,0,0.4,0.2,0.4c3.7,0,6,0,9.6,0
		C101.8,48.4,103.7,46.5,103.7,43.7L103.7,43.7z M98.6,36.3c0,1-0.6,1.6-1.6,1.6h-3.4v-3.3h3.4C98,34.7,98.6,35.3,98.6,36.3
		L98.6,36.3z M98.9,43c0,1.2-0.7,1.9-1.8,1.9h-3.7v-3.7h3.7C98.2,41.1,98.9,41.9,98.9,43L98.9,43z M123.2,48.2c0-2,0-2.7,0-3.7
		c0-0.2,0-0.3-0.2-0.3l-6.4,0.1c0,0,0-10.3,0-13c0-0.2,0-0.2-0.2-0.2c-1.6,0-2.6,0-4.1,0c-0.2,0-0.2,0-0.2,0.2c0,6.1,0,10.2,0,16.8
		c0,0.3,0,0.2,0.2,0.2c1.5,0,9.2,0,10.8,0C123.2,48.4,123.2,48.4,123.2,48.2L123.2,48.2z M135.3,48.2c0-4,0-12.8,0-16.8
		c0-0.2,0-0.2-0.3-0.2c-1.7,0-2.6,0-4.2,0c-0.2,0-0.2,0-0.2,0.2c0,6.1,0,10.2,0,16.8c0,0.3,0,0.2,0.2,0.2c1.6,0,2.5,0,4.2,0
		C135.2,48.4,135.3,48.4,135.3,48.2L135.3,48.2z M160.6,43.6c0.1-0.2,0-0.3-0.2-0.3l-3.8-1c-0.2-0.1-0.2,0-0.3,0.2
		c-0.6,1.3-1.8,2.1-3.6,2.1c-2.1,0-4.2-1.5-4.2-4.6c0-2.7,1.6-4.7,4.2-4.7c1.8,0,3,0.8,3.7,2.3c0.1,0.1,0.1,0.2,0.2,0.1l3.8-1.5
		c0.1-0.1,0.2-0.2,0.1-0.5c-1.1-2.6-3.7-4.9-7.9-4.9c-5,0-8.9,3.8-8.9,9.1c0,4.9,3.6,9,9,9C156.6,48.8,159.4,46.3,160.6,43.6
		L160.6,43.6z"/>
	<path class="st0" d="M46.7,0.8c0.2-0.4,0.2-0.5-0.2-0.5h-3.9c-0.3,0-0.4,0.1-0.5,0.3c-0.7,2.1-3.5,9.3-3.5,9.3s-3.1-7.2-3.9-9.4
		c-0.1-0.2-0.2-0.2-0.5-0.2h-4.3c-0.3,0-0.3,0.1-0.1,0.5c3.1,6.7,5.4,11.3,8.3,17c0.1,0.2,0.2,0.3,0.3,0.3c0.1,0,0.3-0.2,0.4-0.4
		C41.9,11,43.4,7.8,46.7,0.8L46.7,0.8z M70.3,9c0-5-3.9-9-9-9c-5.1,0-9,4-9,9c0,5,3.9,9,9,9C66.4,18,70.3,14,70.3,9L70.3,9z M65.5,9
		c0,2.6-1.6,4.7-4.3,4.7c-2.7,0-4.3-2-4.3-4.7c0-2.6,1.5-4.7,4.3-4.7C63.9,4.3,65.5,6.4,65.5,9L65.5,9z M83.3,17.4
		c0-4,0-12.8,0-16.8c0-0.2,0-0.2-0.3-0.2c-1.7,0-2.6,0-4.2,0c-0.2,0-0.2,0-0.2,0.2c0,6.1,0,10.2,0,16.8c0,0.3,0,0.2,0.2,0.2
		c1.6,0,2.5,0,4.2,0C83.3,17.6,83.3,17.6,83.3,17.4L83.3,17.4z M108.6,12.8c0.1-0.2,0-0.3-0.2-0.3l-3.8-1c-0.2-0.1-0.2,0.1-0.3,0.2
		c-0.6,1.3-1.8,2.1-3.6,2.1c-2.1,0-4.2-1.4-4.2-4.6c0-2.7,1.6-4.7,4.2-4.7c1.8,0,3,0.8,3.7,2.3c0.1,0.1,0.1,0.2,0.2,0.1l3.8-1.5
		c0.1-0.1,0.2-0.2,0.1-0.5c-1.1-2.6-3.7-4.9-7.9-4.9c-5,0-8.9,3.8-8.9,9.1c0,4.9,3.6,9,9,9C104.6,18,107.5,15.5,108.6,12.8
		L108.6,12.8z M128.6,17.2c0-1,0-2,0-3.3c0-0.3,0-0.3-0.3-0.3l-7.5,0.1v-2.9h7.1c0.2,0,0.3-0.1,0.3-0.4c0-1,0-1.9,0-3.1
		c0-0.3,0-0.4-0.3-0.4h-7.1V4.1l7.3,0.1c0.2,0,0.3-0.1,0.3-0.4c0-1.1,0-1.8,0-3.1c0-0.3,0-0.3-0.3-0.3h-11.5c-0.3,0-0.2,0-0.2,0.3
		c0,4.9,0,12.2,0,16.6c0,0.3,0,0.4,0.3,0.4h11.6C128.6,17.6,128.6,17.5,128.6,17.2L128.6,17.2z"/>
</g>
</svg>
