<svg version="1.1" id="Layer_1" xmlns="http://www.w3.org/2000/svg" xmlns:xlink="http://www.w3.org/1999/xlink" x="0px" y="0px"
   viewBox="0 0 172.8 194.7" style="enable-background:new 0 0 172.8 194.7;" xml:space="preserve">
<style type="text/css">
  .st0{fill:#f82847;}
</style>

    <path class="st0" d="M172.8,119.1H0L86.4,0L172.8,119.1z M14.3,111.8h144.2L86.4,12.4L14.3,111.8z"/>
  
  <path class="st0" d="M84.5,69.1c0.3-0.6,0.3-0.7-0.2-0.7h-5.8c-0.4,0-0.6,0.1-0.7,0.4c-1.1,3.1-5.2,13.6-5.2,13.6
    S68,71.8,66.8,68.7c-0.1-0.3-0.3-0.3-0.7-0.3h-6.4c-0.5,0-0.5,0.1-0.2,0.7c4.6,9.9,8,16.7,12.3,25c0.1,0.3,0.3,0.5,0.5,0.5
    c0.2,0,0.4-0.2,0.6-0.5C77.5,84.2,79.7,79.4,84.5,69.1L84.5,69.1z M112.8,92.8c-2.2-3.5-4.3-7.3-5.3-8.8c2.3-1.1,3.5-3.5,3.5-7
    c0-4.6-3.1-8.6-8.8-8.6H90.6c-0.1,0-0.3,0-0.3,0.3c0,9,0,15.1,0,24.7c0,0.4,0,0.3,0.3,0.3c2.2,0,3.7,0,6.1,0c0.3,0,0.3,0,0.3-0.3
    c0-2.9,0-7.1,0-7.1l4.3-0.1c0,0,2.7,4.3,4,6.7c0.3,0.7,0.5,0.8,0.8,0.8h6.6C113.2,93.8,113.3,93.6,112.8,92.8L112.8,92.8z
     M103.9,77.5c0,2.2-1.1,3.7-3.1,3.7L97,81.4V74h3.7C102.9,74,103.9,75.5,103.9,77.5L103.9,77.5z"/>
  <path class="st0" d="M22.2,193.6c-1.5-2.4-2.9-5-3.6-6c1.6-0.7,2.4-2.4,2.4-4.7c0-3.1-2.1-5.8-6-5.8H7.1c-0.1,0-0.2,0-0.2,0.2
    c0,6.1,0,10.2,0,16.8c0,0.3,0,0.2,0.2,0.2c1.5,0,2.5,0,4.2,0c0.2,0,0.2,0,0.2-0.2c0-2,0-4.8,0-4.8l2.9-0.1c0,0,1.9,2.9,2.7,4.6
    c0.2,0.5,0.3,0.5,0.5,0.5h4.5C22.4,194.3,22.5,194.1,22.2,193.6L22.2,193.6z M16.2,183.2c0,1.5-0.8,2.5-2.1,2.5l-2.5,0.1v-5H14
    C15.5,180.8,16.2,181.8,16.2,183.2L16.2,183.2z M42.2,193.9c0-1,0-2,0-3.3c0-0.3,0-0.3-0.3-0.3l-7.5,0.1v-3h7.1
    c0.2,0,0.3-0.1,0.3-0.4c0-1,0-1.9,0-3.1c0-0.3,0-0.4-0.3-0.4h-7.1v-2.9l7.3,0.1c0.2,0,0.3-0.1,0.3-0.4c0-1.1,0-1.8,0-3.1
    c0-0.3,0-0.3-0.3-0.3H30.2c-0.3,0-0.2,0-0.2,0.3c0,4.9,0,12.2,0,16.6c0,0.3,0,0.4,0.3,0.4h11.6C42.1,194.3,42.2,194.2,42.2,193.9
    L42.2,193.9z M64.7,183.6c0-3.9-2.3-6.6-6.1-6.6H51c-0.1,0-0.2,0-0.2,0.2c0,6.1,0,10.2,0,16.8c0,0.3,0,0.2,0.2,0.2
    c1.5,0,2.5,0,4.1,0c0.2,0,0.2,0,0.2-0.2c0-2,0-4.1,0-4.1s2.9,0,3.6-0.1C62.2,189.4,64.7,187.8,64.7,183.6L64.7,183.6z M60,183.5
    c0,1.4-0.7,2.6-2.5,2.6l-2.1,0.1v-5.4h2.1C59,180.8,60,181.8,60,183.5L60,183.5z M86.8,188v-10.8c0-0.2,0-0.2-0.1-0.2
    c-1.4,0-3,0-4.2,0c-0.2,0-0.2,0-0.2,0.2v11.3c0,1.7-1.4,2.4-2.7,2.4c-1.2,0-2.7-0.7-2.7-2.4v-11.3c0-0.2,0-0.2-0.2-0.2
    c-1.2,0-2.9,0-4.3,0c-0.1,0-0.1,0-0.1,0.2v10.6c0,4.2,2.3,6.9,7.2,6.9C84.6,194.7,86.8,192.1,86.8,188L86.8,188z M110.6,189.6
    c0-2-1.3-4-3.5-4.2c2-0.6,3.1-2,3.1-3.8c0-2.8-1.9-4.5-5-4.5c-3.3,0-6.1,0-8.9,0c-0.2,0-0.3,0.1-0.3,0.3c0,6.4,0,10.2,0,16.6
    c0,0.3,0,0.4,0.2,0.4c3.7,0,6,0,9.6,0C108.7,194.3,110.6,192.4,110.6,189.6L110.6,189.6z M105.5,182.2c0,1-0.6,1.6-1.6,1.6h-3.4
    v-3.3h3.4C104.9,180.6,105.5,181.1,105.5,182.2L105.5,182.2z M105.8,188.8c0,1.2-0.7,1.9-1.8,1.9h-3.7V187h3.7
    C105.1,187,105.8,187.7,105.8,188.8L105.8,188.8z M130.1,194c0-2,0-2.7,0-3.7c0-0.2,0-0.3-0.2-0.3l-6.4,0.1c0,0,0-10.3,0-13
    c0-0.2,0-0.2-0.2-0.2c-1.6,0-2.6,0-4.1,0c-0.2,0-0.2,0-0.2,0.2c0,6.1,0,10.2,0,16.8c0,0.3,0,0.2,0.2,0.2c1.5,0,9.2,0,10.8,0
    C130.1,194.3,130.1,194.2,130.1,194L130.1,194z M142.2,194c0-4,0-12.8,0-16.8c0-0.2,0-0.2-0.3-0.2c-1.7,0-2.6,0-4.2,0
    c-0.2,0-0.2,0-0.2,0.2c0,6.1,0,10.2,0,16.8c0,0.3,0,0.2,0.2,0.2c1.6,0,2.5,0,4.2,0C142.1,194.3,142.2,194.2,142.2,194L142.2,194z
     M167.5,189.4c0.1-0.2,0-0.3-0.2-0.3l-3.8-1c-0.2-0.1-0.2,0-0.3,0.2c-0.6,1.3-1.8,2.1-3.6,2.1c-2.1,0-4.2-1.5-4.2-4.6
    c0-2.7,1.6-4.7,4.2-4.7c1.8,0,3,0.8,3.7,2.3c0.1,0.1,0.1,0.2,0.2,0.1l3.8-1.5c0.1-0.1,0.2-0.2,0.1-0.5c-1.1-2.6-3.7-4.9-7.9-4.9
    c-5,0-8.9,3.8-8.9,9.1c0,4.9,3.6,9,9,9C163.5,194.7,166.3,192.2,167.5,189.4L167.5,189.4z"/>
  <path class="st0" d="M53.6,146.7c0.2-0.4,0.2-0.5-0.2-0.5h-3.9c-0.3,0-0.4,0.1-0.5,0.3c-0.7,2.1-3.5,9.3-3.5,9.3s-3.1-7.2-3.9-9.4
    c-0.1-0.2-0.2-0.2-0.5-0.2h-4.3c-0.3,0-0.3,0.1-0.1,0.5c3.1,6.7,5.4,11.3,8.3,17c0.1,0.2,0.2,0.3,0.3,0.3c0.1,0,0.3-0.2,0.4-0.4
    C48.8,156.9,50.3,153.6,53.6,146.7L53.6,146.7z M77.2,154.9c0-5-3.9-9-9-9c-5.1,0-9,4-9,9c0,5,3.9,9,9,9
    C73.3,163.9,77.2,159.9,77.2,154.9L77.2,154.9z M72.4,154.9c0,2.6-1.6,4.7-4.3,4.7c-2.7,0-4.3-2-4.3-4.7c0-2.6,1.5-4.7,4.3-4.7
    C70.8,150.2,72.4,152.3,72.4,154.9L72.4,154.9z M90.2,163.2c0-4,0-12.8,0-16.8c0-0.2,0-0.2-0.3-0.2c-1.7,0-2.6,0-4.2,0
    c-0.2,0-0.2,0-0.2,0.2c0,6.1,0,10.2,0,16.8c0,0.3,0,0.2,0.2,0.2c1.6,0,2.5,0,4.2,0C90.2,163.5,90.2,163.4,90.2,163.2L90.2,163.2z
     M115.5,158.6c0.1-0.2,0-0.3-0.2-0.3l-3.8-1c-0.2-0.1-0.2,0.1-0.3,0.2c-0.6,1.3-1.8,2.1-3.6,2.1c-2.1,0-4.2-1.4-4.2-4.6
    c0-2.7,1.6-4.7,4.2-4.7c1.8,0,3,0.8,3.7,2.3c0.1,0.1,0.1,0.2,0.2,0.1l3.8-1.5c0.1-0.1,0.2-0.2,0.1-0.5c-1.1-2.6-3.7-4.9-7.9-4.9
    c-5,0-8.9,3.8-8.9,9.1c0,4.9,3.6,9,9,9C111.5,163.9,114.4,161.4,115.5,158.6L115.5,158.6z M135.5,163.1c0-1,0-2,0-3.3
    c0-0.3,0-0.3-0.3-0.3l-7.5,0.1v-2.9h7.1c0.2,0,0.3-0.1,0.3-0.4c0-1,0-1.9,0-3.1c0-0.3,0-0.4-0.3-0.4h-7.1v-2.9l7.3,0.1
    c0.2,0,0.3-0.1,0.3-0.4c0-1.1,0-1.8,0-3.1c0-0.3,0-0.3-0.3-0.3h-11.5c-0.3,0-0.2,0-0.2,0.3c0,4.9,0,12.2,0,16.6
    c0,0.3,0,0.4,0.3,0.4h11.6C135.5,163.5,135.5,163.4,135.5,163.1L135.5,163.1z"/>

</svg>