<svg xmlns="http://www.w3.org/2000/svg" viewBox="0 0 172.8 119.1"><path fill="#EE2F4A" d="M172.8 119.1H0L86.4 0l86.4 119.1zm-158.5-7.3h144.2L86.4 12.4l-72.1 99.4z"/><path fill="#EE2F4A" d="M84.5 69.1c.3-.6.3-.7-.2-.7h-5.8c-.4 0-.6.1-.7.4-1.1 3.1-5.2 13.6-5.2 13.6S68 71.8 66.8 68.7c-.1-.3-.3-.3-.7-.3h-6.4c-.5 0-.5.1-.2.7 4.6 9.9 8 16.7 12.3 25 .1.3.3.5.5.5s.4-.2.6-.5c4.6-9.9 6.8-14.7 11.6-25zm28.3 23.7c-2.2-3.5-4.3-7.3-5.3-8.8 2.3-1.1 3.5-3.5 3.5-7 0-4.6-3.1-8.6-8.8-8.6H90.6c-.1 0-.3 0-.3.3v24.7c0 .4 0 .3.3.3h6.1c.3 0 .3 0 .3-.3v-7.1l4.3-.1s2.7 4.3 4 6.7c.3.7.5.8.8.8h6.6c.5.1.6-.1.1-.9zm-8.9-15.3c0 2.2-1.1 3.7-3.1 3.7l-3.8.2V74h3.7c2.2 0 3.2 1.5 3.2 3.5z"/></svg>