<?xml version="1.0" standalone="no"?>
<!DOCTYPE svg PUBLIC "-//W3C//DTD SVG 1.1//EN" "http://www.w3.org/Graphics/SVG/1.1/DTD/svg11.dtd" >
<svg xmlns="http://www.w3.org/2000/svg" xmlns:xlink="http://www.w3.org/1999/xlink" version="1.1">
<metadata>
Created by FontForge 20150318 at Mon Apr 13 08:53:45 2015
 By uniteet7
[c] Copyright 1994, The Font Bureau, Inc. Designed by David Berlow. All Rights Reserved.
</metadata>
<defs>
<font id="Eagle-Book" horiz-adv-x="854" >
  <font-face 
    font-family="Eagle Book"
    font-weight="400"
    font-stretch="normal"
    units-per-em="1000"
    panose-1="2 0 6 3 3 0 0 2 0 4"
    ascent="800"
    descent="-200"
    x-height="505"
    cap-height="678"
    bbox="-120.241 -225 1221 908.639"
    underline-thickness="20"
    underline-position="-113"
    stemh="156"
    stemv="169"
    unicode-range="U+0020-FB02"
  />
<missing-glyph horiz-adv-x="500" 
 />
    <glyph glyph-name="fi" unicode="fi" horiz-adv-x="616" 
d="M556 573c0 -9 -2 -11 -9 -11h-153c-7 0 -8 7 -8 13v104c0 6 0 13 7 13h153c8 0 10 -1 10 -13v-106zM351 628c-9 -12 -31 -47 -37 -57c-2 -5 -8 -8 -11 -5c-8 15 -22 23 -40 23c-20 0 -37 -15 -37 -42v-36s1 -6 5 -6h74c9 0 9 -2 9 -8v-104c0 -11 -2 -16 -11 -16h-67v-366
c0 -11 -2 -11 -9 -11h-154c-6 0 -7 7 -7 13v365h-40c-6 0 -10 0 -10 11v104c0 5 1 12 8 12h42v53c0 88 42 147 143 147c81 0 113 -29 139 -57c7 -7 8 -13 3 -20zM556 11c0 -9 -2 -11 -9 -11h-153c-7 0 -8 0 -8 14v479c0 12 0 12 7 12h153c8 0 10 0 10 -12v-482z" />
    <glyph glyph-name="fl" unicode="fl" horiz-adv-x="616" 
d="M351 628c-9 -12 -31 -47 -37 -57c-2 -5 -8 -8 -11 -5c-8 15 -22 23 -40 23c-20 0 -37 -15 -37 -42v-36s1 -6 5 -6h74c9 0 9 -2 9 -8v-104c0 -11 -2 -16 -11 -16h-67v-366c0 -11 -2 -11 -9 -11h-154c-6 0 -7 7 -7 13v365h-40c-6 0 -10 0 -10 11v104c0 5 1 12 8 12h42v53
c0 88 42 147 143 147c81 0 113 -29 139 -57c7 -7 8 -13 3 -20zM556 11c0 -9 -2 -11 -8 -11h-154c-7 0 -8 0 -8 14v665c0 12 0 13 8 13h153c7 0 9 -1 9 -13v-668z" />
    <glyph glyph-name="f_f_l" unicode="ffl" horiz-adv-x="942" 
d="M677 628c-9 -12 -31 -47 -37 -57c-2 -5 -8 -8 -11 -5c-8 15 -22 23 -40 23c-20 0 -37 -15 -37 -42v-36s1 -6 5 -6h74c9 0 9 -2 9 -8v-104c0 -11 -2 -16 -11 -16h-67v-366c0 -11 -2 -11 -9 -11h-154c-6 0 -7 7 -7 13v365h-40c-6 0 -10 0 -10 11v104c0 5 1 12 8 12h42v53
c0 88 42 147 143 147c81 0 113 -29 139 -57c7 -7 8 -13 3 -20zM351 628c-9 -12 -31 -47 -37 -57c-2 -5 -8 -8 -11 -5c-8 15 -22 23 -40 23c-20 0 -37 -15 -37 -42v-36s1 -6 5 -6h74c9 0 9 -2 9 -8v-104c0 -11 -2 -16 -11 -16h-67v-366c0 -11 -2 -11 -9 -11h-154
c-6 0 -7 7 -7 13v365h-40c-6 0 -10 0 -10 11v104c0 5 1 12 8 12h42v53c0 88 42 147 143 147c81 0 113 -29 139 -57c7 -7 8 -13 3 -20zM882 11c0 -9 -2 -11 -8 -11h-154c-7 0 -8 0 -8 14v665c0 12 0 13 8 13h153c7 0 9 -1 9 -13v-668z" />
    <glyph glyph-name="f_f_i" unicode="ffi" horiz-adv-x="942" 
d="M882 573c0 -9 -2 -11 -9 -11h-153c-7 0 -8 7 -8 13v104c0 6 0 13 7 13h153c8 0 10 -1 10 -13v-106zM677 628c-9 -12 -31 -47 -37 -57c-2 -5 -8 -8 -11 -5c-8 15 -22 23 -40 23c-20 0 -37 -15 -37 -42v-36s1 -6 5 -6h74c9 0 9 -2 9 -8v-104c0 -11 -2 -16 -11 -16h-67v-366
c0 -11 -2 -11 -9 -11h-154c-6 0 -7 7 -7 13v365h-40c-6 0 -10 0 -10 11v104c0 5 1 12 8 12h42v53c0 88 42 147 143 147c81 0 113 -29 139 -57c7 -7 8 -13 3 -20zM351 628c-9 -12 -31 -47 -37 -57c-2 -5 -8 -8 -11 -5c-8 15 -22 23 -40 23c-20 0 -37 -15 -37 -42v-36
s1 -6 5 -6h74c9 0 9 -2 9 -8v-104c0 -11 -2 -16 -11 -16h-67v-366c0 -11 -2 -11 -9 -11h-154c-6 0 -7 7 -7 13v365h-40c-6 0 -10 0 -10 11v104c0 5 1 12 8 12h42v53c0 88 42 147 143 147c81 0 113 -29 139 -57c7 -7 8 -13 3 -20zM882 11c0 -9 -2 -11 -9 -11h-153
c-7 0 -8 0 -8 14v479c0 12 0 12 7 12h153c8 0 10 0 10 -12v-482z" />
    <glyph glyph-name="f_f" unicode="ff" horiz-adv-x="652" 
d="M677 628c-9 -12 -31 -47 -37 -57c-2 -5 -8 -8 -11 -5c-8 15 -22 23 -40 23c-20 0 -37 -15 -37 -42v-36s1 -6 5 -6h74c9 0 9 -2 9 -8v-104c0 -11 -2 -16 -11 -16h-67v-366c0 -11 -2 -11 -9 -11h-154c-6 0 -7 7 -7 13v365h-40c-6 0 -10 0 -10 11v104c0 5 1 12 8 12h42v53
c0 88 42 147 143 147c81 0 113 -29 139 -57c7 -7 8 -13 3 -20zM351 628c-9 -12 -31 -47 -37 -57c-2 -5 -8 -8 -11 -5c-8 15 -22 23 -40 23c-20 0 -37 -15 -37 -42v-36s1 -6 5 -6h74c9 0 9 -2 9 -8v-104c0 -11 -2 -16 -11 -16h-67v-366c0 -11 -2 -11 -9 -11h-154
c-6 0 -7 7 -7 13v365h-40c-6 0 -10 0 -10 11v104c0 5 1 12 8 12h42v53c0 88 42 147 143 147c81 0 113 -29 139 -57c7 -7 8 -13 3 -20z" />
    <glyph glyph-name=".notdef" horiz-adv-x="500" 
 />
    <glyph glyph-name="NUL" horiz-adv-x="0" 
 />
    <glyph glyph-name="Eth" unicode="&#xd0;" horiz-adv-x="706" 
d="M668 339c0 -217 -132 -339 -330 -339h-255c-7 0 -8 1 -8 9v262h-40c-7 0 -9 4 -9 10v112c0 6 2 9 9 9h40v266c0 8 1 10 8 10h278c192 0 307 -119 307 -339zM481 342c0 109 -49 194 -136 194h-94v-134h134c7 0 9 -3 9 -10v-112c0 -6 -2 -9 -9 -9h-134v-127h92
c100 0 138 81 138 198z" />
    <glyph glyph-name="eth" unicode="&#xf0;" horiz-adv-x="595" 
d="M564 241c0 -159 -111 -258 -267 -258c-154 0 -267 98 -267 258c0 126 74 221 189 249c-36 29 -72 57 -107 84c-6 4 -4 9 0 13c28 28 70 77 100 108c4 4 8 5 13 0c40 -37 83 -79 126 -122c50 42 101 85 121 102c5 4 9 3 13 -2c25 -30 32 -38 60 -71c4 -5 4 -8 -1 -13
c-11 -9 -62 -54 -115 -97c27 -25 52 -51 75 -76c33 -36 60 -106 60 -175zM398 246c0 66 -45 103 -100 103c-56 0 -102 -39 -102 -103c0 -63 47 -105 103 -105c55 0 99 40 99 105z" />
    <glyph glyph-name="Lslash" unicode="&#x141;" horiz-adv-x="521" 
d="M515 9c0 -8 0 -9 -8 -9h-423c-9 0 -9 0 -9 9v170c-10 -6 -19 -11 -26 -15c-8 -4 -15 -5 -18 1c-12 23 -27 49 -40 72c-3 4 -4 12 7 19c24 14 50 29 77 43v370c0 10 0 9 9 9h162c8 0 9 -1 9 -9v-266c39 23 78 45 114 66c9 5 16 6 21 -1c12 -20 28 -52 40 -73
c4 -7 1 -11 -11 -18c-27 -15 -93 -53 -164 -94v-124l251 5c8 0 9 -2 9 -10v-145z" />
    <glyph glyph-name="lslash" unicode="&#x142;" horiz-adv-x="290" 
d="M306 345c4 -7 1 -11 -11 -18c-8 -5 -40 -21 -65 -35v-281c0 -9 -2 -11 -8 -11h-154c-7 0 -8 0 -8 14v186c-4 -3 -11 -6 -11 -6c-8 -4 -15 -5 -18 1c-13 25 -24 46 -40 72c-3 5 -4 12 7 19c8 4 32 17 62 33v360c0 12 0 13 8 13h153c7 0 9 -1 9 -13v-268c5 3 11 6 15 8
c10 5 16 6 21 -1c12 -20 28 -52 40 -73z" />
    <glyph glyph-name="Scaron" unicode="&#x160;" horiz-adv-x="609" 
d="M575 205c0 -154 -127 -222 -284 -222c-136 0 -221 55 -255 153c-4 11 -3 16 4 19l123 50c9 3 9 3 11 -5c12 -37 58 -81 121 -81c69 0 101 21 101 67c0 41 -29 67 -121 78c-7 1 -17 2 -24 3c-121 12 -205 80 -205 204c0 130 89 221 266 221c133 0 215 -63 241 -147
c3 -11 -1 -15 -7 -17l-117 -47c-7 -3 -10 -1 -12 4c-14 40 -60 79 -112 79c-70 0 -92 -26 -92 -63c0 -46 37 -65 127 -80c9 -1 20 -3 33 -5c128 -18 202 -86 202 -211zM470 870c0 -1 -3 -4 -7 -7c-11 -12 -149 -144 -157 -151c-4 -3 -5 -6 -9 -6s-6 3 -10 7
c-10 8 -143 136 -154 148c-4 4 -8 7 -8 9c0 3 4 4 10 4h98c4 0 10 -1 15 -5c19 -11 50 -46 50 -46s30 35 49 46c3 3 8 5 13 5h103c5 0 7 -1 7 -4z" />
    <glyph glyph-name="scaron" unicode="&#x161;" horiz-adv-x="508" 
d="M479 168c0 -112 -84 -186 -230 -186c-127 0 -187 46 -219 117c-2 7 -2 13 3 15l109 42c4 1 8 -1 9 -4c11 -30 44 -54 81 -54c45 0 65 18 65 40c0 27 -21 41 -98 60c-95 24 -161 58 -161 158c0 105 86 164 225 164c111 0 177 -42 197 -108c1 -6 1 -12 -5 -14l-111 -39
c-6 -3 -7 -3 -11 3c-17 27 -43 45 -76 45c-39 0 -56 -13 -56 -35c0 -20 23 -30 109 -47c100 -21 169 -63 169 -157zM424 700c0 -1 -3 -4 -7 -7c-11 -12 -149 -144 -157 -151c-4 -3 -5 -6 -9 -6s-6 3 -10 7c-10 8 -143 136 -154 148c-4 4 -8 7 -8 9c0 3 4 4 10 4h98
c4 0 10 -1 15 -5c19 -11 50 -46 50 -46s30 35 49 46c3 3 8 5 13 5h103c5 0 7 -1 7 -4z" />
    <glyph glyph-name="Yacute" unicode="&#xdd;" horiz-adv-x="644" 
d="M640 653c-88 -195 -215 -437 -215 -437v-202c0 -13 0 -14 -11 -14h-166c-6 0 -7 1 -7 14v197s-144 259 -241 454c-7 13 -6 13 6 13h169c16 0 20 -4 26 -16c41 -83 132 -290 132 -290s93 205 125 288c6 15 9 18 21 18h147c21 0 24 -3 14 -25zM497 802c4 -2 -6 -19 -6 -19
c-72 -36 -107 -56 -180 -91c-11 -5 -44 8 -43 12c40 69 59 102 98 172c3 5 5 4 7 2c46 -29 87 -52 124 -76z" />
    <glyph glyph-name="yacute" unicode="&#xfd;" horiz-adv-x="520" 
d="M520 491c-71 -198 -170 -459 -248 -650c-2 -5 -3 -7 -11 -7h-145c-11 0 -13 1 -9 12c22 61 82 205 82 205s-128 300 -189 440c-6 14 1 14 10 14h157c10 0 10 -3 13 -11c20 -52 95 -244 95 -244s56 191 72 244c2 7 6 11 16 11h150c6 0 10 -6 7 -14zM413 644
c4 -2 -6 -19 -6 -19c-72 -36 -107 -56 -180 -91c-11 -5 -44 8 -43 12c40 69 59 102 98 172c3 5 5 4 7 2c46 -29 87 -52 124 -76z" />
    <glyph glyph-name="Thorn" unicode="&#xde;" horiz-adv-x="647" 
d="M622 338c0 -164 -97 -229 -225 -244c-29 -3 -142 -4 -142 -4v-81c0 -8 -1 -9 -9 -9h-162c-9 0 -9 0 -9 9v660c0 9 3 9 9 9h162c6 0 9 0 9 -9v-71h129c149 1 238 -106 238 -260zM437 344c0 67 -39 105 -100 105h-82v-212l84 3c70 3 98 47 98 104z" />
    <glyph glyph-name="thorn" unicode="&#xfe;" horiz-adv-x="634" 
d="M597 254c0 -181 -105 -269 -246 -263c-50 2 -104 27 -121 59v-203c0 -11 -1 -13 -8 -13h-155c-6 0 -7 0 -7 14v832c0 12 0 12 7 12h154c7 0 8 0 8 -12v-235c17 31 76 69 130 69c123 0 238 -77 238 -260zM431 250c0 65 -47 106 -100 106c-60 0 -101 -44 -101 -106
c0 -68 51 -106 104 -106c51 0 97 41 97 106z" />
    <glyph glyph-name="Zcaron" unicode="&#x17d;" horiz-adv-x="551" 
d="M537 660c-98 -226 -275 -508 -275 -508c38 0 200 1 257 3c8 0 13 -4 13 -11v-133c0 -9 -2 -11 -10 -11h-506c-7 0 -7 13 -4 21c84 181 289 507 289 507c-53 -2 -199 1 -252 -1c-9 0 -9 0 -9 9v129c0 10 1 13 15 13h478c5 0 5 -13 4 -18zM461 856c0 -1 -3 -4 -7 -7
c-11 -12 -149 -144 -157 -151c-4 -3 -5 -6 -9 -6s-6 3 -10 7c-10 8 -143 136 -154 148c-4 4 -8 7 -8 9c0 3 4 4 10 4h98c4 0 10 -1 15 -5c19 -11 50 -46 50 -46s30 35 49 46c3 3 8 5 13 5h103c5 0 7 -1 7 -4z" />
    <glyph glyph-name="zcaron" unicode="&#x17e;" horiz-adv-x="456" 
d="M451 488c-66 -111 -212 -357 -212 -357s127 3 188 3c13 0 14 -2 14 -11v-114c0 -7 -1 -9 -14 -9h-418c-12 0 -14 5 -8 16c86 158 204 366 204 366s-113 -3 -162 -4c-10 0 -13 2 -13 9v108c0 7 3 10 9 10h406c8 0 15 -2 6 -17zM407 698c0 -1 -3 -4 -7 -7
c-11 -12 -149 -144 -157 -151c-4 -3 -5 -6 -9 -6s-6 3 -10 7c-10 8 -143 136 -154 148c-4 4 -8 7 -8 9c0 3 4 4 10 4h98c4 0 10 -1 15 -5c19 -11 50 -46 50 -46s30 35 49 46c3 3 8 5 13 5h103c5 0 7 -1 7 -4z" />
    <glyph glyph-name="onehalf" unicode="&#xbd;" 
d="M793 300c0 -205 -168 -373 -373 -373s-373 168 -373 373s168 373 373 373s373 -168 373 -373zM693 491l-48 -29l-9 78l-65 -109l-127 53l23 54l40 40l-103 33l-106 -73l82 -13l2 -49l-107 -51l-100 97l9 -104l-48 33l73 -189l193 38l-127 -224l21 -51l48 24l67 220
l-26 -218l46 -36l36 41l-25 215l63 -209l57 -9l16 43l-129 206l193 -22zM478 573l-32 -35l-35 -68l-13 48l12 17l-68 11l26 13l17 -5l-1 19l28 19zM658 436l-30 -128l-35 38l-38 -26l-28 30l-31 -20l-45 40l-35 -47l-52 44l-22 -53l-37 28l-12 -35l-38 29l-34 -39l-38 91
l33 -14l11 58l38 -48l128 53l21 -52l16 62l148 -56l47 59l8 -40zM559 94l-32 -18l-30 100zM448 53l-40 1l18 142zM353 160l-28 -107l-29 17z" />
    <glyph glyph-name="onequarter" unicode="&#xbc;" 
d="M793 300c0 -205 -168 -373 -373 -373s-373 168 -373 373s168 373 373 373s373 -168 373 -373zM693 491l-48 -29l-9 78l-65 -109l-127 53l23 54l40 40l-103 33l-106 -73l82 -13l2 -49l-107 -51l-100 97l9 -104l-48 33l73 -189l193 38l-127 -224l21 -51l48 24l67 220
l-26 -218l46 -36l36 41l-25 215l63 -209l57 -9l16 43l-129 206l193 -22zM478 573l-32 -35l-35 -68l-13 48l12 17l-68 11l26 13l17 -5l-1 19l28 19zM658 436l-30 -128l-35 38l-38 -26l-28 30l-31 -20l-45 40l-35 -47l-52 44l-22 -53l-37 28l-12 -35l-38 29l-34 -39l-38 91
l33 -14l11 58l38 -48l128 53l21 -52l16 62l148 -56l47 59l8 -40zM559 94l-32 -18l-30 100zM448 53l-40 1l18 142zM353 160l-28 -107l-29 17z" />
    <glyph glyph-name="onesuperior" unicode="&#xb9;" 
d="M793 300c0 -205 -168 -373 -373 -373s-373 168 -373 373s168 373 373 373s373 -168 373 -373zM693 491l-48 -29l-9 78l-65 -109l-127 53l23 54l40 40l-103 33l-106 -73l82 -13l2 -49l-107 -51l-100 97l9 -104l-48 33l73 -189l193 38l-127 -224l21 -51l48 24l67 220
l-26 -218l46 -36l36 41l-25 215l63 -209l57 -9l16 43l-129 206l193 -22zM478 573l-32 -35l-35 -68l-13 48l12 17l-68 11l26 13l17 -5l-1 19l28 19zM658 436l-30 -128l-35 38l-38 -26l-28 30l-31 -20l-45 40l-35 -47l-52 44l-22 -53l-37 28l-12 -35l-38 29l-34 -39l-38 91
l33 -14l11 58l38 -48l128 53l21 -52l16 62l148 -56l47 59l8 -40zM559 94l-32 -18l-30 100zM448 53l-40 1l18 142zM353 160l-28 -107l-29 17z" />
    <glyph glyph-name="threequarters" unicode="&#xbe;" 
d="M793 300c0 -205 -168 -373 -373 -373s-373 168 -373 373s168 373 373 373s373 -168 373 -373zM693 491l-48 -29l-9 78l-65 -109l-127 53l23 54l40 40l-103 33l-106 -73l82 -13l2 -49l-107 -51l-100 97l9 -104l-48 33l73 -189l193 38l-127 -224l21 -51l48 24l67 220
l-26 -218l46 -36l36 41l-25 215l63 -209l57 -9l16 43l-129 206l193 -22zM478 573l-32 -35l-35 -68l-13 48l12 17l-68 11l26 13l17 -5l-1 19l28 19zM658 436l-30 -128l-35 38l-38 -26l-28 30l-31 -20l-45 40l-35 -47l-52 44l-22 -53l-37 28l-12 -35l-38 29l-34 -39l-38 91
l33 -14l11 58l38 -48l128 53l21 -52l16 62l148 -56l47 59l8 -40zM559 94l-32 -18l-30 100zM448 53l-40 1l18 142zM353 160l-28 -107l-29 17z" />
    <glyph glyph-name="threesuperior" unicode="&#xb3;" 
d="M793 300c0 -205 -168 -373 -373 -373s-373 168 -373 373s168 373 373 373s373 -168 373 -373zM693 491l-48 -29l-9 78l-65 -109l-127 53l23 54l40 40l-103 33l-106 -73l82 -13l2 -49l-107 -51l-100 97l9 -104l-48 33l73 -189l193 38l-127 -224l21 -51l48 24l67 220
l-26 -218l46 -36l36 41l-25 215l63 -209l57 -9l16 43l-129 206l193 -22zM478 573l-32 -35l-35 -68l-13 48l12 17l-68 11l26 13l17 -5l-1 19l28 19zM658 436l-30 -128l-35 38l-38 -26l-28 30l-31 -20l-45 40l-35 -47l-52 44l-22 -53l-37 28l-12 -35l-38 29l-34 -39l-38 91
l33 -14l11 58l38 -48l128 53l21 -52l16 62l148 -56l47 59l8 -40zM559 94l-32 -18l-30 100zM448 53l-40 1l18 142zM353 160l-28 -107l-29 17z" />
    <glyph glyph-name="twosuperior" unicode="&#xb2;" 
d="M793 300c0 -205 -168 -373 -373 -373s-373 168 -373 373s168 373 373 373s373 -168 373 -373zM693 491l-48 -29l-9 78l-65 -109l-127 53l23 54l40 40l-103 33l-106 -73l82 -13l2 -49l-107 -51l-100 97l9 -104l-48 33l73 -189l193 38l-127 -224l21 -51l48 24l67 220
l-26 -218l46 -36l36 41l-25 215l63 -209l57 -9l16 43l-129 206l193 -22zM478 573l-32 -35l-35 -68l-13 48l12 17l-68 11l26 13l17 -5l-1 19l28 19zM658 436l-30 -128l-35 38l-38 -26l-28 30l-31 -20l-45 40l-35 -47l-52 44l-22 -53l-37 28l-12 -35l-38 29l-34 -39l-38 91
l33 -14l11 58l38 -48l128 53l21 -52l16 62l148 -56l47 59l8 -40zM559 94l-32 -18l-30 100zM448 53l-40 1l18 142zM353 160l-28 -107l-29 17z" />
    <glyph glyph-name="brokenbar" unicode="&#xa6;" 
d="M793 300c0 -205 -168 -373 -373 -373s-373 168 -373 373s168 373 373 373s373 -168 373 -373zM693 491l-48 -29l-9 78l-65 -109l-127 53l23 54l40 40l-103 33l-106 -73l82 -13l2 -49l-107 -51l-100 97l9 -104l-48 33l73 -189l193 38l-127 -224l21 -51l48 24l67 220
l-26 -218l46 -36l36 41l-25 215l63 -209l57 -9l16 43l-129 206l193 -22zM478 573l-32 -35l-35 -68l-13 48l12 17l-68 11l26 13l17 -5l-1 19l28 19zM658 436l-30 -128l-35 38l-38 -26l-28 30l-31 -20l-45 40l-35 -47l-52 44l-22 -53l-37 28l-12 -35l-38 29l-34 -39l-38 91
l33 -14l11 58l38 -48l128 53l21 -52l16 62l148 -56l47 59l8 -40zM559 94l-32 -18l-30 100zM448 53l-40 1l18 142zM353 160l-28 -107l-29 17z" />
    <glyph glyph-name="minus" unicode="&#x2212;" 
d="M793 300c0 -205 -168 -373 -373 -373s-373 168 -373 373s168 373 373 373s373 -168 373 -373zM693 491l-48 -29l-9 78l-65 -109l-127 53l23 54l40 40l-103 33l-106 -73l82 -13l2 -49l-107 -51l-100 97l9 -104l-48 33l73 -189l193 38l-127 -224l21 -51l48 24l67 220
l-26 -218l46 -36l36 41l-25 215l63 -209l57 -9l16 43l-129 206l193 -22zM478 573l-32 -35l-35 -68l-13 48l12 17l-68 11l26 13l17 -5l-1 19l28 19zM658 436l-30 -128l-35 38l-38 -26l-28 30l-31 -20l-45 40l-35 -47l-52 44l-22 -53l-37 28l-12 -35l-38 29l-34 -39l-38 91
l33 -14l11 58l38 -48l128 53l21 -52l16 62l148 -56l47 59l8 -40zM559 94l-32 -18l-30 100zM448 53l-40 1l18 142zM353 160l-28 -107l-29 17z" />
    <glyph glyph-name="multiply" unicode="&#xd7;" 
d="M793 300c0 -205 -168 -373 -373 -373s-373 168 -373 373s168 373 373 373s373 -168 373 -373zM693 491l-48 -29l-9 78l-65 -109l-127 53l23 54l40 40l-103 33l-106 -73l82 -13l2 -49l-107 -51l-100 97l9 -104l-48 33l73 -189l193 38l-127 -224l21 -51l48 24l67 220
l-26 -218l46 -36l36 41l-25 215l63 -209l57 -9l16 43l-129 206l193 -22zM478 573l-32 -35l-35 -68l-13 48l12 17l-68 11l26 13l17 -5l-1 19l28 19zM658 436l-30 -128l-35 38l-38 -26l-28 30l-31 -20l-45 40l-35 -47l-52 44l-22 -53l-37 28l-12 -35l-38 29l-34 -39l-38 91
l33 -14l11 58l38 -48l128 53l21 -52l16 62l148 -56l47 59l8 -40zM559 94l-32 -18l-30 100zM448 53l-40 1l18 142zM353 160l-28 -107l-29 17z" />
    <glyph glyph-name="space" unicode=" " horiz-adv-x="214" 
 />
    <glyph glyph-name="space" unicode="&#xa0;" horiz-adv-x="214" 
 />
    <glyph glyph-name="exclam" unicode="!" horiz-adv-x="336" 
d="M259 375c0 -6 -37 -112 -49 -147c-2 -6 -5 -10 -12 -10h-50c-7 0 -13 1 -16 10c-12 35 -48 138 -48 147c-4 120 -4 188 0 298c0 5 3 10 8 10c74 2 81 2 157 0c6 0 7 -3 7 -12c5 -108 5 -176 3 -296zM259 11c0 -7 -5 -11 -10 -11h-151c-6 0 -10 2 -10 11v153
c0 8 4 12 10 12h151c7 0 10 -2 10 -12v-153z" />
    <glyph glyph-name="quotedbl" unicode="&#x22;" horiz-adv-x="383" 
d="M346 681c0 -72 -4 -132 -4 -196c0 -47 -44 -71 -55 -71s-54 24 -54 71c0 64 -4 124 -4 196c0 5 16 9 58 9c46 0 59 -4 59 -9zM165 681c0 -72 -4 -132 -4 -196c0 -47 -43 -71 -55 -71c-10 0 -54 24 -54 71c0 64 -4 124 -4 196c0 5 17 9 58 9c47 0 59 -4 59 -9z" />
    <glyph glyph-name="numbersign" unicode="#" horiz-adv-x="615" 
d="M581 401c0 -4 -7 -10 -10 -10h-104l-12 -89h99c3 0 10 -4 10 -10v-80c0 -5 -5 -13 -11 -13h-116s-19 -122 -29 -188c-1 -7 -8 -12 -17 -12c-20 1 -58 1 -85 1c-4 0 -11 8 -10 12c11 72 29 187 29 187h-86s-21 -128 -30 -188c-1 -7 -8 -11 -17 -11h-85c-3 0 -10 7 -9 12
c12 71 29 187 29 187h-84c-3 0 -10 4 -10 10v84c0 4 6 9 9 9h103l13 89h-99c-3 0 -10 4 -10 11v82c0 4 7 10 12 10h115s20 127 26 175c1 5 6 9 12 9h91c4 0 11 -6 10 -11c-9 -53 -27 -173 -27 -173h85s17 109 28 174c1 4 5 10 10 10h91c4 0 11 -5 10 -9
c-7 -48 -27 -175 -27 -175h87c4 0 9 -3 9 -8v-85zM355 391h-85l-14 -89h87z" />
    <glyph glyph-name="dollar" unicode="$" horiz-adv-x="607" 
d="M588 217c0 -156 -122 -221 -235 -231l-20 -2v-60h-60v60c-32 0 -82 9 -123 26c-54 22 -91 62 -109 99c-4 8 -6 15 3 20c37 23 63 42 102 67c5 3 11 5 20 -6c23 -28 63 -55 107 -64v124l-20 4c-124 21 -208 84 -208 214c0 136 102 204 212 217l16 2v33h60v-33
c34 0 87 -12 132 -39c28 -16 63 -46 76 -69c4 -7 7 -12 -1 -17c-49 -29 -71 -44 -117 -72c-8 -5 -12 0 -16 6c-20 26 -60 44 -74 47v-114l21 -3c140 -19 234 -81 234 -209zM416 179c0 35 -21 47 -74 59l-9 2v-117c51 3 83 18 83 56zM273 438v109c-46 -3 -69 -23 -69 -54
c0 -29 13 -44 59 -53z" />
    <glyph glyph-name="percent" unicode="%" horiz-adv-x="825" 
d="M401 497c0 -102 -76 -181 -187 -181s-191 79 -191 181s79 181 190 181c112 0 188 -79 188 -181zM718 651c-195 -227 -514 -637 -527 -667c-18 1 -70 36 -69 49c187 214 509 621 527 654c22 -10 45 -23 69 -36zM801 174c0 -102 -76 -181 -187 -181s-191 78 -191 181
c0 101 79 181 190 181c112 0 188 -80 188 -181zM281 497c0 36 -29 70 -70 70s-70 -34 -70 -70s27 -69 70 -69c41 0 70 33 70 69zM681 172c0 36 -29 70 -70 70s-70 -34 -70 -70s27 -69 70 -69c41 0 70 33 70 69z" />
    <glyph glyph-name="ampersand" unicode="&#x26;" horiz-adv-x="672" 
d="M637 0h-167c-18 0 -24 10 -51 46c-35 -33 -100 -63 -174 -63c-132 0 -217 69 -217 192c0 129 75 189 172 228c-15 24 -39 76 -39 115c0 117 100 174 205 174c74 0 124 -11 183 -70c7 -7 9 -17 3 -25c-22 -28 -46 -57 -63 -77c-9 -11 -17 -7 -23 1c-19 25 -42 39 -72 39
c-42 0 -55 -23 -55 -45c0 -17 9 -46 50 -113l75 -123s46 84 55 105c3 6 51 -12 98 -37c13 -6 13 -11 6 -26c-20 -46 -58 -116 -88 -154c0 0 42 -59 100 -141c12 -18 14 -26 2 -26zM356 141l-92 155c-45 -17 -73 -56 -73 -101c0 -55 31 -80 82 -80c20 0 69 13 83 26z" />
    <glyph glyph-name="quotesingle" unicode="'" horiz-adv-x="254" 
d="M190 675c0 -75 -2 -135 -3 -202c-1 -48 -49 -74 -60 -74c-10 0 -57 26 -59 74c-4 65 -4 127 -4 202c0 5 20 9 63 9c48 0 63 -4 63 -9z" />
    <glyph glyph-name="parenleft" unicode="(" horiz-adv-x="347" 
d="M323 665c-64 -118 -108 -228 -108 -383c0 -154 52 -272 106 -379c3 -4 -23 -19 -48 -32s-49 -26 -51 -24c-86 114 -170 251 -170 435c0 183 86 336 170 434c2 3 27 -8 52 -20c26 -13 51 -28 49 -31z" />
    <glyph glyph-name="parenright" unicode=")" horiz-adv-x="347" 
d="M294 285c0 -183 -86 -336 -170 -434c-2 -3 -27 8 -52 20c-26 13 -51 28 -49 31c64 118 108 228 108 383c0 154 -52 272 -106 379c-3 4 23 19 48 32s49 26 51 24c86 -114 170 -251 170 -435z" />
    <glyph glyph-name="asterisk" unicode="*" horiz-adv-x="484" 
d="M453 499c2 -5 1 -6 -2 -7l-111 -57l54 -115c3 -8 3 -8 -3 -12c-16 -12 -38 -28 -54 -40c-4 -3 -5 -3 -8 1l-85 91l-84 -91c-3 -3 -3 -5 -9 -1c-15 12 -37 28 -53 40c-7 4 -7 4 -3 12l53 115l-110 57c-5 2 -5 2 -3 7c7 20 16 52 20 68c2 6 2 6 11 5l117 -13l21 120
c0 5 1 6 9 6h63c7 0 8 -1 9 -6l21 -120l117 13c9 1 8 1 10 -5c5 -16 14 -48 20 -68z" />
    <glyph glyph-name="plus" unicode="+" horiz-adv-x="576" 
d="M533 266c0 -8 -5 -11 -14 -11h-156v-171c0 -12 -1 -14 -12 -14h-122c-11 0 -11 -2 -11 14v171h-157c-12 0 -14 0 -14 11v119c0 12 -1 12 14 12h157v170c0 7 0 15 11 15h122c8 0 12 2 12 -15v-170h156c8 0 14 -1 14 -12v-119z" />
    <glyph glyph-name="comma" unicode="," horiz-adv-x="285" 
d="M252 175c0 -7 0 -14 -1 -17c-50 -100 -78 -154 -125 -251c-2 -5 -18 -6 -36 -6c-16 0 -31 3 -31 9v265c0 10 3 10 7 10h183c3 0 3 -5 3 -10z" />
    <glyph glyph-name="hyphen" unicode="-" horiz-adv-x="427" 
d="M382 237c0 -9 -4 -12 -14 -12h-305c-12 0 -14 1 -14 12v129c0 6 4 12 14 12h305c12 0 14 -1 14 -12v-129z" />
    <glyph glyph-name="hyphen" unicode="&#xad;" horiz-adv-x="427" 
d="M382 237c0 -9 -4 -12 -14 -12h-305c-12 0 -14 1 -14 12v129c0 6 4 12 14 12h305c12 0 14 -1 14 -12v-129z" />
    <glyph glyph-name="period" unicode="." horiz-adv-x="303" 
d="M239 22c0 -16 -2 -22 -18 -22h-141c-13 0 -18 5 -18 20v140c0 19 8 25 20 25h141c13 0 16 -3 16 -16v-147z" />
    <glyph glyph-name="slash" unicode="/" horiz-adv-x="414" 
d="M412 655c-75 -190 -226 -477 -317 -692c-5 -13 -7 -11 -13 -9c-15 5 -63 28 -82 41c-6 4 -9 6 -8 8c62 157 238 500 318 694c6 16 7 15 16 12c13 -5 76 -28 86 -35c7 -5 5 -4 0 -19z" />
    <glyph glyph-name="zero" unicode="0" horiz-adv-x="672" 
d="M637 337c0 -218 -103 -354 -299 -354c-192 0 -303 125 -303 356c0 211 103 353 301 353c195 0 301 -133 301 -355zM457 338c0 131 -48 194 -121 194c-77 0 -121 -68 -121 -194c0 -141 55 -196 125 -196s117 55 117 196z" />
    <glyph glyph-name="one" unicode="1" horiz-adv-x="328" 
d="M251 14c0 -14 -1 -14 -18 -14h-140c-12 0 -17 4 -17 14v473c0 31 -5 69 -13 116c-2 9 10 18 25 25c38 18 92 40 145 61c11 4 18 2 18 -14v-661z" />
    <glyph glyph-name="two" unicode="2" horiz-adv-x="584" 
d="M534 14c0 -12 -1 -14 -17 -14h-505c-6 0 -8 4 -8 10s3 14 8 19c49 53 118 130 175 193c82 91 157 154 157 234c0 45 -33 78 -92 78c-55 0 -97 -38 -111 -107c-2 -10 -9 -15 -16 -10c-25 17 -83 60 -110 80c-6 5 -6 9 -3 18c38 102 120 177 263 177
c155 0 254 -72 254 -193c0 -129 -128 -249 -265 -349c48 2 192 9 257 12c8 0 12 -2 12 -11c2 -48 2 -88 1 -137z" />
    <glyph glyph-name="three" unicode="3" horiz-adv-x="584" 
d="M568 196c0 -135 -103 -213 -291 -213c-167 0 -255 86 -264 188c-1 13 2 15 8 17c53 20 95 34 147 52c6 2 9 0 9 -13c2 -66 39 -110 108 -110c56 0 105 27 105 99c0 74 -63 112 -151 113c-1 0 -2 8 -2 15s1 14 3 14c65 7 123 47 123 112c0 45 -28 92 -89 92
c-62 0 -89 -42 -102 -102c-2 -10 -9 -14 -16 -12c-36 13 -85 33 -125 47c-7 2 -10 10 -8 17c41 123 126 180 269 180s245 -66 245 -184c0 -63 -40 -126 -95 -147c60 -11 126 -54 126 -165z" />
    <glyph glyph-name="four" unicode="4" horiz-adv-x="613" 
d="M598 117c0 -8 -4 -10 -10 -10h-86v-101c0 -14 0 -14 -9 -14h-156c-10 0 -10 0 -10 14v101h-308c-6 0 -11 6 -10 14c3 37 3 67 0 108c-1 7 1 12 7 20c127 154 226 274 357 424c5 5 7 10 16 10h104c8 0 7 -1 7 -9v-437h92c5 0 6 -3 6 -11v-109zM330 447l-170 -210h167z" />
    <glyph glyph-name="five" unicode="5" horiz-adv-x="579" 
d="M562 238c0 -165 -122 -255 -276 -255c-144 0 -229 53 -272 162c-3 8 -3 14 9 20c34 17 82 40 124 62c12 6 16 6 20 -5c18 -47 62 -84 110 -84c68 0 105 38 105 99c0 64 -42 110 -126 110c-66 0 -136 -39 -190 -70c-3 -1 -19 16 -19 19c7 90 18 221 28 370c1 9 5 12 13 12
h419c5 0 8 -4 7 -13c-7 -58 -13 -99 -17 -123c-1 -6 -5 -9 -10 -9h-281l-11 -92c21 15 75 35 123 35c143 0 244 -81 244 -238z" />
    <glyph glyph-name="six" unicode="6" horiz-adv-x="622" 
d="M598 233c0 -156 -107 -250 -259 -250c-194 0 -304 117 -304 341c0 234 112 372 313 372c126 0 196 -58 228 -127c5 -10 4 -13 -4 -16l-121 -55c-8 -3 -8 -1 -13 7c-20 30 -58 55 -95 55c-102 0 -141 -69 -133 -165c20 42 92 69 152 69c137 0 236 -67 236 -231zM422 232
c0 71 -45 109 -100 109c-56 0 -102 -40 -102 -109c0 -73 45 -108 101 -108c55 0 101 33 101 108z" />
    <glyph glyph-name="seven" unicode="7" horiz-adv-x="480" 
d="M489 651c-69 -219 -133 -410 -208 -634c-5 -15 -16 -26 -34 -26h-150c-17 0 -19 12 -13 27c83 198 174 389 246 509c-34 -1 -218 -7 -316 -10c-10 0 -13 8 -12 15c2 26 12 106 15 131c2 15 12 15 24 15h447c2 0 1 -6 1 -12s1 -13 0 -15z" />
    <glyph glyph-name="eight" unicode="8" horiz-adv-x="612" 
d="M589 195c0 -129 -106 -212 -281 -212c-180 0 -280 89 -280 212c0 86 47 143 108 166c-46 24 -80 71 -80 144c0 102 75 187 253 187c165 0 251 -80 251 -187c0 -77 -28 -121 -80 -143c63 -15 109 -82 109 -167zM390 493c0 46 -36 77 -81 77c-51 0 -83 -34 -83 -79
c0 -43 31 -74 83 -74c51 0 81 34 81 76zM409 213c0 50 -42 93 -100 93c-60 0 -101 -43 -101 -94c0 -49 36 -96 101 -96c60 0 100 43 100 97z" />
    <glyph glyph-name="nine" unicode="9" horiz-adv-x="622" 
d="M585 351c0 -234 -112 -372 -313 -372c-126 0 -196 58 -228 127c-5 10 -4 13 4 16l132 61c8 3 10 2 13 -7c12 -34 53 -57 90 -57c87 0 136 70 128 166c-20 -42 -92 -75 -152 -75c-147 0 -237 68 -237 240c0 141 114 242 264 242c194 0 299 -117 299 -341zM397 446
c0 70 -45 105 -101 105c-55 0 -101 -34 -101 -105c0 -69 45 -104 100 -104c56 0 102 35 102 104z" />
    <glyph glyph-name="colon" unicode=":" horiz-adv-x="303" 
d="M239 342c0 -16 -5 -22 -19 -22h-140c-13 0 -18 5 -18 20v144c0 13 2 21 14 21h147c13 0 16 -3 16 -16v-147zM239 19c0 -16 -2 -19 -17 -19h-142c-13 0 -18 5 -18 15v148c0 13 2 22 14 22h147c13 0 16 -3 16 -16v-150z" />
    <glyph glyph-name="semicolon" unicode=";" horiz-adv-x="303" 
d="M239 342c0 -16 -6 -22 -27 -22h-132c-13 0 -18 5 -18 20v140c0 13 8 25 20 25h141c13 0 16 -3 16 -16v-147zM255 175c0 -7 0 -14 -1 -17c-50 -100 -78 -154 -125 -251c-2 -5 -18 -6 -36 -6c-16 0 -31 3 -31 9v265c0 10 3 10 7 10h183c3 0 3 -5 3 -10z" />
    <glyph glyph-name="less" unicode="&#x3c;" horiz-adv-x="460" 
d="M387 66c0 -5 -2 -8 -5 -8c-3 -1 -7 1 -13 5c-117 81 -236 168 -326 242c-2 1 -2 7 -2 14c0 6 0 13 2 14c99 73 236 166 326 221c5 3 10 5 13 4s5 -4 5 -10v-121c0 -13 -2 -17 -9 -21c-33 -21 -88 -59 -140 -86c46 -29 109 -74 140 -94c4 -2 9 -8 9 -17v-143z" />
    <glyph glyph-name="equal" unicode="=" horiz-adv-x="504" 
d="M460 356c0 -6 -2 -9 -9 -9h-395c-7 0 -9 4 -9 10v113c0 6 2 9 9 9h395c7 0 9 -4 9 -10v-113zM460 135c0 -6 -2 -9 -9 -9h-395c-7 0 -9 4 -9 10v112c0 6 2 9 9 9h395c7 0 9 -3 9 -10v-112z" />
    <glyph glyph-name="greater" unicode="&#x3e;" horiz-adv-x="460" 
d="M421 319c0 -7 0 -13 -2 -14c-90 -74 -209 -161 -326 -242c-6 -4 -10 -6 -13 -5c-3 0 -5 3 -5 8v143c0 9 5 15 9 17c31 20 94 65 140 94c-52 27 -107 65 -140 86c-7 4 -9 8 -9 21v121c0 6 2 9 5 10s8 -1 13 -4c90 -55 227 -148 326 -221c2 -1 2 -8 2 -14z" />
    <glyph glyph-name="question" unicode="?" horiz-adv-x="501" 
d="M489 494c0 -75 -27 -118 -68 -154c-51 -45 -74 -83 -70 -120c0 -8 -1 -11 -6 -11h-146c-8 0 -6 0 -7 9c-3 50 10 96 52 152c29 38 60 73 60 100c0 43 -22 71 -66 71c-47 0 -79 -29 -89 -89c-1 -6 -6 -11 -13 -7c-18 9 -77 40 -122 63c-3 1 -5 6 -2 13
c38 114 107 174 241 174c132 0 236 -70 236 -201zM357 15c0 -13 -5 -15 -13 -15h-147c-11 0 -17 2 -17 15v137c0 13 5 20 17 20h147c6 0 13 -5 13 -20v-137z" />
    <glyph glyph-name="at" unicode="@" horiz-adv-x="773" 
d="M749 372c-3 -183 -97 -247 -169 -247c-76 0 -108 24 -122 71c-31 -52 -79 -74 -131 -73c-85 2 -147 65 -147 179c0 134 78 228 192 228c46 0 91 -24 107 -40l86 21l-27 -221c-8 -63 -2 -92 48 -92s91 62 91 165c0 166 -112 279 -273 279c-175 0 -306 -141 -306 -325
c0 -207 133 -316 306 -316c65 0 115 27 157 57c11 8 25 -4 35 -20c9 -15 14 -33 3 -41c-47 -34 -115 -64 -191 -64c-217 0 -380 132 -380 384c0 209 153 382 376 382c213 0 346 -140 345 -327zM440 421c-11 11 -25 21 -49 21c-34 0 -92 -31 -92 -143c0 -60 25 -90 65 -90
s55 28 61 84z" />
    <glyph glyph-name="A" unicode="A" horiz-adv-x="705" 
d="M704 14c6 -13 5 -14 -4 -14h-187c-5 0 -9 1 -12 8c-12 27 -27 64 -37 89h-242c-12 -28 -25 -62 -35 -86c-3 -8 -5 -11 -18 -11h-166c-8 0 -9 4 -5 14c104 221 262 540 340 686c1 2 6 2 12 2s11 1 12 -2c91 -178 232 -465 342 -686zM411 227l-71 152l-68 -152h139z" />
    <glyph glyph-name="B" unicode="B" horiz-adv-x="686" 
d="M653 184c0 -110 -72 -184 -191 -184h-378c-8 0 -9 1 -9 14v654c0 8 3 10 12 10h350c123 0 197 -66 197 -178c0 -73 -42 -128 -120 -150c86 -9 139 -87 139 -166zM452 474c0 42 -23 64 -64 64h-134v-128h134c41 0 64 24 64 64zM467 213c0 43 -29 74 -69 74h-144v-147h144
c42 0 69 26 69 73z" />
    <glyph glyph-name="C" unicode="C" horiz-adv-x="720" 
d="M708 190c-45 -109 -157 -207 -313 -207c-213 0 -355 161 -355 353c0 205 154 356 350 356c165 0 266 -89 311 -191c5 -12 1 -16 -3 -18l-149 -58c-6 -2 -7 0 -9 5c-29 60 -77 91 -146 91c-100 0 -164 -79 -164 -186c0 -125 83 -182 167 -182c68 0 116 33 140 84
c3 5 4 9 12 7l150 -41c10 -2 11 -7 9 -13z" />
    <glyph glyph-name="D" unicode="D" horiz-adv-x="706" 
d="M668 339c0 -217 -132 -339 -330 -339h-255c-7 0 -8 1 -8 9v659c0 8 1 10 8 10h278c192 0 307 -119 307 -339zM481 342c0 109 -49 194 -136 194h-94v-392h92c100 0 138 81 138 198z" />
    <glyph glyph-name="E" unicode="E" horiz-adv-x="585" 
d="M554 14c0 -12 -1 -14 -11 -14h-457c-10 0 -11 2 -11 14v654c0 9 -1 10 9 10h452c10 0 11 -1 11 -13v-122c0 -9 -3 -14 -11 -14l-286 3v-113h280c9 0 10 -2 10 -14v-122c0 -12 -1 -14 -10 -14h-280v-116l293 3c11 0 11 0 11 -13v-129z" />
    <glyph glyph-name="F" unicode="F" horiz-adv-x="547" 
d="M530 532c-1 -9 0 -10 -8 -10l-267 2v-136l237 3c9 0 13 -4 13 -12c2 -42 3 -87 0 -135c-1 -9 -5 -11 -14 -11l-236 2v-221c0 -11 -1 -14 -9 -14h-163c-6 0 -8 -1 -8 14v651c0 12 1 13 8 13h439c8 0 7 -2 8 -10c3 -43 4 -97 0 -136z" />
    <glyph glyph-name="G" unicode="G" horiz-adv-x="736" 
d="M703 -13c0 0 0 -4 -9 -4c-4 0 -7 2 -10 3l-111 65c-41 -36 -84 -68 -183 -68c-214 0 -350 144 -350 354c0 212 156 355 355 355c161 0 252 -81 300 -184c4 -9 5 -16 -2 -18l-147 -56c-7 -3 -12 2 -15 8c-22 45 -68 78 -134 78c-109 0 -170 -75 -170 -184
c0 -114 65 -182 167 -182c86 0 131 56 143 127c1 6 4 10 8 10h150c6 0 8 -2 8 -7v-297z" />
    <glyph glyph-name="H" unicode="H" horiz-adv-x="737" 
d="M662 9c0 -10 0 -9 -9 -9h-161c-9 0 -10 1 -10 9v264h-227v-264c0 -8 -1 -9 -8 -9h-163c-9 0 -9 -1 -9 9v660c0 10 0 9 9 9h163c7 0 8 -1 8 -9v-236h227v236c0 8 1 9 10 9h161c9 0 9 1 9 -9v-660z" />
    <glyph glyph-name="I" unicode="I" horiz-adv-x="335" 
d="M260 9c0 -8 -1 -9 -10 -9h-166c-9 0 -9 -1 -9 9v660c0 10 0 9 9 9h166c9 0 10 -1 10 -9v-660z" />
    <glyph glyph-name="J" unicode="J" horiz-adv-x="382" 
d="M307 190c0 -141 -44 -207 -171 -207c-53 0 -92 7 -111 13c-10 2 -11 4 -11 18l7 113c1 9 2 12 20 10c67 -8 86 6 86 59v469c0 14 2 13 11 13h159c9 0 10 0 10 -13v-475z" />
    <glyph glyph-name="K" unicode="K" horiz-adv-x="673" 
d="M663 14c6 -12 2 -14 -7 -14h-181c-8 0 -7 2 -13 12c-31 60 -125 236 -125 236l-82 -116v-123c0 -8 -1 -9 -9 -9h-162c-9 0 -9 -1 -9 9v660c0 10 0 9 9 9h162c8 0 9 -1 9 -9v-300s139 212 194 303c4 5 7 6 12 6h181c10 0 12 -3 6 -12c-67 -91 -199 -275 -199 -275
s150 -267 214 -377z" />
    <glyph glyph-name="L" unicode="L" horiz-adv-x="521" 
d="M515 9c0 -8 0 -9 -8 -9h-423c-9 0 -9 -1 -9 9v660c0 10 0 9 9 9h162c8 0 9 -1 9 -9v-510l251 5c8 0 9 -2 9 -10v-145z" />
    <glyph glyph-name="M" unicode="M" horiz-adv-x="814" 
d="M750 13c0 -8 3 -14 -7 -14h-163c-7 0 -8 3 -8 8l-6 291s-112 -116 -152 -156c-3 -3 -6 -5 -8 -5s-4 2 -7 5c-39 40 -155 157 -155 157l-7 -285c0 -13 -1 -14 -11 -14h-150c-9 0 -9 -3 -9 6c2 214 11 473 20 673c1 7 3 10 6 11c3 0 5 -1 8 -4c87 -86 260 -260 305 -311
c42 50 209 225 303 316c3 3 7 4 10 3c2 -1 4 -4 4 -8c14 -261 20 -432 27 -673z" />
    <glyph glyph-name="N" unicode="N" horiz-adv-x="720" 
d="M645 -5c0 -7 0 -12 -3 -13c-2 -1 -5 0 -9 3c-151 113 -387 330 -387 330v-306c0 -9 0 -9 -9 -9h-151c-7 0 -10 6 -10 10c-5 255 -4 414 0 678c0 5 1 7 3 8c2 2 5 1 8 -1c143 -102 388 -329 388 -329v300c0 11 0 12 8 12h152c10 0 10 -2 10 -12c4 -195 3 -463 0 -671z" />
    <glyph glyph-name="O" unicode="O" horiz-adv-x="790" 
d="M750 337c0 -196 -153 -354 -355 -354s-355 158 -355 354s153 355 355 355s355 -159 355 -355zM563 337c0 103 -62 184 -168 184c-108 0 -168 -81 -168 -184s60 -183 168 -183c106 0 168 80 168 183z" />
    <glyph glyph-name="P" unicode="P" horiz-adv-x="647" 
d="M622 418c0 -164 -97 -229 -225 -244c-29 -3 -142 -4 -142 -4v-161c0 -8 -1 -9 -9 -9h-162c-9 0 -9 -1 -9 9v660c0 10 5 9 9 9h300c149 0 238 -106 238 -260zM437 424c0 67 -39 105 -100 105h-82v-212l84 3c70 3 98 47 98 104z" />
    <glyph glyph-name="Q" unicode="Q" horiz-adv-x="790" 
d="M750 337c0 -102 -43 -195 -113 -259v-147c0 -6 -1 -11 -4 -13c-3 -1 -7 -1 -13 1c-61 23 -110 46 -163 70c-19 -4 -40 -6 -62 -6c-196 0 -355 158 -355 354s159 355 355 355s355 -159 355 -355zM563 337c0 103 -62 184 -168 184c-108 0 -168 -81 -168 -184
s60 -183 168 -183c106 0 168 80 168 183z" />
    <glyph glyph-name="R" unicode="R" horiz-adv-x="693" 
d="M677 27c12 -20 9 -27 -2 -27h-177c-8 0 -12 2 -21 20c-34 65 -107 180 -107 180l-115 -2v-189c0 -8 -1 -9 -8 -9h-164c-8 0 -8 -1 -8 9v660c0 10 5 9 8 9h310c154 0 236 -106 236 -229c0 -92 -32 -157 -93 -186c26 -41 83 -142 141 -236zM439 436c0 53 -27 93 -85 93h-99
v-196l100 3c54 2 84 42 84 100z" />
    <glyph glyph-name="S" unicode="S" horiz-adv-x="609" 
d="M575 205c0 -154 -127 -222 -284 -222c-136 0 -221 55 -255 153c-4 11 -3 16 4 19l123 50c9 3 9 3 11 -5c12 -37 58 -81 121 -81c69 0 101 21 101 67c0 41 -29 67 -121 78c-7 1 -17 2 -24 3c-121 12 -205 80 -205 204c0 130 89 221 266 221c133 0 215 -63 241 -147
c3 -11 -1 -15 -7 -17l-117 -47c-7 -3 -10 -1 -12 4c-14 40 -60 79 -112 79c-70 0 -92 -26 -92 -63c0 -46 37 -65 127 -80c9 -1 20 -3 33 -5c128 -18 202 -86 202 -211z" />
    <glyph glyph-name="T" unicode="T" horiz-adv-x="575" 
d="M559 539c0 -6 -1 -7 -7 -7l-171 2v-525c0 -8 -1 -9 -9 -9h-165c-10 0 -10 -1 -10 9v525l-176 -2c-7 0 -7 1 -7 7v129c0 8 0 10 8 10h529c7 0 8 -2 8 -10v-129z" />
    <glyph glyph-name="U" unicode="U" horiz-adv-x="695" 
d="M630 246c0 -161 -83 -263 -282 -263c-191 0 -283 108 -283 273v416c0 6 0 6 5 6h168c7 0 7 0 7 -8v-445c0 -67 56 -95 105 -95c48 0 105 27 105 95v446c0 6 0 7 6 7h164c5 0 5 0 5 -7v-425z" />
    <glyph glyph-name="V" unicode="V" horiz-adv-x="677" 
d="M671 660c-127 -274 -188 -402 -311 -665c-4 -8 -10 -14 -15 -14s-9 4 -13 12c-113 222 -204 403 -327 667c-8 16 -8 18 5 18h170c9 0 15 -1 18 -8c33 -83 153 -368 153 -368s110 282 139 364c3 9 8 12 20 12h155c13 0 14 -1 6 -18z" />
    <glyph glyph-name="W" unicode="W" horiz-adv-x="845" 
d="M842 665c-111 -285 -168 -424 -262 -671c-2 -6 -7 -8 -12 -8s-10 1 -12 6c-79 179 -136 306 -136 306s-64 -140 -138 -307c-2 -5 -6 -6 -11 -6s-10 1 -12 6c-96 246 -150 380 -254 669c-7 16 -9 18 4 18h154c17 -1 21 -4 26 -18c23 -85 100 -315 100 -315
s106 276 131 330c3 6 7 9 12 9s10 -3 12 -9c23 -57 122 -330 122 -330s77 235 102 323c2 11 2 10 10 10h155c13 0 13 0 9 -13z" />
    <glyph glyph-name="X" unicode="X" horiz-adv-x="616" 
d="M614 19c9 -13 7 -19 -7 -19h-180c-11 0 -19 5 -26 16c-41 65 -110 176 -110 176s-70 -117 -108 -172c-9 -12 -14 -20 -29 -20c-69 0 -76 -1 -152 0c-10 0 -13 8 -8 16c85 128 207 318 207 318s-148 234 -211 331c-3 4 -6 13 5 13h175c10 0 17 -1 28 -18
c32 -50 111 -170 111 -170s85 126 119 179c3 4 12 9 22 9h149c14 0 19 -8 11 -21c-68 -102 -210 -308 -210 -308s144 -224 214 -330z" />
    <glyph glyph-name="Y" unicode="Y" horiz-adv-x="644" 
d="M640 653c-88 -195 -215 -437 -215 -437v-202c0 -13 0 -14 -11 -14h-166c-6 0 -7 1 -7 14v197s-144 259 -241 454c-7 13 -6 13 6 13h169c16 0 20 -4 26 -16c41 -83 132 -290 132 -290s93 205 125 288c6 15 9 18 21 18h147c21 0 24 -3 14 -25z" />
    <glyph glyph-name="Z" unicode="Z" horiz-adv-x="551" 
d="M537 660c-98 -226 -275 -508 -275 -508c38 0 200 1 257 3c8 0 13 -4 13 -11v-133c0 -9 -2 -11 -10 -11h-506c-7 0 -7 13 -4 21c84 181 289 507 289 507c-53 -2 -199 1 -252 -1c-9 0 -9 0 -9 9v129c0 10 1 13 15 13h478c5 0 5 -13 4 -18z" />
    <glyph glyph-name="bracketleft" unicode="[" horiz-adv-x="351" 
d="M336 -142c0 -4 -1 -6 -5 -6h-260c-6 0 -7 2 -7 6v814c0 4 1 6 7 6h260c4 0 5 -2 5 -6v-97c0 -4 -1 -5 -4 -5c-10 0 -109 2 -109 2v-614s99 2 109 2c3 0 4 -1 4 -5v-97z" />
    <glyph glyph-name="backslash" unicode="\" horiz-adv-x="414" 
d="M420 1c2 -4 -3 -6 -12 -11c-23 -13 -64 -33 -78 -38c-6 -2 -7 -3 -13 9c-103 210 -229 505 -317 693c-7 13 -7 13 0 18c10 7 72 30 86 35c7 2 9 3 16 -12c91 -187 243 -541 318 -694z" />
    <glyph glyph-name="bracketright" unicode="]" horiz-adv-x="351" 
d="M299 -143c0 -4 -1 -6 -7 -6h-260c-4 0 -5 2 -5 6v97c0 4 1 5 3 5c11 0 109 -2 109 -2v614s-98 -2 -109 -2c-2 0 -3 1 -3 6v96c0 4 1 6 5 6h260c6 0 7 -2 7 -6v-814z" />
    <glyph glyph-name="asciicircum" unicode="^" horiz-adv-x="430" 
d="M419 496c-1 -4 -5 -5 -12 -5h-116l-78 82l-86 -82h-112c-5 0 -7 2 -8 5s2 7 7 12c16 16 171 191 183 205c6 7 11 11 16 11c4 0 8 -2 13 -8c11 -12 169 -187 184 -204c7 -8 10 -13 9 -16z" />
    <glyph glyph-name="underscore" unicode="_" horiz-adv-x="427" 
d="M445 -205c0 -8 -4 -14 -18 -14h-427c-9 0 -16 4 -16 14v91c0 6 2 15 16 15h427c9 0 18 -5 18 -15v-91z" />
    <glyph glyph-name="grave" unicode="`" horiz-adv-x="500" 
d="M350 552c2 -4 -31 -17 -43 -12c-73 35 -108 55 -179 91c0 0 -11 17 -7 19c37 24 78 47 124 76c3 2 4 3 8 -2c38 -70 57 -103 97 -172z" />
    <glyph glyph-name="a" unicode="a" horiz-adv-x="627" 
d="M567 14c0 -11 -3 -14 -8 -14h-142c-7 0 -10 4 -10 9v63c-17 -52 -80 -79 -141 -79c-134 0 -236 96 -236 260c0 151 106 258 233 258c68 0 120 -40 135 -79v61c0 9 2 12 8 12h154c5 0 7 -4 7 -9v-482zM398 250c0 66 -45 105 -100 105c-63 0 -102 -45 -102 -107
c0 -61 46 -103 102 -103c55 0 100 42 100 105z" />
    <glyph glyph-name="b" unicode="b" horiz-adv-x="637" 
d="M597 253c0 -153 -88 -260 -229 -260c-59 0 -117 23 -145 66l-11 -48c-2 -9 -11 -12 -22 -12h-122c-8 0 -8 1 -8 13v666c0 14 1 14 8 14h149c7 0 8 -2 8 -13v-238c18 41 73 70 136 70c136 0 236 -96 236 -258zM431 250c0 65 -46 105 -101 105c-56 0 -100 -39 -100 -105
c0 -63 44 -105 100 -105c55 0 101 42 101 105z" />
    <glyph glyph-name="c" unicode="c" horiz-adv-x="544" 
d="M533 128c-44 -91 -119 -145 -235 -145c-157 0 -268 102 -268 264c0 154 106 273 266 273c110 0 199 -50 236 -149c3 -8 1 -12 -6 -15l-131 -55c-4 -1 -6 1 -8 6c-13 29 -51 48 -88 48c-66 0 -103 -45 -103 -106c0 -63 45 -104 104 -104c41 0 74 23 86 49c3 7 6 9 15 5
l126 -54c7 -4 9 -10 6 -17z" />
    <glyph glyph-name="d" unicode="d" horiz-adv-x="620" 
d="M560 15c0 -12 -3 -16 -11 -16h-139c-9 0 -11 4 -11 16v29c-26 -36 -77 -51 -128 -51c-147 0 -241 94 -241 260c0 160 100 258 236 258c49 0 103 -20 128 -51v219c0 11 1 13 8 13h150c7 0 8 0 8 -14v-663zM398 250c0 65 -45 105 -101 105c-55 0 -101 -40 -101 -104
c0 -62 44 -106 104 -106c55 0 98 41 98 105z" />
    <glyph glyph-name="e" unicode="e" horiz-adv-x="534" 
d="M519 290c0 -35 -2 -51 -6 -68c-2 -10 -5 -12 -20 -12h-299c1 -54 43 -88 102 -88c47 0 79 30 96 50c3 4 9 2 14 -5c21 -29 49 -69 69 -100c6 -9 3 -16 -5 -23c-31 -27 -100 -59 -177 -59c-152 0 -263 100 -263 270c0 152 101 263 263 263c123 0 226 -87 226 -228z
M363 298c-4 53 -34 85 -85 85c-55 0 -79 -43 -84 -85h169z" />
    <glyph glyph-name="f" unicode="f" horiz-adv-x="326" 
d="M351 628c-9 -12 -31 -47 -37 -57c-2 -5 -8 -8 -11 -5c-8 15 -22 23 -40 23c-20 0 -37 -15 -37 -42v-36s1 -6 5 -6h74c9 0 9 -2 9 -8v-104c0 -11 -2 -16 -11 -16h-67v-366c0 -11 -2 -11 -9 -11h-154c-6 0 -7 7 -7 13v365h-40c-6 0 -10 0 -10 11v104c0 5 1 12 8 12h42v53
c0 88 42 147 143 147c81 0 113 -29 139 -57c7 -7 8 -13 3 -20z" />
    <glyph glyph-name="g" unicode="g" horiz-adv-x="624" 
d="M564 164c0 -263 -81 -360 -277 -360c-60 0 -145 26 -194 50c-15 8 -19 7 -15 18c6 18 37 91 46 119c4 11 6 12 16 6c27 -17 88 -44 133 -44c95 0 125 37 125 131c-29 -42 -79 -62 -139 -62c-132 0 -229 81 -229 243c0 155 97 246 230 246c50 0 117 -21 138 -54v36
c0 12 2 12 9 12h149c8 0 8 -7 8 -12v-329zM398 254c0 62 -46 103 -101 103c-56 0 -101 -43 -101 -103c0 -58 45 -100 101 -100c55 0 101 38 101 100z" />
    <glyph glyph-name="h" unicode="h" horiz-adv-x="596" 
d="M536 15c0 -14 -2 -15 -10 -15h-151c-7 0 -9 0 -9 11v298c0 45 -29 66 -63 66c-40 0 -61 -21 -73 -48v-316c0 -9 -1 -11 -7 -11h-155c-7 0 -8 0 -8 14v666c0 12 0 12 7 12h154c7 0 9 -2 9 -15v-251c23 57 74 94 151 94c104 0 155 -57 155 -165v-340z" />
    <glyph glyph-name="i" unicode="i" horiz-adv-x="290" 
d="M230 573c0 -9 -2 -11 -9 -11h-153c-7 0 -8 7 -8 13v104c0 6 0 13 7 13h153c8 0 10 -1 10 -13v-106zM230 11c0 -9 -2 -11 -9 -11h-153c-7 0 -8 0 -8 14v479c0 12 0 12 7 12h153c8 0 10 0 10 -12v-482z" />
    <glyph glyph-name="j" unicode="j" horiz-adv-x="302" 
d="M241 573c0 -9 -2 -11 -8 -11h-153c-7 0 -8 7 -8 13v104c0 6 0 13 7 13h154c6 0 8 -1 8 -13v-106zM242 22c0 -135 -55 -188 -150 -188c-38 0 -83 11 -106 20c-6 1 -10 6 -9 15c1 14 11 87 11 99c1 13 6 15 19 12c45 -12 65 1 65 54v459c0 5 0 12 7 12h154c7 0 9 0 9 -12
v-471z" />
    <glyph glyph-name="k" unicode="k" horiz-adv-x="576" 
d="M577 12c5 -9 2 -12 -9 -12h-182c-7 0 -10 3 -17 14l-85 148l-54 -68v-83c0 -9 -2 -11 -8 -11h-154c-7 0 -8 0 -8 14v665c0 12 0 13 7 13h154c7 0 9 -1 9 -13v-377s93 130 137 195c2 4 3 8 12 8h173c12 0 7 -12 3 -18c-49 -60 -160 -196 -160 -196s121 -187 182 -279z" />
    <glyph glyph-name="l" unicode="l" horiz-adv-x="290" 
d="M230 11c0 -9 -2 -11 -8 -11h-154c-7 0 -8 0 -8 14v665c0 12 0 13 8 13h153c7 0 9 -1 9 -13v-668z" />
    <glyph glyph-name="m" unicode="m" horiz-adv-x="892" 
d="M832 15c0 -12 -1 -15 -9 -15h-152c-6 0 -9 0 -9 11v286c0 48 -19 78 -63 78c-36 0 -62 -24 -68 -44v-316c0 -12 -1 -15 -9 -15h-152c-6 0 -9 0 -9 11v286c0 55 -28 78 -63 78c-36 0 -64 -26 -68 -44v-320c0 -9 -1 -11 -7 -11h-155c-7 0 -8 0 -8 14v479c0 12 0 12 7 12
h149c8 0 9 0 9 -12v-69c21 58 77 96 148 96c80 0 129 -28 150 -96c17 61 80 96 151 96c80 0 158 -30 158 -160v-345z" />
    <glyph glyph-name="n" unicode="n" horiz-adv-x="593" 
d="M536 15c0 -14 -2 -15 -10 -15h-151c-7 0 -9 0 -9 11v298c0 45 -29 66 -63 66c-40 0 -61 -21 -73 -48v-316c0 -9 -1 -11 -7 -11h-155c-7 0 -8 0 -8 14v479c0 12 0 12 7 12h147c7 0 11 -6 11 -16v-65c20 59 79 96 156 96c104 0 155 -57 155 -165v-340z" />
    <glyph glyph-name="o" unicode="o" horiz-adv-x="595" 
d="M564 251c0 -159 -111 -268 -267 -268c-154 0 -267 108 -267 268c0 153 108 269 267 269c156 0 267 -110 267 -269zM398 251c0 66 -45 108 -100 108c-56 0 -102 -44 -102 -108c0 -63 47 -110 103 -110c55 0 99 45 99 110z" />
    <glyph glyph-name="p" unicode="p" horiz-adv-x="634" 
d="M597 254c0 -181 -105 -269 -246 -263c-50 2 -104 27 -121 59v-203c0 -11 -1 -13 -8 -13h-155c-6 0 -7 0 -7 14v645c0 12 0 12 7 12h146c7 0 8 0 8 -12v-48c15 45 84 69 138 69c123 0 238 -77 238 -260zM431 250c0 65 -47 106 -100 106c-60 0 -101 -44 -101 -106
c0 -68 51 -106 104 -106c51 0 97 41 97 106z" />
    <glyph glyph-name="q" unicode="q" horiz-adv-x="619" 
d="M560 -153c0 -12 0 -13 -8 -13h-142c-8 0 -10 1 -10 13v207c-20 -36 -74 -63 -131 -63c-142 0 -239 94 -239 261c0 161 99 262 231 262c73 0 125 -31 147 -68l45 54c8 11 12 13 23 12c20 -2 50 -4 76 -7c7 -1 8 0 8 -13v-645zM398 252c0 65 -46 103 -102 103
c-55 0 -100 -42 -100 -106c0 -68 47 -104 102 -104c56 0 100 40 100 107z" />
    <glyph glyph-name="r" unicode="r" horiz-adv-x="478" 
d="M473 399c-21 -21 -92 -95 -104 -106c-5 -5 -15 -6 -25 -6c0 45 -19 69 -55 69c-31 0 -47 -20 -59 -38v-307c0 -9 -2 -11 -8 -11h-154c-7 0 -8 0 -8 14v479c0 12 0 12 8 12h149c7 0 8 0 8 -12v-49c21 50 76 76 120 76c74 0 126 -41 128 -121z" />
    <glyph glyph-name="s" unicode="s" horiz-adv-x="508" 
d="M479 168c0 -112 -84 -186 -230 -186c-127 0 -187 46 -219 117c-2 7 -2 13 3 15l109 42c4 1 8 -1 9 -4c11 -30 44 -54 81 -54c45 0 65 18 65 40c0 27 -21 41 -98 60c-95 24 -161 58 -161 158c0 105 86 164 225 164c111 0 177 -42 197 -108c1 -6 1 -12 -5 -14l-111 -39
c-6 -3 -7 -3 -11 3c-17 27 -43 45 -76 45c-39 0 -56 -13 -56 -35c0 -20 23 -30 109 -47c100 -21 169 -63 169 -157z" />
    <glyph glyph-name="t" unicode="t" horiz-adv-x="373" 
d="M360 30c1 -8 -3 -12 -9 -15c-23 -11 -59 -28 -102 -28c-169 0 -176 114 -176 215v175h-41c-7 0 -11 0 -11 11v105c0 5 1 12 8 12h44l3 125c0 10 1 14 8 14h142c14 0 19 -11 19 -17l-2 -122h85c7 0 10 -3 10 -8v-107c0 -10 -3 -14 -11 -14c-20 0 -61 1 -84 1v-185
c0 -44 31 -66 83 -55c12 3 17 -1 19 -12s13 -81 15 -95z" />
    <glyph glyph-name="u" unicode="u" horiz-adv-x="593" 
d="M531 12c0 -12 0 -12 -7 -12h-145c-8 0 -13 1 -13 15v50c-21 -58 -79 -80 -156 -80c-104 0 -156 58 -155 165l3 338c0 14 2 17 10 17h151c7 0 9 -3 9 -14l-3 -299c0 -45 29 -66 63 -66c40 0 63 21 73 48v320c0 9 1 11 7 11h155c7 0 8 0 8 -14v-479z" />
    <glyph glyph-name="v" unicode="v" horiz-adv-x="537" 
d="M535 491c-103 -206 -162 -326 -250 -499c-3 -7 -9 -10 -15 -10c-7 0 -13 4 -17 11c-85 166 -152 298 -250 496c-9 16 -6 16 4 16h173c5 0 9 0 11 -7c44 -120 83 -228 83 -228s42 110 79 225c2 6 5 10 10 10h168c9 0 10 0 4 -14z" />
    <glyph glyph-name="w" unicode="w" horiz-adv-x="670" 
d="M667 495c-72 -178 -129 -317 -203 -499c-3 -7 -7 -11 -12 -11s-9 2 -14 11c-37 72 -101 226 -101 226s-70 -163 -104 -226c-4 -8 -10 -10 -15 -10c-4 0 -9 3 -12 10c-45 112 -124 300 -204 496c-7 13 -6 13 5 13h155c6 0 7 0 9 -4c26 -62 74 -199 74 -199l81 195
c2 6 6 8 13 8c9 0 11 -3 13 -8l82 -195s53 154 71 197c3 7 5 6 10 6h144c12 0 12 0 8 -10z" />
    <glyph glyph-name="x" unicode="x" horiz-adv-x="484" 
d="M490 9c5 -8 6 -10 -5 -10h-160c-8 0 -11 5 -17 14c-19 31 -68 117 -68 117s-57 -95 -71 -124c-2 -5 -2 -7 -6 -7h-152c-9 0 -10 2 -5 10c41 73 147 250 147 250s-89 136 -150 237c-5 9 -5 9 3 9h164c6 0 7 0 10 -5c20 -30 68 -106 68 -106s43 78 57 106c2 5 3 5 9 5h153
c9 0 8 -1 3 -9c-51 -90 -139 -235 -139 -235s97 -149 159 -252z" />
    <glyph glyph-name="y" unicode="y" horiz-adv-x="520" 
d="M520 491c-71 -198 -170 -459 -248 -650c-2 -5 -3 -7 -11 -7h-145c-11 0 -13 1 -9 12c22 61 82 205 82 205s-128 300 -189 440c-6 14 1 14 10 14h157c10 0 10 -3 13 -11c20 -52 95 -244 95 -244s56 191 72 244c2 7 6 11 16 11h150c6 0 10 -6 7 -14z" />
    <glyph glyph-name="z" unicode="z" horiz-adv-x="456" 
d="M451 488c-66 -111 -212 -357 -212 -357s127 3 188 3c13 0 14 -2 14 -11v-114c0 -7 -1 -9 -14 -9h-418c-12 0 -14 5 -8 16c86 158 204 366 204 366s-113 -3 -162 -4c-10 0 -13 2 -13 9v108c0 7 3 10 9 10h406c8 0 15 -2 6 -17z" />
    <glyph glyph-name="braceleft" unicode="{" horiz-adv-x="371" 
d="M359 -136c0 -10 -3 -11 -14 -11h-93c-119 0 -162 62 -162 151v118c0 49 -18 59 -63 63c-6 1 -13 5 -13 11v134c0 5 4 10 12 11c46 6 64 28 64 79v107c0 89 75 151 162 151h93c12 0 14 -5 14 -11v-86c0 -11 -5 -12 -14 -12h-17c-61 0 -82 -54 -82 -91v-107
c0 -62 -10 -104 -86 -108c76 -5 86 -52 86 -112v-98c0 -66 23 -92 82 -92h17c12 0 14 -1 14 -12v-85z" />
    <glyph glyph-name="bar" unicode="|" horiz-adv-x="414" 
d="M278 -182c0 -8 -3 -12 -11 -12h-119c-8 0 -10 6 -10 13v889c0 16 0 19 16 19h109c14 0 15 2 15 -20v-889z" />
    <glyph glyph-name="braceright" unicode="}" horiz-adv-x="371" 
d="M357 198c0 -10 -4 -12 -15 -13c-43 -4 -61 -14 -61 -63v-118c0 -89 -44 -151 -162 -151h-93c-11 0 -14 1 -14 11v85c0 11 1 12 14 12h16c60 0 83 26 83 92v98c0 60 9 107 85 112c-76 4 -85 46 -85 108v107c0 37 -21 91 -83 91h-16c-9 0 -14 1 -14 12v86c0 6 2 11 14 11
h93c87 0 162 -62 162 -151v-107c0 -50 18 -73 63 -79c7 -1 13 -5 13 -13v-130z" />
    <glyph glyph-name="asciitilde" unicode="~" horiz-adv-x="507" 
d="M465 646c-2 -14 -43 -141 -136 -141c-42 -1 -66 19 -89 38c-21 17 -40 32 -69 32c-24 0 -42 -8 -57 -16c-12 -7 -22 -13 -31 -17s-12 -7 -12 8c1 30 57 142 137 143c37 0 61 -15 81 -31c23 -18 41 -38 67 -37c23 0 45 8 62 16c19 9 32 18 38 21c12 4 12 -2 9 -16z" />
    <glyph glyph-name="Adieresis" unicode="&#xc4;" horiz-adv-x="705" 
d="M704 14c6 -13 5 -14 -4 -14h-187c-5 0 -9 1 -12 8c-12 27 -27 64 -37 89h-242c-12 -28 -25 -62 -35 -86c-3 -8 -5 -11 -18 -11h-166c-8 0 -9 4 -5 14c104 221 262 540 340 686c1 2 6 2 12 2s11 1 12 -2c91 -178 232 -465 342 -686zM411 227l-71 152l-68 -152h139z
M553 713c0 -7 -3 -8 -7 -8h-158c-5 0 -7 6 -7 11v97c0 4 0 9 7 9h157c5 0 8 0 8 -9v-100zM311 713c0 -7 -2 -8 -8 -8h-156c-5 0 -6 6 -6 11v97c0 4 0 9 5 9h157c6 0 8 0 8 -9v-100z" />
    <glyph glyph-name="Aring" unicode="&#xc5;" horiz-adv-x="705" 
d="M704 14c6 -13 5 -14 -4 -14h-187c-5 0 -12 1 -12 8c-12 27 -27 64 -37 89h-242c-12 -28 -25 -62 -35 -86c0 -8 -5 -11 -18 -11h-166c-8 0 -9 4 -5 14c85 181 198 413 287 584c-39 21 -66 61 -66 108c0 68 56 124 124 124s124 -56 124 -124c0 -42 -22 -80 -56 -102
c90 -179 201 -405 293 -590zM399 706c0 31 -25 56 -56 56s-56 -25 -56 -56s25 -56 56 -56s56 25 56 56zM411 227l-71 152l-68 -152h139z" />
    <glyph glyph-name="Ccedilla" unicode="&#xc7;" horiz-adv-x="720" 
d="M708 190c-38 -91 -123 -175 -241 -199c9 -16 14 -38 14 -52c0 -78 -48 -134 -144 -134c-58 0 -106 26 -124 80c-2 6 0 9 4 10l68 34c6 3 10 1 12 -4c6 -12 17 -21 36 -21c22 0 52 11 52 53c0 8 -4 20 -8 26c-203 8 -337 166 -337 353c0 205 154 356 350 356
c165 0 266 -89 311 -191c5 -12 1 -18 -3 -18l-149 -58c-6 0 -9 0 -9 5c-29 60 -77 91 -146 91c-100 0 -164 -79 -164 -186c0 -125 83 -182 167 -182c68 0 116 33 140 84c0 5 4 7 12 7l150 -41c10 0 9 -7 9 -13z" />
    <glyph glyph-name="Eacute" unicode="&#xc9;" horiz-adv-x="585" 
d="M554 14c0 -12 -1 -14 -11 -14h-457c-10 0 -11 2 -11 14v654c0 9 -1 10 9 10h452c10 0 11 -1 11 -13v-122c0 -9 -3 -14 -11 -14l-286 3v-113h280c9 0 10 -2 10 -14v-122c0 -12 -1 -14 -10 -14h-280v-116l293 3c11 0 11 0 11 -13v-129zM470 816c4 -2 -6 -19 -6 -19
c-72 -36 -107 -56 -180 -91c-11 -5 -44 8 -43 12c40 69 59 102 98 172c3 5 5 4 7 2c46 -29 87 -52 124 -76z" />
    <glyph glyph-name="Ntilde" unicode="&#xd1;" horiz-adv-x="720" 
d="M645 -5c0 -7 0 -12 -3 -13c-2 -1 -5 0 -9 3c-151 113 -387 330 -387 330v-306c0 -9 0 -9 -9 -9h-151c-7 0 -10 6 -10 10c-5 255 -4 414 0 678c0 5 1 7 3 8c2 2 5 1 8 -1c143 -102 388 -329 388 -329v300c0 11 0 12 8 12h152c10 0 10 -2 10 -12c4 -195 3 -463 0 -671z
M536 805c-2 -10 -42 -113 -121 -113c-32 0 -52 11 -69 22c-19 11 -36 24 -63 24c-22 0 -37 -9 -51 -21c-7 -7 -14 -15 -22 -22c-6 -4 -18 0 -18 10c2 82 56 130 122 130c30 0 51 -10 68 -21c21 -14 36 -29 59 -29c20 0 35 4 47 10c12 7 21 15 31 22c6 5 19 -3 17 -12z" />
    <glyph glyph-name="Odieresis" unicode="&#xd6;" horiz-adv-x="790" 
d="M750 341c0 -196 -153 -354 -355 -354s-355 158 -355 354s153 355 355 355s355 -159 355 -355zM563 341c0 103 -62 184 -168 184c-108 0 -168 -81 -168 -184s60 -183 168 -183c106 0 168 80 168 183zM594 715c0 -7 -3 -8 -7 -8h-158c-5 0 -7 6 -7 11v97c0 4 0 9 7 9h157
c5 0 8 0 8 -9v-100zM352 715c0 -7 -2 -8 -8 -8h-156c-5 0 -6 6 -6 11v97c0 4 0 9 5 9h157c6 0 8 0 8 -9v-100z" />
    <glyph glyph-name="Udieresis" unicode="&#xdc;" horiz-adv-x="695" 
d="M630 246c0 -161 -83 -263 -282 -263c-191 0 -283 108 -283 273v416c0 6 0 6 5 6h168c7 0 7 0 7 -8v-445c0 -67 56 -95 105 -95c48 0 105 27 105 95v446c0 6 0 7 6 7h164c5 0 5 0 5 -7v-425zM559 715c0 -7 -3 -8 -7 -8h-158c-5 0 -7 6 -7 11v97c0 4 0 9 7 9h157
c5 0 8 0 8 -9v-100zM317 715c0 -7 -2 -8 -8 -8h-156c-5 0 -6 6 -6 11v97c0 4 0 9 5 9h157c6 0 8 0 8 -9v-100z" />
    <glyph glyph-name="aacute" unicode="&#xe1;" horiz-adv-x="627" 
d="M567 14c0 -11 -3 -14 -8 -14h-142c-7 0 -10 4 -10 9v63c-17 -52 -80 -79 -141 -79c-134 0 -236 96 -236 260c0 151 106 258 233 258c68 0 120 -40 135 -79v61c0 9 2 12 8 12h154c5 0 7 -4 7 -9v-482zM398 250c0 66 -45 105 -100 105c-63 0 -102 -45 -102 -107
c0 -61 46 -103 102 -103c55 0 100 42 100 105zM459 650c4 -2 -6 -19 -6 -19c-72 -36 -107 -56 -180 -91c-11 -5 -44 8 -43 12c40 69 59 102 98 172c3 5 5 4 7 2c46 -29 87 -52 124 -76z" />
    <glyph glyph-name="agrave" unicode="&#xe0;" horiz-adv-x="627" 
d="M567 14c0 -11 -3 -14 -8 -14h-142c-7 0 -10 4 -10 9v63c-17 -52 -80 -79 -141 -79c-134 0 -236 96 -236 260c0 151 106 258 233 258c68 0 120 -40 135 -79v61c0 9 2 12 8 12h154c5 0 7 -4 7 -9v-482zM398 250c0 66 -45 105 -100 105c-63 0 -102 -45 -102 -107
c0 -61 46 -103 102 -103c55 0 100 42 100 105zM344 552c2 -4 -31 -17 -43 -12c-73 35 -108 55 -179 91c0 0 -11 17 -7 19c37 24 78 47 124 76c3 2 4 3 8 -2c38 -70 57 -103 97 -172z" />
    <glyph glyph-name="acircumflex" unicode="&#xe2;" horiz-adv-x="627" 
d="M567 14c0 -11 -3 -14 -8 -14h-142c-7 0 -10 4 -10 9v63c-17 -52 -80 -79 -141 -79c-134 0 -236 96 -236 260c0 151 106 258 233 258c68 0 120 -40 135 -79v61c0 9 2 12 8 12h154c5 0 7 -4 7 -9v-482zM398 250c0 66 -45 105 -100 105c-63 0 -102 -45 -102 -107
c0 -61 46 -103 102 -103c55 0 100 42 100 105zM471 554c0 -3 -4 -4 -10 -4h-98c-4 0 -10 1 -15 5c-19 11 -50 46 -50 46s-30 -35 -49 -46c-3 -3 -8 -5 -13 -5h-103c-5 0 -7 1 -7 4c0 1 3 4 7 7c11 12 149 144 157 151c4 3 5 6 9 6s6 -3 10 -7c10 -8 143 -136 154 -148
c4 -4 8 -7 8 -9z" />
    <glyph glyph-name="adieresis" unicode="&#xe4;" horiz-adv-x="627" 
d="M567 14c0 -11 -3 -14 -8 -14h-142c-7 0 -10 4 -10 9v63c-17 -52 -80 -79 -141 -79c-134 0 -236 96 -236 260c0 151 106 258 233 258c68 0 120 -40 135 -79v61c0 9 2 12 8 12h154c5 0 7 -4 7 -9v-482zM398 250c0 66 -45 105 -100 105c-63 0 -102 -45 -102 -107
c0 -61 46 -103 102 -103c55 0 100 42 100 105zM507 556c0 -7 -3 -8 -7 -8h-158c-5 0 -7 6 -7 11v97c0 4 0 9 7 9h157c5 0 8 0 8 -9v-100zM265 556c0 -7 -2 -8 -8 -8h-156c-5 0 -6 6 -6 11v97c0 4 0 9 5 9h157c6 0 8 0 8 -9v-100z" />
    <glyph glyph-name="atilde" unicode="&#xe3;" horiz-adv-x="627" 
d="M567 14c0 -11 -3 -14 -8 -14h-142c-7 0 -10 4 -10 9v63c-17 -52 -80 -79 -141 -79c-134 0 -236 96 -236 260c0 151 106 258 233 258c68 0 120 -40 135 -79v61c0 9 2 12 8 12h154c5 0 7 -4 7 -9v-482zM398 250c0 66 -45 105 -100 105c-63 0 -102 -45 -102 -107
c0 -61 46 -103 102 -103c55 0 100 42 100 105zM478 649c-2 -10 -42 -113 -121 -113c-32 0 -52 11 -69 22c-19 11 -36 24 -63 24c-22 0 -37 -9 -51 -21c-7 -7 -14 -15 -22 -22c-6 -4 -18 0 -18 10c2 82 56 130 122 130c30 0 51 -10 68 -21c21 -14 36 -29 59 -29
c20 0 35 4 47 10c12 7 21 15 31 22c6 5 19 -3 17 -12z" />
    <glyph glyph-name="aring" unicode="&#xe5;" horiz-adv-x="627" 
d="M567 14c0 -11 -3 -14 -8 -14h-142c-7 0 -10 4 -10 9v63c-17 -52 -80 -79 -141 -79c-134 0 -236 96 -236 260c0 151 106 258 233 258c68 0 120 -40 135 -79v61c0 9 2 12 8 12h154c5 0 7 -4 7 -9v-482zM398 250c0 66 -45 105 -100 105c-63 0 -102 -45 -102 -107
c0 -61 46 -103 102 -103c55 0 100 42 100 105zM424 657c0 -68 -56 -123 -124 -123s-124 55 -124 123s56 124 124 124s124 -56 124 -124zM356 657c0 31 -25 56 -56 56s-56 -25 -56 -56s25 -56 56 -56s56 25 56 56z" />
    <glyph glyph-name="ccedilla" unicode="&#xe7;" horiz-adv-x="544" 
d="M533 128c-36 -75 -93 -124 -176 -140c15 -14 30 -34 30 -65c0 -78 -46 -140 -137 -140c-55 0 -100 26 -118 80c-2 6 0 10 4 10l71 32s4 0 5 -2c7 -13 16 -21 34 -21c21 0 49 11 49 53c0 18 -11 42 -35 50c-136 15 -230 113 -230 262c0 154 106 273 266 273
c110 0 199 -50 236 -149c0 -8 1 -15 -6 -15l-131 -55c-4 0 -8 1 -8 6c-13 29 -51 48 -88 48c-66 0 -103 -45 -103 -106c0 -63 45 -104 104 -104c41 0 74 23 86 49c0 7 6 9 15 5l126 -54c7 -4 6 -10 6 -17z" />
    <glyph glyph-name="eacute" unicode="&#xe9;" horiz-adv-x="534" 
d="M519 290c0 -35 -2 -51 -6 -68c-2 -10 -5 -12 -20 -12h-299c1 -54 43 -88 102 -88c47 0 79 30 96 50c3 4 9 2 14 -5c21 -29 49 -69 69 -100c6 -9 3 -16 -5 -23c-31 -27 -100 -59 -177 -59c-152 0 -263 100 -263 270c0 152 101 263 263 263c123 0 226 -87 226 -228z
M363 298c-4 53 -34 85 -85 85c-55 0 -79 -43 -84 -85h169zM445 650c4 -2 -6 -19 -6 -19c-72 -36 -107 -56 -180 -91c-11 -5 -44 8 -43 12c40 69 59 102 98 172c3 5 5 4 7 2c46 -29 87 -52 124 -76z" />
    <glyph glyph-name="egrave" unicode="&#xe8;" horiz-adv-x="534" 
d="M519 290c0 -35 -2 -51 -6 -68c-2 -10 -5 -12 -20 -12h-299c1 -54 43 -88 102 -88c47 0 79 30 96 50c3 4 9 2 14 -5c21 -29 49 -69 69 -100c6 -9 3 -16 -5 -23c-31 -27 -100 -59 -177 -59c-152 0 -263 100 -263 270c0 152 101 263 263 263c123 0 226 -87 226 -228z
M363 298c-4 53 -34 85 -85 85c-55 0 -79 -43 -84 -85h169zM350 552c2 -4 -31 -17 -43 -12c-73 35 -108 55 -179 91c0 0 -11 17 -7 19c37 24 78 47 124 76c3 2 4 3 8 -2c38 -70 57 -103 97 -172z" />
    <glyph glyph-name="ecircumflex" unicode="&#xea;" horiz-adv-x="534" 
d="M519 290c0 -35 -2 -51 -6 -68c-2 -10 -5 -12 -20 -12h-299c1 -54 43 -88 102 -88c47 0 79 30 96 50c3 4 9 2 14 -5c21 -29 49 -69 69 -100c6 -9 3 -16 -5 -23c-31 -27 -100 -59 -177 -59c-152 0 -263 100 -263 270c0 152 101 263 263 263c123 0 226 -87 226 -228z
M363 298c-4 53 -34 85 -85 85c-55 0 -79 -43 -84 -85h169zM452 554c0 -3 -4 -4 -10 -4h-98c-4 0 -10 1 -15 5c-19 11 -50 46 -50 46s-30 -35 -49 -46c-3 -3 -8 -5 -13 -5h-103c-5 0 -7 1 -7 4c0 1 3 4 7 7c11 12 149 144 157 151c4 3 5 6 9 6s6 -3 10 -7
c10 -8 143 -136 154 -148c4 -4 8 -7 8 -9z" />
    <glyph glyph-name="edieresis" unicode="&#xeb;" horiz-adv-x="534" 
d="M519 290c0 -35 -2 -51 -6 -68c-2 -10 -5 -12 -20 -12h-299c1 -54 43 -88 102 -88c47 0 79 30 96 50c3 4 9 2 14 -5c21 -29 49 -69 69 -100c6 -9 3 -16 -5 -23c-31 -27 -100 -59 -177 -59c-152 0 -263 100 -263 270c0 152 101 263 263 263c123 0 226 -87 226 -228z
M363 298c-4 53 -34 85 -85 85c-55 0 -79 -43 -84 -85h169zM486 556c0 -7 -3 -8 -7 -8h-158c-5 0 -7 6 -7 11v97c0 4 0 9 7 9h157c5 0 8 0 8 -9v-100zM244 556c0 -7 -2 -8 -8 -8h-156c-5 0 -6 6 -6 11v97c0 4 0 9 5 9h157c6 0 8 0 8 -9v-100z" />
    <glyph glyph-name="iacute" unicode="&#xed;" horiz-adv-x="290" 
d="M230 11c0 -9 -2 -11 -9 -11h-153c-7 0 -8 0 -8 14v479c0 12 0 12 7 12h153c8 0 10 0 10 -12v-482zM308 654c4 -2 -6 -19 -6 -19c-72 -36 -107 -56 -180 -91c-11 -5 -44 8 -43 12c40 69 59 102 98 172c3 5 5 4 7 2c46 -29 87 -52 124 -76z" />
    <glyph glyph-name="igrave" unicode="&#xec;" horiz-adv-x="290" 
d="M230 11c0 -9 -2 -11 -9 -11h-153c-7 0 -8 0 -8 14v479c0 12 0 12 7 12h153c8 0 10 0 10 -12v-482zM224 553c2 -4 -31 -17 -43 -12c-73 35 -108 55 -179 91c0 0 -11 17 -7 19c37 24 78 47 124 76c3 2 4 3 8 -2c38 -70 57 -103 97 -172z" />
    <glyph glyph-name="icircumflex" unicode="&#xee;" horiz-adv-x="290" 
d="M230 11c0 -9 -2 -11 -9 -11h-153c-7 0 -8 0 -8 14v479c0 12 0 12 7 12h153c8 0 10 0 10 -12v-482zM313 554c0 -3 -4 -4 -10 -4h-98c-4 0 -10 1 -15 5c-19 11 -50 46 -50 46s-30 -35 -49 -46c-3 -3 -8 -5 -13 -5h-103c-5 0 -7 1 -7 4c0 1 3 4 7 7c11 12 149 144 157 151
c4 3 5 6 9 6s6 -3 10 -7c10 -8 143 -136 154 -148c4 -4 8 -7 8 -9z" />
    <glyph glyph-name="idieresis" unicode="&#xef;" horiz-adv-x="290" 
d="M230 11c0 -9 -2 -11 -9 -11h-153c-7 0 -8 0 -8 14v479c0 12 0 12 7 12h153c8 0 10 0 10 -12v-482zM350 556c0 -7 -3 -8 -7 -8h-158c-5 0 -7 6 -7 11v97c0 4 0 9 7 9h157c5 0 8 0 8 -9v-100zM108 556c0 -7 -2 -8 -8 -8h-156c-5 0 -6 6 -6 11v97c0 4 0 9 5 9h157
c6 0 8 0 8 -9v-100z" />
    <glyph glyph-name="ntilde" unicode="&#xf1;" horiz-adv-x="593" 
d="M536 15c0 -14 -2 -15 -10 -15h-151c-7 0 -9 0 -9 11v298c0 45 -29 66 -63 66c-40 0 -61 -21 -73 -48v-316c0 -9 -1 -11 -7 -11h-155c-7 0 -8 0 -8 14v479c0 12 0 12 7 12h147c7 0 11 -6 11 -16v-65c20 59 79 96 156 96c104 0 155 -57 155 -165v-340zM478 658
c-2 -10 -42 -113 -121 -113c-32 0 -52 11 -69 22c-19 11 -36 24 -63 24c-22 0 -37 -9 -51 -21c-7 -7 -14 -15 -22 -22c-6 -4 -18 0 -18 10c2 82 56 130 122 130c30 0 51 -10 68 -21c21 -14 36 -29 59 -29c20 0 35 4 47 10c12 7 21 15 31 22c6 5 19 -3 17 -12z" />
    <glyph glyph-name="oacute" unicode="&#xf3;" horiz-adv-x="595" 
d="M564 251c0 -159 -111 -268 -267 -268c-154 0 -267 108 -267 268c0 153 108 269 267 269c156 0 267 -110 267 -269zM398 251c0 66 -45 108 -100 108c-56 0 -102 -44 -102 -108c0 -63 47 -110 103 -110c55 0 99 45 99 110zM469 652c4 -2 -6 -19 -6 -19
c-72 -36 -107 -56 -180 -91c-11 -5 -44 8 -43 12c40 69 59 102 98 172c3 5 5 4 7 2c46 -29 87 -52 124 -76z" />
    <glyph glyph-name="ograve" unicode="&#xf2;" horiz-adv-x="595" 
d="M564 251c0 -159 -111 -268 -267 -268c-154 0 -267 108 -267 268c0 153 108 269 267 269c156 0 267 -110 267 -269zM398 251c0 66 -45 108 -100 108c-56 0 -102 -44 -102 -108c0 -63 47 -110 103 -110c55 0 99 45 99 110zM367 554c2 -4 -31 -17 -43 -12
c-73 35 -108 55 -179 91c0 0 -11 17 -7 19c37 24 78 47 124 76c3 2 4 3 8 -2c38 -70 57 -103 97 -172z" />
    <glyph glyph-name="ocircumflex" unicode="&#xf4;" horiz-adv-x="595" 
d="M564 251c0 -159 -111 -268 -267 -268c-154 0 -267 108 -267 268c0 153 108 269 267 269c156 0 267 -110 267 -269zM398 251c0 66 -45 108 -100 108c-56 0 -102 -44 -102 -108c0 -63 47 -110 103 -110c55 0 99 45 99 110zM467 554c0 -3 -4 -4 -10 -4h-98c-4 0 -10 1 -15 5
c-19 11 -50 46 -50 46s-30 -35 -49 -46c-3 -3 -8 -5 -13 -5h-103c-5 0 -7 1 -7 4c0 1 3 4 7 7c11 12 149 144 157 151c4 3 5 6 9 6s6 -3 10 -7c10 -8 143 -136 154 -148c4 -4 8 -7 8 -9z" />
    <glyph glyph-name="odieresis" unicode="&#xf6;" horiz-adv-x="595" 
d="M564 251c0 -159 -111 -268 -267 -268c-154 0 -267 108 -267 268c0 153 108 269 267 269c156 0 267 -110 267 -269zM398 251c0 66 -45 108 -100 108c-56 0 -102 -44 -102 -108c0 -63 47 -110 103 -110c55 0 99 45 99 110zM502 556c0 -7 -3 -8 -7 -8h-158c-5 0 -7 6 -7 11
v97c0 4 0 9 7 9h157c5 0 8 0 8 -9v-100zM260 556c0 -7 -2 -8 -8 -8h-156c-5 0 -6 6 -6 11v97c0 4 0 9 5 9h157c6 0 8 0 8 -9v-100z" />
    <glyph glyph-name="otilde" unicode="&#xf5;" horiz-adv-x="595" 
d="M564 251c0 -159 -111 -268 -267 -268c-154 0 -267 108 -267 268c0 153 108 269 267 269c156 0 267 -110 267 -269zM398 251c0 66 -45 108 -100 108c-56 0 -102 -44 -102 -108c0 -63 47 -110 103 -110c55 0 99 45 99 110zM475 656c-2 -10 -42 -113 -121 -113
c-32 0 -52 11 -69 22c-19 11 -36 24 -63 24c-22 0 -37 -9 -51 -21c-7 -7 -14 -15 -22 -22c-6 -4 -18 0 -18 10c2 82 56 130 122 130c30 0 51 -10 68 -21c21 -14 36 -29 59 -29c20 0 35 4 47 10c12 7 21 15 31 22c6 5 19 -3 17 -12z" />
    <glyph glyph-name="uacute" unicode="&#xfa;" horiz-adv-x="593" 
d="M531 12c0 -12 0 -12 -7 -12h-145c-8 0 -13 1 -13 15v50c-21 -58 -79 -80 -156 -80c-104 0 -156 58 -155 165l3 338c0 14 2 17 10 17h151c7 0 9 -3 9 -14l-3 -299c0 -45 29 -66 63 -66c40 0 63 21 73 48v320c0 9 1 11 7 11h155c7 0 8 0 8 -14v-479zM459 651
c4 -2 -6 -19 -6 -19c-72 -36 -107 -56 -180 -91c-11 -5 -44 8 -43 12c40 69 59 102 98 172c3 5 5 4 7 2c46 -29 87 -52 124 -76z" />
    <glyph glyph-name="ugrave" unicode="&#xf9;" horiz-adv-x="593" 
d="M531 12c0 -12 0 -12 -7 -12h-145c-8 0 -13 1 -13 15v50c-21 -58 -79 -80 -156 -80c-104 0 -156 58 -155 165l3 338c0 14 2 17 10 17h151c7 0 9 -3 9 -14l-3 -299c0 -45 29 -66 63 -66c40 0 63 21 73 48v320c0 9 1 11 7 11h155c7 0 8 0 8 -14v-479zM376 553
c2 -4 -31 -17 -43 -12c-73 35 -108 55 -179 91c0 0 -11 17 -7 19c37 24 78 47 124 76c3 2 4 3 8 -2c38 -70 57 -103 97 -172z" />
    <glyph glyph-name="ucircumflex" unicode="&#xfb;" horiz-adv-x="593" 
d="M531 12c0 -12 0 -12 -7 -12h-145c-8 0 -13 1 -13 15v50c-21 -58 -79 -80 -156 -80c-104 0 -156 58 -155 165l3 338c0 14 2 17 10 17h151c7 0 9 -3 9 -14l-3 -299c0 -45 29 -66 63 -66c40 0 63 21 73 48v320c0 9 1 11 7 11h155c7 0 8 0 8 -14v-479zM467 554
c0 -3 -4 -4 -10 -4h-98c-4 0 -10 1 -15 5c-19 11 -50 46 -50 46s-30 -35 -49 -46c-3 -3 -8 -5 -13 -5h-103c-5 0 -7 1 -7 4c0 1 3 4 7 7c11 12 149 144 157 151c4 3 5 6 9 6s6 -3 10 -7c10 -8 143 -136 154 -148c4 -4 8 -7 8 -9z" />
    <glyph glyph-name="udieresis" unicode="&#xfc;" horiz-adv-x="593" 
d="M531 12c0 -12 0 -12 -7 -12h-145c-8 0 -13 1 -13 15v50c-21 -58 -79 -80 -156 -80c-104 0 -156 58 -155 165l3 338c0 14 2 17 10 17h151c7 0 9 -3 9 -14l-3 -299c0 -45 29 -66 63 -66c40 0 63 21 73 48v320c0 9 1 11 7 11h155c7 0 8 0 8 -14v-479zM501 556
c0 -7 -3 -8 -7 -8h-158c-5 0 -7 6 -7 11v97c0 4 0 9 7 9h157c5 0 8 0 8 -9v-100zM259 556c0 -7 -2 -8 -8 -8h-156c-5 0 -6 6 -6 11v97c0 4 0 9 5 9h157c6 0 8 0 8 -9v-100z" />
    <glyph glyph-name="dagger" unicode="&#x2020;" horiz-adv-x="547" 
d="M530 370c0 -8 -2 -13 -15 -12c-55 2 -134 4 -159 4c0 -68 -11 -391 -11 -513c0 -12 -1 -14 -12 -14h-118c-11 0 -11 0 -11 14c0 96 -11 453 -11 516c-46 -1 -122 -5 -160 -7c-12 -1 -14 1 -14 12v124c0 11 2 11 14 11c51 -2 107 -3 160 -3c3 56 7 144 7 176
c0 12 1 14 12 14h125c8 0 12 -1 12 -14c0 -30 4 -123 9 -178c50 0 102 2 157 5c11 1 15 0 15 -11v-124z" />
    <glyph glyph-name="degree" unicode="&#xb0;" horiz-adv-x="385" 
d="M360 535c0 -96 -66 -164 -165 -164c-100 0 -170 67 -170 164c0 99 70 165 170 165c99 0 165 -67 165 -165zM257 535c0 43 -24 70 -66 70c-39 0 -67 -27 -67 -70c0 -49 28 -70 67 -70c42 0 66 27 66 70z" />
    <glyph glyph-name="cent" unicode="&#xa2;" horiz-adv-x="531" 
d="M473 331c-32 -88 -93 -135 -198 -135c-25 0 -52 5 -71 12l-32 -59l-63 38l32 56c-53 38 -92 99 -92 184c0 134 105 235 228 235c33 0 57 -6 84 -17l31 56l62 -37l-31 -58c21 -21 37 -46 47 -80c2 -7 0 -11 -5 -13l-103 -47c-4 -2 -8 0 -10 4c-14 27 -42 41 -73 41
c-50 0 -80 -42 -80 -86c0 -36 34 -78 83 -78c31 0 58 18 69 40c2 5 6 6 12 4l104 -46c6 -2 8 -8 6 -14z" />
    <glyph glyph-name="sterling" unicode="&#xa3;" horiz-adv-x="599" 
d="M581 515c3 -10 3 -13 -3 -18c-29 -20 -98 -62 -124 -78c-5 -3 -10 0 -10 8c-4 82 -41 125 -112 125c-65 0 -93 -45 -93 -100c0 -18 5 -41 7 -61c49 0 102 -3 115 -3c0 0 3 -98 -1 -98h-91c22 -30 32 -102 28 -136c47 0 210 -17 263 -29c3 -1 -6 -34 -17 -66
c-9 -30 -20 -59 -23 -59c-140 -2 -294 -5 -471 0c-16 0 -17 2 -17 14v116c0 7 1 8 12 11c32 9 96 11 123 13c12 33 -13 107 -46 136h-88c-9 0 -9 2 -9 8v93c0 5 1 6 7 6h46c-14 23 -23 66 -23 102c0 121 102 200 255 200c135 0 234 -66 272 -184z" />
    <glyph glyph-name="section" unicode="&#xa7;" horiz-adv-x="508" 
d="M485 333c0 -64 -47 -114 -72 -138c40 -23 69 -61 69 -125c0 -110 -114 -181 -243 -181c-110 0 -176 45 -213 116c-4 7 -5 11 3 14l118 44c7 2 7 1 9 -4c12 -31 39 -54 76 -54c34 0 57 16 57 38c0 25 -22 40 -71 46c-5 1 -14 2 -21 3c-93 10 -170 63 -171 157
c0 53 24 109 70 140c0 0 -59 19 -59 101c0 118 91 195 230 195c110 0 179 -45 199 -110c3 -10 3 -10 -4 -13l-118 -42c-7 -3 -8 -3 -12 4c-14 27 -40 47 -72 47c-40 0 -54 -15 -54 -34c0 -21 14 -35 84 -45c10 -1 19 -2 29 -4c100 -14 166 -56 166 -155zM327 222
c29 42 11 103 -52 118c-45 11 -77 19 -105 24c-17 -50 -9 -105 72 -124c34 -8 65 -16 85 -18z" />
    <glyph glyph-name="bullet" unicode="&#x2022;" horiz-adv-x="640" 
d="M614 286c0 -162 -133 -295 -296 -295s-295 133 -295 295c0 163 132 296 295 296s296 -133 296 -296z" />
    <glyph glyph-name="paragraph" unicode="&#xb6;" horiz-adv-x="680" 
d="M609 -62c0 -10 0 -9 -10 -9h-74c-3 116 -9 622 -11 662h-44c-4 -38 -16 -571 -21 -662h-71c-8 0 -10 1 -9 9c5 66 6 223 6 223s-69 1 -100 4c-146 16 -227 89 -227 253c0 154 90 260 241 260h307c7 0 9 -2 9 -9v-331c0 -103 4 -276 4 -400zM389 591h-52
c-61 0 -103 -76 -103 -172c0 -104 35 -157 96 -157h48z" />
    <glyph glyph-name="germandbls" unicode="&#xdf;" horiz-adv-x="602" 
d="M575 182c0 -143 -113 -194 -197 -194c-36 0 -59 4 -80 12c-7 2 -10 8 -10 18v99c0 9 7 9 11 8c11 -3 23 -4 37 -4c32 0 58 34 58 90c0 64 -46 96 -96 98c-7 0 -7 2 -7 6v122c0 4 1 7 7 7c46 2 63 19 63 60c0 44 -29 68 -66 68c-41 0 -65 -31 -65 -81v-480
c0 -5 -1 -11 -8 -11h-154c-7 0 -8 6 -8 13v476c0 139 98 225 235 225c138 0 224 -65 224 -176c0 -89 -39 -148 -161 -159c155 0 217 -92 217 -197z" />
    <glyph glyph-name="registered" unicode="&#xae;" horiz-adv-x="803" 
d="M774 306c0 -216 -167 -391 -372 -391c-206 0 -373 175 -373 391c0 217 167 393 373 393c205 0 372 -176 372 -393zM711 306c0 183 -139 334 -309 334c-171 0 -310 -151 -310 -334s139 -333 310 -333c170 0 309 150 309 333zM608 129c10 -16 6 -24 -15 -24h-118
c-5 0 -7 2 -13 13c-23 40 -60 105 -60 105l-49 -3v-108c0 -7 -1 -7 -6 -7h-120c-5 0 -5 0 -5 7v399c0 6 2 6 5 6h207c100 0 145 -65 145 -139c0 -56 -21 -94 -57 -110c17 -25 50 -82 86 -139zM443 368c0 35 -21 54 -58 54h-32v-106h32c33 0 58 17 58 52z" />
    <glyph glyph-name="copyright" unicode="&#xa9;" horiz-adv-x="803" 
d="M774 306c0 -216 -167 -391 -372 -391c-206 0 -373 175 -373 391c0 217 167 393 373 393c205 0 372 -176 372 -393zM711 306c0 183 -139 334 -309 334c-171 0 -310 -151 -310 -334s139 -333 310 -333c170 0 309 150 309 333zM617 222c-29 -83 -108 -148 -209 -148
c-133 0 -239 88 -239 234c0 131 98 234 237 234c99 0 177 -60 207 -137c3 -8 0 -10 -3 -12l-115 -43c-5 -1 -5 0 -6 4c-18 34 -46 50 -86 50c-54 0 -96 -45 -96 -97c0 -51 36 -97 100 -97c39 0 67 23 80 53c2 4 3 5 9 4l115 -36c6 -1 8 -4 6 -9z" />
    <glyph glyph-name="trademark" unicode="&#x2122;" horiz-adv-x="714" 
d="M674 352c0 -6 0 -13 -4 -13h-95c-4 0 -5 1 -5 7l-4 120s-36 -34 -59 -56c-2 -2 -5 -3 -8 -3s-6 1 -8 3c-20 20 -59 56 -59 56l-4 -120c0 -6 -1 -7 -5 -7h-95c-4 0 -4 7 -4 13c1 106 10 227 10 327c0 6 5 6 7 4c54 -41 136 -115 158 -136c24 21 104 95 158 136
c2 1 7 2 7 -4c0 -100 9 -221 10 -327zM307 581c0 -3 -1 -4 -4 -4l-80 4s3 -198 3 -237c0 -4 -1 -5 -5 -5h-117c-4 0 -4 -1 -4 5c0 61 3 237 3 237l-83 -4c-3 0 -4 1 -4 4v93c0 3 1 4 5 4h281c4 0 5 -1 5 -4v-93z" />
    <glyph glyph-name="acute" unicode="&#xb4;" horiz-adv-x="500" 
d="M377 650c4 -2 -6 -19 -6 -19c-72 -36 -107 -56 -180 -91c-11 -5 -44 8 -43 12c40 69 59 102 98 172c3 5 5 4 7 2c46 -29 87 -52 124 -76z" />
    <glyph glyph-name="dieresis" unicode="&#xa8;" horiz-adv-x="500" 
d="M453 583c0 -7 -3 -8 -7 -8h-158c-5 0 -7 6 -7 11v97c0 4 0 9 7 9h157c5 0 8 0 8 -9v-100zM211 583c0 -7 -2 -8 -8 -8h-156c-5 0 -6 6 -6 11v97c0 4 0 9 5 9h157c6 0 8 0 8 -9v-100z" />
    <glyph glyph-name="notequal" unicode="&#x2260;" horiz-adv-x="652" 
d="M677 628c-9 -12 -31 -47 -37 -57c-2 -5 -8 -8 -11 -5c-8 15 -22 23 -40 23c-20 0 -37 -15 -37 -42v-36s1 -6 5 -6h74c9 0 9 -2 9 -8v-104c0 -11 -2 -16 -11 -16h-67v-366c0 -11 -2 -11 -9 -11h-154c-6 0 -7 7 -7 13v365h-40c-6 0 -10 0 -10 11v104c0 5 1 12 8 12h42v53
c0 88 42 147 143 147c81 0 113 -29 139 -57c7 -7 8 -13 3 -20zM351 628c-9 -12 -31 -47 -37 -57c-2 -5 -8 -8 -11 -5c-8 15 -22 23 -40 23c-20 0 -37 -15 -37 -42v-36s1 -6 5 -6h74c9 0 9 -2 9 -8v-104c0 -11 -2 -16 -11 -16h-67v-366c0 -11 -2 -11 -9 -11h-154
c-6 0 -7 7 -7 13v365h-40c-6 0 -10 0 -10 11v104c0 5 1 12 8 12h42v53c0 88 42 147 143 147c81 0 113 -29 139 -57c7 -7 8 -13 3 -20z" />
    <glyph glyph-name="AE" unicode="&#xc6;" horiz-adv-x="929" 
d="M907 14c0 -12 0 -14 -10 -14h-451c-12 0 -13 2 -13 14v76h-206c-13 -28 -24 -55 -36 -79c-4 -9 -5 -11 -18 -11h-183c-8 0 -9 4 -4 14c116 216 257 494 341 669c3 7 24 7 48 5c20 -2 80 -5 166 -6l347 -4c8 0 12 -1 12 -13v-122c0 -11 -2 -14 -12 -14l-280 3v-113h274
c10 0 11 -2 11 -14v-122c0 -12 -1 -14 -11 -14h-274v-116l289 3c10 0 10 0 10 -13v-129zM433 229v325s-20 -54 -29 -75c-20 -43 -125 -250 -125 -250h154z" />
    <glyph glyph-name="Oslash" unicode="&#xd8;" horiz-adv-x="790" 
d="M757 646c4 -4 3 -8 -1 -12s-35 -33 -82 -78c48 -61 76 -137 76 -219c0 -196 -159 -354 -355 -354c-90 0 -172 33 -234 88c-50 -46 -83 -78 -88 -83c-3 -3 -7 -4 -13 4c-7 9 -15 20 -23 31c-4 5 -2 10 1 13c4 4 35 33 81 77c-49 61 -79 139 -79 224c0 196 159 355 355 355
c93 0 177 -35 240 -94c48 47 79 76 86 83c4 4 8 4 13 -3c7 -9 15 -21 23 -32zM508 478c-28 27 -66 43 -113 43c-108 0 -168 -81 -168 -184c0 -38 8 -72 23 -101c82 77 176 165 258 242zM563 337c0 35 -7 67 -21 94c-80 -76 -173 -164 -256 -241c28 -22 64 -36 109 -36
c106 0 168 80 168 183z" />
    <glyph glyph-name="infinity" unicode="&#x221e;" horiz-adv-x="942" 
d="M882 573c0 -9 -2 -11 -9 -11h-153c-7 0 -8 7 -8 13v104c0 6 0 13 7 13h153c8 0 10 -1 10 -13v-106zM677 628c-9 -12 -31 -47 -37 -57c-2 -5 -8 -8 -11 -5c-8 15 -22 23 -40 23c-20 0 -37 -15 -37 -42v-36s1 -6 5 -6h74c9 0 9 -2 9 -8v-104c0 -11 -2 -16 -11 -16h-67v-366
c0 -11 -2 -11 -9 -11h-154c-6 0 -7 7 -7 13v365h-40c-6 0 -10 0 -10 11v104c0 5 1 12 8 12h42v53c0 88 42 147 143 147c81 0 113 -29 139 -57c7 -7 8 -13 3 -20zM351 628c-9 -12 -31 -47 -37 -57c-2 -5 -8 -8 -11 -5c-8 15 -22 23 -40 23c-20 0 -37 -15 -37 -42v-36
s1 -6 5 -6h74c9 0 9 -2 9 -8v-104c0 -11 -2 -16 -11 -16h-67v-366c0 -11 -2 -11 -9 -11h-154c-6 0 -7 7 -7 13v365h-40c-6 0 -10 0 -10 11v104c0 5 1 12 8 12h42v53c0 88 42 147 143 147c81 0 113 -29 139 -57c7 -7 8 -13 3 -20zM882 11c0 -9 -2 -11 -9 -11h-153
c-7 0 -8 0 -8 14v479c0 12 0 12 7 12h153c8 0 10 0 10 -12v-482z" />
    <glyph glyph-name="plusminus" unicode="&#xb1;" horiz-adv-x="942" 
d="M677 628c-9 -12 -31 -47 -37 -57c-2 -5 -8 -8 -11 -5c-8 15 -22 23 -40 23c-20 0 -37 -15 -37 -42v-36s1 -6 5 -6h74c9 0 9 -2 9 -8v-104c0 -11 -2 -16 -11 -16h-67v-366c0 -11 -2 -11 -9 -11h-154c-6 0 -7 7 -7 13v365h-40c-6 0 -10 0 -10 11v104c0 5 1 12 8 12h42v53
c0 88 42 147 143 147c81 0 113 -29 139 -57c7 -7 8 -13 3 -20zM351 628c-9 -12 -31 -47 -37 -57c-2 -5 -8 -8 -11 -5c-8 15 -22 23 -40 23c-20 0 -37 -15 -37 -42v-36s1 -6 5 -6h74c9 0 9 -2 9 -8v-104c0 -11 -2 -16 -11 -16h-67v-366c0 -11 -2 -11 -9 -11h-154
c-6 0 -7 7 -7 13v365h-40c-6 0 -10 0 -10 11v104c0 5 1 12 8 12h42v53c0 88 42 147 143 147c81 0 113 -29 139 -57c7 -7 8 -13 3 -20zM882 11c0 -9 -2 -11 -8 -11h-154c-7 0 -8 0 -8 14v665c0 12 0 13 8 13h153c7 0 9 -1 9 -13v-668z" />
    <glyph glyph-name="lessequal" unicode="&#x2264;" 
d="M793 300c0 -205 -168 -373 -373 -373s-373 168 -373 373s168 373 373 373s373 -168 373 -373zM693 491l-48 -29l-9 78l-65 -109l-127 53l23 54l40 40l-103 33l-106 -73l82 -13l2 -49l-107 -51l-100 97l9 -104l-48 33l73 -189l193 38l-127 -224l21 -51l48 24l67 220
l-26 -218l46 -36l36 41l-25 215l63 -209l57 -9l16 43l-129 206l193 -22zM478 573l-32 -35l-35 -68l-13 48l12 17l-68 11l26 13l17 -5l-1 19l28 19zM658 436l-30 -128l-35 38l-38 -26l-28 30l-31 -20l-45 40l-35 -47l-52 44l-22 -53l-37 28l-12 -35l-38 29l-34 -39l-38 91
l33 -14l11 58l38 -48l128 53l21 -52l16 62l148 -56l47 59l8 -40zM559 94l-32 -18l-30 100zM448 53l-40 1l18 142zM353 160l-28 -107l-29 17z" />
    <glyph glyph-name="greaterequal" unicode="&#x2265;" 
d="M793 300c0 -205 -168 -373 -373 -373s-373 168 -373 373s168 373 373 373s373 -168 373 -373zM693 491l-48 -29l-9 78l-65 -109l-127 53l23 54l40 40l-103 33l-106 -73l82 -13l2 -49l-107 -51l-100 97l9 -104l-48 33l73 -189l193 38l-127 -224l21 -51l48 24l67 220
l-26 -218l46 -36l36 41l-25 215l63 -209l57 -9l16 43l-129 206l193 -22zM478 573l-32 -35l-35 -68l-13 48l12 17l-68 11l26 13l17 -5l-1 19l28 19zM658 436l-30 -128l-35 38l-38 -26l-28 30l-31 -20l-45 40l-35 -47l-52 44l-22 -53l-37 28l-12 -35l-38 29l-34 -39l-38 91
l33 -14l11 58l38 -48l128 53l21 -52l16 62l148 -56l47 59l8 -40zM559 94l-32 -18l-30 100zM448 53l-40 1l18 142zM353 160l-28 -107l-29 17z" />
    <glyph glyph-name="yen" unicode="&#xa5;" horiz-adv-x="644" 
d="M640 653c-35 -78 -114 -238 -114 -238h81c8 0 17 -4 17 -15v-65s-3 -15 -17 -15h-129s-24 -49 -33 -66h162c8 0 17 -4 17 -15v-65s-3 -15 -17 -15h-182v-145c0 -13 0 -14 -11 -14h-166c-6 0 -7 1 -7 14v145h-203c-9 0 -17 5 -17 15v65c0 9 3 15 17 15h179l-36 66h-143
c-9 0 -17 5 -17 15v65c0 9 3 15 17 15h91s-89 170 -129 250c-7 13 -6 13 6 13h169c16 0 20 -4 26 -16c29 -59 132 -288 132 -288s99 227 125 286c7 15 9 18 21 18h147c21 0 24 -3 14 -25z" />
    <glyph glyph-name="mu" unicode="&#xb5;" 
d="M793 300c0 -205 -168 -373 -373 -373s-373 168 -373 373s168 373 373 373s373 -168 373 -373zM693 491l-48 -29l-9 78l-65 -109l-127 53l23 54l40 40l-103 33l-106 -73l82 -13l2 -49l-107 -51l-100 97l9 -104l-48 33l73 -189l193 38l-127 -224l21 -51l48 24l67 220
l-26 -218l46 -36l36 41l-25 215l63 -209l57 -9l16 43l-129 206l193 -22zM478 573l-32 -35l-35 -68l-13 48l12 17l-68 11l26 13l17 -5l-1 19l28 19zM658 436l-30 -128l-35 38l-38 -26l-28 30l-31 -20l-45 40l-35 -47l-52 44l-22 -53l-37 28l-12 -35l-38 29l-34 -39l-38 91
l33 -14l11 58l38 -48l128 53l21 -52l16 62l148 -56l47 59l8 -40zM559 94l-32 -18l-30 100zM448 53l-40 1l18 142zM353 160l-28 -107l-29 17z" />
    <glyph glyph-name="mu" unicode="&#x3bc;" 
d="M793 300c0 -205 -168 -373 -373 -373s-373 168 -373 373s168 373 373 373s373 -168 373 -373zM693 491l-48 -29l-9 78l-65 -109l-127 53l23 54l40 40l-103 33l-106 -73l82 -13l2 -49l-107 -51l-100 97l9 -104l-48 33l73 -189l193 38l-127 -224l21 -51l48 24l67 220
l-26 -218l46 -36l36 41l-25 215l63 -209l57 -9l16 43l-129 206l193 -22zM478 573l-32 -35l-35 -68l-13 48l12 17l-68 11l26 13l17 -5l-1 19l28 19zM658 436l-30 -128l-35 38l-38 -26l-28 30l-31 -20l-45 40l-35 -47l-52 44l-22 -53l-37 28l-12 -35l-38 29l-34 -39l-38 91
l33 -14l11 58l38 -48l128 53l21 -52l16 62l148 -56l47 59l8 -40zM559 94l-32 -18l-30 100zM448 53l-40 1l18 142zM353 160l-28 -107l-29 17z" />
    <glyph glyph-name="partialdiff" unicode="&#x2202;" 
d="M793 300c0 -205 -168 -373 -373 -373s-373 168 -373 373s168 373 373 373s373 -168 373 -373zM693 491l-48 -29l-9 78l-65 -109l-127 53l23 54l40 40l-103 33l-106 -73l82 -13l2 -49l-107 -51l-100 97l9 -104l-48 33l73 -189l193 38l-127 -224l21 -51l48 24l67 220
l-26 -218l46 -36l36 41l-25 215l63 -209l57 -9l16 43l-129 206l193 -22zM478 573l-32 -35l-35 -68l-13 48l12 17l-68 11l26 13l17 -5l-1 19l28 19zM658 436l-30 -128l-35 38l-38 -26l-28 30l-31 -20l-45 40l-35 -47l-52 44l-22 -53l-37 28l-12 -35l-38 29l-34 -39l-38 91
l33 -14l11 58l38 -48l128 53l21 -52l16 62l148 -56l47 59l8 -40zM559 94l-32 -18l-30 100zM448 53l-40 1l18 142zM353 160l-28 -107l-29 17z" />
    <glyph glyph-name="summation" unicode="&#x2211;" 
d="M793 300c0 -205 -168 -373 -373 -373s-373 168 -373 373s168 373 373 373s373 -168 373 -373zM693 491l-48 -29l-9 78l-65 -109l-127 53l23 54l40 40l-103 33l-106 -73l82 -13l2 -49l-107 -51l-100 97l9 -104l-48 33l73 -189l193 38l-127 -224l21 -51l48 24l67 220
l-26 -218l46 -36l36 41l-25 215l63 -209l57 -9l16 43l-129 206l193 -22zM478 573l-32 -35l-35 -68l-13 48l12 17l-68 11l26 13l17 -5l-1 19l28 19zM658 436l-30 -128l-35 38l-38 -26l-28 30l-31 -20l-45 40l-35 -47l-52 44l-22 -53l-37 28l-12 -35l-38 29l-34 -39l-38 91
l33 -14l11 58l38 -48l128 53l21 -52l16 62l148 -56l47 59l8 -40zM559 94l-32 -18l-30 100zM448 53l-40 1l18 142zM353 160l-28 -107l-29 17z" />
    <glyph glyph-name="product" unicode="&#x220f;" 
d="M793 300c0 -205 -168 -373 -373 -373s-373 168 -373 373s168 373 373 373s373 -168 373 -373zM693 491l-48 -29l-9 78l-65 -109l-127 53l23 54l40 40l-103 33l-106 -73l82 -13l2 -49l-107 -51l-100 97l9 -104l-48 33l73 -189l193 38l-127 -224l21 -51l48 24l67 220
l-26 -218l46 -36l36 41l-25 215l63 -209l57 -9l16 43l-129 206l193 -22zM478 573l-32 -35l-35 -68l-13 48l12 17l-68 11l26 13l17 -5l-1 19l28 19zM658 436l-30 -128l-35 38l-38 -26l-28 30l-31 -20l-45 40l-35 -47l-52 44l-22 -53l-37 28l-12 -35l-38 29l-34 -39l-38 91
l33 -14l11 58l38 -48l128 53l21 -52l16 62l148 -56l47 59l8 -40zM559 94l-32 -18l-30 100zM448 53l-40 1l18 142zM353 160l-28 -107l-29 17z" />
    <glyph glyph-name="pi" unicode="&#x3c0;" horiz-adv-x="803" 
d="M774 306c0 -216 -167 -391 -372 -391c-206 0 -373 175 -373 391c0 217 167 393 373 393c205 0 372 -176 372 -393zM711 306c0 183 -139 334 -309 334c-171 0 -310 -151 -310 -334s139 -333 310 -333c170 0 309 150 309 333zM601 361c0 -98 -63 -137 -140 -146
c-17 -2 -80 -3 -80 -3v-101c0 -5 -1 -6 -5 -6h-121c-5 0 -5 0 -5 6v401c0 6 3 5 5 5h198c90 0 148 -64 148 -156zM473 365c0 40 -23 58 -60 58h-32v-115l33 2c42 2 59 20 59 55z" />
    <glyph glyph-name="integral" unicode="&#x222b;" 
d="M793 300c0 -205 -168 -373 -373 -373s-373 168 -373 373s168 373 373 373s373 -168 373 -373zM693 491l-48 -29l-9 78l-65 -109l-127 53l23 54l40 40l-103 33l-106 -73l82 -13l2 -49l-107 -51l-100 97l9 -104l-48 33l73 -189l193 38l-127 -224l21 -51l48 24l67 220
l-26 -218l46 -36l36 41l-25 215l63 -209l57 -9l16 43l-129 206l193 -22zM478 573l-32 -35l-35 -68l-13 48l12 17l-68 11l26 13l17 -5l-1 19l28 19zM658 436l-30 -128l-35 38l-38 -26l-28 30l-31 -20l-45 40l-35 -47l-52 44l-22 -53l-37 28l-12 -35l-38 29l-34 -39l-38 91
l33 -14l11 58l38 -48l128 53l21 -52l16 62l148 -56l47 59l8 -40zM559 94l-32 -18l-30 100zM448 53l-40 1l18 142zM353 160l-28 -107l-29 17z" />
    <glyph glyph-name="ordfeminine" unicode="&#xaa;" horiz-adv-x="560" 
d="M495 309c0 -10 0 -10 -7 -10h-99c-9 0 -10 2 -14 6l-27 25c-23 -23 -59 -42 -116 -42c-109 0 -193 74 -193 201c0 120 83 200 189 200c47 0 86 -11 113 -43v23c0 8 2 9 7 9h141c6 0 6 -1 6 -9v-360zM499 166c0 -9 -1 -15 -18 -15h-401c-8 0 -17 2 -17 15v78
c0 8 1 14 17 14h401c9 0 18 -2 18 -14v-78zM328 486c0 36 -23 60 -62 60c-38 0 -63 -23 -63 -60c0 -38 25 -60 63 -60c39 0 62 22 62 60z" />
    <glyph glyph-name="ordmasculine" unicode="&#xba;" horiz-adv-x="560" 
d="M504 487c0 -121 -89 -206 -220 -206c-134 0 -228 84 -228 206s93 205 227 205c132 0 221 -84 221 -205zM499 162c0 -9 -1 -15 -18 -15h-401c-6 0 -17 2 -17 15v78c0 7 1 14 17 14h401c9 0 18 -2 18 -14v-78zM346 487c0 39 -26 68 -68 68s-69 -28 -69 -68
c0 -48 27 -69 69 -69c43 0 68 25 68 69z" />
    <glyph glyph-name="Omega" unicode="&#x3a9;" 
d="M793 300c0 -205 -168 -373 -373 -373s-373 168 -373 373s168 373 373 373s373 -168 373 -373zM693 491l-48 -29l-9 78l-65 -109l-127 53l23 54l40 40l-103 33l-106 -73l82 -13l2 -49l-107 -51l-100 97l9 -104l-48 33l73 -189l193 38l-127 -224l21 -51l48 24l67 220
l-26 -218l46 -36l36 41l-25 215l63 -209l57 -9l16 43l-129 206l193 -22zM478 573l-32 -35l-35 -68l-13 48l12 17l-68 11l26 13l17 -5l-1 19l28 19zM658 436l-30 -128l-35 38l-38 -26l-28 30l-31 -20l-45 40l-35 -47l-52 44l-22 -53l-37 28l-12 -35l-38 29l-34 -39l-38 91
l33 -14l11 58l38 -48l128 53l21 -52l16 62l148 -56l47 59l8 -40zM559 94l-32 -18l-30 100zM448 53l-40 1l18 142zM353 160l-28 -107l-29 17z" />
    <glyph glyph-name="Omega" unicode="&#x2126;" 
d="M793 300c0 -205 -168 -373 -373 -373s-373 168 -373 373s168 373 373 373s373 -168 373 -373zM693 491l-48 -29l-9 78l-65 -109l-127 53l23 54l40 40l-103 33l-106 -73l82 -13l2 -49l-107 -51l-100 97l9 -104l-48 33l73 -189l193 38l-127 -224l21 -51l48 24l67 220
l-26 -218l46 -36l36 41l-25 215l63 -209l57 -9l16 43l-129 206l193 -22zM478 573l-32 -35l-35 -68l-13 48l12 17l-68 11l26 13l17 -5l-1 19l28 19zM658 436l-30 -128l-35 38l-38 -26l-28 30l-31 -20l-45 40l-35 -47l-52 44l-22 -53l-37 28l-12 -35l-38 29l-34 -39l-38 91
l33 -14l11 58l38 -48l128 53l21 -52l16 62l148 -56l47 59l8 -40zM559 94l-32 -18l-30 100zM448 53l-40 1l18 142zM353 160l-28 -107l-29 17z" />
    <glyph glyph-name="ae" unicode="&#xe6;" horiz-adv-x="904" 
d="M887 290c0 -35 -2 -51 -6 -68c0 -10 -5 -12 -20 -12h-299c0 -53 45 -88 102 -88c47 0 79 30 96 50c0 4 9 2 14 -5c21 -29 49 -69 69 -100c6 -9 3 -16 -5 -23c-31 -27 -100 -59 -177 -59c-70 0 -167 32 -201 85c-45 -63 -132 -79 -194 -79c-129 0 -236 84 -236 262
c0 160 101 262 237 262c56 0 110 -22 131 -61v39c0 9 2 12 8 12h110c9 0 12 -9 11 -32c24 24 74 45 134 45c123 0 226 -87 226 -228zM731 298c-4 53 -34 85 -85 85c-55 0 -79 -43 -84 -85h169zM398 250c0 66 -45 105 -100 105c-63 0 -102 -45 -102 -107
c0 -61 46 -103 102 -103c55 0 100 42 100 105z" />
    <glyph glyph-name="oslash" unicode="&#xf8;" horiz-adv-x="595" 
d="M573 482c3 -4 1 -11 -1 -13c-12 -11 -25 -23 -58 -54c32 -44 50 -100 50 -164c0 -159 -111 -268 -267 -268c-69 0 -129 21 -175 59c-31 -29 -40 -37 -53 -50c-4 -4 -9 -3 -13 3c-7 10 -14 19 -22 30c-4 4 -3 8 1 12c10 9 20 19 48 45c-34 44 -53 102 -53 169
c0 153 108 269 267 269c71 0 134 -23 180 -63c35 33 52 50 60 58c3 3 8 2 13 -4c6 -8 15 -19 23 -29zM358 343c-16 12 -38 19 -60 19c-58 0 -105 -45 -105 -111c0 -19 5 -37 12 -53c50 47 104 99 153 145zM401 251c0 18 -3 34 -9 48c-49 -47 -102 -97 -151 -143
c17 -11 37 -18 58 -18c57 0 102 46 102 113z" />
    <glyph glyph-name="questiondown" unicode="&#xbf;" horiz-adv-x="501" 
d="M325 526c0 -13 -5 -20 -17 -20h-147c-6 0 -13 5 -13 20v137c0 13 5 15 13 15h147c11 0 17 -2 17 -15v-137zM493 157c-38 -114 -107 -174 -241 -174c-132 0 -236 70 -236 201c0 75 27 118 68 154c51 45 74 83 70 120c0 8 1 11 6 11h146c8 0 6 0 7 -9
c3 -50 -10 -96 -52 -152c-29 -38 -60 -73 -60 -100c0 -43 22 -71 66 -71c47 0 79 29 89 89c1 6 6 11 13 7c18 -9 77 -40 122 -63c3 -1 5 -6 2 -13z" />
    <glyph glyph-name="exclamdown" unicode="&#xa1;" horiz-adv-x="336" 
d="M256 514c0 -8 -4 -12 -10 -12h-151c-7 0 -10 2 -10 12v153c0 7 5 11 10 11h151c6 0 10 -2 10 -11v-153zM260 5c0 -5 -3 -10 -8 -10c-74 -2 -81 -2 -157 0c-6 0 -7 3 -7 12c-5 108 -5 176 -3 296c0 6 37 112 49 147c2 6 5 10 12 10h50c7 0 13 -1 16 -10
c12 -35 48 -138 48 -147c4 -120 4 -188 0 -298z" />
    <glyph glyph-name="logicalnot" unicode="&#xac;" 
d="M793 300c0 -205 -168 -373 -373 -373s-373 168 -373 373s168 373 373 373s373 -168 373 -373zM693 491l-48 -29l-9 78l-65 -109l-127 53l23 54l40 40l-103 33l-106 -73l82 -13l2 -49l-107 -51l-100 97l9 -104l-48 33l73 -189l193 38l-127 -224l21 -51l48 24l67 220
l-26 -218l46 -36l36 41l-25 215l63 -209l57 -9l16 43l-129 206l193 -22zM478 573l-32 -35l-35 -68l-13 48l12 17l-68 11l26 13l17 -5l-1 19l28 19zM658 436l-30 -128l-35 38l-38 -26l-28 30l-31 -20l-45 40l-35 -47l-52 44l-22 -53l-37 28l-12 -35l-38 29l-34 -39l-38 91
l33 -14l11 58l38 -48l128 53l21 -52l16 62l148 -56l47 59l8 -40zM559 94l-32 -18l-30 100zM448 53l-40 1l18 142zM353 160l-28 -107l-29 17z" />
    <glyph glyph-name="radical" unicode="&#x221a;" horiz-adv-x="663" 
d="M664 663c-97 -175 -237 -472 -317 -693c-4 -13 -7 -11 -13 -9c-62 22 -72 31 -76 43c-46 126 -116 247 -237 247c-14 0 -8 31 -2 42c24 44 64 130 78 170c7 20 18 26 33 22c90 -20 191 -141 217 -294c47 156 175 409 229 508c6 11 8 14 16 11c14 -5 62 -22 72 -29
c7 -5 8 -5 0 -18z" />
    <glyph glyph-name="florin" unicode="&#x192;" horiz-adv-x="497" 
d="M447 279c0 -7 -6 -10 -13 -10h-104v-217c0 -146 -55 -211 -172 -211c-38 0 -84 12 -107 20c-6 2 -10 6 -9 15c2 14 11 97 12 108c1 13 5 16 19 12c44 -12 73 22 73 55v216h-85c-9 0 -13 4 -13 12v118c0 8 4 10 13 10h85v124c0 69 30 147 153 147h128c8 0 7 -2 7 -10v-120
c0 -8 1 -9 -7 -9h-97v-130h104c8 0 13 -4 13 -12v-118z" />
    <glyph glyph-name="approxequal" unicode="&#x2248;" 
d="M793 300c0 -205 -168 -373 -373 -373s-373 168 -373 373s168 373 373 373s373 -168 373 -373zM693 491l-48 -29l-9 78l-65 -109l-127 53l23 54l40 40l-103 33l-106 -73l82 -13l2 -49l-107 -51l-100 97l9 -104l-48 33l73 -189l193 38l-127 -224l21 -51l48 24l67 220
l-26 -218l46 -36l36 41l-25 215l63 -209l57 -9l16 43l-129 206l193 -22zM478 573l-32 -35l-35 -68l-13 48l12 17l-68 11l26 13l17 -5l-1 19l28 19zM658 436l-30 -128l-35 38l-38 -26l-28 30l-31 -20l-45 40l-35 -47l-52 44l-22 -53l-37 28l-12 -35l-38 29l-34 -39l-38 91
l33 -14l11 58l38 -48l128 53l21 -52l16 62l148 -56l47 59l8 -40zM559 94l-32 -18l-30 100zM448 53l-40 1l18 142zM353 160l-28 -107l-29 17z" />
    <glyph glyph-name="Delta" unicode="&#x394;" 
d="M793 300c0 -205 -168 -373 -373 -373s-373 168 -373 373s168 373 373 373s373 -168 373 -373zM693 491l-48 -29l-9 78l-65 -109l-127 53l23 54l40 40l-103 33l-106 -73l82 -13l2 -49l-107 -51l-100 97l9 -104l-48 33l73 -189l193 38l-127 -224l21 -51l48 24l67 220
l-26 -218l46 -36l36 41l-25 215l63 -209l57 -9l16 43l-129 206l193 -22zM478 573l-32 -35l-35 -68l-13 48l12 17l-68 11l26 13l17 -5l-1 19l28 19zM658 436l-30 -128l-35 38l-38 -26l-28 30l-31 -20l-45 40l-35 -47l-52 44l-22 -53l-37 28l-12 -35l-38 29l-34 -39l-38 91
l33 -14l11 58l38 -48l128 53l21 -52l16 62l148 -56l47 59l8 -40zM559 94l-32 -18l-30 100zM448 53l-40 1l18 142zM353 160l-28 -107l-29 17z" />
    <glyph glyph-name="Delta" unicode="&#x2206;" 
d="M793 300c0 -205 -168 -373 -373 -373s-373 168 -373 373s168 373 373 373s373 -168 373 -373zM693 491l-48 -29l-9 78l-65 -109l-127 53l23 54l40 40l-103 33l-106 -73l82 -13l2 -49l-107 -51l-100 97l9 -104l-48 33l73 -189l193 38l-127 -224l21 -51l48 24l67 220
l-26 -218l46 -36l36 41l-25 215l63 -209l57 -9l16 43l-129 206l193 -22zM478 573l-32 -35l-35 -68l-13 48l12 17l-68 11l26 13l17 -5l-1 19l28 19zM658 436l-30 -128l-35 38l-38 -26l-28 30l-31 -20l-45 40l-35 -47l-52 44l-22 -53l-37 28l-12 -35l-38 29l-34 -39l-38 91
l33 -14l11 58l38 -48l128 53l21 -52l16 62l148 -56l47 59l8 -40zM559 94l-32 -18l-30 100zM448 53l-40 1l18 142zM353 160l-28 -107l-29 17z" />
    <glyph glyph-name="guillemotleft" unicode="&#xab;" horiz-adv-x="587" 
d="M536 8c0 -6 -3 -10 -7 -10c-3 0 -6 1 -9 5c-65 68 -173 180 -228 237c-2 2 -2 9 -2 14c0 4 0 12 2 14c52 54 163 169 228 238c3 4 6 5 9 5c4 0 7 -4 7 -10v-166c0 -12 -3 -18 -8 -23l-71 -57l71 -59c5 -4 8 -10 8 -21v-167zM272 8c0 -6 -3 -10 -7 -10c-3 0 -6 1 -9 5
c-65 68 -173 180 -228 237c-2 2 -2 9 -2 14c0 4 0 12 2 14c52 54 163 169 228 238c3 4 6 5 9 5c4 0 7 -4 7 -10v-166c0 -12 -3 -18 -8 -23l-71 -57l71 -59c5 -4 8 -10 8 -21v-167z" />
    <glyph glyph-name="guillemotright" unicode="&#xbb;" horiz-adv-x="587" 
d="M561 254c0 -4 0 -12 -2 -14c-52 -54 -163 -169 -228 -238c-3 -4 -6 -5 -9 -5c-4 0 -7 4 -7 10v166c0 12 3 18 8 23l71 57l-71 59c-5 4 -8 10 -8 21v167c0 6 3 10 7 10c3 0 6 -1 9 -5c65 -68 173 -180 228 -237c2 -2 2 -9 2 -14zM296 254c0 -4 0 -12 -2 -14
c-52 -54 -163 -169 -228 -238c-3 -4 -6 -5 -9 -5c-4 0 -7 4 -7 10v166c0 12 3 18 8 23l71 57l-71 59c-5 4 -8 10 -8 21v167c0 6 3 10 7 10c3 0 6 -1 9 -5c65 -68 173 -180 228 -237c2 -2 2 -9 2 -14z" />
    <glyph glyph-name="ellipsis" unicode="&#x2026;" horiz-adv-x="908" 
d="M845 22c0 -16 -2 -22 -18 -22h-141c-13 0 -18 5 -18 20v140c0 19 8 25 20 25h141c13 0 16 -3 16 -16v-147zM541 22c0 -16 -2 -22 -18 -22h-141c-13 0 -18 5 -18 20v140c0 19 8 25 20 25h141c13 0 16 -3 16 -16v-147zM239 22c0 -16 -2 -22 -18 -22h-141
c-13 0 -18 5 -18 20v140c0 19 8 25 20 25h141c13 0 16 -3 16 -16v-147z" />
    <glyph glyph-name="nbspace" horiz-adv-x="107" 
 />
    <glyph glyph-name="Agrave" unicode="&#xc0;" horiz-adv-x="705" 
d="M704 14c6 -13 5 -14 -4 -14h-187c-5 0 -9 1 -12 8c-12 27 -27 64 -37 89h-242c-12 -28 -25 -62 -35 -86c-3 -8 -5 -11 -18 -11h-166c-8 0 -9 4 -5 14c104 221 262 540 340 686c1 2 6 2 12 2s11 1 12 -2c91 -178 232 -465 342 -686zM411 227l-71 152l-68 -152h139z
M398 733c2 -4 -31 -17 -43 -12c-73 35 -108 55 -179 91c0 0 -11 17 -7 19c37 24 78 47 124 76c3 2 4 3 8 -2c38 -70 57 -103 97 -172z" />
    <glyph glyph-name="Atilde" unicode="&#xc3;" horiz-adv-x="705" 
d="M704 14c6 -13 5 -14 -4 -14h-187c-5 0 -9 1 -12 8c-12 27 -27 64 -37 89h-242c-12 -28 -25 -62 -35 -86c-3 -8 -5 -11 -18 -11h-166c-8 0 -9 4 -5 14c104 221 262 540 340 686c1 2 6 2 12 2s11 1 12 -2c91 -178 232 -465 342 -686zM411 227l-71 152l-68 -152h139z
M531 824c-2 -10 -42 -113 -121 -113c-32 0 -52 11 -69 22c-19 11 -36 24 -63 24c-22 0 -37 -9 -51 -21c-7 -7 -14 -15 -22 -22c-6 -4 -18 0 -18 10c2 82 56 130 122 130c30 0 51 -10 68 -21c21 -14 36 -29 59 -29c20 0 35 4 47 10c12 7 21 15 31 22c6 5 19 -3 17 -12z" />
    <glyph glyph-name="Otilde" unicode="&#xd5;" horiz-adv-x="790" 
d="M750 337c0 -196 -153 -354 -355 -354s-355 158 -355 354s153 355 355 355s355 -159 355 -355zM563 337c0 103 -62 184 -168 184c-108 0 -168 -81 -168 -184s60 -183 168 -183c106 0 168 80 168 183zM575 824c-2 -10 -42 -113 -121 -113c-32 0 -52 11 -69 22
c-19 11 -36 24 -63 24c-22 0 -37 -9 -51 -21c-7 -7 -14 -15 -22 -22c-6 -4 -18 0 -18 10c2 82 56 130 122 130c30 0 51 -10 68 -21c21 -14 36 -29 59 -29c20 0 35 4 47 10c12 7 21 15 31 22c6 5 19 -3 17 -12z" />
    <glyph glyph-name="OE" unicode="&#x152;" horiz-adv-x="864" 
d="M805 14c0 -12 -1 -14 -12 -14h-280c-57 0 -90 -4 -134 -4c-204 0 -339 125 -339 342c0 231 167 343 336 343c60 0 102 -3 137 -3h273c9 0 10 -1 10 -13v-121c0 -11 -1 -14 -10 -14l-229 2v-113h221c11 0 12 -2 12 -14v-122c0 -12 -1 -14 -12 -14h-221v-116l236 2
c12 0 12 0 12 -13v-128zM385 151v373c-97 -12 -158 -78 -158 -187c0 -115 74 -182 158 -186z" />
    <glyph glyph-name="oe" unicode="&#x153;" horiz-adv-x="903" 
d="M883 290c0 -35 -2 -51 -6 -68c-2 -10 -5 -12 -20 -12h-299c1 -54 43 -88 102 -88c47 0 79 30 96 50c3 4 9 2 14 -5c21 -29 49 -69 69 -100c6 -9 3 -16 -5 -23c-31 -27 -100 -59 -177 -59c-63 0 -127 16 -179 62c-53 -48 -126 -64 -181 -64c-154 0 -267 108 -267 268
c0 153 108 269 267 269c90 0 140 -34 181 -70c38 38 85 68 179 68c123 0 226 -87 226 -228zM727 298c-4 53 -34 85 -85 85c-55 0 -79 -43 -84 -85h169zM398 251c0 66 -45 108 -100 108c-56 0 -102 -44 -102 -108c0 -63 47 -110 103 -110c55 0 99 45 99 110z" />
    <glyph glyph-name="endash" unicode="&#x2013;" horiz-adv-x="432" 
d="M432 245c0 -8 1 -12 -14 -12h-406c-11 0 -13 1 -13 12v111c0 12 3 12 13 12h406c14 0 14 -1 14 -12v-111z" />
    <glyph glyph-name="emdash" unicode="&#x2014;" horiz-adv-x="864" 
d="M864 245c0 -8 -1 -12 -14 -12h-838c-11 0 -13 1 -13 12v111c0 12 0 12 13 12h838c13 0 14 -1 14 -12v-111z" />
    <glyph glyph-name="quotedblleft" unicode="&#x201c;" horiz-adv-x="487" 
d="M449 408c0 -6 -9 -14 -25 -14c-15 0 -27 2 -29 6c-50 98 -82 150 -138 251c-1 3 -2 9 -2 15s1 12 4 12h183c4 0 7 0 7 -10v-260zM215 408c0 -6 -9 -14 -25 -14c-15 0 -27 2 -29 6c-50 98 -82 150 -138 251c-1 3 -2 9 -2 15s1 12 4 12h183c4 0 7 0 7 -10v-260z" />
    <glyph glyph-name="quotedblright" unicode="&#x201d;" horiz-adv-x="488" 
d="M466 666c0 -6 -1 -12 -2 -15c-56 -101 -88 -153 -138 -251c-2 -4 -14 -6 -29 -6c-16 0 -25 8 -25 14v260c0 10 3 10 7 10h183c3 0 4 -6 4 -12zM232 666c0 -6 -1 -12 -2 -15c-56 -101 -88 -153 -138 -251c-2 -4 -14 -6 -29 -6c-16 0 -25 8 -25 14v260c0 10 3 10 7 10h183
c3 0 4 -6 4 -12z" />
    <glyph glyph-name="quoteleft" unicode="&#x2018;" horiz-adv-x="253" 
d="M215 408c0 -6 -9 -14 -25 -14c-15 0 -27 2 -29 6c-50 98 -82 150 -138 251c-1 3 -2 9 -2 15s1 12 4 12h183c4 0 7 0 7 -10v-260z" />
    <glyph glyph-name="quoteright" unicode="&#x2019;" horiz-adv-x="253" 
d="M232 666c0 -6 -1 -12 -2 -15c-56 -101 -88 -153 -138 -251c-2 -4 -14 -6 -29 -6c-16 0 -25 8 -25 14v260c0 10 3 10 7 10h183c3 0 4 -6 4 -12z" />
    <glyph glyph-name="divide" unicode="&#xf7;" 
d="M793 300c0 -205 -168 -373 -373 -373s-373 168 -373 373s168 373 373 373s373 -168 373 -373zM693 491l-48 -29l-9 78l-65 -109l-127 53l23 54l40 40l-103 33l-106 -73l82 -13l2 -49l-107 -51l-100 97l9 -104l-48 33l73 -189l193 38l-127 -224l21 -51l48 24l67 220
l-26 -218l46 -36l36 41l-25 215l63 -209l57 -9l16 43l-129 206l193 -22zM478 573l-32 -35l-35 -68l-13 48l12 17l-68 11l26 13l17 -5l-1 19l28 19zM658 436l-30 -128l-35 38l-38 -26l-28 30l-31 -20l-45 40l-35 -47l-52 44l-22 -53l-37 28l-12 -35l-38 29l-34 -39l-38 91
l33 -14l11 58l38 -48l128 53l21 -52l16 62l148 -56l47 59l8 -40zM559 94l-32 -18l-30 100zM448 53l-40 1l18 142zM353 160l-28 -107l-29 17z" />
    <glyph glyph-name="lozenge" unicode="&#x25ca;" 
d="M793 300c0 -205 -168 -373 -373 -373s-373 168 -373 373s168 373 373 373s373 -168 373 -373zM693 491l-48 -29l-9 78l-65 -109l-127 53l23 54l40 40l-103 33l-106 -73l82 -13l2 -49l-107 -51l-100 97l9 -104l-48 33l73 -189l193 38l-127 -224l21 -51l48 24l67 220
l-26 -218l46 -36l36 41l-25 215l63 -209l57 -9l16 43l-129 206l193 -22zM478 573l-32 -35l-35 -68l-13 48l12 17l-68 11l26 13l17 -5l-1 19l28 19zM658 436l-30 -128l-35 38l-38 -26l-28 30l-31 -20l-45 40l-35 -47l-52 44l-22 -53l-37 28l-12 -35l-38 29l-34 -39l-38 91
l33 -14l11 58l38 -48l128 53l21 -52l16 62l148 -56l47 59l8 -40zM559 94l-32 -18l-30 100zM448 53l-40 1l18 142zM353 160l-28 -107l-29 17z" />
    <glyph glyph-name="ydieresis" unicode="&#xff;" horiz-adv-x="520" 
d="M520 491c-71 -198 -170 -459 -248 -650c-2 -5 -3 -7 -11 -7h-145c-11 0 -13 1 -9 12c22 61 82 205 82 205s-128 300 -189 440c-6 14 1 14 10 14h157c10 0 10 -3 13 -11c20 -52 95 -244 95 -244s56 191 72 244c2 7 6 11 16 11h150c6 0 10 -6 7 -14zM467 558
c0 -7 -3 -8 -7 -8h-158c-5 0 -7 6 -7 11v97c0 4 0 9 7 9h157c5 0 8 0 8 -9v-100zM225 558c0 -7 -2 -8 -8 -8h-156c-5 0 -6 6 -6 11v97c0 4 0 9 5 9h157c6 0 8 0 8 -9v-100z" />
    <glyph glyph-name="Ydieresis" unicode="&#x178;" horiz-adv-x="644" 
d="M640 653c-88 -195 -215 -437 -215 -437v-202c0 -13 0 -14 -11 -14h-166c-6 0 -7 1 -7 14v197s-144 259 -241 454c-7 13 -6 13 6 13h169c16 0 20 -4 26 -16c41 -83 132 -290 132 -290s93 205 125 288c6 15 9 18 21 18h147c21 0 24 -3 14 -25zM540 722c0 -7 -3 -8 -7 -8
h-158c-5 0 -7 6 -7 11v97c0 4 0 9 7 9h157c5 0 8 0 8 -9v-100zM298 722c0 -7 -2 -8 -8 -8h-156c-5 0 -6 6 -6 11v97c0 4 0 9 5 9h157c6 0 8 0 8 -9v-100z" />
    <glyph glyph-name="fraction" unicode="&#x2044;" horiz-adv-x="349" 
d="M468 636c-116 -175 -371 -549 -494 -711c-7 -11 -10 -11 -13 -10c-14 10 -55 38 -73 52c-7 5 -9 9 -8 11c94 134 386 554 501 710c6 9 10 15 15 12c16 -8 63 -38 72 -46c6 -5 6 -9 0 -18z" />
    <glyph glyph-name="fraction" unicode="&#x2215;" horiz-adv-x="349" 
d="M468 636c-116 -175 -371 -549 -494 -711c-7 -11 -10 -11 -13 -10c-14 10 -55 38 -73 52c-7 5 -9 9 -8 11c94 134 386 554 501 710c6 9 10 15 15 12c16 -8 63 -38 72 -46c6 -5 6 -9 0 -18z" />
    <glyph glyph-name="currency" unicode="&#xa4;" horiz-adv-x="785" 
d="M272 367c-1 -10 -2 -21 -2 -32c0 -10 1 -19 1 -28h186c8 0 17 -4 17 -15v-53s-3 -15 -17 -15h-157c32 -48 84 -71 137 -71c68 0 116 33 140 84c3 5 4 9 12 7l150 -41c10 -2 11 -7 9 -13c-45 -109 -157 -207 -313 -207c-170 0 -294 102 -338 241h-79c-9 0 -17 5 -17 15v53
c0 9 3 15 17 15h63c-1 9 -1 19 -1 29s0 21 1 31h-63c-9 0 -17 5 -17 15v53c0 9 3 15 17 15h79c45 145 176 242 333 242c165 0 266 -89 311 -191c5 -12 1 -16 -3 -18l-149 -58c-6 -2 -7 0 -9 5c-29 60 -77 91 -146 91c-59 0 -105 -27 -133 -71h156c8 0 17 -4 17 -15v-53
s-3 -15 -17 -15h-185z" />
    <glyph glyph-name="guilsinglleft" unicode="&#x2039;" horiz-adv-x="324" 
d="M272 8c0 -6 -3 -10 -7 -10c-3 0 -6 1 -9 5c-65 68 -173 180 -228 237c-2 2 -2 9 -2 14c0 4 0 12 2 14c52 54 163 169 228 238c3 4 6 5 9 5c4 0 7 -4 7 -10v-166c0 -12 -3 -18 -8 -23l-71 -57l71 -59c5 -4 8 -10 8 -21v-167z" />
    <glyph glyph-name="guilsinglright" unicode="&#x203a;" horiz-adv-x="324" 
d="M299 254c0 -4 0 -12 -2 -14c-52 -54 -163 -169 -228 -238c-3 -4 -6 -5 -9 -5c-4 0 -7 4 -7 10v166c0 12 3 18 8 23l71 57l-71 59c-5 4 -8 10 -8 21v167c0 6 3 10 7 10c3 0 6 -1 9 -5c65 -68 173 -180 228 -237c2 -2 2 -9 2 -14z" />
    <glyph glyph-name="daggerdbl" unicode="&#x2021;" horiz-adv-x="556" 
d="M515 84c0 -9 -4 -12 -13 -12c-48 0 -103 4 -153 4c-4 -57 -5 -144 -5 -176c0 -10 -1 -15 -11 -15h-116c-8 0 -11 1 -11 15c0 30 -2 123 -7 178c-48 -1 -94 -6 -147 -6c-9 0 -13 3 -13 12v118c0 8 2 11 13 11c53 0 150 -3 150 -3v158s-115 -5 -151 -7c-11 -1 -12 1 -12 12
v118c0 8 2 11 12 11c49 0 99 -3 150 -3c3 56 5 144 5 176c0 8 0 14 11 14h116c7 0 11 -5 11 -14c0 -30 1 -123 7 -178c47 0 97 5 150 5c10 0 14 0 14 -11v-118c0 -8 -1 -13 -14 -12c-53 2 -154 7 -154 7v-158s119 2 155 3c12 1 13 -1 13 -11v-118z" />
    <glyph glyph-name="periodcentered" unicode="&#xb7;" horiz-adv-x="334" 
d="M272 274c0 -11 -5 -17 -17 -17h-171c-11 0 -16 4 -16 17v160c0 13 4 17 16 17h171c13 0 17 -7 17 -17v-160z" />
    <glyph glyph-name="periodcentered" unicode="&#x2219;" horiz-adv-x="334" 
d="M272 274c0 -11 -5 -17 -17 -17h-171c-11 0 -16 4 -16 17v160c0 13 4 17 16 17h171c13 0 17 -7 17 -17v-160z" />
    <glyph glyph-name="quotesinglbase" unicode="&#x201a;" horiz-adv-x="253" 
d="M232 166c0 -6 -1 -12 -2 -15c-56 -101 -88 -153 -138 -251c-2 -4 -14 -6 -29 -6c-16 0 -25 8 -25 14v260c0 10 3 10 7 10h183c3 0 4 -6 4 -12z" />
    <glyph glyph-name="quotedblbase" unicode="&#x201e;" horiz-adv-x="487" 
d="M466 166c0 -6 -1 -12 -2 -15c-56 -101 -88 -153 -138 -251c-2 -4 -14 -6 -29 -6c-16 0 -25 8 -25 14v260c0 10 3 10 7 10h183c3 0 4 -6 4 -12zM232 166c0 -6 -1 -12 -2 -15c-56 -101 -88 -153 -138 -251c-2 -4 -14 -6 -29 -6c-16 0 -25 8 -25 14v260c0 10 3 10 7 10h183
c3 0 4 -6 4 -12z" />
    <glyph glyph-name="perthousand" unicode="&#x2030;" horiz-adv-x="1256" 
d="M401 497c0 -102 -76 -181 -187 -181s-191 79 -191 181s79 181 190 181c112 0 188 -79 188 -181zM718 651c-195 -227 -514 -637 -527 -667c-18 1 -70 36 -69 49c187 214 509 621 527 654c22 -10 45 -23 69 -36zM1221 174c0 -102 -76 -181 -187 -181s-191 78 -191 181
c0 101 79 181 190 181c112 0 188 -80 188 -181zM801 174c0 -102 -76 -181 -187 -181s-191 78 -191 181c0 101 79 181 190 181c112 0 188 -80 188 -181zM281 497c0 36 -29 70 -70 70s-70 -34 -70 -70s27 -69 70 -69c41 0 70 33 70 69zM1101 172c0 36 -29 70 -70 70
s-70 -34 -70 -70s27 -69 70 -69c41 0 70 33 70 69zM681 172c0 36 -29 70 -70 70s-70 -34 -70 -70s27 -69 70 -69c41 0 70 33 70 69z" />
    <glyph glyph-name="Acircumflex" unicode="&#xc2;" horiz-adv-x="705" 
d="M704 14c6 -13 5 -14 -4 -14h-187c-5 0 -9 1 -12 8c-12 27 -27 64 -37 89h-242c-12 -28 -25 -62 -35 -86c-3 -8 -5 -11 -18 -11h-166c-8 0 -9 4 -5 14c104 221 262 540 340 686c1 2 6 2 12 2s11 1 12 -2c91 -178 232 -465 342 -686zM411 227l-71 152l-68 -152h139z
M519 718c0 -3 -4 -4 -10 -4h-98c-4 0 -10 1 -15 5c-19 11 -50 46 -50 46s-30 -35 -49 -46c-3 -3 -8 -5 -13 -5h-103c-5 0 -7 1 -7 4c0 1 3 4 7 7c11 12 149 144 157 151c4 3 5 6 9 6s6 -3 10 -7c10 -8 143 -136 154 -148c4 -4 8 -7 8 -9z" />
    <glyph glyph-name="Ecircumflex" unicode="&#xca;" horiz-adv-x="585" 
d="M554 14c0 -12 -1 -14 -11 -14h-457c-10 0 -11 2 -11 14v654c0 9 -1 10 9 10h452c10 0 11 -1 11 -13v-122c0 -9 -3 -14 -11 -14l-286 3v-113h280c9 0 10 -2 10 -14v-122c0 -12 -1 -14 -10 -14h-280v-116l293 3c11 0 11 0 11 -13v-129zM485 718c0 -3 -4 -4 -10 -4h-98
c-4 0 -10 1 -15 5c-19 11 -50 46 -50 46s-30 -35 -49 -46c-3 -3 -8 -5 -13 -5h-103c-5 0 -7 1 -7 4c0 1 3 4 7 7c11 12 149 144 157 151c4 3 5 6 9 6s6 -3 10 -7c10 -8 143 -136 154 -148c4 -4 8 -7 8 -9z" />
    <glyph glyph-name="Aacute" unicode="&#xc1;" horiz-adv-x="705" 
d="M704 14c6 -13 5 -14 -4 -14h-187c-5 0 -9 1 -12 8c-12 27 -27 64 -37 89h-242c-12 -28 -25 -62 -35 -86c-3 -8 -5 -11 -18 -11h-166c-8 0 -9 4 -5 14c104 221 262 540 340 686c1 2 6 2 12 2s11 1 12 -2c91 -178 232 -465 342 -686zM411 227l-71 152l-68 -152h139z
M487 819c4 -2 -6 -19 -6 -19c-72 -36 -107 -56 -180 -91c-11 -5 -44 8 -43 12c40 69 59 102 98 172c3 5 5 4 7 2c46 -29 87 -52 124 -76z" />
    <glyph glyph-name="Edieresis" unicode="&#xcb;" horiz-adv-x="585" 
d="M554 14c0 -12 -1 -14 -11 -14h-457c-10 0 -11 2 -11 14v654c0 9 -1 10 9 10h452c10 0 11 -1 11 -13v-122c0 -9 -3 -14 -11 -14l-286 3v-113h280c9 0 10 -2 10 -14v-122c0 -12 -1 -14 -10 -14h-280v-116l293 3c11 0 11 0 11 -13v-129zM519 722c0 -7 -3 -8 -7 -8h-158
c-5 0 -7 6 -7 11v97c0 4 0 9 7 9h157c5 0 8 0 8 -9v-100zM277 722c0 -7 -2 -8 -8 -8h-156c-5 0 -6 6 -6 11v97c0 4 0 9 5 9h157c6 0 8 0 8 -9v-100z" />
    <glyph glyph-name="Egrave" unicode="&#xc8;" horiz-adv-x="585" 
d="M554 14c0 -12 -1 -14 -11 -14h-457c-10 0 -11 2 -11 14v654c0 9 -1 10 9 10h452c10 0 11 -1 11 -13v-122c0 -9 -3 -14 -11 -14l-286 3v-113h280c9 0 10 -2 10 -14v-122c0 -12 -1 -14 -10 -14h-280v-116l293 3c11 0 11 0 11 -13v-129zM405 718c2 -4 -31 -17 -43 -12
c-73 35 -108 55 -179 91c0 0 -11 17 -7 19c37 24 78 47 124 76c3 2 4 3 8 -2c38 -70 57 -103 97 -172z" />
    <glyph glyph-name="Iacute" unicode="&#xcd;" horiz-adv-x="335" 
d="M260 9c0 -8 -1 -9 -10 -9h-166c-9 0 -9 -1 -9 9v660c0 10 0 9 9 9h166c9 0 10 -1 10 -9v-660zM325 820c4 -2 -6 -19 -6 -19c-72 -36 -107 -56 -180 -91c-11 -5 -44 8 -43 12c40 69 59 102 98 172c3 5 5 4 7 2c46 -29 87 -52 124 -76z" />
    <glyph glyph-name="Icircumflex" unicode="&#xce;" horiz-adv-x="335" 
d="M260 9c0 -8 -1 -9 -10 -9h-166c-9 0 -9 -1 -9 9v660c0 10 0 9 9 9h166c9 0 10 -1 10 -9v-660zM338 718c0 -3 -4 -4 -10 -4h-98c-4 0 -10 1 -15 5c-19 11 -50 46 -50 46s-30 -35 -49 -46c-3 -3 -8 -5 -13 -5h-103c-5 0 -7 1 -7 4c0 1 3 4 7 7c11 12 149 144 157 151
c4 3 5 6 9 6s6 -3 10 -7c10 -8 143 -136 154 -148c4 -4 8 -7 8 -9z" />
    <glyph glyph-name="Idieresis" unicode="&#xcf;" horiz-adv-x="335" 
d="M260 9c0 -8 -1 -9 -10 -9h-166c-9 0 -9 -1 -9 9v660c0 10 0 9 9 9h166c9 0 10 -1 10 -9v-660zM369 722c0 -7 -3 -8 -7 -8h-158c-5 0 -7 6 -7 11v97c0 4 0 9 7 9h157c5 0 8 0 8 -9v-100zM127 722c0 -7 -2 -8 -8 -8h-156c-5 0 -6 6 -6 11v97c0 4 0 9 5 9h157c6 0 8 0 8 -9
v-100z" />
    <glyph glyph-name="Igrave" unicode="&#xcc;" horiz-adv-x="335" 
d="M260 9c0 -8 -1 -9 -10 -9h-166c-9 0 -9 -1 -9 9v660c0 10 0 9 9 9h166c9 0 10 -1 10 -9v-660zM226 720c2 -4 -31 -17 -43 -12c-73 35 -108 55 -179 91c0 0 -11 17 -7 19c37 24 78 47 124 76c3 2 4 3 8 -2c38 -70 57 -103 97 -172z" />
    <glyph glyph-name="Oacute" unicode="&#xd3;" horiz-adv-x="790" 
d="M750 337c0 -196 -153 -354 -355 -354s-355 158 -355 354s153 355 355 355s355 -159 355 -355zM563 337c0 103 -62 184 -168 184c-108 0 -168 -81 -168 -184s60 -183 168 -183c106 0 168 80 168 183zM572 819c4 -2 -6 -19 -6 -19c-72 -36 -107 -56 -180 -91
c-11 -5 -44 8 -43 12c40 69 59 102 98 172c3 5 5 4 7 2c46 -29 87 -52 124 -76z" />
    <glyph glyph-name="Ocircumflex" unicode="&#xd4;" horiz-adv-x="790" 
d="M750 337c0 -196 -153 -354 -355 -354s-355 158 -355 354s153 355 355 355s355 -159 355 -355zM563 337c0 103 -62 184 -168 184c-108 0 -168 -81 -168 -184s60 -183 168 -183c106 0 168 80 168 183zM565 718c0 -3 -4 -4 -10 -4h-98c-4 0 -10 1 -15 5
c-19 11 -50 46 -50 46s-30 -35 -49 -46c-3 -3 -8 -5 -13 -5h-103c-5 0 -7 1 -7 4c0 1 3 4 7 7c11 12 149 144 157 151c4 3 5 6 9 6s6 -3 10 -7c10 -8 143 -136 154 -148c4 -4 8 -7 8 -9z" />
    <glyph glyph-name="apple" unicode="&#xf8ff;" 
d="M793 300c0 -205 -168 -373 -373 -373s-373 168 -373 373s168 373 373 373s373 -168 373 -373zM693 491l-48 -29l-9 78l-65 -109l-127 53l23 54l40 40l-103 33l-106 -73l82 -13l2 -49l-107 -51l-100 97l9 -104l-48 33l73 -189l193 38l-127 -224l21 -51l48 24l67 220
l-26 -218l46 -36l36 41l-25 215l63 -209l57 -9l16 43l-129 206l193 -22zM478 573l-32 -35l-35 -68l-13 48l12 17l-68 11l26 13l17 -5l-1 19l28 19zM658 436l-30 -128l-35 38l-38 -26l-28 30l-31 -20l-45 40l-35 -47l-52 44l-22 -53l-37 28l-12 -35l-38 29l-34 -39l-38 91
l33 -14l11 58l38 -48l128 53l21 -52l16 62l148 -56l47 59l8 -40zM559 94l-32 -18l-30 100zM448 53l-40 1l18 142zM353 160l-28 -107l-29 17z" />
    <glyph glyph-name="Ograve" unicode="&#xd2;" horiz-adv-x="790" 
d="M750 337c0 -196 -153 -354 -355 -354s-355 158 -355 354s153 355 355 355s355 -159 355 -355zM563 337c0 103 -62 184 -168 184c-108 0 -168 -81 -168 -184s60 -183 168 -183c106 0 168 80 168 183zM454 720c2 -4 -31 -17 -43 -12c-73 35 -108 55 -179 91
c0 0 -11 17 -7 19c37 24 78 47 124 76c3 2 4 3 8 -2c38 -70 57 -103 97 -172z" />
    <glyph glyph-name="Uacute" unicode="&#xda;" horiz-adv-x="695" 
d="M630 246c0 -161 -83 -263 -282 -263c-191 0 -283 108 -283 273v416c0 6 0 6 5 6h168c7 0 7 0 7 -8v-445c0 -67 56 -95 105 -95c48 0 105 27 105 95v446c0 6 0 7 6 7h164c5 0 5 0 5 -7v-425zM511 816c4 -2 -6 -19 -6 -19c-72 -36 -107 -56 -180 -91c-11 -5 -44 8 -43 12
c40 69 59 102 98 172c3 5 5 4 7 2c46 -29 87 -52 124 -76z" />
    <glyph glyph-name="Ucircumflex" unicode="&#xdb;" horiz-adv-x="695" 
d="M630 246c0 -161 -83 -263 -282 -263c-191 0 -283 108 -283 273v416c0 6 0 6 5 6h168c7 0 7 0 7 -8v-445c0 -67 56 -95 105 -95c48 0 105 27 105 95v446c0 6 0 7 6 7h164c5 0 5 0 5 -7v-425zM521 718c0 -3 -4 -4 -10 -4h-98c-4 0 -10 1 -15 5c-19 11 -50 46 -50 46
s-30 -35 -49 -46c-3 -3 -8 -5 -13 -5h-103c-5 0 -7 1 -7 4c0 1 3 4 7 7c11 12 149 144 157 151c4 3 5 6 9 6s6 -3 10 -7c10 -8 143 -136 154 -148c4 -4 8 -7 8 -9z" />
    <glyph glyph-name="Ugrave" unicode="&#xd9;" horiz-adv-x="695" 
d="M630 246c0 -161 -83 -263 -282 -263c-191 0 -283 108 -283 273v416c0 6 0 6 5 6h168c7 0 7 0 7 -8v-445c0 -67 56 -95 105 -95c48 0 105 27 105 95v446c0 6 0 7 6 7h164c5 0 5 0 5 -7v-425zM428 718c2 -4 -31 -17 -43 -12c-73 35 -108 55 -179 91c0 0 -11 17 -7 19
c37 24 78 47 124 76c3 2 4 3 8 -2c38 -70 57 -103 97 -172z" />
    <glyph glyph-name="dotlessi" unicode="&#x131;" horiz-adv-x="290" 
d="M230 11c0 -9 -2 -11 -9 -11h-153c-7 0 -8 0 -8 14v479c0 12 0 12 7 12h153c8 0 10 0 10 -12v-482z" />
    <glyph glyph-name="circumflex" unicode="&#x2c6;" horiz-adv-x="500" 
d="M424 554c0 -3 -4 -4 -10 -4h-98c-4 0 -10 1 -15 5c-19 11 -50 46 -50 46s-30 -35 -49 -46c-3 -3 -8 -5 -13 -5h-103c-5 0 -7 1 -7 4c0 1 3 4 7 7c11 12 149 144 157 151c4 3 5 6 9 6s6 -3 10 -7c10 -8 143 -136 154 -148c4 -4 8 -7 8 -9z" />
    <glyph glyph-name="tilde" unicode="&#x2dc;" horiz-adv-x="500" 
d="M428 662c-2 -10 -42 -113 -121 -113c-32 0 -52 11 -69 22c-19 11 -36 24 -63 24c-22 0 -37 -9 -51 -21c-7 -7 -14 -15 -22 -22c-6 -4 -18 0 -18 10c2 82 56 130 122 130c30 0 51 -10 68 -21c21 -14 36 -29 59 -29c20 0 35 4 47 10c12 7 21 15 31 22c6 5 19 -3 17 -12z
" />
    <glyph glyph-name="macron" unicode="&#xaf;" horiz-adv-x="500" 
d="M414 569c0 -8 -3 -12 -14 -12h-297c-12 0 -14 1 -14 12v69c0 7 2 12 14 12h297c11 0 14 -1 14 -12v-69z" />
    <glyph glyph-name="macron" unicode="&#x2c9;" horiz-adv-x="500" 
d="M414 569c0 -8 -3 -12 -14 -12h-297c-12 0 -14 1 -14 12v69c0 7 2 12 14 12h297c11 0 14 -1 14 -12v-69z" />
    <glyph glyph-name="breve" unicode="&#x2d8;" horiz-adv-x="500" 
d="M434 648c5 -5 5 -9 -2 -18c-39 -51 -86 -84 -181 -84c-91 0 -142 39 -178 85c-7 8 -7 12 -1 18c11 10 39 33 48 41c6 5 12 5 17 -1c30 -37 65 -54 114 -54c43 0 88 13 116 53c5 7 11 7 17 2c11 -9 36 -30 50 -42z" />
    <glyph glyph-name="dotaccent" unicode="&#x2d9;" horiz-adv-x="500" 
d="M328 563c0 -8 -4 -13 -10 -13h-135c-7 0 -11 6 -11 13v124c0 7 4 13 10 13h135c7 0 11 -2 11 -13v-124z" />
    <glyph glyph-name="ring" unicode="&#x2da;" horiz-adv-x="500" 
d="M374 657c0 -68 -56 -123 -124 -123s-124 55 -124 123s56 124 124 124s124 -56 124 -124zM306 657c0 31 -25 56 -56 56s-56 -25 -56 -56s25 -56 56 -56s56 25 56 56z" />
    <glyph glyph-name="cedilla" unicode="&#xb8;" horiz-adv-x="500" 
d="M342 -117c0 -78 -52 -108 -123 -108c-55 0 -101 26 -118 80c-1 6 0 9 4 10l62 20c6 2 9 -1 11 -4c9 -13 27 -26 45 -26c30 0 48 12 48 54c0 41 -48 78 -74 91h66c37 -17 79 -65 79 -117z" />
    <glyph glyph-name="hungarumlaut" unicode="&#x2dd;" horiz-adv-x="500" 
d="M469 650c4 -2 -5 -19 -5 -19c-72 -36 -108 -56 -181 -91c-10 -5 -36 8 -34 12c40 69 59 102 98 172c3 5 5 4 7 2c46 -29 78 -52 115 -76zM264 650c4 -2 -6 -19 -6 -19c-72 -36 -108 -56 -180 -91c-11 -5 -36 8 -34 12c40 69 59 102 97 172c4 5 5 4 8 2
c46 -29 77 -52 115 -76z" />
    <glyph glyph-name="ogonek" unicode="&#x2db;" horiz-adv-x="500" 
d="M381 -145c-17 -54 -63 -80 -118 -80c-71 0 -123 30 -123 108c0 52 42 100 79 117h66c-26 -13 -74 -50 -74 -91c0 -36 15 -54 45 -54c25 0 39 13 48 26c2 3 5 6 11 4l62 -20c4 -1 5 -4 4 -10z" />
    <glyph glyph-name="caron" unicode="&#x2c7;" horiz-adv-x="500" 
d="M427 698c0 -1 -3 -4 -7 -7c-11 -12 -149 -144 -157 -151c-4 -3 -5 -6 -9 -6s-6 3 -10 7c-10 8 -143 136 -154 148c-4 4 -8 7 -8 9c0 3 4 4 10 4h98c4 0 10 -1 15 -5c19 -11 50 -46 50 -46s30 35 49 46c3 3 8 5 13 5h103c5 0 7 -1 7 -4z" />
    <glyph glyph-name="Euro" unicode="&#x20ac;" horiz-adv-x="785" 
d="M272 367c-1 -10 -2 -21 -2 -32c0 -10 1 -19 1 -28h186c8 0 17 -4 17 -15v-53s-3 -15 -17 -15h-157c32 -48 84 -71 137 -71c68 0 116 33 140 84c3 5 4 9 12 7l150 -41c10 -2 11 -7 9 -13c-45 -109 -157 -207 -313 -207c-170 0 -294 102 -338 241h-79c-9 0 -17 5 -17 15v53
c0 9 3 15 17 15h63c-1 9 -1 19 -1 29s0 21 1 31h-63c-9 0 -17 5 -17 15v53c0 9 3 15 17 15h79c45 145 176 242 333 242c165 0 266 -89 311 -191c5 -12 1 -16 -3 -18l-149 -58c-6 -2 -7 0 -9 5c-29 60 -77 91 -146 91c-59 0 -105 -27 -133 -71h156c8 0 17 -4 17 -15v-53
s-3 -15 -17 -15h-185z" />
    </font>
</defs>
</svg>
