<svg version="1.1" id="Layer_1" xmlns="http://www.w3.org/2000/svg" xmlns:xlink="http://www.w3.org/1999/xlink" x="0px" y="0px"
	 viewBox="0 0 662.2 378.3" enable-background="new 0 0 662.2 378.3" xml:space="preserve">
<path id="XMLID_36_" opacity="0.6" fill="#54C6C6" d="M469.2,0c-49.8,0-95.1,19.2-128.9,50.7c3.6,3.9,7.1,8,10.4,12.2
	C382.9,32.6,424.8,16,469.2,16c46.3,0,89.7,18,122.5,50.7c32.7,32.7,50.7,76.2,50.7,122.5s-18,89.7-50.7,122.5
	c-32.7,32.7-76.2,50.7-122.5,50.7c-44.4,0-86.3-16.6-118.5-46.9c-3.3,4.2-6.8,8.3-10.4,12.2c33.8,31.4,79.1,50.7,128.9,50.7
	c104.5,0,189.2-84.7,189.2-189.2S573.6,0,469.2,0z"/>
<path id="XMLID_53_" opacity="0.6" fill="#54C6C6" d="M469.2,41.1c-40.8,0-77.7,16.5-104.5,43.1c18.7,30.9,29.5,67.2,29.5,106
	c0,38.3-10.5,74.1-28.7,104.7c26.7,26.2,63.3,42.4,103.7,42.4c81.8,0,148.1-66.3,148.1-148.1S551,41.1,469.2,41.1z M444.2,125.9
	c0-5.2,5.7-13.2,25-13.2c19.3,0,25,7.9,25,13.2v35.2h-50V125.9z M444.2,172.1h50v26.3c0,5.2-5.7,13.2-25,13.2
	c-19.3,0-25-7.9-25-13.2V172.1z M522.2,198.4c0,18.4-14,38.1-45,40.8v21.9h21.6c1.8,0,3.4,1.3,3.4,3.2v9.9c0,1.8-1.6,3-3.4,3h-59.3
	c-1.8,0-3.4-1.2-3.4-3v-9.9c0-1.8,1.6-3.2,3.4-3.2h21.6v-21.9c-31-2.7-45-22.4-45-40.8v-22.7c0-1.8,1.8-3.6,3.6-3.6h4.9
	c1.8,0,3.5,1.8,3.5,3.6v22.7c0,11,8.5,29.6,41,29.6c32.5,0,41-18.6,41-29.6v-22.7c0-1.8,1.6-3.6,3.5-3.6h4.9c1.8,0,3.6,1.8,3.6,3.6
	V198.4z"/>
<g id="XMLID_22_">
	<g id="XMLID_6_">
		<path id="XMLID_5_" fill="#54C6C6" d="M189.2,16c46.3,0,89.7,18,122.5,50.7s50.7,76.2,50.7,122.5s-18,89.7-50.7,122.5
			s-76.2,50.7-122.5,50.7s-89.7-18-122.5-50.7S16,235.4,16,189.2S34,99.4,66.7,66.7S142.9,16,189.2,16 M189.2,0
			C84.7,0,0,84.7,0,189.2s84.7,189.2,189.2,189.2s189.2-84.7,189.2-189.2S293.6,0,189.2,0L189.2,0z"/>
	</g>
	<path id="XMLID_13_" fill="#54C6C6" d="M189.2,41.1c-81.8,0-148.1,66.3-148.1,148.1s66.3,148.1,148.1,148.1S337.3,271,337.3,189.2
		S271,41.1,189.2,41.1z M211.2,274.5c0,3.7-0.5,3.6-5,3.6c-16.5,0-20.7,0-37.2,0c-3.2,0-4.7-0.9-4.7-3.6c0-26.1,0-118.1,0-125.8
		c0-8.2-1.2-18.4-3.3-30.9c-0.5-2.4,2.7-4.8,6.7-6.7c10.1-4.8,24.6-10.6,38.7-16.2c2.9-1.1,4.9-0.5,4.9,3.7V274.5z"/>
</g>
</svg>
