<svg version="1.1" id="Layer_1" xmlns="http://www.w3.org/2000/svg" xmlns:xlink="http://www.w3.org/1999/xlink" x="0px" y="0px"

	 viewBox="0 0 900 900" enable-background="new 0 0 900 900" xml:space="preserve">

<path id="XMLID_36_" opacity="0.6" fill="#54C6C6" d="M588.1,260.8c-49.8,0-95.1,19.2-128.9,50.7c3.6,3.9,7.1,8,10.4,12.2

	c32.2-30.3,74.1-46.9,118.5-46.9c46.3,0,89.7,18,122.5,50.7c32.7,32.7,50.7,76.2,50.7,122.5s-18,89.7-50.7,122.5

	c-32.7,32.7-76.2,50.7-122.5,50.7c-44.4,0-86.3-16.6-118.5-46.9c-3.3,4.2-6.8,8.3-10.4,12.2c33.8,31.4,79.1,50.7,128.9,50.7

	c104.5,0,189.2-84.7,189.2-189.2S692.6,260.8,588.1,260.8z"/>

<path id="XMLID_53_" opacity="0.6" fill="#54C6C6" d="M588.1,301.9c-40.8,0-77.7,16.5-104.5,43.1c18.7,30.9,29.5,67.2,29.5,106

	c0,38.3-10.5,74.1-28.7,104.7c26.7,26.2,63.3,42.4,103.7,42.4c81.8,0,148.1-66.3,148.1-148.1S669.9,301.9,588.1,301.9z M563.1,386.8

	c0-5.2,5.7-13.2,25-13.2c19.3,0,25,7.9,25,13.2v35.2h-50V386.8z M563.1,432.9h50v26.3c0,5.2-5.7,13.2-25,13.2

	c-19.3,0-25-7.9-25-13.2V432.9z M641.1,459.2c0,18.4-14,38.1-45,40.8v21.9h21.6c1.8,0,3.4,1.3,3.4,3.2v9.9c0,1.8-1.6,3-3.4,3h-59.3

	c-1.8,0-3.4-1.2-3.4-3v-9.9c0-1.8,1.6-3.2,3.4-3.2h21.6V500c-31-2.7-45-22.4-45-40.8v-22.7c0-1.8,1.8-3.6,3.6-3.6h4.9

	c1.8,0,3.5,1.8,3.5,3.6v22.7c0,11,8.5,29.6,41,29.6c32.5,0,41-18.6,41-29.6v-22.7c0-1.8,1.6-3.6,3.5-3.6h4.9c1.8,0,3.6,1.8,3.6,3.6

	V459.2z"/>

<g id="XMLID_22_">

	<g id="XMLID_6_">

		<path id="XMLID_5_" fill="#54C6C6" d="M308.1,276.8c46.3,0,89.7,18,122.5,50.7s50.7,76.2,50.7,122.5s-18,89.7-50.7,122.5

			c-32.7,32.7-76.2,50.7-122.5,50.7s-89.7-18-122.5-50.7c-32.7-32.7-50.7-76.2-50.7-122.5s18-89.7,50.7-122.5

			S261.8,276.8,308.1,276.8 M308.1,260.8c-104.5,0-189.2,84.7-189.2,189.2s84.7,189.2,189.2,189.2S497.3,554.5,497.3,450

			S412.6,260.8,308.1,260.8L308.1,260.8z"/>

	</g>

	<path id="XMLID_13_" fill="#54C6C6" d="M308.1,301.9C226.3,301.9,160,368.2,160,450s66.3,148.1,148.1,148.1S456.2,531.8,456.2,450

		S389.9,301.9,308.1,301.9z M330.1,535.3c0,3.7-0.5,3.6-5,3.6c-16.5,0-20.7,0-37.2,0c-3.2,0-4.7-0.9-4.7-3.6c0-26.1,0-118.1,0-125.8

		c0-8.2-1.2-18.4-3.3-30.9c-0.5-2.4,2.7-4.8,6.7-6.7c10.1-4.8,24.6-10.6,38.7-16.2c2.9-1.1,4.9-0.5,4.9,3.7V535.3z"/>

</g>

</svg>

