<?xml version="1.0" encoding="utf-8"?>
<!-- Generator: Adobe Illustrator 18.1.1, SVG Export Plug-In . SVG Version: 6.00 Build 0)  -->
<!DOCTYPE svg PUBLIC "-//W3C//DTD SVG 1.1//EN" "http://www.w3.org/Graphics/SVG/1.1/DTD/svg11.dtd">
<svg version="1.1" id="Layer_1" xmlns="http://www.w3.org/2000/svg" xmlns:xlink="http://www.w3.org/1999/xlink" x="0px" y="0px"
	 viewBox="0 0 96 96" enable-background="new 0 0 96 96" xml:space="preserve">
<path fill="#54C6C6" d="M48,0C21.5,0,0,21.5,0,48s21.5,48,48,48c26.5,0,48-21.5,48-48S74.5,0,48,0z M88.9,48c0,9.4-3.2,18-8.5,24.9
	c-1.5-1.2-3.1-4.3-1.6-7.6c1.5-3.3,1.9-10.9,1.6-13.9c-0.3-3-1.9-10.1-6.1-10.2c-4.2-0.1-7.1-1.4-9.6-6.4c-5.2-10.3,9.7-12.3,4.5-18
	c-1.4-1.6-8.9,6.6-10-4.3c-0.1-0.8,0.7-2,1.7-3.2C77.2,14.6,88.9,30,88.9,48z M42.4,7.5c-1,1.9-3.6,2.7-5.1,4.1
	c-3.4,3.1-4.9,2.7-6.7,5.6c-1.9,3-7.8,7.2-7.8,9.4s3,4.7,4.5,4.2c1.5-0.5,5.5-0.5,7.8,0.3c2.3,0.8,19.6,1.7,14.1,16.2
	c-1.7,4.6-9.4,3.8-11.4,11.5c-0.3,1.1-1.4,5.9-1.4,7.5C36.2,68.8,38,78,35.7,78c-2.4,0-8.7-8.2-8.7-9.7s-1.6-6.7-1.6-11.1
	c0-4.5-7.6-4.4-7.6-10.3c0-5.3,4.1-8,3.2-10.6c-0.9-2.5-8.1-2.6-11.1-2.9C15.1,19.7,27.4,9.5,42.4,7.5z M35.1,86.8
	c2.5-1.3,2.7-3,4.9-3.1c2.5-0.1,4.6-1,7.5-1.6c2.5-0.6,7.1-3.1,11.1-3.5c3.4-0.3,10.1,0.2,11.9,3.4c-6.5,4.3-14.2,6.8-22.6,6.8
	C43.5,88.9,39.2,88.2,35.1,86.8z"/>
</svg>
