<?xml version="1.0" encoding="utf-8"?>
<!-- Generator: Adobe Illustrator 18.1.1, SVG Export Plug-In . SVG Version: 6.00 Build 0)  -->
<!DOCTYPE svg PUBLIC "-//W3C//DTD SVG 1.1//EN" "http://www.w3.org/Graphics/SVG/1.1/DTD/svg11.dtd">
<svg version="1.1" id="Layer_1" xmlns="http://www.w3.org/2000/svg" xmlns:xlink="http://www.w3.org/1999/xlink" x="0px" y="0px"
	 viewBox="0 0 96 96" enable-background="new 0 0 96 96" xml:space="preserve">
<path fill="#54C6C6" d="M76.3,26.9c-10,0-20.9,5.6-28.3,14c-7.4-8.4-18.4-14-28.3-14C10.2,26.9,0,32.4,0,48s10.2,21.1,19.7,21.1l0,0
	c10,0,20.9-5.6,28.3-14c7.4,8.4,18.4,14,28.3,14C85.8,69.1,96,63.6,96,48S85.8,26.9,76.3,26.9z M19.7,60.7c-7.3,0-11-4.3-11-12.7
	s3.8-12.7,11-12.7c8,0,17.3,5.2,23.1,12.7C37,55.5,27.7,60.7,19.7,60.7z M76.3,60.7c-8,0-17.3-5.2-23.1-12.7
	c5.7-7.5,15-12.7,23.1-12.7c7.3,0,11,4.3,11,12.7S83.6,60.7,76.3,60.7z"/>
</svg>
