<svg version="1.1" id="Layer_1" xmlns="http://www.w3.org/2000/svg" xmlns:xlink="http://www.w3.org/1999/xlink" x="0px" y="0px"

	 viewBox="0 0 900 900" enable-background="new 0 0 900 900" xml:space="preserve">

<path id="XMLID_122_" d="M570.2,369.9H319.8v-10l220.4-17.6v17.6h30.1v-30.1c0-22-17.9-37.5-39.6-34.4l-201.2,28.7

	c-21.8,3.1-39.7,23.7-39.7,45.7v200.3c0,22.1,17.9,40.1,40.1,40.1h240.4c22.1,0,40.1-18,40.1-40.1V409.9

	C610.3,387.8,592.3,369.9,570.2,369.9z M540.2,510.2c-16.6,0-30.1-13.5-30.1-30.1c0-16.6,13.5-30.1,30.1-30.1s30.1,13.5,30.1,30.1

	C570.2,496.8,556.7,510.2,540.2,510.2z"/>

</svg>

