<?xml version="1.0" encoding="utf-8"?>
<!-- Generator: Adobe Illustrator 18.1.1, SVG Export Plug-In . SVG Version: 6.00 Build 0)  -->
<!DOCTYPE svg PUBLIC "-//W3C//DTD SVG 1.1//EN" "http://www.w3.org/Graphics/SVG/1.1/DTD/svg11.dtd">
<svg version="1.1" id="Layer_1" xmlns="http://www.w3.org/2000/svg" xmlns:xlink="http://www.w3.org/1999/xlink" x="0px" y="0px"
	 viewBox="0 0 96 96" enable-background="new 0 0 96 96" xml:space="preserve">
<path fill="#54C6C6" d="M84,23.2H9v-3l66-5.3v5.3h9v-9C84,4.6,78.7,0,72.1,0.9L11.9,9.5C5.3,10.4,0,16.6,0,23.2v60
	c0,6.6,5.4,12,12,12h72c6.6,0,12-5.4,12-12v-48C96,28.6,90.6,23.2,84,23.2z M75,65.2c-5,0-9-4-9-9s4-9,9-9s9,4,9,9S80,65.2,75,65.2z
	"/>
</svg>
