<?xml version="1.0" encoding="UTF-8" standalone="no"?>
<!DOCTYPE svg PUBLIC "-//W3C//DTD SVG 1.1//EN"
 "http://www.w3.org/Graphics/SVG/1.1/DTD/svg11.dtd">
<!-- Generated by graphviz version 2.26.3 (20100126.1600)
 -->
<!-- Title: controllers_diagram Pages: 1 -->
<svg width="3554pt" height="364pt"
 viewBox="0.00 0.00 3554.00 364.00" xmlns="http://www.w3.org/2000/svg" xmlns:xlink="http://www.w3.org/1999/xlink">
<g id="graph1" class="graph" transform="scale(1 1) rotate(0) translate(4 360)">
<title>controllers_diagram</title>
<polygon fill="white" stroke="white" points="-4,5 -4,-360 3551,-360 3551,5 -4,5"/>
<!-- DashboardController -->
<g id="node1" class="node"><title>DashboardController</title>
<polyline fill="none" stroke="black" points="11.5,-69 234.5,-69 "/>
<path fill="none" stroke="black" d="M234.5,-69C240.5,-69 246.5,-75 246.5,-81"/>
<polyline fill="none" stroke="black" points="246.5,-81 246.5,-275 "/>
<path fill="none" stroke="black" d="M246.5,-275C246.5,-281 240.5,-287 234.5,-287"/>
<polyline fill="none" stroke="black" points="234.5,-287 11.5,-287 "/>
<path fill="none" stroke="black" d="M11.5,-287C5.5,-287 -0.5,-281 -0.5,-275"/>
<polyline fill="none" stroke="black" points="-0.5,-275 -0.5,-81 "/>
<path fill="none" stroke="black" d="M-0.5,-81C-0.5,-75 5.5,-69 11.5,-69"/>
<text text-anchor="middle" x="123" y="-270.4" font-family="Times Roman,serif" font-size="14.00">DashboardController</text>
<polyline fill="none" stroke="black" points="-0.5,-262 246.5,-262 "/>
<text text-anchor="start" x="7.5" y="-245.4" font-family="Times Roman,serif" font-size="14.00">_one_time_conditions_valid_180?</text>
<text text-anchor="start" x="7.5" y="-228.4" font-family="Times Roman,serif" font-size="14.00">_one_time_conditions_valid_182?</text>
<text text-anchor="start" x="7.5" y="-211.4" font-family="Times Roman,serif" font-size="14.00">edit_password</text>
<text text-anchor="start" x="7.5" y="-194.4" font-family="Times Roman,serif" font-size="14.00">edit_settings</text>
<text text-anchor="start" x="7.5" y="-177.4" font-family="Times Roman,serif" font-size="14.00">index</text>
<text text-anchor="start" x="7.5" y="-160.4" font-family="Times Roman,serif" font-size="14.00">settings</text>
<text text-anchor="start" x="7.5" y="-143.4" font-family="Times Roman,serif" font-size="14.00">venues</text>
<polyline fill="none" stroke="black" points="-0.5,-135 246.5,-135 "/>
<polyline fill="none" stroke="black" points="-0.5,-111 246.5,-111 "/>
<text text-anchor="start" x="7.5" y="-94.4" font-family="Times Roman,serif" font-size="14.00">_layout</text>
<text text-anchor="start" x="7.5" y="-77.4" font-family="Times Roman,serif" font-size="14.00">set_user</text>
</g>
<!-- TxtController -->
<g id="node2" class="node"><title>TxtController</title>
<polyline fill="none" stroke="black" points="275.5,-120 360.5,-120 "/>
<path fill="none" stroke="black" d="M360.5,-120C366.5,-120 372.5,-126 372.5,-132"/>
<polyline fill="none" stroke="black" points="372.5,-132 372.5,-224 "/>
<path fill="none" stroke="black" d="M372.5,-224C372.5,-230 366.5,-236 360.5,-236"/>
<polyline fill="none" stroke="black" points="360.5,-236 275.5,-236 "/>
<path fill="none" stroke="black" d="M275.5,-236C269.5,-236 263.5,-230 263.5,-224"/>
<polyline fill="none" stroke="black" points="263.5,-224 263.5,-132 "/>
<path fill="none" stroke="black" d="M263.5,-132C263.5,-126 269.5,-120 275.5,-120"/>
<text text-anchor="middle" x="318" y="-219.4" font-family="Times Roman,serif" font-size="14.00">TxtController</text>
<polyline fill="none" stroke="black" points="263.5,-211 372.5,-211 "/>
<text text-anchor="start" x="271.5" y="-194.4" font-family="Times Roman,serif" font-size="14.00">agb</text>
<text text-anchor="start" x="271.5" y="-177.4" font-family="Times Roman,serif" font-size="14.00">tou</text>
<polyline fill="none" stroke="black" points="263.5,-169 372.5,-169 "/>
<polyline fill="none" stroke="black" points="263.5,-145 372.5,-145 "/>
<text text-anchor="start" x="271.5" y="-128.4" font-family="Times Roman,serif" font-size="14.00">_layout</text>
</g>
<!-- SearchController -->
<g id="node3" class="node"><title>SearchController</title>
<polyline fill="none" stroke="black" points="401.5,-128.5 510.5,-128.5 "/>
<path fill="none" stroke="black" d="M510.5,-128.5C516.5,-128.5 522.5,-134.5 522.5,-140.5"/>
<polyline fill="none" stroke="black" points="522.5,-140.5 522.5,-215.5 "/>
<path fill="none" stroke="black" d="M522.5,-215.5C522.5,-221.5 516.5,-227.5 510.5,-227.5"/>
<polyline fill="none" stroke="black" points="510.5,-227.5 401.5,-227.5 "/>
<path fill="none" stroke="black" d="M401.5,-227.5C395.5,-227.5 389.5,-221.5 389.5,-215.5"/>
<polyline fill="none" stroke="black" points="389.5,-215.5 389.5,-140.5 "/>
<path fill="none" stroke="black" d="M389.5,-140.5C389.5,-134.5 395.5,-128.5 401.5,-128.5"/>
<text text-anchor="middle" x="456" y="-210.9" font-family="Times Roman,serif" font-size="14.00">SearchController</text>
<polyline fill="none" stroke="black" points="389.5,-202.5 522.5,-202.5 "/>
<text text-anchor="start" x="397.5" y="-185.9" font-family="Times Roman,serif" font-size="14.00">search</text>
<polyline fill="none" stroke="black" points="389.5,-177.5 522.5,-177.5 "/>
<polyline fill="none" stroke="black" points="389.5,-153.5 522.5,-153.5 "/>
<text text-anchor="start" x="397.5" y="-136.9" font-family="Times Roman,serif" font-size="14.00">_layout</text>
</g>
<!-- CommentsController -->
<g id="node4" class="node"><title>CommentsController</title>
<polyline fill="none" stroke="black" points="551.5,-111.5 774.5,-111.5 "/>
<path fill="none" stroke="black" d="M774.5,-111.5C780.5,-111.5 786.5,-117.5 786.5,-123.5"/>
<polyline fill="none" stroke="black" points="786.5,-123.5 786.5,-232.5 "/>
<path fill="none" stroke="black" d="M786.5,-232.5C786.5,-238.5 780.5,-244.5 774.5,-244.5"/>
<polyline fill="none" stroke="black" points="774.5,-244.5 551.5,-244.5 "/>
<path fill="none" stroke="black" d="M551.5,-244.5C545.5,-244.5 539.5,-238.5 539.5,-232.5"/>
<polyline fill="none" stroke="black" points="539.5,-232.5 539.5,-123.5 "/>
<path fill="none" stroke="black" d="M539.5,-123.5C539.5,-117.5 545.5,-111.5 551.5,-111.5"/>
<text text-anchor="middle" x="663" y="-227.9" font-family="Times Roman,serif" font-size="14.00">CommentsController</text>
<polyline fill="none" stroke="black" points="539.5,-219.5 786.5,-219.5 "/>
<text text-anchor="start" x="547.5" y="-202.9" font-family="Times Roman,serif" font-size="14.00">_one_time_conditions_valid_194?</text>
<text text-anchor="start" x="547.5" y="-185.9" font-family="Times Roman,serif" font-size="14.00">create</text>
<polyline fill="none" stroke="black" points="539.5,-177.5 786.5,-177.5 "/>
<polyline fill="none" stroke="black" points="539.5,-153.5 786.5,-153.5 "/>
<text text-anchor="start" x="547.5" y="-136.9" font-family="Times Roman,serif" font-size="14.00">_layout</text>
<text text-anchor="start" x="547.5" y="-119.9" font-family="Times Roman,serif" font-size="14.00">send_email</text>
</g>
<!-- AccountsController -->
<g id="node5" class="node"><title>AccountsController</title>
<polyline fill="none" stroke="black" points="815.5,-60.5 1038.5,-60.5 "/>
<path fill="none" stroke="black" d="M1038.5,-60.5C1044.5,-60.5 1050.5,-66.5 1050.5,-72.5"/>
<polyline fill="none" stroke="black" points="1050.5,-72.5 1050.5,-283.5 "/>
<path fill="none" stroke="black" d="M1050.5,-283.5C1050.5,-289.5 1044.5,-295.5 1038.5,-295.5"/>
<polyline fill="none" stroke="black" points="1038.5,-295.5 815.5,-295.5 "/>
<path fill="none" stroke="black" d="M815.5,-295.5C809.5,-295.5 803.5,-289.5 803.5,-283.5"/>
<polyline fill="none" stroke="black" points="803.5,-283.5 803.5,-72.5 "/>
<path fill="none" stroke="black" d="M803.5,-72.5C803.5,-66.5 809.5,-60.5 815.5,-60.5"/>
<text text-anchor="middle" x="927" y="-278.9" font-family="Times Roman,serif" font-size="14.00">AccountsController</text>
<polyline fill="none" stroke="black" points="803.5,-270.5 1050.5,-270.5 "/>
<text text-anchor="start" x="811.5" y="-253.9" font-family="Times Roman,serif" font-size="14.00">_one_time_conditions_valid_216?</text>
<text text-anchor="start" x="811.5" y="-236.9" font-family="Times Roman,serif" font-size="14.00">_one_time_conditions_valid_218?</text>
<text text-anchor="start" x="811.5" y="-219.9" font-family="Times Roman,serif" font-size="14.00">destroy_portrait</text>
<text text-anchor="start" x="811.5" y="-202.9" font-family="Times Roman,serif" font-size="14.00">edit</text>
<text text-anchor="start" x="811.5" y="-185.9" font-family="Times Roman,serif" font-size="14.00">edit_preferences</text>
<text text-anchor="start" x="811.5" y="-168.9" font-family="Times Roman,serif" font-size="14.00">show</text>
<text text-anchor="start" x="811.5" y="-151.9" font-family="Times Roman,serif" font-size="14.00">show_preferences</text>
<text text-anchor="start" x="811.5" y="-134.9" font-family="Times Roman,serif" font-size="14.00">update</text>
<polyline fill="none" stroke="black" points="803.5,-126.5 1050.5,-126.5 "/>
<polyline fill="none" stroke="black" points="803.5,-102.5 1050.5,-102.5 "/>
<text text-anchor="start" x="811.5" y="-85.9" font-family="Times Roman,serif" font-size="14.00">_layout</text>
<text text-anchor="start" x="811.5" y="-68.9" font-family="Times Roman,serif" font-size="14.00">set_user</text>
</g>
<!-- FayeproxyController -->
<g id="node6" class="node"><title>FayeproxyController</title>
<polyline fill="none" stroke="black" points="1079.5,-128.5 1210.5,-128.5 "/>
<path fill="none" stroke="black" d="M1210.5,-128.5C1216.5,-128.5 1222.5,-134.5 1222.5,-140.5"/>
<polyline fill="none" stroke="black" points="1222.5,-140.5 1222.5,-215.5 "/>
<path fill="none" stroke="black" d="M1222.5,-215.5C1222.5,-221.5 1216.5,-227.5 1210.5,-227.5"/>
<polyline fill="none" stroke="black" points="1210.5,-227.5 1079.5,-227.5 "/>
<path fill="none" stroke="black" d="M1079.5,-227.5C1073.5,-227.5 1067.5,-221.5 1067.5,-215.5"/>
<polyline fill="none" stroke="black" points="1067.5,-215.5 1067.5,-140.5 "/>
<path fill="none" stroke="black" d="M1067.5,-140.5C1067.5,-134.5 1073.5,-128.5 1079.5,-128.5"/>
<text text-anchor="middle" x="1145" y="-210.9" font-family="Times Roman,serif" font-size="14.00">FayeproxyController</text>
<polyline fill="none" stroke="black" points="1067.5,-202.5 1222.5,-202.5 "/>
<text text-anchor="start" x="1075.5" y="-185.9" font-family="Times Roman,serif" font-size="14.00">publish</text>
<polyline fill="none" stroke="black" points="1067.5,-177.5 1222.5,-177.5 "/>
<polyline fill="none" stroke="black" points="1067.5,-153.5 1222.5,-153.5 "/>
<text text-anchor="start" x="1075.5" y="-136.9" font-family="Times Roman,serif" font-size="14.00">_layout</text>
</g>
<!-- Users::SessionsController -->
<g id="node7" class="node"><title>Users::SessionsController</title>
<polyline fill="none" stroke="black" points="1251.5,-120 1418.5,-120 "/>
<path fill="none" stroke="black" d="M1418.5,-120C1424.5,-120 1430.5,-126 1430.5,-132"/>
<polyline fill="none" stroke="black" points="1430.5,-132 1430.5,-224 "/>
<path fill="none" stroke="black" d="M1430.5,-224C1430.5,-230 1424.5,-236 1418.5,-236"/>
<polyline fill="none" stroke="black" points="1418.5,-236 1251.5,-236 "/>
<path fill="none" stroke="black" d="M1251.5,-236C1245.5,-236 1239.5,-230 1239.5,-224"/>
<polyline fill="none" stroke="black" points="1239.5,-224 1239.5,-132 "/>
<path fill="none" stroke="black" d="M1239.5,-132C1239.5,-126 1245.5,-120 1251.5,-120"/>
<text text-anchor="middle" x="1335" y="-219.4" font-family="Times Roman,serif" font-size="14.00">Users::SessionsController</text>
<polyline fill="none" stroke="black" points="1239.5,-211 1430.5,-211 "/>
<text text-anchor="start" x="1247.5" y="-194.4" font-family="Times Roman,serif" font-size="14.00">create</text>
<text text-anchor="start" x="1247.5" y="-177.4" font-family="Times Roman,serif" font-size="14.00">destroy</text>
<polyline fill="none" stroke="black" points="1239.5,-169 1430.5,-169 "/>
<polyline fill="none" stroke="black" points="1239.5,-145 1430.5,-145 "/>
<text text-anchor="start" x="1247.5" y="-128.4" font-family="Times Roman,serif" font-size="14.00">_layout</text>
</g>
<!-- Users::OmniauthCallbacksController -->
<g id="node8" class="node"><title>Users::OmniauthCallbacksController</title>
<polyline fill="none" stroke="black" points="1460,-120 1702,-120 "/>
<path fill="none" stroke="black" d="M1702,-120C1708,-120 1714,-126 1714,-132"/>
<polyline fill="none" stroke="black" points="1714,-132 1714,-224 "/>
<path fill="none" stroke="black" d="M1714,-224C1714,-230 1708,-236 1702,-236"/>
<polyline fill="none" stroke="black" points="1702,-236 1460,-236 "/>
<path fill="none" stroke="black" d="M1460,-236C1454,-236 1448,-230 1448,-224"/>
<polyline fill="none" stroke="black" points="1448,-224 1448,-132 "/>
<path fill="none" stroke="black" d="M1448,-132C1448,-126 1454,-120 1460,-120"/>
<text text-anchor="middle" x="1581" y="-219.4" font-family="Times Roman,serif" font-size="14.00">Users::OmniauthCallbacksController</text>
<polyline fill="none" stroke="black" points="1448,-211 1714,-211 "/>
<text text-anchor="start" x="1456" y="-194.4" font-family="Times Roman,serif" font-size="14.00">facebook</text>
<text text-anchor="start" x="1456" y="-177.4" font-family="Times Roman,serif" font-size="14.00">google_oauth2</text>
<polyline fill="none" stroke="black" points="1448,-169 1714,-169 "/>
<polyline fill="none" stroke="black" points="1448,-145 1714,-145 "/>
<text text-anchor="start" x="1456" y="-128.4" font-family="Times Roman,serif" font-size="14.00">_layout</text>
</g>
<!-- Users::RegistrationsController -->
<g id="node9" class="node"><title>Users::RegistrationsController</title>
<polyline fill="none" stroke="black" points="1743.5,-128.5 1942.5,-128.5 "/>
<path fill="none" stroke="black" d="M1942.5,-128.5C1948.5,-128.5 1954.5,-134.5 1954.5,-140.5"/>
<polyline fill="none" stroke="black" points="1954.5,-140.5 1954.5,-215.5 "/>
<path fill="none" stroke="black" d="M1954.5,-215.5C1954.5,-221.5 1948.5,-227.5 1942.5,-227.5"/>
<polyline fill="none" stroke="black" points="1942.5,-227.5 1743.5,-227.5 "/>
<path fill="none" stroke="black" d="M1743.5,-227.5C1737.5,-227.5 1731.5,-221.5 1731.5,-215.5"/>
<polyline fill="none" stroke="black" points="1731.5,-215.5 1731.5,-140.5 "/>
<path fill="none" stroke="black" d="M1731.5,-140.5C1731.5,-134.5 1737.5,-128.5 1743.5,-128.5"/>
<text text-anchor="middle" x="1843" y="-210.9" font-family="Times Roman,serif" font-size="14.00">Users::RegistrationsController</text>
<polyline fill="none" stroke="black" points="1731.5,-202.5 1954.5,-202.5 "/>
<text text-anchor="start" x="1739.5" y="-185.9" font-family="Times Roman,serif" font-size="14.00">new</text>
<polyline fill="none" stroke="black" points="1731.5,-177.5 1954.5,-177.5 "/>
<polyline fill="none" stroke="black" points="1731.5,-153.5 1954.5,-153.5 "/>
<text text-anchor="start" x="1739.5" y="-136.9" font-family="Times Roman,serif" font-size="14.00">_layout</text>
</g>
<!-- LandingPageController -->
<g id="node10" class="node"><title>LandingPageController</title>
<polyline fill="none" stroke="black" points="1983.5,-128.5 2132.5,-128.5 "/>
<path fill="none" stroke="black" d="M2132.5,-128.5C2138.5,-128.5 2144.5,-134.5 2144.5,-140.5"/>
<polyline fill="none" stroke="black" points="2144.5,-140.5 2144.5,-215.5 "/>
<path fill="none" stroke="black" d="M2144.5,-215.5C2144.5,-221.5 2138.5,-227.5 2132.5,-227.5"/>
<polyline fill="none" stroke="black" points="2132.5,-227.5 1983.5,-227.5 "/>
<path fill="none" stroke="black" d="M1983.5,-227.5C1977.5,-227.5 1971.5,-221.5 1971.5,-215.5"/>
<polyline fill="none" stroke="black" points="1971.5,-215.5 1971.5,-140.5 "/>
<path fill="none" stroke="black" d="M1971.5,-140.5C1971.5,-134.5 1977.5,-128.5 1983.5,-128.5"/>
<text text-anchor="middle" x="2058" y="-210.9" font-family="Times Roman,serif" font-size="14.00">LandingPageController</text>
<polyline fill="none" stroke="black" points="1971.5,-202.5 2144.5,-202.5 "/>
<text text-anchor="start" x="1979.5" y="-185.9" font-family="Times Roman,serif" font-size="14.00">index</text>
<polyline fill="none" stroke="black" points="1971.5,-177.5 2144.5,-177.5 "/>
<polyline fill="none" stroke="black" points="1971.5,-153.5 2144.5,-153.5 "/>
<text text-anchor="start" x="1979.5" y="-136.9" font-family="Times Roman,serif" font-size="14.00">_layout</text>
</g>
<!-- ParticipationsController -->
<g id="node11" class="node"><title>ParticipationsController</title>
<polyline fill="none" stroke="black" points="2173.5,-94.5 2396.5,-94.5 "/>
<path fill="none" stroke="black" d="M2396.5,-94.5C2402.5,-94.5 2408.5,-100.5 2408.5,-106.5"/>
<polyline fill="none" stroke="black" points="2408.5,-106.5 2408.5,-249.5 "/>
<path fill="none" stroke="black" d="M2408.5,-249.5C2408.5,-255.5 2402.5,-261.5 2396.5,-261.5"/>
<polyline fill="none" stroke="black" points="2396.5,-261.5 2173.5,-261.5 "/>
<path fill="none" stroke="black" d="M2173.5,-261.5C2167.5,-261.5 2161.5,-255.5 2161.5,-249.5"/>
<polyline fill="none" stroke="black" points="2161.5,-249.5 2161.5,-106.5 "/>
<path fill="none" stroke="black" d="M2161.5,-106.5C2161.5,-100.5 2167.5,-94.5 2173.5,-94.5"/>
<text text-anchor="middle" x="2285" y="-244.9" font-family="Times Roman,serif" font-size="14.00">ParticipationsController</text>
<polyline fill="none" stroke="black" points="2161.5,-236.5 2408.5,-236.5 "/>
<text text-anchor="start" x="2169.5" y="-219.9" font-family="Times Roman,serif" font-size="14.00">_one_time_conditions_valid_248?</text>
<text text-anchor="start" x="2169.5" y="-202.9" font-family="Times Roman,serif" font-size="14.00">_one_time_conditions_valid_250?</text>
<text text-anchor="start" x="2169.5" y="-185.9" font-family="Times Roman,serif" font-size="14.00">create</text>
<text text-anchor="start" x="2169.5" y="-168.9" font-family="Times Roman,serif" font-size="14.00">destroy</text>
<text text-anchor="start" x="2169.5" y="-151.9" font-family="Times Roman,serif" font-size="14.00">index</text>
<polyline fill="none" stroke="black" points="2161.5,-143.5 2408.5,-143.5 "/>
<polyline fill="none" stroke="black" points="2161.5,-119.5 2408.5,-119.5 "/>
<text text-anchor="start" x="2169.5" y="-102.9" font-family="Times Roman,serif" font-size="14.00">_layout</text>
</g>
<!-- ApplicationController -->
<g id="node12" class="node"><title>ApplicationController</title>
<polyline fill="none" stroke="black" points="2437.5,-1 2742.5,-1 "/>
<path fill="none" stroke="black" d="M2742.5,-1C2748.5,-1 2754.5,-7 2754.5,-13"/>
<polyline fill="none" stroke="black" points="2754.5,-13 2754.5,-343 "/>
<path fill="none" stroke="black" d="M2754.5,-343C2754.5,-349 2748.5,-355 2742.5,-355"/>
<polyline fill="none" stroke="black" points="2742.5,-355 2437.5,-355 "/>
<path fill="none" stroke="black" d="M2437.5,-355C2431.5,-355 2425.5,-349 2425.5,-343"/>
<polyline fill="none" stroke="black" points="2425.5,-343 2425.5,-13 "/>
<path fill="none" stroke="black" d="M2425.5,-13C2425.5,-7 2431.5,-1 2437.5,-1"/>
<text text-anchor="middle" x="2590" y="-338.4" font-family="Times Roman,serif" font-size="14.00">ApplicationController</text>
<polyline fill="none" stroke="black" points="2425.5,-330 2754.5,-330 "/>
<text text-anchor="start" x="2433.5" y="-313.4" font-family="Times Roman,serif" font-size="14.00">_one_time_conditions_valid_170?</text>
<text text-anchor="start" x="2433.5" y="-296.4" font-family="Times Roman,serif" font-size="14.00">_one_time_conditions_valid_172?</text>
<text text-anchor="start" x="2433.5" y="-279.4" font-family="Times Roman,serif" font-size="14.00">_one_time_conditions_valid_174?</text>
<text text-anchor="start" x="2433.5" y="-262.4" font-family="Times Roman,serif" font-size="14.00">_one_time_conditions_valid_178?</text>
<text text-anchor="start" x="2433.5" y="-245.4" font-family="Times Roman,serif" font-size="14.00">after_sign_in_path_for</text>
<text text-anchor="start" x="2433.5" y="-228.4" font-family="Times Roman,serif" font-size="14.00">current_or_guest_user</text>
<text text-anchor="start" x="2433.5" y="-211.4" font-family="Times Roman,serif" font-size="14.00">guest_user</text>
<text text-anchor="start" x="2433.5" y="-194.4" font-family="Times Roman,serif" font-size="14.00">store_location</text>
<text text-anchor="start" x="2433.5" y="-177.4" font-family="Times Roman,serif" font-size="14.00">stored_location</text>
<text text-anchor="start" x="2433.5" y="-160.4" font-family="Times Roman,serif" font-size="14.00">user_time_zone</text>
<polyline fill="none" stroke="black" points="2425.5,-152 2754.5,-152 "/>
<polyline fill="none" stroke="black" points="2425.5,-128 2754.5,-128 "/>
<text text-anchor="start" x="2433.5" y="-111.4" font-family="Times Roman,serif" font-size="14.00">_layout</text>
<text text-anchor="start" x="2433.5" y="-94.4" font-family="Times Roman,serif" font-size="14.00">create_guest_user</text>
<text text-anchor="start" x="2433.5" y="-77.4" font-family="Times Roman,serif" font-size="14.00">default_url_options</text>
<text text-anchor="start" x="2433.5" y="-60.4" font-family="Times Roman,serif" font-size="14.00">extract_locale_from_accept_language_header</text>
<text text-anchor="start" x="2433.5" y="-43.4" font-family="Times Roman,serif" font-size="14.00">logging_in</text>
<text text-anchor="start" x="2433.5" y="-26.4" font-family="Times Roman,serif" font-size="14.00">set_last_request</text>
<text text-anchor="start" x="2433.5" y="-9.4" font-family="Times Roman,serif" font-size="14.00">set_locale</text>
</g>
<!-- ArticlesController -->
<g id="node13" class="node"><title>ArticlesController</title>
<polyline fill="none" stroke="black" points="2783.5,-43.5 3006.5,-43.5 "/>
<path fill="none" stroke="black" d="M3006.5,-43.5C3012.5,-43.5 3018.5,-49.5 3018.5,-55.5"/>
<polyline fill="none" stroke="black" points="3018.5,-55.5 3018.5,-300.5 "/>
<path fill="none" stroke="black" d="M3018.5,-300.5C3018.5,-306.5 3012.5,-312.5 3006.5,-312.5"/>
<polyline fill="none" stroke="black" points="3006.5,-312.5 2783.5,-312.5 "/>
<path fill="none" stroke="black" d="M2783.5,-312.5C2777.5,-312.5 2771.5,-306.5 2771.5,-300.5"/>
<polyline fill="none" stroke="black" points="2771.5,-300.5 2771.5,-55.5 "/>
<path fill="none" stroke="black" d="M2771.5,-55.5C2771.5,-49.5 2777.5,-43.5 2783.5,-43.5"/>
<text text-anchor="middle" x="2895" y="-295.9" font-family="Times Roman,serif" font-size="14.00">ArticlesController</text>
<polyline fill="none" stroke="black" points="2771.5,-287.5 3018.5,-287.5 "/>
<text text-anchor="start" x="2779.5" y="-270.9" font-family="Times Roman,serif" font-size="14.00">_one_time_conditions_valid_272?</text>
<text text-anchor="start" x="2779.5" y="-253.9" font-family="Times Roman,serif" font-size="14.00">_one_time_conditions_valid_274?</text>
<text text-anchor="start" x="2779.5" y="-236.9" font-family="Times Roman,serif" font-size="14.00">create</text>
<text text-anchor="start" x="2779.5" y="-219.9" font-family="Times Roman,serif" font-size="14.00">destroy</text>
<text text-anchor="start" x="2779.5" y="-202.9" font-family="Times Roman,serif" font-size="14.00">edit</text>
<text text-anchor="start" x="2779.5" y="-185.9" font-family="Times Roman,serif" font-size="14.00">index</text>
<text text-anchor="start" x="2779.5" y="-168.9" font-family="Times Roman,serif" font-size="14.00">new</text>
<text text-anchor="start" x="2779.5" y="-151.9" font-family="Times Roman,serif" font-size="14.00">show</text>
<text text-anchor="start" x="2779.5" y="-134.9" font-family="Times Roman,serif" font-size="14.00">update</text>
<polyline fill="none" stroke="black" points="2771.5,-126.5 3018.5,-126.5 "/>
<polyline fill="none" stroke="black" points="2771.5,-102.5 3018.5,-102.5 "/>
<text text-anchor="start" x="2779.5" y="-85.9" font-family="Times Roman,serif" font-size="14.00">_layout</text>
<text text-anchor="start" x="2779.5" y="-68.9" font-family="Times Roman,serif" font-size="14.00">send_email</text>
<text text-anchor="start" x="2779.5" y="-51.9" font-family="Times Roman,serif" font-size="14.00">set_venue</text>
</g>
<!-- VenuesController -->
<g id="node14" class="node"><title>VenuesController</title>
<polyline fill="none" stroke="black" points="3047.5,-18 3270.5,-18 "/>
<path fill="none" stroke="black" d="M3270.5,-18C3276.5,-18 3282.5,-24 3282.5,-30"/>
<polyline fill="none" stroke="black" points="3282.5,-30 3282.5,-326 "/>
<path fill="none" stroke="black" d="M3282.5,-326C3282.5,-332 3276.5,-338 3270.5,-338"/>
<polyline fill="none" stroke="black" points="3270.5,-338 3047.5,-338 "/>
<path fill="none" stroke="black" d="M3047.5,-338C3041.5,-338 3035.5,-332 3035.5,-326"/>
<polyline fill="none" stroke="black" points="3035.5,-326 3035.5,-30 "/>
<path fill="none" stroke="black" d="M3035.5,-30C3035.5,-24 3041.5,-18 3047.5,-18"/>
<text text-anchor="middle" x="3159" y="-321.4" font-family="Times Roman,serif" font-size="14.00">VenuesController</text>
<polyline fill="none" stroke="black" points="3035.5,-313 3282.5,-313 "/>
<text text-anchor="start" x="3043.5" y="-296.4" font-family="Times Roman,serif" font-size="14.00">_one_time_conditions_valid_428?</text>
<text text-anchor="start" x="3043.5" y="-279.4" font-family="Times Roman,serif" font-size="14.00">_one_time_conditions_valid_430?</text>
<text text-anchor="start" x="3043.5" y="-262.4" font-family="Times Roman,serif" font-size="14.00">create</text>
<text text-anchor="start" x="3043.5" y="-245.4" font-family="Times Roman,serif" font-size="14.00">destroy</text>
<text text-anchor="start" x="3043.5" y="-228.4" font-family="Times Roman,serif" font-size="14.00">edit</text>
<text text-anchor="start" x="3043.5" y="-211.4" font-family="Times Roman,serif" font-size="14.00">end_event</text>
<text text-anchor="start" x="3043.5" y="-194.4" font-family="Times Roman,serif" font-size="14.00">index</text>
<text text-anchor="start" x="3043.5" y="-177.4" font-family="Times Roman,serif" font-size="14.00">new</text>
<text text-anchor="start" x="3043.5" y="-160.4" font-family="Times Roman,serif" font-size="14.00">new_join</text>
<text text-anchor="start" x="3043.5" y="-143.4" font-family="Times Roman,serif" font-size="14.00">remove_recording</text>
<text text-anchor="start" x="3043.5" y="-126.4" font-family="Times Roman,serif" font-size="14.00">show</text>
<text text-anchor="start" x="3043.5" y="-109.4" font-family="Times Roman,serif" font-size="14.00">tags</text>
<text text-anchor="start" x="3043.5" y="-92.4" font-family="Times Roman,serif" font-size="14.00">update</text>
<polyline fill="none" stroke="black" points="3035.5,-84 3282.5,-84 "/>
<polyline fill="none" stroke="black" points="3035.5,-60 3282.5,-60 "/>
<text text-anchor="start" x="3043.5" y="-43.4" font-family="Times Roman,serif" font-size="14.00">_layout</text>
<text text-anchor="start" x="3043.5" y="-26.4" font-family="Times Roman,serif" font-size="14.00">remember_location</text>
</g>
<!-- UsersController -->
<g id="node15" class="node"><title>UsersController</title>
<polyline fill="none" stroke="black" points="3311.5,-18 3534.5,-18 "/>
<path fill="none" stroke="black" d="M3534.5,-18C3540.5,-18 3546.5,-24 3546.5,-30"/>
<polyline fill="none" stroke="black" points="3546.5,-30 3546.5,-326 "/>
<path fill="none" stroke="black" d="M3546.5,-326C3546.5,-332 3540.5,-338 3534.5,-338"/>
<polyline fill="none" stroke="black" points="3534.5,-338 3311.5,-338 "/>
<path fill="none" stroke="black" d="M3311.5,-338C3305.5,-338 3299.5,-332 3299.5,-326"/>
<polyline fill="none" stroke="black" points="3299.5,-326 3299.5,-30 "/>
<path fill="none" stroke="black" d="M3299.5,-30C3299.5,-24 3305.5,-18 3311.5,-18"/>
<text text-anchor="middle" x="3423" y="-321.4" font-family="Times Roman,serif" font-size="14.00">UsersController</text>
<polyline fill="none" stroke="black" points="3299.5,-313 3546.5,-313 "/>
<text text-anchor="start" x="3307.5" y="-296.4" font-family="Times Roman,serif" font-size="14.00">_one_time_conditions_valid_434?</text>
<text text-anchor="start" x="3307.5" y="-279.4" font-family="Times Roman,serif" font-size="14.00">create</text>
<text text-anchor="start" x="3307.5" y="-262.4" font-family="Times Roman,serif" font-size="14.00">destroy</text>
<text text-anchor="start" x="3307.5" y="-245.4" font-family="Times Roman,serif" font-size="14.00">edit</text>
<text text-anchor="start" x="3307.5" y="-228.4" font-family="Times Roman,serif" font-size="14.00">index</text>
<text text-anchor="start" x="3307.5" y="-211.4" font-family="Times Roman,serif" font-size="14.00">kluuus</text>
<text text-anchor="start" x="3307.5" y="-194.4" font-family="Times Roman,serif" font-size="14.00">new</text>
<text text-anchor="start" x="3307.5" y="-177.4" font-family="Times Roman,serif" font-size="14.00">no_kluuus</text>
<text text-anchor="start" x="3307.5" y="-160.4" font-family="Times Roman,serif" font-size="14.00">online_user</text>
<text text-anchor="start" x="3307.5" y="-143.4" font-family="Times Roman,serif" font-size="14.00">show</text>
<text text-anchor="start" x="3307.5" y="-126.4" font-family="Times Roman,serif" font-size="14.00">status_for</text>
<text text-anchor="start" x="3307.5" y="-109.4" font-family="Times Roman,serif" font-size="14.00">update</text>
<text text-anchor="start" x="3307.5" y="-92.4" font-family="Times Roman,serif" font-size="14.00">venues</text>
<text text-anchor="start" x="3307.5" y="-75.4" font-family="Times Roman,serif" font-size="14.00">welcome</text>
<polyline fill="none" stroke="black" points="3299.5,-67 3546.5,-67 "/>
<polyline fill="none" stroke="black" points="3299.5,-43 3546.5,-43 "/>
<text text-anchor="start" x="3307.5" y="-26.4" font-family="Times Roman,serif" font-size="14.00">_layout</text>
</g>
</g>
</svg>
