<?xml version="1.0" encoding="UTF-8" standalone="no"?>
<!DOCTYPE svg PUBLIC "-//W3C//DTD SVG 1.1//EN"
 "http://www.w3.org/Graphics/SVG/1.1/DTD/svg11.dtd">
<!-- Generated by graphviz version 2.26.3 (20100126.1600)
 -->
<!-- Title: controllers_diagram Pages: 1 -->
<svg width="3510pt" height="330pt"
 viewBox="0.00 0.00 3510.00 330.00" xmlns="http://www.w3.org/2000/svg" xmlns:xlink="http://www.w3.org/1999/xlink">
<g id="graph1" class="graph" transform="scale(1 1) rotate(0) translate(4 326)">
<title>controllers_diagram</title>
<polygon fill="white" stroke="white" points="-4,5 -4,-326 3507,-326 3507,5 -4,5"/>
<!-- SearchController -->
<g id="node1" class="node"><title>SearchController</title>
<polyline fill="none" stroke="black" points="11.5,-94.5 120.5,-94.5 "/>
<path fill="none" stroke="black" d="M120.5,-94.5C126.5,-94.5 132.5,-100.5 132.5,-106.5"/>
<polyline fill="none" stroke="black" points="132.5,-106.5 132.5,-215.5 "/>
<path fill="none" stroke="black" d="M132.5,-215.5C132.5,-221.5 126.5,-227.5 120.5,-227.5"/>
<polyline fill="none" stroke="black" points="120.5,-227.5 11.5,-227.5 "/>
<path fill="none" stroke="black" d="M11.5,-227.5C5.5,-227.5 -0.5,-221.5 -0.5,-215.5"/>
<polyline fill="none" stroke="black" points="-0.5,-215.5 -0.5,-106.5 "/>
<path fill="none" stroke="black" d="M-0.5,-106.5C-0.5,-100.5 5.5,-94.5 11.5,-94.5"/>
<text text-anchor="middle" x="66" y="-210.9" font-family="Times Roman,serif" font-size="14.00">SearchController</text>
<polyline fill="none" stroke="black" points="-0.5,-202.5 132.5,-202.5 "/>
<text text-anchor="start" x="7.5" y="-185.9" font-family="Times Roman,serif" font-size="14.00">create</text>
<text text-anchor="start" x="7.5" y="-168.9" font-family="Times Roman,serif" font-size="14.00">show</text>
<polyline fill="none" stroke="black" points="-0.5,-160.5 132.5,-160.5 "/>
<polyline fill="none" stroke="black" points="-0.5,-136.5 132.5,-136.5 "/>
<text text-anchor="start" x="7.5" y="-119.9" font-family="Times Roman,serif" font-size="14.00">_layout</text>
<text text-anchor="start" x="7.5" y="-102.9" font-family="Times Roman,serif" font-size="14.00">u</text>
</g>
<!-- TalksController -->
<g id="node2" class="node"><title>TalksController</title>
<polyline fill="none" stroke="black" points="161.5,-1 256.5,-1 "/>
<path fill="none" stroke="black" d="M256.5,-1C262.5,-1 268.5,-7 268.5,-13"/>
<polyline fill="none" stroke="black" points="268.5,-13 268.5,-309 "/>
<path fill="none" stroke="black" d="M268.5,-309C268.5,-315 262.5,-321 256.5,-321"/>
<polyline fill="none" stroke="black" points="256.5,-321 161.5,-321 "/>
<path fill="none" stroke="black" d="M161.5,-321C155.5,-321 149.5,-315 149.5,-309"/>
<polyline fill="none" stroke="black" points="149.5,-309 149.5,-13 "/>
<path fill="none" stroke="black" d="M149.5,-13C149.5,-7 155.5,-1 161.5,-1"/>
<text text-anchor="middle" x="209" y="-304.4" font-family="Times Roman,serif" font-size="14.00">TalksController</text>
<polyline fill="none" stroke="black" points="149.5,-296 268.5,-296 "/>
<text text-anchor="start" x="157.5" y="-279.4" font-family="Times Roman,serif" font-size="14.00">create</text>
<text text-anchor="start" x="157.5" y="-262.4" font-family="Times Roman,serif" font-size="14.00">destroy</text>
<text text-anchor="start" x="157.5" y="-245.4" font-family="Times Roman,serif" font-size="14.00">edit</text>
<text text-anchor="start" x="157.5" y="-228.4" font-family="Times Roman,serif" font-size="14.00">featured</text>
<text text-anchor="start" x="157.5" y="-211.4" font-family="Times Roman,serif" font-size="14.00">index</text>
<text text-anchor="start" x="157.5" y="-194.4" font-family="Times Roman,serif" font-size="14.00">live</text>
<text text-anchor="start" x="157.5" y="-177.4" font-family="Times Roman,serif" font-size="14.00">new</text>
<text text-anchor="start" x="157.5" y="-160.4" font-family="Times Roman,serif" font-size="14.00">popular</text>
<text text-anchor="start" x="157.5" y="-143.4" font-family="Times Roman,serif" font-size="14.00">recent</text>
<text text-anchor="start" x="157.5" y="-126.4" font-family="Times Roman,serif" font-size="14.00">show</text>
<text text-anchor="start" x="157.5" y="-109.4" font-family="Times Roman,serif" font-size="14.00">update</text>
<polyline fill="none" stroke="black" points="149.5,-101 268.5,-101 "/>
<polyline fill="none" stroke="black" points="149.5,-77 268.5,-77 "/>
<text text-anchor="start" x="157.5" y="-60.4" font-family="Times Roman,serif" font-size="14.00">_layout</text>
<text text-anchor="start" x="157.5" y="-43.4" font-family="Times Roman,serif" font-size="14.00">set_talk</text>
<text text-anchor="start" x="157.5" y="-26.4" font-family="Times Roman,serif" font-size="14.00">set_venue</text>
<text text-anchor="start" x="157.5" y="-9.4" font-family="Times Roman,serif" font-size="14.00">talk_params</text>
</g>
<!-- CommentsController -->
<g id="node3" class="node"><title>CommentsController</title>
<polyline fill="none" stroke="black" points="297.5,-103 432.5,-103 "/>
<path fill="none" stroke="black" d="M432.5,-103C438.5,-103 444.5,-109 444.5,-115"/>
<polyline fill="none" stroke="black" points="444.5,-115 444.5,-207 "/>
<path fill="none" stroke="black" d="M444.5,-207C444.5,-213 438.5,-219 432.5,-219"/>
<polyline fill="none" stroke="black" points="432.5,-219 297.5,-219 "/>
<path fill="none" stroke="black" d="M297.5,-219C291.5,-219 285.5,-213 285.5,-207"/>
<polyline fill="none" stroke="black" points="285.5,-207 285.5,-115 "/>
<path fill="none" stroke="black" d="M285.5,-115C285.5,-109 291.5,-103 297.5,-103"/>
<text text-anchor="middle" x="365" y="-202.4" font-family="Times Roman,serif" font-size="14.00">CommentsController</text>
<polyline fill="none" stroke="black" points="285.5,-194 444.5,-194 "/>
<text text-anchor="start" x="293.5" y="-177.4" font-family="Times Roman,serif" font-size="14.00">create</text>
<polyline fill="none" stroke="black" points="285.5,-169 444.5,-169 "/>
<polyline fill="none" stroke="black" points="285.5,-145 444.5,-145 "/>
<text text-anchor="start" x="293.5" y="-128.4" font-family="Times Roman,serif" font-size="14.00">_layout</text>
<text text-anchor="start" x="293.5" y="-111.4" font-family="Times Roman,serif" font-size="14.00">send_email</text>
</g>
<!-- Api::BaseController -->
<g id="node4" class="node"><title>Api::BaseController</title>
<polyline fill="none" stroke="black" points="474,-111.5 620,-111.5 "/>
<path fill="none" stroke="black" d="M620,-111.5C626,-111.5 632,-117.5 632,-123.5"/>
<polyline fill="none" stroke="black" points="632,-123.5 632,-198.5 "/>
<path fill="none" stroke="black" d="M632,-198.5C632,-204.5 626,-210.5 620,-210.5"/>
<polyline fill="none" stroke="black" points="620,-210.5 474,-210.5 "/>
<path fill="none" stroke="black" d="M474,-210.5C468,-210.5 462,-204.5 462,-198.5"/>
<polyline fill="none" stroke="black" points="462,-198.5 462,-123.5 "/>
<path fill="none" stroke="black" d="M462,-123.5C462,-117.5 468,-111.5 474,-111.5"/>
<text text-anchor="middle" x="547" y="-193.9" font-family="Times Roman,serif" font-size="14.00">Api::BaseController</text>
<polyline fill="none" stroke="black" points="462,-185.5 632,-185.5 "/>
<text text-anchor="start" x="470" y="-168.9" font-family="Times Roman,serif" font-size="14.00">generate_guest_user?</text>
<polyline fill="none" stroke="black" points="462,-160.5 632,-160.5 "/>
<polyline fill="none" stroke="black" points="462,-136.5 632,-136.5 "/>
<text text-anchor="start" x="470" y="-119.9" font-family="Times Roman,serif" font-size="14.00">_layout</text>
</g>
<!-- Api::TalksController -->
<g id="node5" class="node"><title>Api::TalksController</title>
<polyline fill="none" stroke="black" points="662,-35 788,-35 "/>
<path fill="none" stroke="black" d="M788,-35C794,-35 800,-41 800,-47"/>
<polyline fill="none" stroke="black" points="800,-47 800,-275 "/>
<path fill="none" stroke="black" d="M800,-275C800,-281 794,-287 788,-287"/>
<polyline fill="none" stroke="black" points="788,-287 662,-287 "/>
<path fill="none" stroke="black" d="M662,-287C656,-287 650,-281 650,-275"/>
<polyline fill="none" stroke="black" points="650,-275 650,-47 "/>
<path fill="none" stroke="black" d="M650,-47C650,-41 656,-35 662,-35"/>
<text text-anchor="middle" x="725" y="-270.4" font-family="Times Roman,serif" font-size="14.00">Api::TalksController</text>
<polyline fill="none" stroke="black" points="650,-262 800,-262 "/>
<text text-anchor="start" x="658" y="-245.4" font-family="Times Roman,serif" font-size="14.00">end_talk</text>
<text text-anchor="start" x="658" y="-228.4" font-family="Times Roman,serif" font-size="14.00">guest_registering</text>
<text text-anchor="start" x="658" y="-211.4" font-family="Times Roman,serif" font-size="14.00">host_registering</text>
<text text-anchor="start" x="658" y="-194.4" font-family="Times Roman,serif" font-size="14.00">publish</text>
<text text-anchor="start" x="658" y="-177.4" font-family="Times Roman,serif" font-size="14.00">registering</text>
<text text-anchor="start" x="658" y="-160.4" font-family="Times Roman,serif" font-size="14.00">set_talk</text>
<text text-anchor="start" x="658" y="-143.4" font-family="Times Roman,serif" font-size="14.00">start_talk</text>
<text text-anchor="start" x="658" y="-126.4" font-family="Times Roman,serif" font-size="14.00">store_state</text>
<text text-anchor="start" x="658" y="-109.4" font-family="Times Roman,serif" font-size="14.00">update</text>
<text text-anchor="start" x="658" y="-92.4" font-family="Times Roman,serif" font-size="14.00">verified_request?</text>
<polyline fill="none" stroke="black" points="650,-84 800,-84 "/>
<polyline fill="none" stroke="black" points="650,-60 800,-60 "/>
<text text-anchor="start" x="658" y="-43.4" font-family="Times Roman,serif" font-size="14.00">_layout</text>
</g>
<!-- Api::MessagesController -->
<g id="node6" class="node"><title>Api::MessagesController</title>
<polyline fill="none" stroke="black" points="830,-86 988,-86 "/>
<path fill="none" stroke="black" d="M988,-86C994,-86 1000,-92 1000,-98"/>
<polyline fill="none" stroke="black" points="1000,-98 1000,-224 "/>
<path fill="none" stroke="black" d="M1000,-224C1000,-230 994,-236 988,-236"/>
<polyline fill="none" stroke="black" points="988,-236 830,-236 "/>
<path fill="none" stroke="black" d="M830,-236C824,-236 818,-230 818,-224"/>
<polyline fill="none" stroke="black" points="818,-224 818,-98 "/>
<path fill="none" stroke="black" d="M818,-98C818,-92 824,-86 830,-86"/>
<text text-anchor="middle" x="909" y="-219.4" font-family="Times Roman,serif" font-size="14.00">Api::MessagesController</text>
<polyline fill="none" stroke="black" points="818,-211 1000,-211 "/>
<text text-anchor="start" x="826" y="-194.4" font-family="Times Roman,serif" font-size="14.00">create</text>
<polyline fill="none" stroke="black" points="818,-186 1000,-186 "/>
<polyline fill="none" stroke="black" points="818,-162 1000,-162 "/>
<text text-anchor="start" x="826" y="-145.4" font-family="Times Roman,serif" font-size="14.00">_layout</text>
<text text-anchor="start" x="826" y="-128.4" font-family="Times Roman,serif" font-size="14.00">publish</text>
<text text-anchor="start" x="826" y="-111.4" font-family="Times Roman,serif" font-size="14.00">set_talk</text>
<text text-anchor="start" x="826" y="-94.4" font-family="Times Roman,serif" font-size="14.00">verified_request?</text>
</g>
<!-- Api::SocialSharesController -->
<g id="node7" class="node"><title>Api::SocialSharesController</title>
<polyline fill="none" stroke="black" points="1029.5,-103 1208.5,-103 "/>
<path fill="none" stroke="black" d="M1208.5,-103C1214.5,-103 1220.5,-109 1220.5,-115"/>
<polyline fill="none" stroke="black" points="1220.5,-115 1220.5,-207 "/>
<path fill="none" stroke="black" d="M1220.5,-207C1220.5,-213 1214.5,-219 1208.5,-219"/>
<polyline fill="none" stroke="black" points="1208.5,-219 1029.5,-219 "/>
<path fill="none" stroke="black" d="M1029.5,-219C1023.5,-219 1017.5,-213 1017.5,-207"/>
<polyline fill="none" stroke="black" points="1017.5,-207 1017.5,-115 "/>
<path fill="none" stroke="black" d="M1017.5,-115C1017.5,-109 1023.5,-103 1029.5,-103"/>
<text text-anchor="middle" x="1119" y="-202.4" font-family="Times Roman,serif" font-size="14.00">Api::SocialSharesController</text>
<polyline fill="none" stroke="black" points="1017.5,-194 1220.5,-194 "/>
<text text-anchor="start" x="1025.5" y="-177.4" font-family="Times Roman,serif" font-size="14.00">create</text>
<polyline fill="none" stroke="black" points="1017.5,-169 1220.5,-169 "/>
<polyline fill="none" stroke="black" points="1017.5,-145 1220.5,-145 "/>
<text text-anchor="start" x="1025.5" y="-128.4" font-family="Times Roman,serif" font-size="14.00">_layout</text>
<text text-anchor="start" x="1025.5" y="-111.4" font-family="Times Roman,serif" font-size="14.00">social_share_params</text>
</g>
<!-- Api::UsersController -->
<g id="node8" class="node"><title>Api::UsersController</title>
<polyline fill="none" stroke="black" points="1249.5,-111.5 1380.5,-111.5 "/>
<path fill="none" stroke="black" d="M1380.5,-111.5C1386.5,-111.5 1392.5,-117.5 1392.5,-123.5"/>
<polyline fill="none" stroke="black" points="1392.5,-123.5 1392.5,-198.5 "/>
<path fill="none" stroke="black" d="M1392.5,-198.5C1392.5,-204.5 1386.5,-210.5 1380.5,-210.5"/>
<polyline fill="none" stroke="black" points="1380.5,-210.5 1249.5,-210.5 "/>
<path fill="none" stroke="black" d="M1249.5,-210.5C1243.5,-210.5 1237.5,-204.5 1237.5,-198.5"/>
<polyline fill="none" stroke="black" points="1237.5,-198.5 1237.5,-123.5 "/>
<path fill="none" stroke="black" d="M1237.5,-123.5C1237.5,-117.5 1243.5,-111.5 1249.5,-111.5"/>
<text text-anchor="middle" x="1315" y="-193.9" font-family="Times Roman,serif" font-size="14.00">Api::UsersController</text>
<polyline fill="none" stroke="black" points="1237.5,-185.5 1392.5,-185.5 "/>
<text text-anchor="start" x="1245.5" y="-168.9" font-family="Times Roman,serif" font-size="14.00">index</text>
<polyline fill="none" stroke="black" points="1237.5,-160.5 1392.5,-160.5 "/>
<polyline fill="none" stroke="black" points="1237.5,-136.5 1392.5,-136.5 "/>
<text text-anchor="start" x="1245.5" y="-119.9" font-family="Times Roman,serif" font-size="14.00">_layout</text>
</g>
<!-- Users::SessionsController -->
<g id="node9" class="node"><title>Users::SessionsController</title>
<polyline fill="none" stroke="black" points="1421.5,-103 1588.5,-103 "/>
<path fill="none" stroke="black" d="M1588.5,-103C1594.5,-103 1600.5,-109 1600.5,-115"/>
<polyline fill="none" stroke="black" points="1600.5,-115 1600.5,-207 "/>
<path fill="none" stroke="black" d="M1600.5,-207C1600.5,-213 1594.5,-219 1588.5,-219"/>
<polyline fill="none" stroke="black" points="1588.5,-219 1421.5,-219 "/>
<path fill="none" stroke="black" d="M1421.5,-219C1415.5,-219 1409.5,-213 1409.5,-207"/>
<polyline fill="none" stroke="black" points="1409.5,-207 1409.5,-115 "/>
<path fill="none" stroke="black" d="M1409.5,-115C1409.5,-109 1415.5,-103 1421.5,-103"/>
<text text-anchor="middle" x="1505" y="-202.4" font-family="Times Roman,serif" font-size="14.00">Users::SessionsController</text>
<polyline fill="none" stroke="black" points="1409.5,-194 1600.5,-194 "/>
<text text-anchor="start" x="1417.5" y="-177.4" font-family="Times Roman,serif" font-size="14.00">create</text>
<text text-anchor="start" x="1417.5" y="-160.4" font-family="Times Roman,serif" font-size="14.00">destroy</text>
<polyline fill="none" stroke="black" points="1409.5,-152 1600.5,-152 "/>
<polyline fill="none" stroke="black" points="1409.5,-128 1600.5,-128 "/>
<text text-anchor="start" x="1417.5" y="-111.4" font-family="Times Roman,serif" font-size="14.00">_layout</text>
</g>
<!-- Users::OmniauthCallbacksController -->
<g id="node10" class="node"><title>Users::OmniauthCallbacksController</title>
<polyline fill="none" stroke="black" points="1630,-111.5 1872,-111.5 "/>
<path fill="none" stroke="black" d="M1872,-111.5C1878,-111.5 1884,-117.5 1884,-123.5"/>
<polyline fill="none" stroke="black" points="1884,-123.5 1884,-198.5 "/>
<path fill="none" stroke="black" d="M1884,-198.5C1884,-204.5 1878,-210.5 1872,-210.5"/>
<polyline fill="none" stroke="black" points="1872,-210.5 1630,-210.5 "/>
<path fill="none" stroke="black" d="M1630,-210.5C1624,-210.5 1618,-204.5 1618,-198.5"/>
<polyline fill="none" stroke="black" points="1618,-198.5 1618,-123.5 "/>
<path fill="none" stroke="black" d="M1618,-123.5C1618,-117.5 1624,-111.5 1630,-111.5"/>
<text text-anchor="middle" x="1751" y="-193.9" font-family="Times Roman,serif" font-size="14.00">Users::OmniauthCallbacksController</text>
<polyline fill="none" stroke="black" points="1618,-185.5 1884,-185.5 "/>
<text text-anchor="start" x="1626" y="-168.9" font-family="Times Roman,serif" font-size="14.00">facebook</text>
<polyline fill="none" stroke="black" points="1618,-160.5 1884,-160.5 "/>
<polyline fill="none" stroke="black" points="1618,-136.5 1884,-136.5 "/>
<text text-anchor="start" x="1626" y="-119.9" font-family="Times Roman,serif" font-size="14.00">_layout</text>
</g>
<!-- Users::RegistrationsController -->
<g id="node11" class="node"><title>Users::RegistrationsController</title>
<polyline fill="none" stroke="black" points="1913.5,-103 2112.5,-103 "/>
<path fill="none" stroke="black" d="M2112.5,-103C2118.5,-103 2124.5,-109 2124.5,-115"/>
<polyline fill="none" stroke="black" points="2124.5,-115 2124.5,-207 "/>
<path fill="none" stroke="black" d="M2124.5,-207C2124.5,-213 2118.5,-219 2112.5,-219"/>
<polyline fill="none" stroke="black" points="2112.5,-219 1913.5,-219 "/>
<path fill="none" stroke="black" d="M1913.5,-219C1907.5,-219 1901.5,-213 1901.5,-207"/>
<polyline fill="none" stroke="black" points="1901.5,-207 1901.5,-115 "/>
<path fill="none" stroke="black" d="M1901.5,-115C1901.5,-109 1907.5,-103 1913.5,-103"/>
<text text-anchor="middle" x="2013" y="-202.4" font-family="Times Roman,serif" font-size="14.00">Users::RegistrationsController</text>
<polyline fill="none" stroke="black" points="1901.5,-194 2124.5,-194 "/>
<text text-anchor="start" x="1909.5" y="-177.4" font-family="Times Roman,serif" font-size="14.00">create</text>
<text text-anchor="start" x="1909.5" y="-160.4" font-family="Times Roman,serif" font-size="14.00">new</text>
<polyline fill="none" stroke="black" points="1901.5,-152 2124.5,-152 "/>
<polyline fill="none" stroke="black" points="1901.5,-128 2124.5,-128 "/>
<text text-anchor="start" x="1909.5" y="-111.4" font-family="Times Roman,serif" font-size="14.00">_layout</text>
</g>
<!-- EmbedTalksController -->
<g id="node12" class="node"><title>EmbedTalksController</title>
<polyline fill="none" stroke="black" points="2154,-103 2296,-103 "/>
<path fill="none" stroke="black" d="M2296,-103C2302,-103 2308,-109 2308,-115"/>
<polyline fill="none" stroke="black" points="2308,-115 2308,-207 "/>
<path fill="none" stroke="black" d="M2308,-207C2308,-213 2302,-219 2296,-219"/>
<polyline fill="none" stroke="black" points="2296,-219 2154,-219 "/>
<path fill="none" stroke="black" d="M2154,-219C2148,-219 2142,-213 2142,-207"/>
<polyline fill="none" stroke="black" points="2142,-207 2142,-115 "/>
<path fill="none" stroke="black" d="M2142,-115C2142,-109 2148,-103 2154,-103"/>
<text text-anchor="middle" x="2225" y="-202.4" font-family="Times Roman,serif" font-size="14.00">EmbedTalksController</text>
<polyline fill="none" stroke="black" points="2142,-194 2308,-194 "/>
<text text-anchor="start" x="2150" y="-177.4" font-family="Times Roman,serif" font-size="14.00">show</text>
<polyline fill="none" stroke="black" points="2142,-169 2308,-169 "/>
<polyline fill="none" stroke="black" points="2142,-145 2308,-145 "/>
<text text-anchor="start" x="2150" y="-128.4" font-family="Times Roman,serif" font-size="14.00">_layout</text>
<text text-anchor="start" x="2150" y="-111.4" font-family="Times Roman,serif" font-size="14.00">allow_iframe</text>
</g>
<!-- LandingPageController -->
<g id="node13" class="node"><title>LandingPageController</title>
<polyline fill="none" stroke="black" points="2337.5,-111.5 2486.5,-111.5 "/>
<path fill="none" stroke="black" d="M2486.5,-111.5C2492.5,-111.5 2498.5,-117.5 2498.5,-123.5"/>
<polyline fill="none" stroke="black" points="2498.5,-123.5 2498.5,-198.5 "/>
<path fill="none" stroke="black" d="M2498.5,-198.5C2498.5,-204.5 2492.5,-210.5 2486.5,-210.5"/>
<polyline fill="none" stroke="black" points="2486.5,-210.5 2337.5,-210.5 "/>
<path fill="none" stroke="black" d="M2337.5,-210.5C2331.5,-210.5 2325.5,-204.5 2325.5,-198.5"/>
<polyline fill="none" stroke="black" points="2325.5,-198.5 2325.5,-123.5 "/>
<path fill="none" stroke="black" d="M2325.5,-123.5C2325.5,-117.5 2331.5,-111.5 2337.5,-111.5"/>
<text text-anchor="middle" x="2412" y="-193.9" font-family="Times Roman,serif" font-size="14.00">LandingPageController</text>
<polyline fill="none" stroke="black" points="2325.5,-185.5 2498.5,-185.5 "/>
<text text-anchor="start" x="2333.5" y="-168.9" font-family="Times Roman,serif" font-size="14.00">index</text>
<polyline fill="none" stroke="black" points="2325.5,-160.5 2498.5,-160.5 "/>
<polyline fill="none" stroke="black" points="2325.5,-136.5 2498.5,-136.5 "/>
<text text-anchor="start" x="2333.5" y="-119.9" font-family="Times Roman,serif" font-size="14.00">_layout</text>
</g>
<!-- ErrorsController -->
<g id="node14" class="node"><title>ErrorsController</title>
<polyline fill="none" stroke="black" points="2527.5,-103 2640.5,-103 "/>
<path fill="none" stroke="black" d="M2640.5,-103C2646.5,-103 2652.5,-109 2652.5,-115"/>
<polyline fill="none" stroke="black" points="2652.5,-115 2652.5,-207 "/>
<path fill="none" stroke="black" d="M2652.5,-207C2652.5,-213 2646.5,-219 2640.5,-219"/>
<polyline fill="none" stroke="black" points="2640.5,-219 2527.5,-219 "/>
<path fill="none" stroke="black" d="M2527.5,-219C2521.5,-219 2515.5,-213 2515.5,-207"/>
<polyline fill="none" stroke="black" points="2515.5,-207 2515.5,-115 "/>
<path fill="none" stroke="black" d="M2515.5,-115C2515.5,-109 2521.5,-103 2527.5,-103"/>
<text text-anchor="middle" x="2584" y="-202.4" font-family="Times Roman,serif" font-size="14.00">ErrorsController</text>
<polyline fill="none" stroke="black" points="2515.5,-194 2652.5,-194 "/>
<text text-anchor="start" x="2523.5" y="-177.4" font-family="Times Roman,serif" font-size="14.00">show</text>
<text text-anchor="start" x="2523.5" y="-160.4" font-family="Times Roman,serif" font-size="14.00">upgrade_browser</text>
<polyline fill="none" stroke="black" points="2515.5,-152 2652.5,-152 "/>
<polyline fill="none" stroke="black" points="2515.5,-128 2652.5,-128 "/>
<text text-anchor="start" x="2523.5" y="-111.4" font-family="Times Roman,serif" font-size="14.00">_layout</text>
</g>
<!-- ParticipationsController -->
<g id="node15" class="node"><title>ParticipationsController</title>
<polyline fill="none" stroke="black" points="2681.5,-86 2836.5,-86 "/>
<path fill="none" stroke="black" d="M2836.5,-86C2842.5,-86 2848.5,-92 2848.5,-98"/>
<polyline fill="none" stroke="black" points="2848.5,-98 2848.5,-224 "/>
<path fill="none" stroke="black" d="M2848.5,-224C2848.5,-230 2842.5,-236 2836.5,-236"/>
<polyline fill="none" stroke="black" points="2836.5,-236 2681.5,-236 "/>
<path fill="none" stroke="black" d="M2681.5,-236C2675.5,-236 2669.5,-230 2669.5,-224"/>
<polyline fill="none" stroke="black" points="2669.5,-224 2669.5,-98 "/>
<path fill="none" stroke="black" d="M2669.5,-98C2669.5,-92 2675.5,-86 2681.5,-86"/>
<text text-anchor="middle" x="2759" y="-219.4" font-family="Times Roman,serif" font-size="14.00">ParticipationsController</text>
<polyline fill="none" stroke="black" points="2669.5,-211 2848.5,-211 "/>
<text text-anchor="start" x="2677.5" y="-194.4" font-family="Times Roman,serif" font-size="14.00">create</text>
<text text-anchor="start" x="2677.5" y="-177.4" font-family="Times Roman,serif" font-size="14.00">destroy</text>
<text text-anchor="start" x="2677.5" y="-160.4" font-family="Times Roman,serif" font-size="14.00">index</text>
<polyline fill="none" stroke="black" points="2669.5,-152 2848.5,-152 "/>
<polyline fill="none" stroke="black" points="2669.5,-128 2848.5,-128 "/>
<text text-anchor="start" x="2677.5" y="-111.4" font-family="Times Roman,serif" font-size="14.00">_layout</text>
<text text-anchor="start" x="2677.5" y="-94.4" font-family="Times Roman,serif" font-size="14.00">set_venue</text>
</g>
<!-- ApplicationController -->
<g id="node16" class="node"><title>ApplicationController</title>
<polyline fill="none" stroke="black" points="2877.5,-1 3182.5,-1 "/>
<path fill="none" stroke="black" d="M3182.5,-1C3188.5,-1 3194.5,-7 3194.5,-13"/>
<polyline fill="none" stroke="black" points="3194.5,-13 3194.5,-309 "/>
<path fill="none" stroke="black" d="M3194.5,-309C3194.5,-315 3188.5,-321 3182.5,-321"/>
<polyline fill="none" stroke="black" points="3182.5,-321 2877.5,-321 "/>
<path fill="none" stroke="black" d="M2877.5,-321C2871.5,-321 2865.5,-315 2865.5,-309"/>
<polyline fill="none" stroke="black" points="2865.5,-309 2865.5,-13 "/>
<path fill="none" stroke="black" d="M2865.5,-13C2865.5,-7 2871.5,-1 2877.5,-1"/>
<text text-anchor="middle" x="3030" y="-304.4" font-family="Times Roman,serif" font-size="14.00">ApplicationController</text>
<polyline fill="none" stroke="black" points="2865.5,-296 3194.5,-296 "/>
<text text-anchor="start" x="2873.5" y="-279.4" font-family="Times Roman,serif" font-size="14.00">after_sign_in_path_for</text>
<text text-anchor="start" x="2873.5" y="-262.4" font-family="Times Roman,serif" font-size="14.00">authenticate_user!</text>
<text text-anchor="start" x="2873.5" y="-245.4" font-family="Times Roman,serif" font-size="14.00">current_user</text>
<text text-anchor="start" x="2873.5" y="-228.4" font-family="Times Roman,serif" font-size="14.00">generate_guest_user?</text>
<text text-anchor="start" x="2873.5" y="-211.4" font-family="Times Roman,serif" font-size="14.00">store_location</text>
<text text-anchor="start" x="2873.5" y="-194.4" font-family="Times Roman,serif" font-size="14.00">stored_location</text>
<text text-anchor="start" x="2873.5" y="-177.4" font-family="Times Roman,serif" font-size="14.00">update_sanitized_params</text>
<text text-anchor="start" x="2873.5" y="-160.4" font-family="Times Roman,serif" font-size="14.00">user_time_zone</text>
<polyline fill="none" stroke="black" points="2865.5,-152 3194.5,-152 "/>
<polyline fill="none" stroke="black" points="2865.5,-128 3194.5,-128 "/>
<text text-anchor="start" x="2873.5" y="-111.4" font-family="Times Roman,serif" font-size="14.00">_layout</text>
<text text-anchor="start" x="2873.5" y="-94.4" font-family="Times Roman,serif" font-size="14.00">check_browser</text>
<text text-anchor="start" x="2873.5" y="-77.4" font-family="Times Roman,serif" font-size="14.00">create_guest_user</text>
<text text-anchor="start" x="2873.5" y="-60.4" font-family="Times Roman,serif" font-size="14.00">extract_locale_from_accept_language_header</text>
<text text-anchor="start" x="2873.5" y="-43.4" font-family="Times Roman,serif" font-size="14.00">set_csrf_cookie_for_ng</text>
<text text-anchor="start" x="2873.5" y="-26.4" font-family="Times Roman,serif" font-size="14.00">set_last_request</text>
<text text-anchor="start" x="2873.5" y="-9.4" font-family="Times Roman,serif" font-size="14.00">set_locale</text>
</g>
<!-- VenuesController -->
<g id="node17" class="node"><title>VenuesController</title>
<polyline fill="none" stroke="black" points="3223.5,-35 3348.5,-35 "/>
<path fill="none" stroke="black" d="M3348.5,-35C3354.5,-35 3360.5,-41 3360.5,-47"/>
<polyline fill="none" stroke="black" points="3360.5,-47 3360.5,-275 "/>
<path fill="none" stroke="black" d="M3360.5,-275C3360.5,-281 3354.5,-287 3348.5,-287"/>
<polyline fill="none" stroke="black" points="3348.5,-287 3223.5,-287 "/>
<path fill="none" stroke="black" d="M3223.5,-287C3217.5,-287 3211.5,-281 3211.5,-275"/>
<polyline fill="none" stroke="black" points="3211.5,-275 3211.5,-47 "/>
<path fill="none" stroke="black" d="M3211.5,-47C3211.5,-41 3217.5,-35 3223.5,-35"/>
<text text-anchor="middle" x="3286" y="-270.4" font-family="Times Roman,serif" font-size="14.00">VenuesController</text>
<polyline fill="none" stroke="black" points="3211.5,-262 3360.5,-262 "/>
<text text-anchor="start" x="3219.5" y="-245.4" font-family="Times Roman,serif" font-size="14.00">create</text>
<text text-anchor="start" x="3219.5" y="-228.4" font-family="Times Roman,serif" font-size="14.00">destroy</text>
<text text-anchor="start" x="3219.5" y="-211.4" font-family="Times Roman,serif" font-size="14.00">edit</text>
<text text-anchor="start" x="3219.5" y="-194.4" font-family="Times Roman,serif" font-size="14.00">index</text>
<text text-anchor="start" x="3219.5" y="-177.4" font-family="Times Roman,serif" font-size="14.00">new</text>
<text text-anchor="start" x="3219.5" y="-160.4" font-family="Times Roman,serif" font-size="14.00">show</text>
<text text-anchor="start" x="3219.5" y="-143.4" font-family="Times Roman,serif" font-size="14.00">tags</text>
<text text-anchor="start" x="3219.5" y="-126.4" font-family="Times Roman,serif" font-size="14.00">update</text>
<polyline fill="none" stroke="black" points="3211.5,-118 3360.5,-118 "/>
<polyline fill="none" stroke="black" points="3211.5,-94 3360.5,-94 "/>
<text text-anchor="start" x="3219.5" y="-77.4" font-family="Times Roman,serif" font-size="14.00">_layout</text>
<text text-anchor="start" x="3219.5" y="-60.4" font-family="Times Roman,serif" font-size="14.00">remember_location</text>
<text text-anchor="start" x="3219.5" y="-43.4" font-family="Times Roman,serif" font-size="14.00">set_venue</text>
</g>
<!-- UsersController -->
<g id="node18" class="node"><title>UsersController</title>
<polyline fill="none" stroke="black" points="3390,-60.5 3490,-60.5 "/>
<path fill="none" stroke="black" d="M3490,-60.5C3496,-60.5 3502,-66.5 3502,-72.5"/>
<polyline fill="none" stroke="black" points="3502,-72.5 3502,-249.5 "/>
<path fill="none" stroke="black" d="M3502,-249.5C3502,-255.5 3496,-261.5 3490,-261.5"/>
<polyline fill="none" stroke="black" points="3490,-261.5 3390,-261.5 "/>
<path fill="none" stroke="black" d="M3390,-261.5C3384,-261.5 3378,-255.5 3378,-249.5"/>
<polyline fill="none" stroke="black" points="3378,-249.5 3378,-72.5 "/>
<path fill="none" stroke="black" d="M3378,-72.5C3378,-66.5 3384,-60.5 3390,-60.5"/>
<text text-anchor="middle" x="3440" y="-244.9" font-family="Times Roman,serif" font-size="14.00">UsersController</text>
<polyline fill="none" stroke="black" points="3378,-236.5 3502,-236.5 "/>
<text text-anchor="start" x="3386" y="-219.9" font-family="Times Roman,serif" font-size="14.00">create</text>
<text text-anchor="start" x="3386" y="-202.9" font-family="Times Roman,serif" font-size="14.00">destroy</text>
<text text-anchor="start" x="3386" y="-185.9" font-family="Times Roman,serif" font-size="14.00">edit</text>
<text text-anchor="start" x="3386" y="-168.9" font-family="Times Roman,serif" font-size="14.00">index</text>
<text text-anchor="start" x="3386" y="-151.9" font-family="Times Roman,serif" font-size="14.00">new</text>
<text text-anchor="start" x="3386" y="-134.9" font-family="Times Roman,serif" font-size="14.00">show</text>
<text text-anchor="start" x="3386" y="-117.9" font-family="Times Roman,serif" font-size="14.00">update</text>
<polyline fill="none" stroke="black" points="3378,-109.5 3502,-109.5 "/>
<polyline fill="none" stroke="black" points="3378,-85.5 3502,-85.5 "/>
<text text-anchor="start" x="3386" y="-68.9" font-family="Times Roman,serif" font-size="14.00">_layout</text>
</g>
</g>
</svg>
