<?xml version="1.0" encoding="UTF-8" standalone="no"?>
<!DOCTYPE svg PUBLIC "-//W3C//DTD SVG 1.1//EN"
 "http://www.w3.org/Graphics/SVG/1.1/DTD/svg11.dtd">
<!-- Generated by graphviz version 2.26.3 (20100126.1600)
 -->
<!-- Title: controllers_diagram Pages: 1 -->
<svg width="1624pt" height="1139pt"
 viewBox="0.00 0.00 1624.08 1139.00" xmlns="http://www.w3.org/2000/svg" xmlns:xlink="http://www.w3.org/1999/xlink">
<g id="graph1" class="graph" transform="scale(1 1) rotate(0) translate(4 1135)">
<title>controllers_diagram</title>
<polygon fill="white" stroke="white" points="-4,5 -4,-1135 1621.08,-1135 1621.08,5 -4,5"/>
<!-- _diagram_info -->
<g id="node1" class="node"><title>_diagram_info</title>
<text text-anchor="start" x="891" y="-1086.3" font-family="Times Roman,serif" font-size="13.00">Controllers diagram</text>
<text text-anchor="start" x="891" y="-1069.3" font-family="Times Roman,serif" font-size="13.00">Date: Jul 03 2013 &#45; 15:48</text>
<text text-anchor="start" x="891" y="-1052.3" font-family="Times Roman,serif" font-size="13.00">Migration version: 20130305155007</text>
<text text-anchor="start" x="891" y="-1035.3" font-family="Times Roman,serif" font-size="13.00">Generated by RailRoady 1.1.0</text>
<text text-anchor="start" x="891" y="-1018.3" font-family="Times Roman,serif" font-size="13.00">http://railroady.prestonlee.com</text>
</g>
<!-- MessagesController -->
<g id="node2" class="node"><title>MessagesController</title>
<ellipse fill="none" stroke="black" cx="116.374" cy="-251.05" rx="106.773" ry="18.3848"/>
<text text-anchor="middle" x="116.374" y="-247.45" font-family="Times Roman,serif" font-size="14.00">MessagesController</text>
</g>
<!-- ChatsController -->
<g id="node3" class="node"><title>ChatsController</title>
<ellipse fill="none" stroke="black" cx="1249" cy="-568.498" rx="87.889" ry="18.3848"/>
<text text-anchor="middle" x="1249" y="-564.898" font-family="Times Roman,serif" font-size="14.00">ChatsController</text>
</g>
<!-- Admin::BaseController -->
<g id="node4" class="node"><title>Admin::BaseController</title>
<ellipse fill="none" stroke="black" cx="801.022" cy="-187.5" rx="120.915" ry="18.3848"/>
<text text-anchor="middle" x="801.022" y="-183.9" font-family="Times Roman,serif" font-size="14.00">Admin::BaseController</text>
</g>
<!-- Admin::KlusController -->
<g id="node5" class="node"><title>Admin::KlusController</title>
<ellipse fill="none" stroke="black" cx="917" cy="-61.5" rx="118.087" ry="18.3848"/>
<text text-anchor="middle" x="917" y="-57.9" font-family="Times Roman,serif" font-size="14.00">Admin::KlusController</text>
</g>
<!-- Admin::DashboardController -->
<g id="node6" class="node"><title>Admin::DashboardController</title>
<ellipse fill="none" stroke="black" cx="655" cy="-1027.5" rx="149.907" ry="18.3848"/>
<text text-anchor="middle" x="655" y="-1023.9" font-family="Times Roman,serif" font-size="14.00">Admin::DashboardController</text>
</g>
<!-- Admin::UsersController -->
<g id="node7" class="node"><title>Admin::UsersController</title>
<ellipse fill="none" stroke="black" cx="1217.5" cy="-19.5" rx="123.951" ry="18.3848"/>
<text text-anchor="middle" x="1217.5" y="-15.9" font-family="Times Roman,serif" font-size="14.00">Admin::UsersController</text>
</g>
<!-- Admin::VideoServersController -->
<g id="node8" class="node"><title>Admin::VideoServersController</title>
<ellipse fill="none" stroke="black" cx="1381" cy="-985.5" rx="161.927" ry="18.3848"/>
<text text-anchor="middle" x="1381" y="-981.9" font-family="Times Roman,serif" font-size="14.00">Admin::VideoServersController</text>
</g>
<!-- Admin::CategoriesController -->
<g id="node9" class="node"><title>Admin::CategoriesController</title>
<ellipse fill="none" stroke="black" cx="487" cy="-103.5" rx="149.907" ry="18.3848"/>
<text text-anchor="middle" x="487" y="-99.9" font-family="Times Roman,serif" font-size="14.00">Admin::CategoriesController</text>
</g>
<!-- ConversationsController -->
<g id="node10" class="node"><title>ConversationsController</title>
<ellipse fill="none" stroke="black" cx="701.315" cy="-910.041" rx="130.108" ry="18.3848"/>
<text text-anchor="middle" x="701.315" y="-906.441" font-family="Times Roman,serif" font-size="14.00">ConversationsController</text>
</g>
<!-- Balance::CheckInOrdersController -->
<g id="node11" class="node"><title>Balance::CheckInOrdersController</title>
<ellipse fill="none" stroke="black" cx="1033.82" cy="-676.334" rx="176.984" ry="18.3848"/>
<text text-anchor="middle" x="1033.82" y="-672.734" font-family="Times Roman,serif" font-size="14.00">Balance::CheckInOrdersController</text>
</g>
<!-- Balance::AccountsController -->
<g id="node12" class="node"><title>Balance::AccountsController</title>
<ellipse fill="none" stroke="black" cx="387.025" cy="-667.197" rx="149.2" ry="18.3848"/>
<text text-anchor="middle" x="387.025" y="-663.597" font-family="Times Roman,serif" font-size="14.00">Balance::AccountsController</text>
</g>
<!-- KlusController -->
<g id="node13" class="node"><title>KlusController</title>
<ellipse fill="none" stroke="black" cx="396.122" cy="-204.682" rx="80.1095" ry="18.3848"/>
<text text-anchor="middle" x="396.122" y="-201.082" font-family="Times Roman,serif" font-size="14.00">KlusController</text>
</g>
<!-- CommentsController -->
<g id="node14" class="node"><title>CommentsController</title>
<ellipse fill="none" stroke="black" cx="1502.58" cy="-246.478" rx="111.93" ry="18.3848"/>
<text text-anchor="middle" x="1502.58" y="-242.878" font-family="Times Roman,serif" font-size="14.00">CommentsController</text>
</g>
<!-- DashboardController -->
<g id="node15" class="node"><title>DashboardController</title>
<ellipse fill="none" stroke="black" cx="613.026" cy="-236.456" rx="113.137" ry="18.3848"/>
<text text-anchor="middle" x="613.026" y="-232.856" font-family="Times Roman,serif" font-size="14.00">DashboardController</text>
</g>
<!-- AccountsController -->
<g id="node16" class="node"><title>AccountsController</title>
<ellipse fill="none" stroke="black" cx="1007.35" cy="-208.682" rx="104.151" ry="18.3848"/>
<text text-anchor="middle" x="1007.35" y="-205.082" font-family="Times Roman,serif" font-size="14.00">AccountsController</text>
</g>
<!-- Users::SessionsController -->
<g id="node17" class="node"><title>Users::SessionsController</title>
<ellipse fill="none" stroke="black" cx="1480" cy="-1111.5" rx="135.057" ry="18.3848"/>
<text text-anchor="middle" x="1480" y="-1107.9" font-family="Times Roman,serif" font-size="14.00">Users::SessionsController</text>
</g>
<!-- Users::OmniauthCallbacksController -->
<g id="node18" class="node"><title>Users::OmniauthCallbacksController</title>
<ellipse fill="none" stroke="black" cx="1365" cy="-145.5" rx="188.09" ry="18.3848"/>
<text text-anchor="middle" x="1365" y="-141.9" font-family="Times Roman,serif" font-size="14.00">Users::OmniauthCallbacksController</text>
</g>
<!-- StatusUpdatesController -->
<g id="node19" class="node"><title>StatusUpdatesController</title>
<ellipse fill="none" stroke="black" cx="821.878" cy="-384.1" rx="132.229" ry="18.3848"/>
<text text-anchor="middle" x="821.878" y="-380.5" font-family="Times Roman,serif" font-size="14.00">StatusUpdatesController</text>
</g>
<!-- KluImagesController -->
<g id="node20" class="node"><title>KluImagesController</title>
<ellipse fill="none" stroke="black" cx="111.5" cy="-559.52" rx="109.81" ry="18.3848"/>
<text text-anchor="middle" x="111.5" y="-555.92" font-family="Times Roman,serif" font-size="14.00">KluImagesController</text>
</g>
<!-- RatingsController -->
<g id="node21" class="node"><title>RatingsController</title>
<ellipse fill="none" stroke="black" cx="1512.06" cy="-550.893" rx="96.8736" ry="18.3848"/>
<text text-anchor="middle" x="1512.06" y="-547.293" font-family="Times Roman,serif" font-size="14.00">RatingsController</text>
</g>
<!-- BookmarksController -->
<g id="node22" class="node"><title>BookmarksController</title>
<ellipse fill="none" stroke="black" cx="1495.97" cy="-858.373" rx="114.051" ry="18.3848"/>
<text text-anchor="middle" x="1495.97" y="-854.773" font-family="Times Roman,serif" font-size="14.00">BookmarksController</text>
</g>
<!-- ApplicationController -->
<g id="node23" class="node"><title>ApplicationController</title>
<ellipse fill="none" stroke="black" cx="832.823" cy="-561.262" rx="113.844" ry="18.3848"/>
<text text-anchor="middle" x="832.823" y="-557.662" font-family="Times Roman,serif" font-size="14.00">ApplicationController</text>
</g>
<!-- ApplicationController&#45;&gt;MessagesController -->
<g id="edge2" class="edge"><title>ApplicationController&#45;&gt;MessagesController</title>
<path fill="none" stroke="black" d="M822.151,-542.739C810.198,-523.516 789.129,-493.813 763.71,-475.944 747.974,-464.882 741.011,-468.017 722.845,-461.696 514.94,-389.345 266.861,-303.255 164.338,-267.688"/>
</g>
<!-- ApplicationController&#45;&gt;ChatsController -->
<g id="edge4" class="edge"><title>ApplicationController&#45;&gt;ChatsController</title>
<path fill="none" stroke="black" d="M946.269,-563.235C1013.9,-564.41 1098.48,-565.881 1161.03,-566.969"/>
</g>
<!-- ApplicationController&#45;&gt;Admin::BaseController -->
<g id="edge6" class="edge"><title>ApplicationController&#45;&gt;Admin::BaseController</title>
<path fill="none" stroke="black" d="M817.756,-542.595C803.777,-525.292 782.379,-498.845 763.71,-475.944 730.311,-434.973 692.665,-436.668 688.28,-383.991 682.131,-310.111 746.164,-238.497 780.358,-205.869"/>
</g>
<!-- ApplicationController&#45;&gt;ConversationsController -->
<g id="edge8" class="edge"><title>ApplicationController&#45;&gt;ConversationsController</title>
<path fill="none" stroke="black" d="M814.97,-579.841C787.343,-609.921 735.107,-672.41 712.909,-736.507 694.282,-790.29 696.8,-858.956 699.423,-891.427"/>
</g>
<!-- ApplicationController&#45;&gt;Balance::CheckInOrdersController -->
<g id="edge10" class="edge"><title>ApplicationController&#45;&gt;Balance::CheckInOrdersController</title>
<path fill="none" stroke="black" d="M864.229,-579.242C901.769,-600.734 964.237,-636.497 1001.97,-658.101"/>
</g>
<!-- ApplicationController&#45;&gt;Balance::AccountsController -->
<g id="edge12" class="edge"><title>ApplicationController&#45;&gt;Balance::AccountsController</title>
<path fill="none" stroke="black" d="M768.476,-576.553C685.409,-596.292 541.432,-630.505 456.118,-650.779"/>
</g>
<!-- ApplicationController&#45;&gt;KlusController -->
<g id="edge14" class="edge"><title>ApplicationController&#45;&gt;KlusController</title>
<path fill="none" stroke="black" d="M820.011,-542.818C806.974,-524.727 785.619,-496.887 763.71,-475.944 649.044,-366.336 489.186,-262.425 424.734,-222.209"/>
</g>
<!-- ApplicationController&#45;&gt;CommentsController -->
<g id="edge16" class="edge"><title>ApplicationController&#45;&gt;CommentsController</title>
<path fill="none" stroke="black" d="M882.886,-544.582C942.035,-524.767 1043.34,-490.493 1129.79,-459.548 1146.78,-453.466 1151.56,-453.137 1167.83,-445.34 1287.32,-388.1 1420.07,-301.939 1475.73,-264.696"/>
</g>
<!-- ApplicationController&#45;&gt;DashboardController -->
<g id="edge18" class="edge"><title>ApplicationController&#45;&gt;DashboardController</title>
<path fill="none" stroke="black" d="M817.756,-542.595C803.777,-525.292 782.379,-498.845 763.71,-475.944 730.311,-434.973 717.219,-428.225 688.28,-383.991 659.63,-340.199 633.681,-284.105 621.073,-255.334"/>
</g>
<!-- ApplicationController&#45;&gt;AccountsController -->
<g id="edge20" class="edge"><title>ApplicationController&#45;&gt;AccountsController</title>
<path fill="none" stroke="black" d="M844.48,-542.498C859.015,-519.326 884.851,-478.86 908.633,-445.304 928.418,-417.388 939.958,-414.704 955.476,-384.209 982.786,-330.542 998.086,-260.148 1004.19,-227.197"/>
</g>
<!-- ApplicationController&#45;&gt;StatusUpdatesController -->
<g id="edge22" class="edge"><title>ApplicationController&#45;&gt;StatusUpdatesController</title>
<path fill="none" stroke="black" d="M831.672,-542.638C829.57,-508.612 825.133,-436.778 823.03,-402.741"/>
</g>
<!-- ApplicationController&#45;&gt;KluImagesController -->
<g id="edge24" class="edge"><title>ApplicationController&#45;&gt;KluImagesController</title>
<path fill="none" stroke="black" d="M718.527,-560.986C582.269,-560.657 356.145,-560.111 221.713,-559.786"/>
</g>
<!-- ApplicationController&#45;&gt;RatingsController -->
<g id="edge26" class="edge"><title>ApplicationController&#45;&gt;RatingsController</title>
<path fill="none" stroke="black" d="M943.239,-556.636C1027.13,-553.416 1145.37,-549.508 1249.13,-548.398 1304.13,-547.809 1365.61,-548.328 1415.28,-549.041"/>
</g>
<!-- ApplicationController&#45;&gt;BookmarksController -->
<g id="edge28" class="edge"><title>ApplicationController&#45;&gt;BookmarksController</title>
<path fill="none" stroke="black" d="M901.749,-576.101C979.443,-594.197 1108.47,-628.418 1212.42,-676.41 1315.71,-724.098 1425.72,-804.359 1472.62,-840.17"/>
</g>
<!-- VideoSessionsController -->
<g id="node24" class="node"><title>VideoSessionsController</title>
<ellipse fill="none" stroke="black" cx="1038.23" cy="-445.322" rx="128.193" ry="18.3848"/>
<text text-anchor="middle" x="1038.23" y="-441.722" font-family="Times Roman,serif" font-size="14.00">VideoSessionsController</text>
</g>
<!-- ApplicationController&#45;&gt;VideoSessionsController -->
<g id="edge30" class="edge"><title>ApplicationController&#45;&gt;VideoSessionsController</title>
<path fill="none" stroke="black" d="M864.468,-543.401C902.956,-521.677 967.557,-485.214 1006.21,-463.395"/>
</g>
<!-- UsersController -->
<g id="node25" class="node"><title>UsersController</title>
<ellipse fill="none" stroke="black" cx="1230.66" cy="-251.36" rx="87.1802" ry="18.3848"/>
<text text-anchor="middle" x="1230.66" y="-247.76" font-family="Times Roman,serif" font-size="14.00">UsersController</text>
</g>
<!-- ApplicationController&#45;&gt;UsersController -->
<g id="edge32" class="edge"><title>ApplicationController&#45;&gt;UsersController</title>
<path fill="none" stroke="black" d="M841.686,-542.554C854.028,-517.975 878.326,-474.513 908.633,-445.304 996.158,-360.955 1126.78,-296.684 1191.46,-267.922"/>
</g>
<!-- PaymentController -->
<g id="node26" class="node"><title>PaymentController</title>
<ellipse fill="none" stroke="black" cx="442.846" cy="-899.025" rx="103.238" ry="18.3848"/>
<text text-anchor="middle" x="442.846" y="-895.425" font-family="Times Roman,serif" font-size="14.00">PaymentController</text>
</g>
<!-- ApplicationController&#45;&gt;PaymentController -->
<g id="edge34" class="edge"><title>ApplicationController&#45;&gt;PaymentController</title>
<path fill="none" stroke="black" d="M818.12,-579.789C797.477,-605.29 758.139,-652.056 719.965,-687.372 634.421,-766.511 520.835,-846.308 469.748,-881.026"/>
</g>
<!-- SearchController -->
<g id="node27" class="node"><title>SearchController</title>
<ellipse fill="none" stroke="black" cx="129.592" cy="-864.731" rx="94.0452" ry="18.3848"/>
<text text-anchor="middle" x="129.592" y="-861.131" font-family="Times Roman,serif" font-size="14.00">SearchController</text>
</g>
<!-- ApplicationController&#45;&gt;SearchController -->
<g id="edge36" class="edge"><title>ApplicationController&#45;&gt;SearchController</title>
<path fill="none" stroke="black" d="M787.827,-578.403C732.163,-599.783 634.64,-637.808 552.115,-672.93 407.757,-734.367 238.511,-813.329 165.788,-847.597"/>
</g>
<!-- FollowsController -->
<g id="node28" class="node"><title>FollowsController</title>
<ellipse fill="none" stroke="black" cx="621.367" cy="-687.238" rx="96.8736" ry="18.3848"/>
<text text-anchor="middle" x="621.367" y="-683.638" font-family="Times Roman,serif" font-size="14.00">FollowsController</text>
</g>
<!-- ApplicationController&#45;&gt;FollowsController -->
<g id="edge38" class="edge"><title>ApplicationController&#45;&gt;FollowsController</title>
<path fill="none" stroke="black" d="M802.526,-579.311C762.215,-603.327 691.376,-645.53 651.266,-669.425"/>
</g>
<!-- PaypalPaymentsController -->
<g id="node29" class="node"><title>PaypalPaymentsController</title>
<ellipse fill="none" stroke="black" cx="622.112" cy="-475.822" rx="140.007" ry="18.3848"/>
<text text-anchor="middle" x="622.112" y="-472.222" font-family="Times Roman,serif" font-size="14.00">PaypalPaymentsController</text>
</g>
<!-- ApplicationController&#45;&gt;PaypalPaymentsController -->
<g id="edge40" class="edge"><title>ApplicationController&#45;&gt;PaypalPaymentsController</title>
<path fill="none" stroke="black" d="M790.436,-544.075C754.142,-529.358 702.101,-508.256 665.517,-493.422"/>
</g>
<!-- LandingPageController -->
<g id="node30" class="node"><title>LandingPageController</title>
<ellipse fill="none" stroke="black" cx="390.878" cy="-438.219" rx="121.83" ry="18.3848"/>
<text text-anchor="middle" x="390.878" y="-434.619" font-family="Times Roman,serif" font-size="14.00">LandingPageController</text>
</g>
<!-- ApplicationController&#45;&gt;LandingPageController -->
<g id="edge42" class="edge"><title>ApplicationController&#45;&gt;LandingPageController</title>
<path fill="none" stroke="black" d="M753.419,-547.98C680.849,-534.445 571.328,-510.482 480.515,-475.7 464.291,-469.486 446.611,-462.205 431.274,-455.721"/>
</g>
<!-- CategoriesController -->
<g id="node31" class="node"><title>CategoriesController</title>
<ellipse fill="none" stroke="black" cx="826.507" cy="-736.61" rx="111.93" ry="18.3848"/>
<text text-anchor="middle" x="826.507" y="-733.01" font-family="Times Roman,serif" font-size="14.00">CategoriesController</text>
</g>
<!-- ApplicationController&#45;&gt;CategoriesController -->
<g id="edge44" class="edge"><title>ApplicationController&#45;&gt;CategoriesController</title>
<path fill="none" stroke="black" d="M832.147,-580.027C830.931,-613.777 828.39,-684.329 827.178,-717.98"/>
</g>
<!-- VenuesController -->
<g id="node32" class="node"><title>VenuesController</title>
<ellipse fill="none" stroke="black" cx="1206.03" cy="-873.511" rx="96.1665" ry="18.3848"/>
<text text-anchor="middle" x="1206.03" y="-869.911" font-family="Times Roman,serif" font-size="14.00">VenuesController</text>
</g>
<!-- ApplicationController&#45;&gt;VenuesController -->
<g id="edge46" class="edge"><title>ApplicationController&#45;&gt;VenuesController</title>
<path fill="none" stroke="black" d="M831.872,-579.848C831.567,-604.26 834.382,-647.402 855.222,-676.258 876.111,-705.182 1086.98,-813.517 1171.38,-856.134"/>
</g>
<!-- TxtController -->
<g id="node33" class="node"><title>TxtController</title>
<ellipse fill="none" stroke="black" cx="953.9" cy="-909.728" rx="77.0746" ry="18.3848"/>
<text text-anchor="middle" x="953.9" y="-906.128" font-family="Times Roman,serif" font-size="14.00">TxtController</text>
</g>
<!-- ApplicationController&#45;&gt;TxtController -->
<g id="edge48" class="edge"><title>ApplicationController&#45;&gt;TxtController</title>
<path fill="none" stroke="black" d="M832.347,-579.941C832.598,-604.071 836.059,-646.503 855.222,-676.258 880.299,-715.198 917.263,-696.421 940.106,-736.713 968.341,-786.518 962.263,-857.698 957.253,-891.09"/>
</g>
</g>
</svg>
