<?xml version="1.0" encoding="UTF-8" standalone="no"?>
<!DOCTYPE svg PUBLIC "-//W3C//DTD SVG 1.1//EN"
 "http://www.w3.org/Graphics/SVG/1.1/DTD/svg11.dtd">
<!-- Generated by graphviz version 2.26.3 (20100126.1600)
 -->
<!-- Title: G Pages: 1 -->
<svg width="587pt" height="536pt"
 viewBox="0.00 0.00 587.00 536.00" xmlns="http://www.w3.org/2000/svg" xmlns:xlink="http://www.w3.org/1999/xlink">
<g id="graph1" class="graph" transform="scale(1 1) rotate(0) translate(4 532)">
<title>G</title>
<polygon fill="white" stroke="white" points="-4,5 -4,-532 584,-532 584,5 -4,5"/>
<!-- offline -->
<g id="node1" class="node"><title>offline</title>
<ellipse fill="none" stroke="black" cx="249" cy="-510" rx="27" ry="18"/>
<text text-anchor="middle" x="249" y="-507.8" font-family="Bitstream Vera Sans" font-size="8.00">offline</text>
</g>
<!-- available -->
<g id="node3" class="node"><title>available</title>
<ellipse fill="none" stroke="black" cx="232" cy="-428" rx="31.1769" ry="18"/>
<text text-anchor="middle" x="232" y="-425.8" font-family="Bitstream Vera Sans" font-size="8.00">available</text>
</g>
<!-- offline&#45;&gt;available -->
<g id="edge2" class="edge"><title>offline&#45;&gt;available</title>
<path fill="none" stroke="black" d="M245.227,-491.802C243.048,-481.291 240.262,-467.85 237.809,-456.018"/>
<polygon fill="black" stroke="black" points="235.762,-446.148 242.199,-455.026 236.777,-451.043 237.792,-455.939 237.792,-455.939 237.792,-455.939 236.777,-451.043 233.386,-456.853 235.762,-446.148 235.762,-446.148"/>
<text text-anchor="middle" x="279" y="-466.8" font-family="Bitstream Vera Sans" font-size="8.00">become_available</text>
</g>
<!-- available&#45;&gt;offline -->
<g id="edge26" class="edge"><title>available&#45;&gt;offline</title>
<path fill="none" stroke="black" stroke-dasharray="5,2" d="M218.181,-444.143C212.361,-452.949 207.799,-464.052 212,-474 214.412,-479.712 218.223,-484.967 222.5,-489.593"/>
<polygon fill="black" stroke="black" points="229.975,-496.757 219.641,-493.086 226.365,-493.297 222.755,-489.837 222.755,-489.837 222.755,-489.837 226.365,-493.297 225.869,-486.588 229.975,-496.757 229.975,-496.757"/>
<text text-anchor="middle" x="223.5" y="-466.8" font-family="Bitstream Vera Sans" font-size="8.00">reset</text>
</g>
<!-- provisioning -->
<g id="node5" class="node"><title>provisioning</title>
<ellipse fill="none" stroke="black" cx="269" cy="-346" rx="38.7629" ry="18"/>
<text text-anchor="middle" x="269" y="-343.8" font-family="Bitstream Vera Sans" font-size="8.00">provisioning</text>
</g>
<!-- available&#45;&gt;provisioning -->
<g id="edge4" class="edge"><title>available&#45;&gt;provisioning</title>
<path fill="none" stroke="black" d="M229.332,-409.867C228.797,-401.119 229.298,-390.669 233,-382 235.031,-377.245 238.013,-372.783 241.406,-368.729"/>
<polygon fill="black" stroke="black" points="248.296,-361.465 244.679,-371.817 244.855,-365.092 241.414,-368.72 241.414,-368.72 241.414,-368.72 244.855,-365.092 238.149,-365.624 248.296,-361.465 248.296,-361.465"/>
<text text-anchor="middle" x="271.5" y="-384.8" font-family="Bitstream Vera Sans" font-size="8.00">start_provisioning</text>
</g>
<!-- provisioning&#45;&gt;offline -->
<g id="edge28" class="edge"><title>provisioning&#45;&gt;offline</title>
<path fill="none" stroke="black" stroke-dasharray="5,2" d="M291.566,-360.861C298.581,-366.624 305.616,-373.817 310,-382 349.617,-455.953 326.71,-464.76 321,-474 312.959,-487.01 298.635,-495.476 284.87,-500.905"/>
<polygon fill="black" stroke="black" points="275.043,-504.343 282.996,-496.793 279.762,-502.692 284.482,-501.041 284.482,-501.041 284.482,-501.041 279.762,-502.692 285.968,-505.288 275.043,-504.343 275.043,-504.343"/>
<text text-anchor="middle" x="343.5" y="-425.8" font-family="Bitstream Vera Sans" font-size="8.00">reset</text>
</g>
<!-- awaiting_stream -->
<g id="node7" class="node"><title>awaiting_stream</title>
<ellipse fill="none" stroke="black" cx="197" cy="-182" rx="50.2295" ry="18"/>
<text text-anchor="middle" x="197" y="-179.8" font-family="Bitstream Vera Sans" font-size="8.00">awaiting_stream</text>
</g>
<!-- provisioning&#45;&gt;awaiting_stream -->
<g id="edge6" class="edge"><title>provisioning&#45;&gt;awaiting_stream</title>
<path fill="none" stroke="black" d="M255.013,-329.019C245.409,-316.636 233,-299.098 225,-282 214.134,-258.777 206.7,-230.496 202.238,-209.943"/>
<polygon fill="black" stroke="black" points="200.173,-199.967 206.606,-208.848 201.186,-204.864 202.2,-209.76 202.2,-209.76 202.2,-209.76 201.186,-204.864 197.793,-210.672 200.173,-199.967 200.173,-199.967"/>
<text text-anchor="middle" x="273" y="-261.8" font-family="Bitstream Vera Sans" font-size="8.00">complete_provisioning</text>
</g>
<!-- device_required -->
<g id="node9" class="node"><title>device_required</title>
<ellipse fill="none" stroke="black" cx="378" cy="-264" rx="47.9974" ry="18"/>
<text text-anchor="middle" x="378" y="-261.8" font-family="Bitstream Vera Sans" font-size="8.00">device_required</text>
</g>
<!-- provisioning&#45;&gt;device_required -->
<g id="edge8" class="edge"><title>provisioning&#45;&gt;device_required</title>
<path fill="none" stroke="black" d="M262.116,-327.874C259.867,-318.713 259.229,-307.896 265,-300 267.108,-297.116 300.153,-286.775 329.965,-277.912"/>
<polygon fill="black" stroke="black" points="339.902,-274.976 331.587,-282.125 335.107,-276.393 330.312,-277.81 330.312,-277.81 330.312,-277.81 335.107,-276.393 329.037,-273.494 339.902,-274.976 339.902,-274.976"/>
<text text-anchor="middle" x="313" y="-302.8" font-family="Bitstream Vera Sans" font-size="8.00">complete_provisioning</text>
</g>
<!-- awaiting_stream&#45;&gt;offline -->
<g id="edge32" class="edge"><title>awaiting_stream&#45;&gt;offline</title>
<path fill="none" stroke="black" stroke-dasharray="5,2" d="M165.465,-196.347C140.921,-209.917 111,-232.849 111,-264 111,-428 111,-428 111,-428 111,-475.272 171.587,-495.901 212.471,-504.439"/>
<polygon fill="black" stroke="black" points="222.392,-506.358 211.72,-508.877 217.483,-505.409 212.574,-504.459 212.574,-504.459 212.574,-504.459 217.483,-505.409 213.429,-500.041 222.392,-506.358 222.392,-506.358"/>
<text text-anchor="middle" x="122.5" y="-343.8" font-family="Bitstream Vera Sans" font-size="8.00">reset</text>
</g>
<!-- awaiting_stream&#45;&gt;offline -->
<g id="edge20" class="edge"><title>awaiting_stream&#45;&gt;offline</title>
<path fill="none" stroke="black" d="M187.557,-199.687C179.771,-215.933 170,-240.919 170,-264 170,-428 170,-428 170,-428 170,-457.015 195.97,-479.714 218.13,-493.802"/>
<polygon fill="black" stroke="black" points="226.994,-499.129 216.105,-497.835 222.708,-496.553 218.422,-493.978 218.422,-493.978 218.422,-493.978 222.708,-496.553 220.74,-490.121 226.994,-499.129 226.994,-499.129"/>
<text text-anchor="middle" x="191" y="-343.8" font-family="Bitstream Vera Sans" font-size="8.00">shutdown</text>
</g>
<!-- awaiting_stream&#45;&gt;awaiting_stream -->
<g id="edge38" class="edge"><title>awaiting_stream&#45;&gt;awaiting_stream</title>
<path fill="none" stroke="black" d="M242.764,-189.454C255.368,-189.094 265,-186.609 265,-182 265,-178.759 260.238,-176.568 253.03,-175.428"/>
<polygon fill="black" stroke="black" points="242.764,-174.546 253.113,-170.919 247.746,-174.974 252.728,-175.402 252.728,-175.402 252.728,-175.402 247.746,-174.974 252.342,-179.886 242.764,-174.546 242.764,-174.546"/>
<text text-anchor="middle" x="294" y="-179.8" font-family="Bitstream Vera Sans" font-size="8.00">select_device</text>
</g>
<!-- connected -->
<g id="node12" class="node"><title>connected</title>
<ellipse fill="none" stroke="black" cx="118" cy="-100" rx="34.139" ry="18"/>
<text text-anchor="middle" x="118" y="-97.8" font-family="Bitstream Vera Sans" font-size="8.00">connected</text>
</g>
<!-- awaiting_stream&#45;&gt;connected -->
<g id="edge12" class="edge"><title>awaiting_stream&#45;&gt;connected</title>
<path fill="none" stroke="black" d="M191.126,-164.018C187.509,-154.896 182.176,-144.071 175,-136 168.603,-128.806 160.433,-122.518 152.289,-117.297"/>
<polygon fill="black" stroke="black" points="143.548,-112.059 154.439,-113.339 147.837,-114.629 152.125,-117.199 152.125,-117.199 152.125,-117.199 147.837,-114.629 149.812,-121.059 143.548,-112.059 143.548,-112.059"/>
<text text-anchor="middle" x="198" y="-138.8" font-family="Bitstream Vera Sans" font-size="8.00">connect</text>
</g>
<!-- device_required&#45;&gt;offline -->
<g id="edge30" class="edge"><title>device_required&#45;&gt;offline</title>
<path fill="none" stroke="black" stroke-dasharray="5,2" d="M379.22,-282.052C380.825,-315.618 381.213,-389.363 359,-446 347.037,-476.502 312.025,-493.141 284.679,-501.743"/>
<polygon fill="black" stroke="black" points="275.009,-504.56 283.352,-497.443 279.809,-503.162 284.61,-501.764 284.61,-501.764 284.61,-501.764 279.809,-503.162 285.868,-506.084 275.009,-504.56 275.009,-504.56"/>
<text text-anchor="middle" x="385.5" y="-384.8" font-family="Bitstream Vera Sans" font-size="8.00">reset</text>
</g>
<!-- device_required&#45;&gt;offline -->
<g id="edge18" class="edge"><title>device_required&#45;&gt;offline</title>
<path fill="none" stroke="black" d="M386.262,-281.871C403.356,-321.815 437.159,-419.117 389,-474 375.554,-489.323 322.79,-499.696 286.028,-505.231"/>
<polygon fill="black" stroke="black" points="275.662,-506.729 284.916,-500.845 280.61,-506.014 285.559,-505.299 285.559,-505.299 285.559,-505.299 280.61,-506.014 286.203,-509.752 275.662,-506.729 275.662,-506.729"/>
<text text-anchor="middle" x="434" y="-384.8" font-family="Bitstream Vera Sans" font-size="8.00">shutdown</text>
</g>
<!-- device_required&#45;&gt;awaiting_stream -->
<g id="edge10" class="edge"><title>device_required&#45;&gt;awaiting_stream</title>
<path fill="none" stroke="black" d="M347.296,-250.09C317.094,-236.407 270.811,-215.439 237.587,-200.388"/>
<polygon fill="black" stroke="black" points="228.158,-196.116 239.124,-196.144 232.713,-198.179 237.267,-200.243 237.267,-200.243 237.267,-200.243 232.713,-198.179 235.41,-204.342 228.158,-196.116 228.158,-196.116"/>
<text text-anchor="middle" x="327" y="-220.8" font-family="Bitstream Vera Sans" font-size="8.00">select_device</text>
</g>
<!-- connected&#45;&gt;offline -->
<g id="edge22" class="edge"><title>connected&#45;&gt;offline</title>
<path fill="none" stroke="black" d="M86.688,-107.276C51.7299,-117.477 0,-139.715 0,-182 0,-428 0,-428 0,-428 0,-458.525 23.6061,-460.534 51,-474 78.7511,-487.641 162.79,-499.63 212.008,-505.729"/>
<polygon fill="black" stroke="black" points="222.244,-506.975 211.773,-510.234 217.281,-506.371 212.317,-505.767 212.317,-505.767 212.317,-505.767 217.281,-506.371 212.861,-501.3 222.244,-506.975 222.244,-506.975"/>
<text text-anchor="middle" x="21" y="-302.8" font-family="Bitstream Vera Sans" font-size="8.00">shutdown</text>
</g>
<!-- connected&#45;&gt;offline -->
<g id="edge34" class="edge"><title>connected&#45;&gt;offline</title>
<path fill="none" stroke="black" stroke-dasharray="5,2" d="M100.057,-115.657C84.6809,-130.891 65,-155.557 65,-182 65,-428 65,-428 65,-428 65,-461.25 94.3749,-458.902 124,-474 152.119,-488.33 186.787,-497.742 212.475,-503.336"/>
<polygon fill="black" stroke="black" points="222.541,-505.434 211.833,-507.799 217.646,-504.414 212.751,-503.394 212.751,-503.394 212.751,-503.394 217.646,-504.414 213.669,-498.988 222.541,-505.434 222.541,-505.434"/>
<text text-anchor="middle" x="76.5" y="-302.8" font-family="Bitstream Vera Sans" font-size="8.00">reset</text>
</g>
<!-- connected&#45;&gt;awaiting_stream -->
<g id="edge40" class="edge"><title>connected&#45;&gt;awaiting_stream</title>
<path fill="none" stroke="black" d="M110.89,-117.891C108.488,-126.988 107.605,-137.818 113,-146 120.099,-156.765 131.156,-164.324 142.944,-169.626"/>
<polygon fill="black" stroke="black" points="152.492,-173.413 141.537,-173.909 147.844,-171.57 143.196,-169.726 143.196,-169.726 143.196,-169.726 147.844,-171.57 144.856,-165.543 152.492,-173.413 152.492,-173.413"/>
<text text-anchor="middle" x="142" y="-138.8" font-family="Bitstream Vera Sans" font-size="8.00">select_device</text>
</g>
<!-- disconnected -->
<g id="node13" class="node"><title>disconnected</title>
<ellipse fill="none" stroke="black" cx="246" cy="-18" rx="42.1466" ry="18"/>
<text text-anchor="middle" x="246" y="-15.8" font-family="Bitstream Vera Sans" font-size="8.00">disconnected</text>
</g>
<!-- connected&#45;&gt;disconnected -->
<g id="edge16" class="edge"><title>connected&#45;&gt;disconnected</title>
<path fill="none" stroke="black" d="M138.639,-85.6117C152.019,-76.3898 169.896,-64.2677 186,-54 194.438,-48.6198 203.659,-42.9743 212.285,-37.7913"/>
<polygon fill="black" stroke="black" points="221.001,-32.588 214.722,-41.5778 216.708,-35.151 212.415,-37.7139 212.415,-37.7139 212.415,-37.7139 216.708,-35.151 210.108,-33.8501 221.001,-32.588 221.001,-32.588"/>
<text text-anchor="middle" x="209" y="-56.8" font-family="Bitstream Vera Sans" font-size="8.00">disconnect</text>
</g>
<!-- disconnected&#45;&gt;offline -->
<g id="edge24" class="edge"><title>disconnected&#45;&gt;offline</title>
<path fill="none" stroke="black" d="M285.882,-23.6987C352.214,-34.3087 478,-59.7368 478,-100 478,-428 478,-428 478,-428 478,-468.302 350.694,-494.091 285.921,-504.604"/>
<polygon fill="black" stroke="black" points="275.717,-506.218 284.892,-500.211 280.656,-505.437 285.595,-504.656 285.595,-504.656 285.595,-504.656 280.656,-505.437 286.298,-509.101 275.717,-506.218 275.717,-506.218"/>
<text text-anchor="middle" x="499" y="-261.8" font-family="Bitstream Vera Sans" font-size="8.00">shutdown</text>
</g>
<!-- disconnected&#45;&gt;offline -->
<g id="edge36" class="edge"><title>disconnected&#45;&gt;offline</title>
<path fill="none" stroke="black" stroke-dasharray="5,2" d="M287.808,-20.321C372.425,-26.1657 556,-45.1646 556,-100 556,-428 556,-428 556,-428 556,-483.238 368.137,-502.234 286.327,-507.887"/>
<polygon fill="black" stroke="black" points="275.975,-508.569 285.657,-503.421 280.964,-508.24 285.953,-507.911 285.953,-507.911 285.953,-507.911 280.964,-508.24 286.25,-512.401 275.975,-508.569 275.975,-508.569"/>
<text text-anchor="middle" x="567.5" y="-261.8" font-family="Bitstream Vera Sans" font-size="8.00">reset</text>
</g>
<!-- disconnected&#45;&gt;awaiting_stream -->
<g id="edge42" class="edge"><title>disconnected&#45;&gt;awaiting_stream</title>
<path fill="none" stroke="black" d="M244.114,-36.3724C241.069,-61.7538 233.844,-108.642 219,-146 217.756,-149.131 216.248,-152.299 214.613,-155.39"/>
<polygon fill="black" stroke="black" points="209.455,-164.317 210.562,-153.407 211.956,-159.988 214.458,-155.658 214.458,-155.658 214.458,-155.658 211.956,-159.988 218.354,-157.91 209.455,-164.317 209.455,-164.317"/>
<text text-anchor="middle" x="265" y="-97.8" font-family="Bitstream Vera Sans" font-size="8.00">select_device</text>
</g>
<!-- disconnected&#45;&gt;connected -->
<g id="edge14" class="edge"><title>disconnected&#45;&gt;connected</title>
<path fill="none" stroke="black" d="M207.357,-25.3935C177.268,-31.9249 138.847,-42.2243 128,-54 123.494,-58.8915 120.843,-65.3212 119.322,-71.817"/>
<polygon fill="black" stroke="black" points="117.758,-81.8674 114.849,-71.2945 118.527,-76.9268 119.295,-71.9863 119.295,-71.9863 119.295,-71.9863 118.527,-76.9268 123.742,-72.678 117.758,-81.8674 117.758,-81.8674"/>
<text text-anchor="middle" x="145" y="-56.8" font-family="Bitstream Vera Sans" font-size="8.00">connect</text>
</g>
</g>
</svg>
