<?xml version="1.0" encoding="UTF-8" standalone="no"?>
<!DOCTYPE svg PUBLIC "-//W3C//DTD SVG 1.1//EN"
 "http://www.w3.org/Graphics/SVG/1.1/DTD/svg11.dtd">
<!-- Generated by graphviz version 2.26.3 (20100126.1600)
 -->
<!-- Title: G Pages: 1 -->
<svg width="241pt" height="372pt"
 viewBox="0.00 0.00 241.10 372.00" xmlns="http://www.w3.org/2000/svg" xmlns:xlink="http://www.w3.org/1999/xlink">
<g id="graph1" class="graph" transform="scale(1 1) rotate(0) translate(4 368)">
<title>G</title>
<polygon fill="white" stroke="white" points="-4,5 -4,-368 238.104,-368 238.104,5 -4,5"/>
<!-- unpaired -->
<g id="node1" class="node"><title>unpaired</title>
<ellipse fill="none" stroke="black" cx="77.1041" cy="-346" rx="31.1769" ry="18"/>
<text text-anchor="middle" x="77.1041" y="-343.8" font-family="Bitstream Vera Sans" font-size="8.00">unpaired</text>
</g>
<!-- pairing -->
<g id="node3" class="node"><title>pairing</title>
<ellipse fill="none" stroke="black" cx="77.1041" cy="-264" rx="27" ry="18"/>
<text text-anchor="middle" x="77.1041" y="-261.8" font-family="Bitstream Vera Sans" font-size="8.00">pairing</text>
</g>
<!-- unpaired&#45;&gt;pairing -->
<g id="edge2" class="edge"><title>unpaired&#45;&gt;pairing</title>
<path fill="none" stroke="black" d="M77.1041,-327.802C77.1041,-317.398 77.1041,-304.122 77.1041,-292.377"/>
<polygon fill="black" stroke="black" points="77.1041,-282.148 81.6042,-292.148 77.1041,-287.148 77.1042,-292.148 77.1042,-292.148 77.1042,-292.148 77.1041,-287.148 72.6042,-292.148 77.1041,-282.148 77.1041,-282.148"/>
<text text-anchor="middle" x="94.1041" y="-302.8" font-family="Bitstream Vera Sans" font-size="8.00">register</text>
</g>
<!-- pairing&#45;&gt;pairing -->
<g id="edge4" class="edge"><title>pairing&#45;&gt;pairing</title>
<path fill="none" stroke="black" d="M102.093,-271.41C112.874,-272.017 122.104,-269.547 122.104,-264 122.104,-260.36 118.129,-258.045 112.349,-257.055"/>
<polygon fill="black" stroke="black" points="102.093,-256.59 112.287,-252.547 107.088,-256.816 112.083,-257.043 112.083,-257.043 112.083,-257.043 107.088,-256.816 111.879,-261.538 102.093,-256.59 102.093,-256.59"/>
<text text-anchor="middle" x="139.104" y="-261.8" font-family="Bitstream Vera Sans" font-size="8.00">register</text>
</g>
<!-- idle -->
<g id="node7" class="node"><title>idle</title>
<ellipse fill="none" stroke="black" cx="77.1041" cy="-182" rx="27" ry="18"/>
<text text-anchor="middle" x="77.1041" y="-179.8" font-family="Bitstream Vera Sans" font-size="8.00">idle</text>
</g>
<!-- pairing&#45;&gt;idle -->
<g id="edge12" class="edge"><title>pairing&#45;&gt;idle</title>
<path fill="none" stroke="black" d="M77.1041,-245.802C77.1041,-235.398 77.1041,-222.122 77.1041,-210.377"/>
<polygon fill="black" stroke="black" points="77.1041,-200.148 81.6042,-210.148 77.1041,-205.148 77.1042,-210.148 77.1042,-210.148 77.1042,-210.148 77.1041,-205.148 72.6042,-210.148 77.1041,-200.148 77.1041,-200.148"/>
<text text-anchor="middle" x="113.604" y="-220.8" font-family="Bitstream Vera Sans" font-size="8.00">complete_pairing</text>
</g>
<!-- offline -->
<g id="node5" class="node"><title>offline</title>
<ellipse fill="none" stroke="black" cx="44.1041" cy="-18" rx="27" ry="18"/>
<text text-anchor="middle" x="44.1041" y="-15.8" font-family="Bitstream Vera Sans" font-size="8.00">offline</text>
</g>
<!-- offline&#45;&gt;idle -->
<g id="edge6" class="edge"><title>offline&#45;&gt;idle</title>
<path fill="none" stroke="black" d="M46.4593,-35.9524C49.8906,-60.8463 56.8742,-107.172 66.1041,-146 66.7478,-148.708 67.4819,-151.512 68.2584,-154.304"/>
<polygon fill="black" stroke="black" points="71.171,-164.177 64.0252,-155.859 69.7562,-159.381 68.3413,-154.585 68.3413,-154.585 68.3413,-154.585 69.7562,-159.381 72.6574,-153.312 71.171,-164.177 71.171,-164.177"/>
<text text-anchor="middle" x="76.1041" y="-97.8" font-family="Bitstream Vera Sans" font-size="8.00">register</text>
</g>
<!-- idle&#45;&gt;offline -->
<g id="edge18" class="edge"><title>idle&#45;&gt;offline</title>
<path fill="none" stroke="black" d="M55.9852,-170.448C38.4315,-159.522 14.679,-141.335 4.10408,-118 -7.57945,-92.219 8.54,-61.9625 23.6672,-41.5375"/>
<polygon fill="black" stroke="black" points="30.0056,-33.4275 27.3932,-44.0777 26.9266,-37.3671 23.8476,-41.3066 23.8476,-41.3066 23.8476,-41.3066 26.9266,-37.3671 20.3021,-38.5355 30.0056,-33.4275 30.0056,-33.4275"/>
<text text-anchor="middle" x="26.6041" y="-97.8" font-family="Bitstream Vera Sans" font-size="8.00">deregister</text>
</g>
<!-- idle&#45;&gt;idle -->
<g id="edge8" class="edge"><title>idle&#45;&gt;idle</title>
<path fill="none" stroke="black" d="M102.093,-189.41C112.874,-190.017 122.104,-187.547 122.104,-182 122.104,-178.36 118.129,-176.045 112.349,-175.055"/>
<polygon fill="black" stroke="black" points="102.093,-174.59 112.287,-170.547 107.088,-174.816 112.083,-175.043 112.083,-175.043 112.083,-175.043 107.088,-174.816 111.879,-179.538 102.093,-174.59 102.093,-174.59"/>
<text text-anchor="middle" x="139.104" y="-179.8" font-family="Bitstream Vera Sans" font-size="8.00">register</text>
</g>
<!-- streaming -->
<g id="node9" class="node"><title>streaming</title>
<ellipse fill="none" stroke="black" cx="143.104" cy="-100" rx="34.139" ry="18"/>
<text text-anchor="middle" x="143.104" y="-97.8" font-family="Bitstream Vera Sans" font-size="8.00">streaming</text>
</g>
<!-- idle&#45;&gt;streaming -->
<g id="edge14" class="edge"><title>idle&#45;&gt;streaming</title>
<path fill="none" stroke="black" d="M71.3385,-164.247C69.4868,-155.188 69.0428,-144.349 74.1041,-136 80.6704,-125.168 91.6811,-117.441 103,-111.999"/>
<polygon fill="black" stroke="black" points="112.49,-107.946 105.061,-116.012 107.892,-109.91 103.294,-111.873 103.294,-111.873 103.294,-111.873 107.892,-109.91 101.526,-107.735 112.49,-107.946 112.49,-107.946"/>
<text text-anchor="middle" x="102.104" y="-138.8" font-family="Bitstream Vera Sans" font-size="8.00">start_stream</text>
</g>
<!-- streaming&#45;&gt;offline -->
<g id="edge20" class="edge"><title>streaming&#45;&gt;offline</title>
<path fill="none" stroke="black" d="M124.483,-84.5764C108.887,-71.6588 86.4826,-53.1014 69.2871,-38.8586"/>
<polygon fill="black" stroke="black" points="61.3167,-32.257 71.8886,-35.1703 65.1674,-35.4464 69.0181,-38.6359 69.0181,-38.6359 69.0181,-38.6359 65.1674,-35.4464 66.1476,-42.1015 61.3167,-32.257 61.3167,-32.257"/>
<text text-anchor="middle" x="121.604" y="-56.8" font-family="Bitstream Vera Sans" font-size="8.00">deregister</text>
</g>
<!-- streaming&#45;&gt;idle -->
<g id="edge10" class="edge"><title>streaming&#45;&gt;idle</title>
<path fill="none" stroke="black" d="M142.853,-118.331C141.943,-127.331 139.621,-137.942 134.104,-146 127.891,-155.075 118.559,-162.339 109.235,-167.897"/>
<polygon fill="black" stroke="black" points="100.4,-172.708 107.03,-163.974 104.791,-170.317 109.182,-167.926 109.182,-167.926 109.182,-167.926 104.791,-170.317 111.334,-171.878 100.4,-172.708 100.4,-172.708"/>
<text text-anchor="middle" x="155.104" y="-138.8" font-family="Bitstream Vera Sans" font-size="8.00">register</text>
</g>
<!-- streaming&#45;&gt;idle -->
<g id="edge16" class="edge"><title>streaming&#45;&gt;idle</title>
<path fill="none" stroke="black" d="M164.07,-114.443C174.541,-123.476 183.547,-135.374 176.104,-146 168.509,-156.844 137.84,-166.937 112.625,-173.66"/>
<polygon fill="black" stroke="black" points="102.938,-176.153 111.501,-169.302 107.781,-174.906 112.623,-173.66 112.623,-173.66 112.623,-173.66 107.781,-174.906 113.744,-178.018 102.938,-176.153 102.938,-176.153"/>
<text text-anchor="middle" x="205.604" y="-138.8" font-family="Bitstream Vera Sans" font-size="8.00">stop_stream</text>
</g>
</g>
</svg>
