<?xml version="1.0" encoding="UTF-8" standalone="no"?>
<!DOCTYPE svg PUBLIC "-//W3C//DTD SVG 1.1//EN"
 "http://www.w3.org/Graphics/SVG/1.1/DTD/svg11.dtd">
<!-- Generated by graphviz version 2.26.3 (20100126.1600)
 -->
<!-- Title: G Pages: 1 -->
<svg width="468pt" height="454pt"
 viewBox="0.00 0.00 468.00 454.00" xmlns="http://www.w3.org/2000/svg" xmlns:xlink="http://www.w3.org/1999/xlink">
<g id="graph1" class="graph" transform="scale(1 1) rotate(0) translate(4 450)">
<title>G</title>
<polygon fill="white" stroke="white" points="-4,5 -4,-450 465,-450 465,5 -4,5"/>
<!-- offline -->
<g id="node1" class="node"><title>offline</title>
<ellipse fill="none" stroke="black" cx="158" cy="-428" rx="27" ry="18"/>
<text text-anchor="middle" x="158" y="-425.8" font-family="Bitstream Vera Sans" font-size="8.00">offline</text>
</g>
<!-- provisioning -->
<g id="node3" class="node"><title>provisioning</title>
<ellipse fill="none" stroke="black" cx="204" cy="-346" rx="38.7629" ry="18"/>
<text text-anchor="middle" x="204" y="-343.8" font-family="Bitstream Vera Sans" font-size="8.00">provisioning</text>
</g>
<!-- offline&#45;&gt;provisioning -->
<g id="edge2" class="edge"><title>offline&#45;&gt;provisioning</title>
<path fill="none" stroke="black" d="M169.738,-411.462C173.813,-405.451 178.287,-398.53 182,-392 185.389,-386.041 188.74,-379.478 191.767,-373.222"/>
<polygon fill="black" stroke="black" points="196.215,-363.774 196.027,-374.738 194.085,-368.298 191.956,-372.821 191.956,-372.821 191.956,-372.821 194.085,-368.298 187.884,-370.905 196.215,-363.774 196.215,-363.774"/>
<text text-anchor="middle" x="225.5" y="-384.8" font-family="Bitstream Vera Sans" font-size="8.00">start_provisioning</text>
</g>
<!-- provisioning&#45;&gt;offline -->
<g id="edge24" class="edge"><title>provisioning&#45;&gt;offline</title>
<path fill="none" stroke="black" d="M177.158,-359.149C168.458,-364.877 159.815,-372.488 155,-382 152.221,-387.489 151.382,-393.83 151.568,-400.015"/>
<polygon fill="black" stroke="black" points="152.687,-410.101 147.112,-400.659 152.136,-405.132 151.584,-400.162 151.584,-400.162 151.584,-400.162 152.136,-405.132 156.057,-399.666 152.687,-410.101 152.687,-410.101"/>
<text text-anchor="middle" x="166.5" y="-384.8" font-family="Bitstream Vera Sans" font-size="8.00">reset</text>
</g>
<!-- awaiting_stream -->
<g id="node5" class="node"><title>awaiting_stream</title>
<ellipse fill="none" stroke="black" cx="237" cy="-182" rx="50.2295" ry="18"/>
<text text-anchor="middle" x="237" y="-179.8" font-family="Bitstream Vera Sans" font-size="8.00">awaiting_stream</text>
</g>
<!-- provisioning&#45;&gt;awaiting_stream -->
<g id="edge4" class="edge"><title>provisioning&#45;&gt;awaiting_stream</title>
<path fill="none" stroke="black" d="M222.221,-329.703C227.334,-324.026 232.245,-317.247 235,-310 247.355,-277.499 245.356,-236.919 241.933,-210.272"/>
<polygon fill="black" stroke="black" points="240.471,-200.109 246.349,-209.366 241.183,-205.058 241.895,-210.007 241.895,-210.007 241.895,-210.007 241.183,-205.058 237.441,-210.648 240.471,-200.109 240.471,-200.109"/>
<text text-anchor="middle" x="292" y="-261.8" font-family="Bitstream Vera Sans" font-size="8.00">complete_provisioning</text>
</g>
<!-- select_device -->
<g id="node7" class="node"><title>select_device</title>
<ellipse fill="none" stroke="black" cx="120" cy="-264" rx="42.2213" ry="18"/>
<text text-anchor="middle" x="120" y="-261.8" font-family="Bitstream Vera Sans" font-size="8.00">select_device</text>
</g>
<!-- provisioning&#45;&gt;select_device -->
<g id="edge6" class="edge"><title>provisioning&#45;&gt;select_device</title>
<path fill="none" stroke="black" d="M173.575,-334.401C161.533,-328.577 148.36,-320.493 139,-310 134.286,-304.715 130.642,-298.098 127.867,-291.544"/>
<polygon fill="black" stroke="black" points="124.4,-282.15 132.084,-289.973 126.131,-286.84 127.863,-291.531 127.863,-291.531 127.863,-291.531 126.131,-286.84 123.641,-293.089 124.4,-282.15 124.4,-282.15"/>
<text text-anchor="middle" x="187" y="-302.8" font-family="Bitstream Vera Sans" font-size="8.00">complete_provisioning</text>
</g>
<!-- awaiting_stream&#45;&gt;offline -->
<g id="edge18" class="edge"><title>awaiting_stream&#45;&gt;offline</title>
<path fill="none" stroke="black" d="M275.117,-193.802C299.54,-203.569 329.318,-220.11 344,-246 351.893,-259.918 348.763,-266.726 344,-282 326.309,-338.728 315.619,-356.454 268,-392 246.496,-408.052 217.493,-417.154 194.667,-422.188"/>
<polygon fill="black" stroke="black" points="184.663,-424.225 193.564,-417.82 189.562,-423.227 194.462,-422.229 194.462,-422.229 194.462,-422.229 189.562,-423.227 195.359,-426.639 184.663,-424.225 184.663,-424.225"/>
<text text-anchor="middle" x="359" y="-302.8" font-family="Bitstream Vera Sans" font-size="8.00">shutdown</text>
</g>
<!-- connected -->
<g id="node9" class="node"><title>connected</title>
<ellipse fill="none" stroke="black" cx="237" cy="-100" rx="34.139" ry="18"/>
<text text-anchor="middle" x="237" y="-97.8" font-family="Bitstream Vera Sans" font-size="8.00">connected</text>
</g>
<!-- awaiting_stream&#45;&gt;connected -->
<g id="edge8" class="edge"><title>awaiting_stream&#45;&gt;connected</title>
<path fill="none" stroke="black" d="M237,-163.802C237,-153.398 237,-140.122 237,-128.377"/>
<polygon fill="black" stroke="black" points="237,-118.148 241.5,-128.148 237,-123.148 237,-128.148 237,-128.148 237,-128.148 237,-123.148 232.5,-128.148 237,-118.148 237,-118.148"/>
<text text-anchor="middle" x="254" y="-138.8" font-family="Bitstream Vera Sans" font-size="8.00">connect</text>
</g>
<!-- select_device&#45;&gt;offline -->
<g id="edge26" class="edge"><title>select_device&#45;&gt;offline</title>
<path fill="none" stroke="black" d="M121.042,-282.317C122.502,-302.564 125.83,-336.017 133,-364 136.229,-376.602 141.244,-390.081 145.937,-401.404"/>
<polygon fill="black" stroke="black" points="149.925,-410.722 141.853,-403.299 147.958,-406.125 145.99,-401.529 145.99,-401.529 145.99,-401.529 147.958,-406.125 150.127,-399.758 149.925,-410.722 149.925,-410.722"/>
<text text-anchor="middle" x="144.5" y="-343.8" font-family="Bitstream Vera Sans" font-size="8.00">reset</text>
</g>
<!-- select_device&#45;&gt;offline -->
<g id="edge16" class="edge"><title>select_device&#45;&gt;offline</title>
<path fill="none" stroke="black" d="M99.0977,-279.683C75.8267,-299.163 43.5192,-333.553 60,-364 73.5426,-389.019 101.582,-405.814 124.212,-415.898"/>
<polygon fill="black" stroke="black" points="133.522,-419.813 122.559,-420.084 128.913,-417.874 124.304,-415.936 124.304,-415.936 124.304,-415.936 128.913,-417.874 126.048,-411.788 133.522,-419.813 133.522,-419.813"/>
<text text-anchor="middle" x="81" y="-343.8" font-family="Bitstream Vera Sans" font-size="8.00">shutdown</text>
</g>
<!-- select_device&#45;&gt;awaiting_stream -->
<g id="edge14" class="edge"><title>select_device&#45;&gt;awaiting_stream</title>
<path fill="none" stroke="black" d="M130.225,-246.512C136.432,-237.088 145.066,-225.822 155,-218 165.313,-209.879 177.743,-203.199 189.771,-197.893"/>
<polygon fill="black" stroke="black" points="199.284,-193.93 191.783,-201.93 194.668,-195.853 190.053,-197.776 190.053,-197.776 190.053,-197.776 194.668,-195.853 188.322,-193.622 199.284,-193.93 199.284,-193.93"/>
<text text-anchor="middle" x="189" y="-220.8" font-family="Bitstream Vera Sans" font-size="8.00">device_selected</text>
</g>
<!-- connected&#45;&gt;offline -->
<g id="edge20" class="edge"><title>connected&#45;&gt;offline</title>
<path fill="none" stroke="black" d="M203.797,-104.407C138.571,-113.997 0,-139.386 0,-182 0,-346 0,-346 0,-346 0,-400.159 74.0413,-418.595 120.753,-424.837"/>
<polygon fill="black" stroke="black" points="130.839,-426.054 120.372,-429.323 125.875,-425.455 120.911,-424.856 120.911,-424.856 120.911,-424.856 125.875,-425.455 121.45,-420.388 130.839,-426.054 130.839,-426.054"/>
<text text-anchor="middle" x="21" y="-261.8" font-family="Bitstream Vera Sans" font-size="8.00">shutdown</text>
</g>
<!-- disconnected -->
<g id="node10" class="node"><title>disconnected</title>
<ellipse fill="none" stroke="black" cx="294" cy="-18" rx="42.1466" ry="18"/>
<text text-anchor="middle" x="294" y="-15.8" font-family="Bitstream Vera Sans" font-size="8.00">disconnected</text>
</g>
<!-- connected&#45;&gt;disconnected -->
<g id="edge12" class="edge"><title>connected&#45;&gt;disconnected</title>
<path fill="none" stroke="black" d="M254.598,-84.1546C260.585,-78.2088 267.016,-71.1513 272,-64 276.081,-58.1447 279.774,-51.4148 282.918,-44.9422"/>
<polygon fill="black" stroke="black" points="287.113,-35.7747 287.044,-46.7404 285.032,-40.3212 282.952,-44.8678 282.952,-44.8678 282.952,-44.8678 285.032,-40.3212 278.86,-42.9952 287.113,-35.7747 287.113,-35.7747"/>
<text text-anchor="middle" x="300" y="-56.8" font-family="Bitstream Vera Sans" font-size="8.00">disconnect</text>
</g>
<!-- disconnected&#45;&gt;offline -->
<g id="edge22" class="edge"><title>disconnected&#45;&gt;offline</title>
<path fill="none" stroke="black" d="M331.878,-26.1366C368.344,-36.4581 418,-58.1892 418,-100 418,-346 418,-346 418,-346 418,-392.24 266.539,-415.664 194.821,-424.163"/>
<polygon fill="black" stroke="black" points="184.845,-425.31 194.266,-419.697 189.813,-424.739 194.78,-424.168 194.78,-424.168 194.78,-424.168 189.813,-424.739 195.294,-428.638 184.845,-425.31 184.845,-425.31"/>
<text text-anchor="middle" x="439" y="-220.8" font-family="Bitstream Vera Sans" font-size="8.00">shutdown</text>
</g>
<!-- disconnected&#45;&gt;connected -->
<g id="edge10" class="edge"><title>disconnected&#45;&gt;connected</title>
<path fill="none" stroke="black" d="M263.546,-30.4101C253.625,-36.0636 243.705,-43.8155 238,-54 234.999,-59.3575 233.71,-65.6455 233.376,-71.822"/>
<polygon fill="black" stroke="black" points="233.581,-81.9273 228.879,-72.0206 233.479,-76.9283 233.378,-71.9294 233.378,-71.9294 233.378,-71.9294 233.479,-76.9283 237.877,-71.8382 233.581,-81.9273 233.581,-81.9273"/>
<text text-anchor="middle" x="255" y="-56.8" font-family="Bitstream Vera Sans" font-size="8.00">connect</text>
</g>
</g>
</svg>
