<?xml version="1.0" encoding="UTF-8" standalone="no"?>
<!DOCTYPE svg PUBLIC "-//W3C//DTD SVG 1.1//EN"
 "http://www.w3.org/Graphics/SVG/1.1/DTD/svg11.dtd">
<!-- Generated by graphviz version 2.26.3 (20100126.1600)
 -->
<!-- Title: G Pages: 1 -->
<svg width="937pt" height="492pt"
 viewBox="0.00 0.00 937.00 492.00" xmlns="http://www.w3.org/2000/svg" xmlns:xlink="http://www.w3.org/1999/xlink">
<g id="graph1" class="graph" transform="scale(1 1) rotate(0) translate(4 488)">
<title>G</title>
<polygon fill="white" stroke="white" points="-4,5 -4,-488 934,-488 934,5 -4,5"/>
<g id="graph2" class="cluster"><title>cluster_0</title>
<polygon fill="none" stroke="black" points="113,-8 113,-78 327,-78 327,-8 113,-8"/>
<text text-anchor="middle" x="220" y="-66.8" font-family="Bitstream Vera Sans" font-size="8.00">APIs</text>
</g>
<!-- Ec2Metrics -->
<g id="node1" class="node"><title>Ec2Metrics</title>
<polygon fill="none" stroke="black" points="75,-124 13,-124 13,-88 75,-88 75,-124"/>
<text text-anchor="middle" x="44" y="-103.8" font-family="Bitstream Vera Sans" font-size="8.00">Ec2Metrics</text>
</g>
<!-- cloud_metrics -->
<g id="node8" class="node"><title>cloud_metrics</title>
<ellipse fill="none" stroke="black" cx="44" cy="-34" rx="43.8786" ry="18"/>
<text text-anchor="middle" x="44" y="-31.8" font-family="Bitstream Vera Sans" font-size="8.00">cloud_metrics</text>
</g>
<!-- Ec2Metrics&#45;&gt;cloud_metrics -->
<g id="edge3" class="edge"><title>Ec2Metrics&#45;&gt;cloud_metrics</title>
<path fill="none" stroke="black" d="M44,-87.8314C44,-80.131 44,-70.9743 44,-62.4166"/>
<polygon fill="black" stroke="black" points="44,-52.4133 48.5001,-62.4132 44,-57.4133 44.0001,-62.4133 44.0001,-62.4133 44.0001,-62.4133 44,-57.4133 39.5001,-62.4133 44,-52.4133 44,-52.4133"/>
</g>
<!-- FogEc2 -->
<g id="node24" class="node"><title>FogEc2</title>
<polygon fill="none" stroke="black" points="319,-52 265,-52 265,-16 319,-16 319,-52"/>
<text text-anchor="middle" x="292" y="-31.8" font-family="Bitstream Vera Sans" font-size="8.00">FogEc2</text>
</g>
<!-- Ec2Metrics&#45;&gt;FogEc2 -->
<g id="edge47" class="edge"><title>Ec2Metrics&#45;&gt;FogEc2</title>
<path fill="none" stroke="black" stroke-dasharray="5,2" d="M75.3878,-102.003C133.922,-94.5304 254.039,-79.0924 256,-78 263.518,-73.8127 270.091,-67.3739 275.49,-60.7029"/>
<polygon fill="black" stroke="black" points="281.685,-52.2809 279.385,-63.0029 278.722,-56.3087 275.759,-60.3366 275.759,-60.3366 275.759,-60.3366 278.722,-56.3087 272.134,-57.6703 281.685,-52.2809 281.685,-52.2809"/>
</g>
<!-- SiteObserver -->
<g id="node2" class="node"><title>SiteObserver</title>
<polygon fill="none" stroke="black" points="461,-412 389,-412 389,-376 461,-376 461,-412"/>
<text text-anchor="middle" x="425" y="-391.8" font-family="Bitstream Vera Sans" font-size="8.00">SiteObserver</text>
</g>
<!-- sites_observed -->
<g id="node10" class="node"><title>sites_observed</title>
<ellipse fill="none" stroke="black" cx="748" cy="-322" rx="46.8444" ry="18"/>
<text text-anchor="middle" x="748" y="-319.8" font-family="Bitstream Vera Sans" font-size="8.00">sites_observed</text>
</g>
<!-- SiteObserver&#45;&gt;sites_observed -->
<g id="edge7" class="edge"><title>SiteObserver&#45;&gt;sites_observed</title>
<path fill="none" stroke="black" d="M461.136,-388.01C512.734,-379.16 610.318,-361.317 692,-340 695.57,-339.068 699.247,-338.041 702.93,-336.964"/>
<polygon fill="black" stroke="black" points="712.626,-334.028 704.36,-341.233 707.84,-335.477 703.055,-336.927 703.055,-336.927 703.055,-336.927 707.84,-335.477 701.75,-332.62 712.626,-334.028 712.626,-334.028"/>
</g>
<!-- Sites -->
<g id="node25" class="node"><title>Sites</title>
<polygon fill="none" stroke="black" points="175,-52 121,-52 121,-16 175,-16 175,-52"/>
<text text-anchor="middle" x="148" y="-31.8" font-family="Bitstream Vera Sans" font-size="8.00">Sites</text>
</g>
<!-- SiteObserver&#45;&gt;Sites -->
<g id="edge49" class="edge"><title>SiteObserver&#45;&gt;Sites</title>
<path fill="none" stroke="black" stroke-dasharray="5,2" d="M388.792,-392.482C316.84,-388.702 159.561,-376.389 122,-340 92.6379,-311.554 103,-290.882 103,-250 103,-250 103,-250 103,-178 103,-135.826 120.802,-89.738 134.012,-61.3433"/>
<polygon fill="black" stroke="black" points="138.457,-52.0731 138.191,-63.0357 136.295,-56.5817 134.133,-61.0903 134.133,-61.0903 134.133,-61.0903 136.295,-56.5817 130.076,-59.1449 138.457,-52.0731 138.457,-52.0731"/>
</g>
<!-- ControlCenter -->
<g id="node3" class="node"><title>ControlCenter</title>
<polygon fill="none" stroke="black" points="658,-268 582,-268 582,-232 658,-232 658,-268"/>
<text text-anchor="middle" x="620" y="-247.8" font-family="Bitstream Vera Sans" font-size="8.00">ControlCenter</text>
</g>
<!-- spawn_server -->
<g id="node15" class="node"><title>spawn_server</title>
<ellipse fill="none" stroke="black" cx="620" cy="-178" rx="43.9565" ry="18"/>
<text text-anchor="middle" x="620" y="-175.8" font-family="Bitstream Vera Sans" font-size="8.00">spawn_server</text>
</g>
<!-- ControlCenter&#45;&gt;spawn_server -->
<g id="edge19" class="edge"><title>ControlCenter&#45;&gt;spawn_server</title>
<path fill="none" stroke="black" d="M620,-231.831C620,-224.131 620,-214.974 620,-206.417"/>
<polygon fill="black" stroke="black" points="620,-196.413 624.5,-206.413 620,-201.413 620,-206.413 620,-206.413 620,-206.413 620,-201.413 615.5,-206.413 620,-196.413 620,-196.413"/>
</g>
<!-- new_icecast_server -->
<g id="node16" class="node"><title>new_icecast_server</title>
<ellipse fill="none" stroke="black" cx="404" cy="-178" rx="57.814" ry="18"/>
<text text-anchor="middle" x="404" y="-175.8" font-family="Bitstream Vera Sans" font-size="8.00">new_icecast_server</text>
</g>
<!-- ControlCenter&#45;&gt;new_icecast_server -->
<g id="edge21" class="edge"><title>ControlCenter&#45;&gt;new_icecast_server</title>
<path fill="none" stroke="black" d="M581.881,-237.294C546.041,-225.347 492.209,-207.403 453.154,-194.385"/>
<polygon fill="black" stroke="black" points="443.564,-191.188 454.474,-190.081 448.307,-192.769 453.051,-194.35 453.051,-194.35 453.051,-194.35 448.307,-192.769 451.628,-198.619 443.564,-191.188 443.564,-191.188"/>
</g>
<!-- reap_server -->
<g id="node17" class="node"><title>reap_server</title>
<ellipse fill="none" stroke="black" cx="519" cy="-178" rx="38.7629" ry="18"/>
<text text-anchor="middle" x="519" y="-175.8" font-family="Bitstream Vera Sans" font-size="8.00">reap_server</text>
</g>
<!-- ControlCenter&#45;&gt;reap_server -->
<g id="edge23" class="edge"><title>ControlCenter&#45;&gt;reap_server</title>
<path fill="none" stroke="black" d="M594.513,-231.831C580.542,-221.872 563.154,-209.476 548.585,-199.091"/>
<polygon fill="black" stroke="black" points="540.381,-193.242 551.136,-195.382 544.452,-196.144 548.524,-199.047 548.524,-199.047 548.524,-199.047 544.452,-196.144 545.912,-202.711 540.381,-193.242 540.381,-193.242"/>
</g>
<!-- Ec2Reaper -->
<g id="node4" class="node"><title>Ec2Reaper</title>
<polygon fill="none" stroke="black" points="438,-124 376,-124 376,-88 438,-88 438,-124"/>
<text text-anchor="middle" x="407" y="-103.8" font-family="Bitstream Vera Sans" font-size="8.00">Ec2Reaper</text>
</g>
<!-- Ec2Reaper&#45;&gt;FogEc2 -->
<g id="edge51" class="edge"><title>Ec2Reaper&#45;&gt;FogEc2</title>
<path fill="none" stroke="black" stroke-dasharray="5,2" d="M375.637,-100.515C358.808,-96.4103 338.419,-89.4658 323,-78 316.814,-73.3999 311.395,-67.1951 306.892,-60.8976"/>
<polygon fill="black" stroke="black" points="301.333,-52.3947 310.571,-58.3019 304.069,-56.5796 306.805,-60.7645 306.805,-60.7645 306.805,-60.7645 304.069,-56.5796 303.039,-63.227 301.333,-52.3947 301.333,-52.3947"/>
</g>
<!-- Slacker -->
<g id="node5" class="node"><title>Slacker</title>
<polygon fill="none" stroke="black" points="247,-124 193,-124 193,-88 247,-88 247,-124"/>
<text text-anchor="middle" x="220" y="-103.8" font-family="Bitstream Vera Sans" font-size="8.00">Slacker</text>
</g>
<!-- Slack -->
<g id="node26" class="node"><title>Slack</title>
<polygon fill="none" stroke="black" points="247,-52 193,-52 193,-16 247,-16 247,-52"/>
<text text-anchor="middle" x="220" y="-31.8" font-family="Bitstream Vera Sans" font-size="8.00">Slack</text>
</g>
<!-- Slacker&#45;&gt;Slack -->
<g id="edge53" class="edge"><title>Slacker&#45;&gt;Slack</title>
<path fill="none" stroke="black" stroke-dasharray="5,2" d="M220,-87.8314C220,-80.131 220,-70.9743 220,-62.4166"/>
<polygon fill="black" stroke="black" points="220,-52.4133 224.5,-62.4132 220,-57.4133 220,-62.4133 220,-62.4133 220,-62.4133 220,-57.4133 215.5,-62.4133 220,-52.4133 220,-52.4133"/>
</g>
<!-- Mediator -->
<g id="node6" class="node"><title>Mediator</title>
<polygon fill="none" stroke="black" points="328,-268 274,-268 274,-232 328,-232 328,-268"/>
<text text-anchor="middle" x="301" y="-247.8" font-family="Bitstream Vera Sans" font-size="8.00">Mediator</text>
</g>
<!-- notification -->
<g id="node18" class="node"><title>notification</title>
<ellipse fill="none" stroke="black" cx="220" cy="-178" rx="35.8748" ry="18"/>
<text text-anchor="middle" x="220" y="-175.8" font-family="Bitstream Vera Sans" font-size="8.00">notification</text>
</g>
<!-- Mediator&#45;&gt;notification -->
<g id="edge39" class="edge"><title>Mediator&#45;&gt;notification</title>
<path fill="none" stroke="black" d="M280.56,-231.831C269.822,-222.286 256.567,-210.504 245.197,-200.398"/>
<polygon fill="black" stroke="black" points="237.682,-193.717 248.146,-196.998 241.419,-197.039 245.156,-200.361 245.156,-200.361 245.156,-200.361 241.419,-197.039 242.166,-203.724 237.682,-193.717 237.682,-193.717"/>
</g>
<!-- techne -->
<g id="node22" class="node"><title>techne</title>
<ellipse fill="none" stroke="black" cx="301" cy="-178" rx="27" ry="18"/>
<text text-anchor="middle" x="301" y="-175.8" font-family="Bitstream Vera Sans" font-size="8.00">techne</text>
</g>
<!-- Mediator&#45;&gt;techne -->
<g id="edge41" class="edge"><title>Mediator&#45;&gt;techne</title>
<path fill="none" stroke="black" d="M301,-231.831C301,-224.131 301,-214.974 301,-206.417"/>
<polygon fill="black" stroke="black" points="301,-196.413 305.5,-206.413 301,-201.413 301,-206.413 301,-206.413 301,-206.413 301,-201.413 296.5,-206.413 301,-196.413 301,-196.413"/>
</g>
<!-- Ec2Spawner -->
<g id="node7" class="node"><title>Ec2Spawner</title>
<polygon fill="none" stroke="black" points="654,-124 586,-124 586,-88 654,-88 654,-124"/>
<text text-anchor="middle" x="620" y="-103.8" font-family="Bitstream Vera Sans" font-size="8.00">Ec2Spawner</text>
</g>
<!-- server_ready -->
<g id="node12" class="node"><title>server_ready</title>
<ellipse fill="none" stroke="black" cx="656" cy="-34" rx="42.1466" ry="18"/>
<text text-anchor="middle" x="656" y="-31.8" font-family="Bitstream Vera Sans" font-size="8.00">server_ready</text>
</g>
<!-- Ec2Spawner&#45;&gt;server_ready -->
<g id="edge45" class="edge"><title>Ec2Spawner&#45;&gt;server_ready</title>
<path fill="none" stroke="black" d="M629.084,-87.8314C633.166,-79.6688 638.065,-69.87 642.559,-60.8827"/>
<polygon fill="black" stroke="black" points="647.043,-51.9134 646.596,-62.8702 644.807,-56.3856 642.571,-60.8577 642.571,-60.8577 642.571,-60.8577 644.807,-56.3856 638.546,-58.8452 647.043,-51.9134 647.043,-51.9134"/>
</g>
<!-- Ec2Spawner&#45;&gt;FogEc2 -->
<g id="edge55" class="edge"><title>Ec2Spawner&#45;&gt;FogEc2</title>
<path fill="none" stroke="black" stroke-dasharray="5,2" d="M585.885,-102.214C551.008,-98.3999 495.261,-92.4561 447,-88 419.472,-85.4583 347.008,-91.7062 323,-78 316.082,-74.0505 310.334,-67.852 305.743,-61.3405"/>
<polygon fill="black" stroke="black" points="300.2,-52.4488 309.309,-58.5543 302.845,-56.6919 305.491,-60.9349 305.491,-60.9349 305.491,-60.9349 302.845,-56.6919 301.672,-63.3155 300.2,-52.4488 300.2,-52.4488"/>
</g>
<!-- observe_site -->
<g id="node9" class="node"><title>observe_site</title>
<ellipse fill="none" stroke="black" cx="425" cy="-466" rx="40.9919" ry="18"/>
<text text-anchor="middle" x="425" y="-463.8" font-family="Bitstream Vera Sans" font-size="8.00">observe_site</text>
</g>
<!-- observe_site&#45;&gt;SiteObserver -->
<g id="edge5" class="edge"><title>observe_site&#45;&gt;SiteObserver</title>
<path fill="none" stroke="black" d="M425,-447.831C425,-440.131 425,-430.974 425,-422.417"/>
<polygon fill="black" stroke="black" points="425,-412.413 429.5,-422.413 425,-417.413 425,-422.413 425,-422.413 425,-422.413 425,-417.413 420.5,-422.413 425,-412.413 425,-412.413"/>
</g>
<!-- sites_observed&#45;&gt;ControlCenter -->
<g id="edge11" class="edge"><title>sites_observed&#45;&gt;ControlCenter</title>
<path fill="none" stroke="black" d="M721.478,-307.082C704.079,-297.294 680.974,-284.298 661.206,-273.178"/>
<polygon fill="black" stroke="black" points="652.39,-268.22 663.312,-269.2 656.748,-270.671 661.106,-273.122 661.106,-273.122 661.106,-273.122 656.748,-270.671 658.9,-277.044 652.39,-268.22 652.39,-268.22"/>
</g>
<!-- streamer_transition -->
<g id="node11" class="node"><title>streamer_transition</title>
<ellipse fill="none" stroke="black" cx="871" cy="-322" rx="57.814" ry="18"/>
<text text-anchor="middle" x="871" y="-319.8" font-family="Bitstream Vera Sans" font-size="8.00">streamer_transition</text>
</g>
<!-- streamer_transition&#45;&gt;ControlCenter -->
<g id="edge9" class="edge"><title>streamer_transition&#45;&gt;ControlCenter</title>
<path fill="none" stroke="black" d="M828.137,-309.705C783.655,-296.945 714.24,-277.033 667.96,-263.757"/>
<polygon fill="black" stroke="black" points="658.165,-260.948 669.018,-259.379 662.971,-262.326 667.777,-263.705 667.777,-263.705 667.777,-263.705 662.971,-262.326 666.536,-268.031 658.165,-260.948 658.165,-260.948"/>
</g>
<!-- server_ready&#45;&gt;ControlCenter -->
<g id="edge13" class="edge"><title>server_ready&#45;&gt;ControlCenter</title>
<path fill="none" stroke="black" d="M663.219,-51.8014C674.518,-82.488 693.116,-146.787 673,-196 668.541,-206.909 660.697,-216.805 652.39,-225.057"/>
<polygon fill="black" stroke="black" points="645.043,-231.87 649.316,-221.77 648.709,-228.47 652.375,-225.07 652.375,-225.07 652.375,-225.07 648.709,-228.47 655.435,-228.37 645.043,-231.87 645.043,-231.87"/>
</g>
<!-- talk_transition -->
<g id="node13" class="node"><title>talk_transition</title>
<ellipse fill="none" stroke="black" cx="495" cy="-322" rx="43.9565" ry="18"/>
<text text-anchor="middle" x="495" y="-319.8" font-family="Bitstream Vera Sans" font-size="8.00">talk_transition</text>
</g>
<!-- talk_transition&#45;&gt;ControlCenter -->
<g id="edge15" class="edge"><title>talk_transition&#45;&gt;ControlCenter</title>
<path fill="none" stroke="black" d="M520.597,-307.256C537.693,-297.409 560.527,-284.256 579.999,-273.04"/>
<polygon fill="black" stroke="black" points="588.676,-268.042 582.257,-276.933 584.344,-270.538 580.011,-273.034 580.011,-273.034 580.011,-273.034 584.344,-270.538 577.765,-269.134 588.676,-268.042 588.676,-268.042"/>
</g>
<!-- talk_transition&#45;&gt;Mediator -->
<g id="edge31" class="edge"><title>talk_transition&#45;&gt;Mediator</title>
<path fill="none" stroke="black" d="M462.091,-309.786C427.605,-296.987 373.556,-276.928 337.71,-263.624"/>
<polygon fill="black" stroke="black" points="328.114,-260.063 339.055,-259.323 332.801,-261.803 337.489,-263.542 337.489,-263.542 337.489,-263.542 332.801,-261.803 335.923,-267.761 328.114,-260.063 328.114,-260.063"/>
</g>
<!-- transaction_transition -->
<g id="node14" class="node"><title>transaction_transition</title>
<ellipse fill="none" stroke="black" cx="620" cy="-322" rx="63.0085" ry="18"/>
<text text-anchor="middle" x="620" y="-319.8" font-family="Bitstream Vera Sans" font-size="8.00">transaction_transition</text>
</g>
<!-- transaction_transition&#45;&gt;ControlCenter -->
<g id="edge17" class="edge"><title>transaction_transition&#45;&gt;ControlCenter</title>
<path fill="none" stroke="black" d="M620,-303.831C620,-296.131 620,-286.974 620,-278.417"/>
<polygon fill="black" stroke="black" points="620,-268.413 624.5,-278.413 620,-273.413 620,-278.413 620,-278.413 620,-278.413 620,-273.413 615.5,-278.413 620,-268.413 620,-268.413"/>
</g>
<!-- transaction_transition&#45;&gt;Mediator -->
<g id="edge37" class="edge"><title>transaction_transition&#45;&gt;Mediator</title>
<path fill="none" stroke="black" d="M572.799,-309.986C564.543,-307.946 556.029,-305.881 548,-304 473.743,-286.605 386.503,-267.947 338.11,-257.754"/>
<polygon fill="black" stroke="black" points="328.106,-255.65 338.818,-253.304 332.999,-256.679 337.892,-257.708 337.892,-257.708 337.892,-257.708 332.999,-256.679 336.966,-262.112 328.106,-255.65 328.106,-255.65"/>
</g>
<!-- spawn_server&#45;&gt;Ec2Spawner -->
<g id="edge43" class="edge"><title>spawn_server&#45;&gt;Ec2Spawner</title>
<path fill="none" stroke="black" d="M620,-159.831C620,-152.131 620,-142.974 620,-134.417"/>
<polygon fill="black" stroke="black" points="620,-124.413 624.5,-134.413 620,-129.413 620,-134.413 620,-134.413 620,-134.413 620,-129.413 615.5,-134.413 620,-124.413 620,-124.413"/>
</g>
<!-- reap_server&#45;&gt;Ec2Reaper -->
<g id="edge25" class="edge"><title>reap_server&#45;&gt;Ec2Reaper</title>
<path fill="none" stroke="black" d="M496.065,-163.256C481.023,-153.586 461.023,-140.729 443.787,-129.649"/>
<polygon fill="black" stroke="black" points="435.066,-124.042 445.911,-125.665 439.272,-126.746 443.478,-129.45 443.478,-129.45 443.478,-129.45 439.272,-126.746 441.044,-133.235 435.066,-124.042 435.066,-124.042"/>
</g>
<!-- notification&#45;&gt;Slacker -->
<g id="edge27" class="edge"><title>notification&#45;&gt;Slacker</title>
<path fill="none" stroke="black" d="M220,-159.831C220,-152.131 220,-142.974 220,-134.417"/>
<polygon fill="black" stroke="black" points="220,-124.413 224.5,-134.413 220,-129.413 220,-134.413 220,-134.413 220,-134.413 220,-129.413 215.5,-134.413 220,-124.413 220,-124.413"/>
</g>
<!-- dj_callback -->
<g id="node19" class="node"><title>dj_callback</title>
<ellipse fill="none" stroke="black" cx="397" cy="-322" rx="35.7957" ry="18"/>
<text text-anchor="middle" x="397" y="-319.8" font-family="Bitstream Vera Sans" font-size="8.00">dj_callback</text>
</g>
<!-- dj_callback&#45;&gt;Mediator -->
<g id="edge29" class="edge"><title>dj_callback&#45;&gt;Mediator</title>
<path fill="none" stroke="black" d="M376.641,-306.731C364.034,-297.276 347.569,-284.927 333.221,-274.166"/>
<polygon fill="black" stroke="black" points="325.062,-268.047 335.762,-270.447 329.062,-271.047 333.062,-274.047 333.062,-274.047 333.062,-274.047 329.062,-271.047 330.362,-277.647 325.062,-268.047 325.062,-268.047"/>
</g>
<!-- lifecycle_user -->
<g id="node20" class="node"><title>lifecycle_user</title>
<ellipse fill="none" stroke="black" cx="173" cy="-322" rx="42.2213" ry="18"/>
<text text-anchor="middle" x="173" y="-319.8" font-family="Bitstream Vera Sans" font-size="8.00">lifecycle_user</text>
</g>
<!-- lifecycle_user&#45;&gt;Mediator -->
<g id="edge33" class="edge"><title>lifecycle_user&#45;&gt;Mediator</title>
<path fill="none" stroke="black" d="M198.595,-307.603C217.534,-296.95 243.592,-282.292 264.682,-270.429"/>
<polygon fill="black" stroke="black" points="273.679,-265.368 267.17,-274.193 269.322,-267.819 264.964,-270.27 264.964,-270.27 264.964,-270.27 269.322,-267.819 262.757,-266.348 273.679,-265.368 273.679,-265.368"/>
</g>
<!-- lifecycle_message -->
<g id="node21" class="node"><title>lifecycle_message</title>
<ellipse fill="none" stroke="black" cx="288" cy="-322" rx="54.8483" ry="18"/>
<text text-anchor="middle" x="288" y="-319.8" font-family="Bitstream Vera Sans" font-size="8.00">lifecycle_message</text>
</g>
<!-- lifecycle_message&#45;&gt;Mediator -->
<g id="edge35" class="edge"><title>lifecycle_message&#45;&gt;Mediator</title>
<path fill="none" stroke="black" d="M291.28,-303.831C292.671,-296.131 294.324,-286.974 295.869,-278.417"/>
<polygon fill="black" stroke="black" points="297.675,-268.413 300.327,-279.054 296.787,-273.334 295.898,-278.254 295.898,-278.254 295.898,-278.254 296.787,-273.334 291.47,-277.455 297.675,-268.413 297.675,-268.413"/>
</g>
</g>
</svg>
