<?xml version="1.0" encoding="UTF-8" standalone="no"?>
<!DOCTYPE svg PUBLIC "-//W3C//DTD SVG 1.1//EN"
 "http://www.w3.org/Graphics/SVG/1.1/DTD/svg11.dtd">
<!-- Generated by graphviz version 2.26.3 (20100126.1600)
 -->
<!-- Title: models_diagram Pages: 1 -->
<svg width="1545pt" height="1754pt"
 viewBox="0.00 0.00 1545.00 1754.00" xmlns="http://www.w3.org/2000/svg" xmlns:xlink="http://www.w3.org/1999/xlink">
<g id="graph1" class="graph" transform="scale(1 1) rotate(0) translate(4 1750)">
<title>models_diagram</title>
<polygon fill="white" stroke="white" points="-4,5 -4,-1750 1542,-1750 1542,5 -4,5"/>
<!-- User -->
<g id="node1" class="node"><title>User</title>
<polyline fill="none" stroke="black" points="625,-1202.5 855,-1202.5 "/>
<path fill="none" stroke="black" d="M855,-1202.5C861,-1202.5 867,-1208.5 867,-1214.5"/>
<polyline fill="none" stroke="black" points="867,-1214.5 867,-1733.5 "/>
<path fill="none" stroke="black" d="M867,-1733.5C867,-1739.5 861,-1745.5 855,-1745.5"/>
<polyline fill="none" stroke="black" points="855,-1745.5 625,-1745.5 "/>
<path fill="none" stroke="black" d="M625,-1745.5C619,-1745.5 613,-1739.5 613,-1733.5"/>
<polyline fill="none" stroke="black" points="613,-1733.5 613,-1214.5 "/>
<path fill="none" stroke="black" d="M613,-1214.5C613,-1208.5 619,-1202.5 625,-1202.5"/>
<text text-anchor="middle" x="740" y="-1728.9" font-family="Times Roman,serif" font-size="14.00">User</text>
<polyline fill="none" stroke="black" points="613,-1720.5 867,-1720.5 "/>
<text text-anchor="start" x="621" y="-1703.9" font-family="Times Roman,serif" font-size="14.00">id :integer</text>
<text text-anchor="start" x="621" y="-1686.9" font-family="Times Roman,serif" font-size="14.00">firstname :string</text>
<text text-anchor="start" x="621" y="-1669.9" font-family="Times Roman,serif" font-size="14.00">lastname :string</text>
<text text-anchor="start" x="621" y="-1652.9" font-family="Times Roman,serif" font-size="14.00">created_at :datetime</text>
<text text-anchor="start" x="621" y="-1635.9" font-family="Times Roman,serif" font-size="14.00">updated_at :datetime</text>
<text text-anchor="start" x="621" y="-1618.9" font-family="Times Roman,serif" font-size="14.00">email :string</text>
<text text-anchor="start" x="621" y="-1601.9" font-family="Times Roman,serif" font-size="14.00">encrypted_password :string</text>
<text text-anchor="start" x="621" y="-1584.9" font-family="Times Roman,serif" font-size="14.00">reset_password_token :string</text>
<text text-anchor="start" x="621" y="-1567.9" font-family="Times Roman,serif" font-size="14.00">reset_password_sent_at :datetime</text>
<text text-anchor="start" x="621" y="-1550.9" font-family="Times Roman,serif" font-size="14.00">remember_created_at :datetime</text>
<text text-anchor="start" x="621" y="-1533.9" font-family="Times Roman,serif" font-size="14.00">sign_in_count :integer</text>
<text text-anchor="start" x="621" y="-1516.9" font-family="Times Roman,serif" font-size="14.00">current_sign_in_at :datetime</text>
<text text-anchor="start" x="621" y="-1499.9" font-family="Times Roman,serif" font-size="14.00">last_sign_in_at :datetime</text>
<text text-anchor="start" x="621" y="-1482.9" font-family="Times Roman,serif" font-size="14.00">current_sign_in_ip :string</text>
<text text-anchor="start" x="621" y="-1465.9" font-family="Times Roman,serif" font-size="14.00">last_sign_in_ip :string</text>
<text text-anchor="start" x="621" y="-1448.9" font-family="Times Roman,serif" font-size="14.00">provider :string</text>
<text text-anchor="start" x="621" y="-1431.9" font-family="Times Roman,serif" font-size="14.00">uid :string</text>
<text text-anchor="start" x="621" y="-1414.9" font-family="Times Roman,serif" font-size="14.00">slug :text</text>
<text text-anchor="start" x="621" y="-1397.9" font-family="Times Roman,serif" font-size="14.00">last_request_at :datetime</text>
<text text-anchor="start" x="621" y="-1380.9" font-family="Times Roman,serif" font-size="14.00">available :string</text>
<text text-anchor="start" x="621" y="-1363.9" font-family="Times Roman,serif" font-size="14.00">image_file_name :string</text>
<text text-anchor="start" x="621" y="-1346.9" font-family="Times Roman,serif" font-size="14.00">image_content_type :string</text>
<text text-anchor="start" x="621" y="-1329.9" font-family="Times Roman,serif" font-size="14.00">image_file_size :integer</text>
<text text-anchor="start" x="621" y="-1312.9" font-family="Times Roman,serif" font-size="14.00">image_updated_at :datetime</text>
<text text-anchor="start" x="621" y="-1295.9" font-family="Times Roman,serif" font-size="14.00">guest :boolean</text>
<text text-anchor="start" x="621" y="-1278.9" font-family="Times Roman,serif" font-size="14.00">header_uid :string</text>
<text text-anchor="start" x="621" y="-1261.9" font-family="Times Roman,serif" font-size="14.00">avatar_uid :string</text>
<text text-anchor="start" x="621" y="-1244.9" font-family="Times Roman,serif" font-size="14.00">about :text</text>
<text text-anchor="start" x="621" y="-1227.9" font-family="Times Roman,serif" font-size="14.00">timezone :string</text>
<text text-anchor="start" x="621" y="-1210.9" font-family="Times Roman,serif" font-size="14.00">website :string</text>
</g>
<!-- Message -->
<g id="node2" class="node"><title>Message</title>
<polyline fill="none" stroke="black" points="11.5,-26.5 152.5,-26.5 "/>
<path fill="none" stroke="black" d="M152.5,-26.5C158.5,-26.5 164.5,-32.5 164.5,-38.5"/>
<polyline fill="none" stroke="black" points="164.5,-38.5 164.5,-149.5 "/>
<path fill="none" stroke="black" d="M164.5,-149.5C164.5,-155.5 158.5,-161.5 152.5,-161.5"/>
<polyline fill="none" stroke="black" points="152.5,-161.5 11.5,-161.5 "/>
<path fill="none" stroke="black" d="M11.5,-161.5C5.5,-161.5 -0.5,-155.5 -0.5,-149.5"/>
<polyline fill="none" stroke="black" points="-0.5,-149.5 -0.5,-38.5 "/>
<path fill="none" stroke="black" d="M-0.5,-38.5C-0.5,-32.5 5.5,-26.5 11.5,-26.5"/>
<text text-anchor="middle" x="82" y="-144.9" font-family="Times Roman,serif" font-size="14.00">Message</text>
<polyline fill="none" stroke="black" points="-0.5,-136.5 164.5,-136.5 "/>
<text text-anchor="start" x="7.5" y="-119.9" font-family="Times Roman,serif" font-size="14.00">id :integer</text>
<text text-anchor="start" x="7.5" y="-102.9" font-family="Times Roman,serif" font-size="14.00">user_id :integer</text>
<text text-anchor="start" x="7.5" y="-85.9" font-family="Times Roman,serif" font-size="14.00">talk_id :integer</text>
<text text-anchor="start" x="7.5" y="-68.9" font-family="Times Roman,serif" font-size="14.00">content :text</text>
<text text-anchor="start" x="7.5" y="-51.9" font-family="Times Roman,serif" font-size="14.00">created_at :datetime</text>
<text text-anchor="start" x="7.5" y="-34.9" font-family="Times Roman,serif" font-size="14.00">updated_at :datetime</text>
</g>
<!-- User&#45;&gt;Message -->
<g id="edge4" class="edge"><title>User&#45;&gt;Message</title>
<path fill="none" stroke="#01df66" d="M605.585,-1406.15C500.804,-1348.29 356.67,-1257.24 256,-1148 125.469,-1006.35 92.6926,-956.362 44,-770 -15.3222,-542.955 14.5884,-474.816 44,-242 46.9252,-218.845 52.328,-194.125 58.16,-171.65"/>
<ellipse fill="none" stroke="#01df66" cx="609.239" cy="-1408.16" rx="4.00002" ry="4.00002"/>
<polygon fill="#01df66" stroke="#01df66" points="58.2007,-171.497 65.1195,-162.989 59.4856,-166.665 60.7706,-161.833 60.7706,-161.833 60.7706,-161.833 59.4856,-166.665 56.4217,-160.676 58.2007,-171.497 58.2007,-171.497"/>
</g>
<!-- Comment -->
<g id="node4" class="node"><title>Comment</title>
<polyline fill="none" stroke="black" points="65,-430 237,-430 "/>
<path fill="none" stroke="black" d="M237,-430C243,-430 249,-436 249,-442"/>
<polyline fill="none" stroke="black" points="249,-442 249,-570 "/>
<path fill="none" stroke="black" d="M249,-570C249,-576 243,-582 237,-582"/>
<polyline fill="none" stroke="black" points="237,-582 65,-582 "/>
<path fill="none" stroke="black" d="M65,-582C59,-582 53,-576 53,-570"/>
<polyline fill="none" stroke="black" points="53,-570 53,-442 "/>
<path fill="none" stroke="black" d="M53,-442C53,-436 59,-430 65,-430"/>
<text text-anchor="middle" x="151" y="-565.4" font-family="Times Roman,serif" font-size="14.00">Comment</text>
<polyline fill="none" stroke="black" points="53,-557 249,-557 "/>
<text text-anchor="start" x="61" y="-540.4" font-family="Times Roman,serif" font-size="14.00">id :integer</text>
<text text-anchor="start" x="61" y="-523.4" font-family="Times Roman,serif" font-size="14.00">content :text</text>
<text text-anchor="start" x="61" y="-506.4" font-family="Times Roman,serif" font-size="14.00">user_id :integer</text>
<text text-anchor="start" x="61" y="-489.4" font-family="Times Roman,serif" font-size="14.00">created_at :datetime</text>
<text text-anchor="start" x="61" y="-472.4" font-family="Times Roman,serif" font-size="14.00">updated_at :datetime</text>
<text text-anchor="start" x="61" y="-455.4" font-family="Times Roman,serif" font-size="14.00">commentable_id :integer</text>
<text text-anchor="start" x="61" y="-438.4" font-family="Times Roman,serif" font-size="14.00">commentable_type :string</text>
</g>
<!-- User&#45;&gt;Comment -->
<g id="edge2" class="edge"><title>User&#45;&gt;Comment</title>
<path fill="none" stroke="#0903b8" d="M607.753,-1324.45C498.782,-1194.86 346.649,-998.403 248,-806 212.797,-737.34 186.952,-653.337 170.833,-591.703"/>
<ellipse fill="none" stroke="#0903b8" cx="610.331" cy="-1327.51" rx="4.00002" ry="4.00002"/>
<polygon fill="#0903b8" stroke="#0903b8" points="170.83,-591.691 172.686,-580.883 169.58,-586.85 168.329,-582.009 168.329,-582.009 168.329,-582.009 169.58,-586.85 163.972,-583.134 170.83,-591.691 170.83,-591.691"/>
</g>
<!-- Participation -->
<g id="node6" class="node"><title>Participation</title>
<polyline fill="none" stroke="black" points="1237.5,-447 1378.5,-447 "/>
<path fill="none" stroke="black" d="M1378.5,-447C1384.5,-447 1390.5,-453 1390.5,-459"/>
<polyline fill="none" stroke="black" points="1390.5,-459 1390.5,-553 "/>
<path fill="none" stroke="black" d="M1390.5,-553C1390.5,-559 1384.5,-565 1378.5,-565"/>
<polyline fill="none" stroke="black" points="1378.5,-565 1237.5,-565 "/>
<path fill="none" stroke="black" d="M1237.5,-565C1231.5,-565 1225.5,-559 1225.5,-553"/>
<polyline fill="none" stroke="black" points="1225.5,-553 1225.5,-459 "/>
<path fill="none" stroke="black" d="M1225.5,-459C1225.5,-453 1231.5,-447 1237.5,-447"/>
<text text-anchor="middle" x="1308" y="-548.4" font-family="Times Roman,serif" font-size="14.00">Participation</text>
<polyline fill="none" stroke="black" points="1225.5,-540 1390.5,-540 "/>
<text text-anchor="start" x="1233.5" y="-523.4" font-family="Times Roman,serif" font-size="14.00">id :integer</text>
<text text-anchor="start" x="1233.5" y="-506.4" font-family="Times Roman,serif" font-size="14.00">venue_id :integer</text>
<text text-anchor="start" x="1233.5" y="-489.4" font-family="Times Roman,serif" font-size="14.00">user_id :integer</text>
<text text-anchor="start" x="1233.5" y="-472.4" font-family="Times Roman,serif" font-size="14.00">created_at :datetime</text>
<text text-anchor="start" x="1233.5" y="-455.4" font-family="Times Roman,serif" font-size="14.00">updated_at :datetime</text>
</g>
<!-- User&#45;&gt;Participation -->
<g id="edge8" class="edge"><title>User&#45;&gt;Participation</title>
<path fill="none" stroke="#e0f784" d="M872.643,-1205.58C873.754,-1204.38 874.874,-1203.18 876,-1202 887.254,-1190.18 895.637,-1194.65 908,-1184 1069.26,-1045.1 1086.55,-984.8 1202,-806 1211.81,-790.801 1213.92,-786.65 1221,-770 1248.46,-705.405 1272.8,-628.991 1288.7,-575.039"/>
<ellipse fill="none" stroke="#e0f784" cx="869.82" cy="-1208.72" rx="4.00002" ry="4.00002"/>
<polygon fill="#e0f784" stroke="#e0f784" points="1288.76,-574.832 1295.89,-566.499 1290.17,-570.033 1291.57,-565.235 1291.57,-565.235 1291.57,-565.235 1290.17,-570.033 1287.25,-563.97 1288.76,-574.832 1288.76,-574.832"/>
</g>
<!-- Venue -->
<g id="node7" class="node"><title>Venue</title>
<polyline fill="none" stroke="black" points="666,-825 856,-825 "/>
<path fill="none" stroke="black" d="M856,-825C862,-825 868,-831 868,-837"/>
<polyline fill="none" stroke="black" points="868,-837 868,-1135 "/>
<path fill="none" stroke="black" d="M868,-1135C868,-1141 862,-1147 856,-1147"/>
<polyline fill="none" stroke="black" points="856,-1147 666,-1147 "/>
<path fill="none" stroke="black" d="M666,-1147C660,-1147 654,-1141 654,-1135"/>
<polyline fill="none" stroke="black" points="654,-1135 654,-837 "/>
<path fill="none" stroke="black" d="M654,-837C654,-831 660,-825 666,-825"/>
<text text-anchor="middle" x="761" y="-1130.4" font-family="Times Roman,serif" font-size="14.00">Venue</text>
<polyline fill="none" stroke="black" points="654,-1122 868,-1122 "/>
<text text-anchor="start" x="662" y="-1105.4" font-family="Times Roman,serif" font-size="14.00">id :integer</text>
<text text-anchor="start" x="662" y="-1088.4" font-family="Times Roman,serif" font-size="14.00">start_time :datetime</text>
<text text-anchor="start" x="662" y="-1071.4" font-family="Times Roman,serif" font-size="14.00">description :text</text>
<text text-anchor="start" x="662" y="-1054.4" font-family="Times Roman,serif" font-size="14.00">title :string</text>
<text text-anchor="start" x="662" y="-1037.4" font-family="Times Roman,serif" font-size="14.00">created_at :datetime</text>
<text text-anchor="start" x="662" y="-1020.4" font-family="Times Roman,serif" font-size="14.00">updated_at :datetime</text>
<text text-anchor="start" x="662" y="-1003.4" font-family="Times Roman,serif" font-size="14.00">duration :integer</text>
<text text-anchor="start" x="662" y="-986.4" font-family="Times Roman,serif" font-size="14.00">teaser :text</text>
<text text-anchor="start" x="662" y="-969.4" font-family="Times Roman,serif" font-size="14.00">featured_from :datetime</text>
<text text-anchor="start" x="662" y="-952.4" font-family="Times Roman,serif" font-size="14.00">user_id :integer</text>
<text text-anchor="start" x="662" y="-935.4" font-family="Times Roman,serif" font-size="14.00">image_file_name :string</text>
<text text-anchor="start" x="662" y="-918.4" font-family="Times Roman,serif" font-size="14.00">image_content_type :string</text>
<text text-anchor="start" x="662" y="-901.4" font-family="Times Roman,serif" font-size="14.00">image_file_size :integer</text>
<text text-anchor="start" x="662" y="-884.4" font-family="Times Roman,serif" font-size="14.00">image_updated_at :datetime</text>
<text text-anchor="start" x="662" y="-867.4" font-family="Times Roman,serif" font-size="14.00">options :text</text>
<text text-anchor="start" x="662" y="-850.4" font-family="Times Roman,serif" font-size="14.00">image_uid :string</text>
<text text-anchor="start" x="662" y="-833.4" font-family="Times Roman,serif" font-size="14.00">uri :string</text>
</g>
<!-- User&#45;&gt;Venue -->
<g id="edge6" class="edge"><title>User&#45;&gt;Venue</title>
<path fill="none" stroke="#0220d9" d="M745.372,-1193.86C745.951,-1181.46 746.548,-1169.19 747.158,-1157.18"/>
<ellipse fill="none" stroke="#0220d9" cx="745.172" cy="-1198.18" rx="4" ry="4"/>
<polygon fill="#0220d9" stroke="#0220d9" points="747.16,-1157.14 752.168,-1147.38 747.417,-1152.14 747.674,-1147.15 747.674,-1147.15 747.674,-1147.15 747.417,-1152.14 743.18,-1146.92 747.16,-1157.14 747.16,-1157.14"/>
</g>
<!-- User&#45;&gt;Venue -->
<g id="edge10" class="edge"><title>User&#45;&gt;Venue</title>
<path fill="none" stroke="#17a438" d="M759.682,-1192.27C759.793,-1189.5 759.899,-1186.74 760,-1184 760.323,-1175.26 760.592,-1166.31 760.814,-1157.27"/>
<polygon fill="#17a438" stroke="#17a438" points="759.678,-1192.35 754.766,-1202.16 759.47,-1197.35 759.263,-1202.35 759.263,-1202.35 759.263,-1202.35 759.47,-1197.35 763.759,-1202.53 759.678,-1192.35 759.678,-1192.35"/>
<polygon fill="#17a438" stroke="#17a438" points="760.819,-1157.03 765.544,-1147.13 760.932,-1152.03 761.045,-1147.03 761.045,-1147.03 761.045,-1147.03 760.932,-1152.03 756.546,-1146.93 760.819,-1157.03 760.819,-1157.03"/>
<text text-anchor="middle" x="832" y="-1170.9" font-family="Times Roman,serif" font-size="14.00">participating_venues</text>
</g>
<!-- PgSearch::Document -->
<g id="node16" class="node"><title>PgSearch::Document</title>
<ellipse fill="none" stroke="black" cx="1283" cy="-94" rx="111.876" ry="18"/>
<text text-anchor="middle" x="1283" y="-89.9" font-family="Times Roman,serif" font-size="14.00">PgSearch::Document</text>
</g>
<!-- User&#45;&gt;PgSearch::Document -->
<g id="edge12" class="edge"><title>User&#45;&gt;PgSearch::Document</title>
<path fill="none" stroke="#6feacd" d="M873.505,-1204.05C874.332,-1203.36 875.164,-1202.68 876,-1202 894.465,-1187.03 1062.92,-1160.72 1083,-1148 1267.96,-1030.79 1324.3,-975.835 1399,-770 1479.06,-549.412 1475.57,-463.822 1399,-242 1381.47,-191.219 1338.55,-144.571 1310.12,-117.724"/>
<ellipse fill="none" stroke="#6feacd" cx="870.279" cy="-1206.85" rx="4.00002" ry="4.00002"/>
<ellipse fill="#6feacd" stroke="#6feacd" cx="1306.87" cy="-114.701" rx="4.00002" ry="4.00002"/>
<text text-anchor="middle" x="1464.5" y="-792.9" font-family="Times Roman,serif" font-size="14.00">pg_search_document</text>
</g>
<!-- Appearance -->
<g id="node3" class="node"><title>Appearance</title>
<polyline fill="none" stroke="black" points="552.5,-35 693.5,-35 "/>
<path fill="none" stroke="black" d="M693.5,-35C699.5,-35 705.5,-41 705.5,-47"/>
<polyline fill="none" stroke="black" points="705.5,-47 705.5,-141 "/>
<path fill="none" stroke="black" d="M705.5,-141C705.5,-147 699.5,-153 693.5,-153"/>
<polyline fill="none" stroke="black" points="693.5,-153 552.5,-153 "/>
<path fill="none" stroke="black" d="M552.5,-153C546.5,-153 540.5,-147 540.5,-141"/>
<polyline fill="none" stroke="black" points="540.5,-141 540.5,-47 "/>
<path fill="none" stroke="black" d="M540.5,-47C540.5,-41 546.5,-35 552.5,-35"/>
<text text-anchor="middle" x="623" y="-136.4" font-family="Times Roman,serif" font-size="14.00">Appearance</text>
<polyline fill="none" stroke="black" points="540.5,-128 705.5,-128 "/>
<text text-anchor="start" x="548.5" y="-111.4" font-family="Times Roman,serif" font-size="14.00">id :integer</text>
<text text-anchor="start" x="548.5" y="-94.4" font-family="Times Roman,serif" font-size="14.00">user_id :integer</text>
<text text-anchor="start" x="548.5" y="-77.4" font-family="Times Roman,serif" font-size="14.00">talk_id :integer</text>
<text text-anchor="start" x="548.5" y="-60.4" font-family="Times Roman,serif" font-size="14.00">created_at :datetime</text>
<text text-anchor="start" x="548.5" y="-43.4" font-family="Times Roman,serif" font-size="14.00">updated_at :datetime</text>
</g>
<!-- Setting -->
<g id="node5" class="node"><title>Setting</title>
<polyline fill="none" stroke="black" points="896.5,-1415 1037.5,-1415 "/>
<path fill="none" stroke="black" d="M1037.5,-1415C1043.5,-1415 1049.5,-1421 1049.5,-1427"/>
<polyline fill="none" stroke="black" points="1049.5,-1427 1049.5,-1521 "/>
<path fill="none" stroke="black" d="M1049.5,-1521C1049.5,-1527 1043.5,-1533 1037.5,-1533"/>
<polyline fill="none" stroke="black" points="1037.5,-1533 896.5,-1533 "/>
<path fill="none" stroke="black" d="M896.5,-1533C890.5,-1533 884.5,-1527 884.5,-1521"/>
<polyline fill="none" stroke="black" points="884.5,-1521 884.5,-1427 "/>
<path fill="none" stroke="black" d="M884.5,-1427C884.5,-1421 890.5,-1415 896.5,-1415"/>
<text text-anchor="middle" x="967" y="-1516.4" font-family="Times Roman,serif" font-size="14.00">Setting</text>
<polyline fill="none" stroke="black" points="884.5,-1508 1049.5,-1508 "/>
<text text-anchor="start" x="892.5" y="-1491.4" font-family="Times Roman,serif" font-size="14.00">id :integer</text>
<text text-anchor="start" x="892.5" y="-1474.4" font-family="Times Roman,serif" font-size="14.00">key :string</text>
<text text-anchor="start" x="892.5" y="-1457.4" font-family="Times Roman,serif" font-size="14.00">value :string</text>
<text text-anchor="start" x="892.5" y="-1440.4" font-family="Times Roman,serif" font-size="14.00">created_at :datetime</text>
<text text-anchor="start" x="892.5" y="-1423.4" font-family="Times Roman,serif" font-size="14.00">updated_at :datetime</text>
</g>
<!-- Venue&#45;&gt;User -->
<g id="edge28" class="edge"><title>Venue&#45;&gt;User</title>
<path fill="none" stroke="#3e25f1" d="M760.11,-1157.15C759.706,-1168.61 759.27,-1180.3 758.808,-1192.11"/>
<polygon fill="#3e25f1" stroke="#3e25f1" points="760.11,-1157.14 764.954,-1147.31 760.283,-1152.15 760.457,-1147.15 760.457,-1147.15 760.457,-1147.15 760.283,-1152.15 755.959,-1146.99 760.11,-1157.14 760.11,-1157.14"/>
<polygon fill="#3e25f1" stroke="#3e25f1" points="758.805,-1192.18 753.912,-1202 758.607,-1197.18 758.408,-1202.18 758.408,-1202.18 758.408,-1202.18 758.607,-1197.18 762.905,-1202.35 758.805,-1192.18 758.805,-1192.18"/>
</g>
<!-- Venue&#45;&gt;Comment -->
<g id="edge22" class="edge"><title>Venue&#45;&gt;Comment</title>
<path fill="none" stroke="#40d038" d="M646.341,-916.579C585.629,-883.084 508.575,-845.576 435,-824 399.818,-813.683 300.191,-828.182 271,-806 204.272,-755.294 174.558,-661.594 161.382,-592.354"/>
<ellipse fill="none" stroke="#40d038" cx="650.165" cy="-918.701" rx="4.00002" ry="4.00002"/>
<polygon fill="#40d038" stroke="#40d038" points="161.348,-592.162 163.983,-581.517 160.452,-587.243 159.556,-582.324 159.556,-582.324 159.556,-582.324 160.452,-587.243 155.129,-583.13 161.348,-592.162 161.348,-592.162"/>
</g>
<!-- Venue&#45;&gt;Participation -->
<g id="edge26" class="edge"><title>Venue&#45;&gt;Participation</title>
<path fill="none" stroke="#58a14a" d="M875.994,-957.62C977.257,-927.086 1122.21,-869.041 1212,-770 1261.54,-715.352 1286.06,-633.124 1297.82,-574.982"/>
<ellipse fill="none" stroke="#58a14a" cx="872.003" cy="-958.808" rx="4.00001" ry="4.00001"/>
<polygon fill="#58a14a" stroke="#58a14a" points="1297.82,-574.958 1304.15,-566.003 1298.78,-570.051 1299.74,-565.143 1299.74,-565.143 1299.74,-565.143 1298.78,-570.051 1295.32,-564.283 1297.82,-574.958 1297.82,-574.958"/>
</g>
<!-- SocialShare -->
<g id="node8" class="node"><title>SocialShare</title>
<polyline fill="none" stroke="black" points="735,-1 881,-1 "/>
<path fill="none" stroke="black" d="M881,-1C887,-1 893,-7 893,-13"/>
<polyline fill="none" stroke="black" points="893,-13 893,-175 "/>
<path fill="none" stroke="black" d="M893,-175C893,-181 887,-187 881,-187"/>
<polyline fill="none" stroke="black" points="881,-187 735,-187 "/>
<path fill="none" stroke="black" d="M735,-187C729,-187 723,-181 723,-175"/>
<polyline fill="none" stroke="black" points="723,-175 723,-13 "/>
<path fill="none" stroke="black" d="M723,-13C723,-7 729,-1 735,-1"/>
<text text-anchor="middle" x="808" y="-170.4" font-family="Times Roman,serif" font-size="14.00">SocialShare</text>
<polyline fill="none" stroke="black" points="723,-162 893,-162 "/>
<text text-anchor="start" x="731" y="-145.4" font-family="Times Roman,serif" font-size="14.00">id :integer</text>
<text text-anchor="start" x="731" y="-128.4" font-family="Times Roman,serif" font-size="14.00">shareable_id :integer</text>
<text text-anchor="start" x="731" y="-111.4" font-family="Times Roman,serif" font-size="14.00">shareable_type :string</text>
<text text-anchor="start" x="731" y="-94.4" font-family="Times Roman,serif" font-size="14.00">request_ip :string</text>
<text text-anchor="start" x="731" y="-77.4" font-family="Times Roman,serif" font-size="14.00">user_agent :string</text>
<text text-anchor="start" x="731" y="-60.4" font-family="Times Roman,serif" font-size="14.00">user_id :integer</text>
<text text-anchor="start" x="731" y="-43.4" font-family="Times Roman,serif" font-size="14.00">created_at :datetime</text>
<text text-anchor="start" x="731" y="-26.4" font-family="Times Roman,serif" font-size="14.00">updated_at :datetime</text>
<text text-anchor="start" x="731" y="-9.4" font-family="Times Roman,serif" font-size="14.00">social_network :string</text>
</g>
<!-- Venue&#45;&gt;SocialShare -->
<g id="edge30" class="edge"><title>Venue&#45;&gt;SocialShare</title>
<path fill="none" stroke="#da6837" d="M795.225,-816.628C797.535,-800.914 799.526,-785.193 801,-770 820.61,-567.912 816.913,-330.256 812.454,-197.385"/>
<ellipse fill="none" stroke="#da6837" cx="794.584" cy="-820.887" rx="4.00001" ry="4.00001"/>
<polygon fill="#da6837" stroke="#da6837" points="812.449,-197.21 816.602,-187.062 812.277,-192.213 812.105,-187.216 812.105,-187.216 812.105,-187.216 812.277,-192.213 807.607,-187.371 812.449,-197.21 812.449,-197.21"/>
</g>
<!-- Talk -->
<g id="node9" class="node"><title>Talk</title>
<polyline fill="none" stroke="black" points="499,-243 669,-243 "/>
<path fill="none" stroke="black" d="M669,-243C675,-243 681,-249 681,-255"/>
<polyline fill="none" stroke="black" points="681,-255 681,-757 "/>
<path fill="none" stroke="black" d="M681,-757C681,-763 675,-769 669,-769"/>
<polyline fill="none" stroke="black" points="669,-769 499,-769 "/>
<path fill="none" stroke="black" d="M499,-769C493,-769 487,-763 487,-757"/>
<polyline fill="none" stroke="black" points="487,-757 487,-255 "/>
<path fill="none" stroke="black" d="M487,-255C487,-249 493,-243 499,-243"/>
<text text-anchor="middle" x="584" y="-752.4" font-family="Times Roman,serif" font-size="14.00">Talk</text>
<polyline fill="none" stroke="black" points="487,-744 681,-744 "/>
<text text-anchor="start" x="495" y="-727.4" font-family="Times Roman,serif" font-size="14.00">id :integer</text>
<text text-anchor="start" x="495" y="-710.4" font-family="Times Roman,serif" font-size="14.00">title :string</text>
<text text-anchor="start" x="495" y="-693.4" font-family="Times Roman,serif" font-size="14.00">venue_id :integer</text>
<text text-anchor="start" x="495" y="-676.4" font-family="Times Roman,serif" font-size="14.00">starts_at :datetime</text>
<text text-anchor="start" x="495" y="-659.4" font-family="Times Roman,serif" font-size="14.00">ends_at :datetime</text>
<text text-anchor="start" x="495" y="-642.4" font-family="Times Roman,serif" font-size="14.00">ended_at :datetime</text>
<text text-anchor="start" x="495" y="-625.4" font-family="Times Roman,serif" font-size="14.00">record :boolean</text>
<text text-anchor="start" x="495" y="-608.4" font-family="Times Roman,serif" font-size="14.00">recording :string</text>
<text text-anchor="start" x="495" y="-591.4" font-family="Times Roman,serif" font-size="14.00">created_at :datetime</text>
<text text-anchor="start" x="495" y="-574.4" font-family="Times Roman,serif" font-size="14.00">updated_at :datetime</text>
<text text-anchor="start" x="495" y="-557.4" font-family="Times Roman,serif" font-size="14.00">teaser :string</text>
<text text-anchor="start" x="495" y="-540.4" font-family="Times Roman,serif" font-size="14.00">description :text</text>
<text text-anchor="start" x="495" y="-523.4" font-family="Times Roman,serif" font-size="14.00">duration :integer</text>
<text text-anchor="start" x="495" y="-506.4" font-family="Times Roman,serif" font-size="14.00">image_uid :string</text>
<text text-anchor="start" x="495" y="-489.4" font-family="Times Roman,serif" font-size="14.00">session :text</text>
<text text-anchor="start" x="495" y="-472.4" font-family="Times Roman,serif" font-size="14.00">audio_formats :text</text>
<text text-anchor="start" x="495" y="-455.4" font-family="Times Roman,serif" font-size="14.00">featured_from :datetime</text>
<text text-anchor="start" x="495" y="-438.4" font-family="Times Roman,serif" font-size="14.00">state :string</text>
<text text-anchor="start" x="495" y="-421.4" font-family="Times Roman,serif" font-size="14.00">started_at :datetime</text>
<text text-anchor="start" x="495" y="-404.4" font-family="Times Roman,serif" font-size="14.00">processed_at :datetime</text>
<text text-anchor="start" x="495" y="-387.4" font-family="Times Roman,serif" font-size="14.00">play_count :integer</text>
<text text-anchor="start" x="495" y="-370.4" font-family="Times Roman,serif" font-size="14.00">starts_at_date :string</text>
<text text-anchor="start" x="495" y="-353.4" font-family="Times Roman,serif" font-size="14.00">starts_at_time :string</text>
<text text-anchor="start" x="495" y="-336.4" font-family="Times Roman,serif" font-size="14.00">uri :string</text>
<text text-anchor="start" x="495" y="-319.4" font-family="Times Roman,serif" font-size="14.00">recording_override :string</text>
<text text-anchor="start" x="495" y="-302.4" font-family="Times Roman,serif" font-size="14.00">related_talk_id :integer</text>
<text text-anchor="start" x="495" y="-285.4" font-family="Times Roman,serif" font-size="14.00">storage :text</text>
<text text-anchor="start" x="495" y="-268.4" font-family="Times Roman,serif" font-size="14.00">grade :string</text>
<text text-anchor="start" x="495" y="-251.4" font-family="Times Roman,serif" font-size="14.00">language :string</text>
</g>
<!-- Venue&#45;&gt;Talk -->
<g id="edge24" class="edge"><title>Venue&#45;&gt;Talk</title>
<path fill="none" stroke="#be0a7c" d="M698.759,-817.21C694.13,-804.657 689.395,-791.818 684.613,-778.849"/>
<ellipse fill="none" stroke="#be0a7c" cx="700.185" cy="-821.079" rx="4.00001" ry="4.00001"/>
<polygon fill="#be0a7c" stroke="#be0a7c" points="684.583,-778.767 685.345,-767.827 682.853,-774.076 681.123,-769.384 681.123,-769.384 681.123,-769.384 682.853,-774.076 676.901,-770.941 684.583,-778.767 684.583,-778.767"/>
</g>
<!-- Venue&#45;&gt;PgSearch::Document -->
<g id="edge32" class="edge"><title>Venue&#45;&gt;PgSearch::Document</title>
<path fill="none" stroke="#64535e" d="M875.087,-929.127C935.524,-892.516 1004.61,-838.86 1041,-770 1095.92,-666.084 1011.12,-342.538 1072,-242 1096.16,-202.099 1123.51,-214.356 1162,-188 1195.1,-165.332 1231.2,-136.747 1255.27,-117.085"/>
<ellipse fill="none" stroke="#64535e" cx="871.572" cy="-931.23" rx="4.00002" ry="4.00002"/>
<ellipse fill="#64535e" stroke="#64535e" cx="1258.64" cy="-114.325" rx="4.00002" ry="4.00002"/>
<text text-anchor="middle" x="1144.5" y="-501.9" font-family="Times Roman,serif" font-size="14.00">pg_search_document</text>
</g>
<!-- ActsAsTaggableOn::Tagging -->
<g id="node18" class="node"><title>ActsAsTaggableOn::Tagging</title>
<ellipse fill="none" stroke="black" cx="381" cy="-94" rx="141.756" ry="18"/>
<text text-anchor="middle" x="381" y="-89.9" font-family="Times Roman,serif" font-size="14.00">ActsAsTaggableOn::Tagging</text>
</g>
<!-- Venue&#45;&gt;ActsAsTaggableOn::Tagging -->
<g id="edge14" class="edge"><title>Venue&#45;&gt;ActsAsTaggableOn::Tagging</title>
<path fill="none" stroke="#7e47f4" d="M646.686,-822.791C558.394,-769.102 484.783,-848.391 419,-770 376.871,-719.797 379.305,-244.025 380.632,-122.269"/>
<ellipse fill="none" stroke="#7e47f4" cx="650.256" cy="-825.095" rx="4.00002" ry="4.00002"/>
<polygon fill="#7e47f4" stroke="#7e47f4" points="380.632,-122.233 385.247,-112.286 380.69,-117.234 380.748,-112.234 380.748,-112.234 380.748,-112.234 380.69,-117.234 376.248,-112.182 380.632,-122.233 380.632,-122.233"/>
<text text-anchor="middle" x="448.5" y="-501.9" font-family="Times Roman,serif" font-size="14.00">taggings</text>
</g>
<!-- Venue&#45;&gt;ActsAsTaggableOn::Tagging -->
<g id="edge18" class="edge"><title>Venue&#45;&gt;ActsAsTaggableOn::Tagging</title>
<path fill="none" stroke="#8112b4" d="M646.521,-823.278C595.623,-801.36 479.804,-813.289 435,-806 368.183,-795.131 328.831,-823.225 287,-770 250.749,-723.874 270.622,-298.334 287,-242 300.844,-194.381 335.138,-147.431 358.246,-119.584"/>
<ellipse fill="none" stroke="#8112b4" cx="650.249" cy="-825.141" rx="4.00002" ry="4.00002"/>
<polygon fill="#8112b4" stroke="#8112b4" points="358.275,-119.55 368.168,-114.819 361.503,-115.732 364.732,-111.914 364.732,-111.914 364.732,-111.914 361.503,-115.732 361.295,-109.008 358.275,-119.55 358.275,-119.55"/>
<text text-anchor="middle" x="331.5" y="-501.9" font-family="Times Roman,serif" font-size="14.00">tag_taggings</text>
</g>
<!-- ActsAsTaggableOn::Tag -->
<g id="node20" class="node"><title>ActsAsTaggableOn::Tag</title>
<ellipse fill="none" stroke="black" cx="1032" cy="-94" rx="121.104" ry="18"/>
<text text-anchor="middle" x="1032" y="-89.9" font-family="Times Roman,serif" font-size="14.00">ActsAsTaggableOn::Tag</text>
</g>
<!-- Venue&#45;&gt;ActsAsTaggableOn::Tag -->
<g id="edge16" class="edge"><title>Venue&#45;&gt;ActsAsTaggableOn::Tag</title>
<path fill="none" stroke="#5fddd2" d="M812.696,-815.006C816.234,-799.874 819.414,-784.718 822,-770 843.743,-646.231 791.478,-309.325 863,-206 873.865,-190.303 885.521,-197.638 902,-188 938.011,-166.938 976.388,-138.341 1002.03,-118.239"/>
<polygon fill="#5fddd2" stroke="#5fddd2" points="812.646,-815.215 805.946,-823.896 811.484,-820.078 810.322,-824.942 810.322,-824.942 810.322,-824.942 811.484,-820.078 814.699,-825.987 812.646,-815.215 812.646,-815.215"/>
<polygon fill="#5fddd2" stroke="#5fddd2" points="1002.05,-118.229 1012.68,-115.562 1005.97,-115.13 1009.89,-112.03 1009.89,-112.03 1009.89,-112.03 1005.97,-115.13 1007.1,-108.499 1002.05,-118.229 1002.05,-118.229"/>
<text text-anchor="middle" x="879.5" y="-501.9" font-family="Times Roman,serif" font-size="14.00">base_tags</text>
</g>
<!-- Venue&#45;&gt;ActsAsTaggableOn::Tag -->
<g id="edge20" class="edge"><title>Venue&#45;&gt;ActsAsTaggableOn::Tag</title>
<path fill="none" stroke="#d02a00" d="M873.894,-849.854C890.791,-824.479 906.404,-797.317 918,-770 1011.1,-550.664 918.228,-461.477 1011,-242 1014.84,-232.91 1020.68,-233.292 1024,-224 1035.91,-190.691 1036.25,-149.543 1034.72,-122.577"/>
<polygon fill="#d02a00" stroke="#d02a00" points="873.723,-850.107 864.392,-855.867 870.921,-854.248 868.119,-858.389 868.119,-858.389 868.119,-858.389 870.921,-854.248 871.846,-860.911 873.723,-850.107 873.723,-850.107"/>
<polygon fill="#d02a00" stroke="#d02a00" points="1034.7,-122.272 1038.49,-111.983 1034.35,-117.284 1034,-112.296 1034,-112.296 1034,-112.296 1034.35,-117.284 1029.51,-112.609 1034.7,-122.272 1034.7,-122.272"/>
<text text-anchor="middle" x="1026" y="-501.9" font-family="Times Roman,serif" font-size="14.00">tags</text>
</g>
<!-- Talk&#45;&gt;User -->
<g id="edge44" class="edge"><title>Talk&#45;&gt;User</title>
<path fill="none" stroke="#0cb262" d="M567.431,-779.153C566.346,-894.217 572.876,-1028.82 599,-1148 602.222,-1162.7 606.111,-1177.56 610.511,-1192.41"/>
<polygon fill="#0cb262" stroke="#0cb262" points="567.431,-779.142 572.045,-769.194 567.488,-774.143 567.546,-769.143 567.546,-769.143 567.546,-769.143 567.488,-774.143 563.046,-769.092 567.431,-779.142 567.431,-779.142"/>
<polygon fill="#0cb262" stroke="#0cb262" points="610.569,-1192.61 609.168,-1203.48 612.022,-1197.39 613.474,-1202.17 613.474,-1202.17 613.474,-1202.17 612.022,-1197.39 617.78,-1200.87 610.569,-1192.61 610.569,-1192.61"/>
<text text-anchor="middle" x="622" y="-981.9" font-family="Times Roman,serif" font-size="14.00">guests</text>
</g>
<!-- Talk&#45;&gt;Message -->
<g id="edge46" class="edge"><title>Talk&#45;&gt;Message</title>
<path fill="none" stroke="#4310f8" d="M481.014,-249.088C478.408,-246.65 475.737,-244.285 473,-242 451.77,-224.272 255.558,-198.573 230,-188 210.904,-180.1 191.528,-169.779 173.363,-158.877"/>
<ellipse fill="none" stroke="#4310f8" cx="484.115" cy="-252.112" rx="4.00002" ry="4.00002"/>
<polygon fill="#4310f8" stroke="#4310f8" points="173.081,-158.704 166.898,-149.648 168.815,-156.095 164.55,-153.487 164.55,-153.487 164.55,-153.487 168.815,-156.095 162.202,-157.326 173.081,-158.704 173.081,-158.704"/>
</g>
<!-- Talk&#45;&gt;Appearance -->
<g id="edge42" class="edge"><title>Talk&#45;&gt;Appearance</title>
<path fill="none" stroke="#340b99" d="M609.974,-234.901C610.318,-231.245 610.661,-227.609 611,-224 612.852,-204.303 614.836,-182.925 616.647,-163.302"/>
<ellipse fill="none" stroke="#340b99" cx="609.591" cy="-238.957" rx="4" ry="4"/>
<polygon fill="#340b99" stroke="#340b99" points="616.658,-163.177 622.057,-153.632 617.117,-158.198 617.576,-153.219 617.576,-153.219 617.576,-153.219 617.117,-158.198 613.095,-152.806 616.658,-163.177 616.658,-163.177"/>
</g>
<!-- Talk&#45;&gt;SocialShare -->
<g id="edge48" class="edge"><title>Talk&#45;&gt;SocialShare</title>
<path fill="none" stroke="#3444c1" d="M641.184,-235.759C647.975,-225.193 655.55,-215.2 664,-206 679.976,-188.605 694.058,-200.655 714,-188 714.189,-187.88 714.377,-187.76 714.566,-187.639"/>
<ellipse fill="none" stroke="#3444c1" cx="638.94" cy="-239.382" rx="4.00002" ry="4.00002"/>
<polygon fill="#3444c1" stroke="#3444c1" points="714.71,-187.542 725.513,-185.658 718.85,-184.737 722.989,-181.933 722.989,-181.933 722.989,-181.933 718.85,-184.737 720.465,-178.207 714.71,-187.542 714.71,-187.542"/>
</g>
<!-- Talk&#45;&gt;Talk -->
<g id="edge50" class="edge"><title>Talk&#45;&gt;Talk</title>
<path fill="none" stroke="#728840" d="M687.157,-545.901C694.509,-536.848 699,-523.548 699,-506 699,-488.452 694.509,-475.152 687.157,-466.099"/>
<ellipse fill="none" stroke="#728840" cx="684.148" cy="-548.913" rx="4.00002" ry="4.00002"/>
<ellipse fill="#728840" stroke="#728840" cx="684.148" cy="-463.087" rx="4.00002" ry="4.00002"/>
<text text-anchor="middle" x="745.5" y="-501.9" font-family="Times Roman,serif" font-size="14.00">featured_talk</text>
</g>
<!-- Talk&#45;&gt;PgSearch::Document -->
<g id="edge52" class="edge"><title>Talk&#45;&gt;PgSearch::Document</title>
<path fill="none" stroke="#3066fb" d="M686.648,-389.393C732.296,-340.924 788.256,-285.867 844,-242 868.439,-222.768 874.337,-215.34 904,-206 1013.64,-171.479 1054.63,-229.036 1162,-188 1201.46,-172.918 1238.53,-140.374 1260.98,-117.837"/>
<ellipse fill="none" stroke="#3066fb" cx="683.87" cy="-392.353" rx="4.00002" ry="4.00002"/>
<ellipse fill="#3066fb" stroke="#3066fb" cx="1263.85" cy="-114.913" rx="4.00002" ry="4.00002"/>
<text text-anchor="middle" x="976.5" y="-210.9" font-family="Times Roman,serif" font-size="14.00">pg_search_document</text>
</g>
<!-- Talk&#45;&gt;ActsAsTaggableOn::Tagging -->
<g id="edge34" class="edge"><title>Talk&#45;&gt;ActsAsTaggableOn::Tagging</title>
<path fill="none" stroke="#b7f2cd" d="M544.606,-235.249C539.939,-225.136 534.755,-215.341 529,-206 504.409,-166.084 459.963,-135.362 426.175,-116.277"/>
<ellipse fill="none" stroke="#b7f2cd" cx="546.285" cy="-239.015" rx="4.00002" ry="4.00002"/>
<polygon fill="#b7f2cd" stroke="#b7f2cd" points="426.153,-116.265 419.565,-107.499 421.774,-113.853 417.394,-111.441 417.394,-111.441 417.394,-111.441 421.774,-113.853 415.223,-115.383 426.153,-116.265 426.153,-116.265"/>
<text text-anchor="middle" x="566.5" y="-210.9" font-family="Times Roman,serif" font-size="14.00">taggings</text>
</g>
<!-- Talk&#45;&gt;ActsAsTaggableOn::Tagging -->
<g id="edge38" class="edge"><title>Talk&#45;&gt;ActsAsTaggableOn::Tagging</title>
<path fill="none" stroke="#126ea8" d="M481.323,-251.246C478.615,-248.086 475.841,-245.001 473,-242 460.428,-228.72 448.587,-237.266 436,-224 408.659,-195.183 393.891,-150.74 386.736,-122.012"/>
<ellipse fill="none" stroke="#126ea8" cx="484.235" cy="-254.755" rx="4.00002" ry="4.00002"/>
<polygon fill="#126ea8" stroke="#126ea8" points="386.717,-121.933 388.816,-111.17 385.576,-117.065 384.435,-112.197 384.435,-112.197 384.435,-112.197 385.576,-117.065 380.054,-113.224 386.717,-121.933 386.717,-121.933"/>
<text text-anchor="middle" x="480.5" y="-210.9" font-family="Times Roman,serif" font-size="14.00">tag_taggings</text>
</g>
<!-- Talk&#45;&gt;ActsAsTaggableOn::Tag -->
<g id="edge36" class="edge"><title>Talk&#45;&gt;ActsAsTaggableOn::Tag</title>
<path fill="none" stroke="#0225c6" d="M655.059,-234.607C663.641,-224.084 673.248,-214.444 684,-206 722.23,-175.978 856.408,-204.86 902,-188 942.779,-172.92 982.164,-141.278 1006.69,-118.88"/>
<polygon fill="#0225c6" stroke="#0225c6" points="654.819,-234.916 645.136,-240.065 651.756,-238.869 648.694,-242.821 648.694,-242.821 648.694,-242.821 651.756,-238.869 652.251,-245.577 654.819,-234.916 654.819,-234.916"/>
<polygon fill="#0225c6" stroke="#0225c6" points="1006.8,-118.781 1017.18,-115.259 1010.46,-115.373 1014.12,-111.966 1014.12,-111.966 1014.12,-111.966 1010.46,-115.373 1011.05,-108.673 1006.8,-118.781 1006.8,-118.781"/>
<text text-anchor="middle" x="718.5" y="-210.9" font-family="Times Roman,serif" font-size="14.00">base_tags</text>
</g>
<!-- Talk&#45;&gt;ActsAsTaggableOn::Tag -->
<g id="edge40" class="edge"><title>Talk&#45;&gt;ActsAsTaggableOn::Tag</title>
<path fill="none" stroke="#0b4cae" d="M687.174,-316.673C718.515,-274.37 756.628,-233.848 801,-206 839.62,-181.762 860.025,-205.807 902,-188 941.562,-171.217 980.661,-140.516 1005.48,-118.772"/>
<polygon fill="#0b4cae" stroke="#0b4cae" points="687.089,-316.79 677.562,-322.221 684.144,-320.83 681.199,-324.871 681.199,-324.871 681.199,-324.871 684.144,-320.83 684.835,-327.522 687.089,-316.79 687.089,-316.79"/>
<polygon fill="#0b4cae" stroke="#0b4cae" points="1005.56,-118.707 1016.02,-115.416 1009.29,-115.382 1013.02,-112.056 1013.02,-112.056 1013.02,-112.056 1009.29,-115.382 1010.03,-108.696 1005.56,-118.707 1005.56,-118.707"/>
<text text-anchor="middle" x="816" y="-210.9" font-family="Times Roman,serif" font-size="14.00">tags</text>
</g>
</g>
</svg>
