<?xml version="1.0" encoding="UTF-8" standalone="no"?>
<!DOCTYPE svg PUBLIC "-//W3C//DTD SVG 1.1//EN"
 "http://www.w3.org/Graphics/SVG/1.1/DTD/svg11.dtd">
<!-- Generated by graphviz version 2.26.3 (20100126.1600)
 -->
<!-- Title: models_diagram Pages: 1 -->
<svg width="1389pt" height="314pt"
 viewBox="0.00 0.00 1389.00 314.00" xmlns="http://www.w3.org/2000/svg" xmlns:xlink="http://www.w3.org/1999/xlink">
<g id="graph1" class="graph" transform="scale(1 1) rotate(0) translate(4 310)">
<title>models_diagram</title>
<polygon fill="white" stroke="white" points="-4,5 -4,-310 1386,-310 1386,5 -4,5"/>
<!-- User -->
<g id="node1" class="node"><title>User</title>
<ellipse fill="none" stroke="black" cx="568" cy="-288" rx="32.8565" ry="18"/>
<text text-anchor="middle" x="568" y="-283.9" font-family="Times Roman,serif" font-size="14.00">User</text>
</g>
<!-- Message -->
<g id="node2" class="node"><title>Message</title>
<ellipse fill="none" stroke="black" cx="52" cy="-18" rx="52.1162" ry="18"/>
<text text-anchor="middle" x="52" y="-13.9" font-family="Times Roman,serif" font-size="14.00">Message</text>
</g>
<!-- User&#45;&gt;Message -->
<g id="edge4" class="edge"><title>User&#45;&gt;Message</title>
<path fill="none" stroke="#8be078" d="M526.913,-286.223C457.751,-281.863 315.05,-266.915 207,-216 141.434,-185.104 110.732,-186.621 71,-126 55.4142,-102.22 51.547,-69.4287 51.03,-46.234"/>
<ellipse fill="none" stroke="#8be078" cx="530.983" cy="-286.466" rx="4" ry="4"/>
<polygon fill="#8be078" stroke="#8be078" points="51.0295,-46.0098 55.5032,-35.9979 51.0163,-41.0098 51.0032,-36.0098 51.0032,-36.0098 51.0032,-36.0098 51.0163,-41.0098 46.5032,-36.0216 51.0295,-46.0098 51.0295,-46.0098"/>
</g>
<!-- Comment -->
<g id="node4" class="node"><title>Comment</title>
<ellipse fill="none" stroke="black" cx="137" cy="-108" rx="57.1737" ry="18"/>
<text text-anchor="middle" x="137" y="-103.9" font-family="Times Roman,serif" font-size="14.00">Comment</text>
</g>
<!-- User&#45;&gt;Comment -->
<g id="edge2" class="edge"><title>User&#45;&gt;Comment</title>
<path fill="none" stroke="#86fd1c" d="M527.601,-282.728C453.071,-271.401 291.392,-239.219 180,-162 169.488,-154.713 160.266,-144.115 153.087,-134.234"/>
<ellipse fill="none" stroke="#86fd1c" cx="531.865" cy="-283.36" rx="4.00001" ry="4.00001"/>
<polygon fill="#86fd1c" stroke="#86fd1c" points="152.982,-134.081 151.032,-123.29 150.152,-129.959 147.322,-125.837 147.322,-125.837 147.322,-125.837 150.152,-129.959 143.612,-128.384 152.982,-134.081 152.982,-134.081"/>
</g>
<!-- Participation -->
<g id="node6" class="node"><title>Participation</title>
<ellipse fill="none" stroke="black" cx="1171" cy="-108" rx="71.0724" ry="18"/>
<text text-anchor="middle" x="1171" y="-103.9" font-family="Times Roman,serif" font-size="14.00">Participation</text>
</g>
<!-- User&#45;&gt;Participation -->
<g id="edge8" class="edge"><title>User&#45;&gt;Participation</title>
<path fill="none" stroke="#8455cc" d="M600.608,-273.043C603.744,-271.904 606.908,-270.863 610,-270 665.332,-254.549 682.069,-265.118 738,-252 881.122,-218.431 1044.26,-157.867 1123.2,-127.081"/>
<ellipse fill="none" stroke="#8455cc" cx="596.654" cy="-274.584" rx="4.00001" ry="4.00001"/>
<polygon fill="#8455cc" stroke="#8455cc" points="1123.55,-126.945 1134.5,-127.489 1128.21,-125.122 1132.86,-123.299 1132.86,-123.299 1132.86,-123.299 1128.21,-125.122 1131.22,-119.109 1123.55,-126.945 1123.55,-126.945"/>
</g>
<!-- Venue -->
<g id="node7" class="node"><title>Venue</title>
<ellipse fill="none" stroke="black" cx="589" cy="-198" rx="41.1906" ry="18"/>
<text text-anchor="middle" x="589" y="-193.9" font-family="Times Roman,serif" font-size="14.00">Venue</text>
</g>
<!-- User&#45;&gt;Venue -->
<g id="edge6" class="edge"><title>User&#45;&gt;Venue</title>
<path fill="none" stroke="#e0e62c" d="M567.968,-261.502C569.94,-250.045 573.053,-236.651 576.418,-225.126"/>
<ellipse fill="none" stroke="#e0e62c" cx="567.306" cy="-265.833" rx="4.00001" ry="4.00001"/>
<polygon fill="#e0e62c" stroke="#e0e62c" points="576.422,-225.114 583.711,-216.922 577.92,-220.344 579.418,-215.573 579.418,-215.573 579.418,-215.573 577.92,-220.344 575.125,-214.225 576.422,-225.114 576.422,-225.114"/>
</g>
<!-- User&#45;&gt;Venue -->
<g id="edge10" class="edge"><title>User&#45;&gt;Venue</title>
<path fill="none" stroke="#da21a0" d="M584.48,-261.683C585.9,-258.512 587.127,-255.245 588,-252 590.192,-243.851 590.967,-234.757 591.049,-226.391"/>
<polygon fill="#da21a0" stroke="#da21a0" points="584.368,-261.901 575.792,-268.735 582.08,-266.347 579.793,-270.794 579.793,-270.794 579.793,-270.794 582.08,-266.347 583.795,-272.852 584.368,-261.901 584.368,-261.901"/>
<polygon fill="#da21a0" stroke="#da21a0" points="591.048,-226.305 595.338,-216.213 590.943,-221.306 590.839,-216.308 590.839,-216.308 590.839,-216.308 590.943,-221.306 586.34,-216.402 591.048,-226.305 591.048,-226.305"/>
<text text-anchor="middle" x="662" y="-238.9" font-family="Times Roman,serif" font-size="14.00">participating_venues</text>
</g>
<!-- PgSearch::Document -->
<g id="node16" class="node"><title>PgSearch::Document</title>
<ellipse fill="none" stroke="black" cx="1102" cy="-18" rx="111.876" ry="18"/>
<text text-anchor="middle" x="1102" y="-13.9" font-family="Times Roman,serif" font-size="14.00">PgSearch::Document</text>
</g>
<!-- User&#45;&gt;PgSearch::Document -->
<g id="edge12" class="edge"><title>User&#45;&gt;PgSearch::Document</title>
<path fill="none" stroke="#04fa63" d="M600.575,-272.921C603.718,-271.807 606.892,-270.806 610,-270 685.685,-250.376 707.906,-265.037 785,-252 996.545,-216.225 1121.87,-297.339 1251,-126 1281.06,-86.118 1218.86,-54.6742 1165.86,-36.2331"/>
<ellipse fill="none" stroke="#04fa63" cx="596.618" cy="-274.442" rx="4.00001" ry="4.00001"/>
<ellipse fill="#04fa63" stroke="#04fa63" cx="1161.91" cy="-34.8922" rx="4.00001" ry="4.00001"/>
<text text-anchor="middle" x="1308.5" y="-148.9" font-family="Times Roman,serif" font-size="14.00">pg_search_document</text>
</g>
<!-- Appearance -->
<g id="node3" class="node"><title>Appearance</title>
<ellipse fill="none" stroke="black" cx="492" cy="-18" rx="68.0985" ry="18"/>
<text text-anchor="middle" x="492" y="-13.9" font-family="Times Roman,serif" font-size="14.00">Appearance</text>
</g>
<!-- Setting -->
<g id="node5" class="node"><title>Setting</title>
<ellipse fill="none" stroke="black" cx="665" cy="-288" rx="46.0565" ry="18"/>
<text text-anchor="middle" x="665" y="-283.9" font-family="Times Roman,serif" font-size="14.00">Setting</text>
</g>
<!-- Venue&#45;&gt;User -->
<g id="edge28" class="edge"><title>Venue&#45;&gt;User</title>
<path fill="none" stroke="#12aa58" d="M588.731,-226.211C586.758,-237.237 583.8,-249.833 580.614,-260.763"/>
<polygon fill="#12aa58" stroke="#12aa58" points="588.748,-226.106 594.743,-216.924 589.522,-221.166 590.297,-216.226 590.297,-216.226 590.297,-216.226 589.522,-221.166 585.852,-215.529 588.748,-226.106 588.748,-226.106"/>
<polygon fill="#12aa58" stroke="#12aa58" points="580.506,-261.107 573.214,-269.297 579.007,-265.877 577.507,-270.647 577.507,-270.647 577.507,-270.647 579.007,-265.877 581.8,-271.997 580.506,-261.107 580.506,-261.107"/>
</g>
<!-- Venue&#45;&gt;Comment -->
<g id="edge22" class="edge"><title>Venue&#45;&gt;Comment</title>
<path fill="none" stroke="#637788" d="M540.386,-193.956C442.794,-185.747 231.024,-167.449 216,-162 197.069,-155.135 178.355,-142.665 163.896,-131.436"/>
<ellipse fill="none" stroke="#637788" cx="544.634" cy="-194.312" rx="4" ry="4"/>
<polygon fill="#637788" stroke="#637788" points="163.702,-131.281 158.722,-121.512 159.803,-128.151 155.905,-125.021 155.905,-125.021 155.905,-125.021 159.803,-128.151 153.087,-128.53 163.702,-131.281 163.702,-131.281"/>
</g>
<!-- Venue&#45;&gt;Participation -->
<g id="edge26" class="edge"><title>Venue&#45;&gt;Participation</title>
<path fill="none" stroke="#1d71d1" d="M638.182,-195.323C708.092,-191.017 840.041,-181.036 951,-162 1007.04,-152.386 1069.94,-136.41 1114.09,-124.323"/>
<ellipse fill="none" stroke="#1d71d1" cx="633.962" cy="-195.578" rx="4" ry="4"/>
<polygon fill="#1d71d1" stroke="#1d71d1" points="1114.13,-124.311 1124.97,-125.99 1118.95,-122.981 1123.77,-121.652 1123.77,-121.652 1123.77,-121.652 1118.95,-122.981 1122.58,-117.314 1114.13,-124.311 1114.13,-124.311"/>
</g>
<!-- SocialShare -->
<g id="node8" class="node"><title>SocialShare</title>
<ellipse fill="none" stroke="black" cx="645" cy="-18" rx="66.9043" ry="18"/>
<text text-anchor="middle" x="645" y="-13.9" font-family="Times Roman,serif" font-size="14.00">SocialShare</text>
</g>
<!-- Venue&#45;&gt;SocialShare -->
<g id="edge30" class="edge"><title>Venue&#45;&gt;SocialShare</title>
<path fill="none" stroke="#1413c3" d="M613.598,-175.709C636.895,-152.545 669.79,-113.873 680,-72 681.895,-64.2277 683.009,-61.4124 680,-54 678.458,-50.2014 676.301,-46.5835 673.807,-43.2081"/>
<ellipse fill="none" stroke="#1413c3" cx="610.472" cy="-178.75" rx="4.00002" ry="4.00002"/>
<polygon fill="#1413c3" stroke="#1413c3" points="673.582,-42.9448 670.49,-32.4237 670.328,-39.1486 667.074,-35.3524 667.074,-35.3524 667.074,-35.3524 670.328,-39.1486 663.657,-38.281 673.582,-42.9448 673.582,-42.9448"/>
</g>
<!-- Talk -->
<g id="node9" class="node"><title>Talk</title>
<ellipse fill="none" stroke="black" cx="502" cy="-108" rx="30.0736" ry="18"/>
<text text-anchor="middle" x="502" y="-103.9" font-family="Times Roman,serif" font-size="14.00">Talk</text>
</g>
<!-- Venue&#45;&gt;Talk -->
<g id="edge24" class="edge"><title>Venue&#45;&gt;Talk</title>
<path fill="none" stroke="#038ab2" d="M566.722,-174.954C553.72,-161.504 537.368,-144.587 524.353,-131.124"/>
<ellipse fill="none" stroke="#038ab2" cx="569.856" cy="-178.196" rx="4.00002" ry="4.00002"/>
<polygon fill="#038ab2" stroke="#038ab2" points="524.077,-130.838 520.362,-120.52 520.601,-127.243 517.126,-123.648 517.126,-123.648 517.126,-123.648 520.601,-127.243 513.891,-126.775 524.077,-130.838 524.077,-130.838"/>
</g>
<!-- Venue&#45;&gt;PgSearch::Document -->
<g id="edge32" class="edge"><title>Venue&#45;&gt;PgSearch::Document</title>
<path fill="none" stroke="#bcdc2c" d="M636.838,-192.489C681.718,-186.774 750.498,-176.614 809,-162 857.271,-149.942 873.759,-153.832 915,-126 932.502,-114.189 929.142,-102.713 946,-90 976.078,-67.3166 1014.45,-49.4906 1045.61,-37.2502"/>
<ellipse fill="none" stroke="#bcdc2c" cx="632.713" cy="-193.006" rx="4.00001" ry="4.00001"/>
<ellipse fill="#bcdc2c" stroke="#bcdc2c" cx="1049.63" cy="-35.6982" rx="4.00001" ry="4.00001"/>
<text text-anchor="middle" x="1018.5" y="-103.9" font-family="Times Roman,serif" font-size="14.00">pg_search_document</text>
</g>
<!-- ActsAsTaggableOn::Tagging -->
<g id="node18" class="node"><title>ActsAsTaggableOn::Tagging</title>
<ellipse fill="none" stroke="black" cx="264" cy="-18" rx="141.756" ry="18"/>
<text text-anchor="middle" x="264" y="-13.9" font-family="Times Roman,serif" font-size="14.00">ActsAsTaggableOn::Tagging</text>
</g>
<!-- Venue&#45;&gt;ActsAsTaggableOn::Tagging -->
<g id="edge14" class="edge"><title>Venue&#45;&gt;ActsAsTaggableOn::Tagging</title>
<path fill="none" stroke="#7609d1" d="M550.6,-182.966C548.028,-181.962 545.477,-180.966 543,-180 481.252,-155.925 465.006,-151.899 404,-126 397.41,-123.202 291.986,-77.1369 287,-72 279.964,-64.7511 274.928,-55.018 271.398,-45.8119"/>
<ellipse fill="none" stroke="#7609d1" cx="554.596" cy="-184.528" rx="4.00001" ry="4.00001"/>
<polygon fill="#7609d1" stroke="#7609d1" points="271.341,-45.6441 272.399,-34.7293 269.739,-40.908 268.136,-36.1718 268.136,-36.1718 268.136,-36.1718 269.739,-40.908 263.873,-37.6142 271.341,-45.6441 271.341,-45.6441"/>
<text text-anchor="middle" x="433.5" y="-103.9" font-family="Times Roman,serif" font-size="14.00">taggings</text>
</g>
<!-- Venue&#45;&gt;ActsAsTaggableOn::Tagging -->
<g id="edge18" class="edge"><title>Venue&#45;&gt;ActsAsTaggableOn::Tagging</title>
<path fill="none" stroke="#0d9bf7" d="M551.555,-182.635C548.683,-181.676 545.809,-180.783 543,-180 475.01,-161.043 275.47,-179.986 230,-126 210.376,-102.701 226.97,-68.0336 243.124,-44.2996"/>
<ellipse fill="none" stroke="#0d9bf7" cx="555.337" cy="-183.969" rx="4.00001" ry="4.00001"/>
<polygon fill="#0d9bf7" stroke="#0d9bf7" points="243.175,-44.2285 252.649,-38.7073 246.081,-40.16 248.988,-36.0915 248.988,-36.0915 248.988,-36.0915 246.081,-40.16 245.326,-33.4757 243.175,-44.2285 243.175,-44.2285"/>
<text text-anchor="middle" x="274.5" y="-103.9" font-family="Times Roman,serif" font-size="14.00">tag_taggings</text>
</g>
<!-- ActsAsTaggableOn::Tag -->
<g id="node20" class="node"><title>ActsAsTaggableOn::Tag</title>
<ellipse fill="none" stroke="black" cx="851" cy="-18" rx="121.104" ry="18"/>
<text text-anchor="middle" x="851" y="-13.9" font-family="Times Roman,serif" font-size="14.00">ActsAsTaggableOn::Tag</text>
</g>
<!-- Venue&#45;&gt;ActsAsTaggableOn::Tag -->
<g id="edge16" class="edge"><title>Venue&#45;&gt;ActsAsTaggableOn::Tag</title>
<path fill="none" stroke="#fcb74c" d="M624.018,-178.656C631.901,-173.661 639.999,-167.99 647,-162 663.044,-148.274 664.697,-142.397 678,-126 703.371,-94.7296 699.932,-76.9788 733,-54 743.722,-46.5492 756.029,-40.6055 768.558,-35.8737"/>
<polygon fill="#fcb74c" stroke="#fcb74c" points="623.816,-178.779 612.936,-180.147 619.548,-181.384 615.28,-183.988 615.28,-183.988 615.28,-183.988 619.548,-181.384 617.624,-187.829 623.816,-178.779 623.816,-178.779"/>
<polygon fill="#fcb74c" stroke="#fcb74c" points="768.729,-35.8134 779.657,-36.7302 773.444,-34.1499 778.16,-32.4865 778.16,-32.4865 778.16,-32.4865 773.444,-34.1499 776.662,-28.2428 768.729,-35.8134 768.729,-35.8134"/>
<text text-anchor="middle" x="734.5" y="-103.9" font-family="Times Roman,serif" font-size="14.00">base_tags</text>
</g>
<!-- Venue&#45;&gt;ActsAsTaggableOn::Tag -->
<g id="edge20" class="edge"><title>Venue&#45;&gt;ActsAsTaggableOn::Tag</title>
<path fill="none" stroke="#66aca2" d="M639.789,-194.273C711.708,-185.932 840.827,-158.979 898,-72 904.855,-61.572 899.102,-51.0171 889.578,-42.039"/>
<polygon fill="#66aca2" stroke="#66aca2" points="639.55,-194.298 629.124,-190.899 634.579,-194.836 629.608,-195.373 629.608,-195.373 629.608,-195.373 634.579,-194.836 630.092,-199.847 639.55,-194.298 639.55,-194.298"/>
<polygon fill="#66aca2" stroke="#66aca2" points="889.402,-41.8934 884.578,-32.0455 885.554,-38.7012 881.705,-35.509 881.705,-35.509 881.705,-35.509 885.554,-38.7012 878.832,-38.9726 889.402,-41.8934 889.402,-41.8934"/>
<text text-anchor="middle" x="898" y="-103.9" font-family="Times Roman,serif" font-size="14.00">tags</text>
</g>
<!-- Talk&#45;&gt;User -->
<g id="edge44" class="edge"><title>Talk&#45;&gt;User</title>
<path fill="none" stroke="#25a4d7" d="M492.775,-135.548C486.827,-158.079 482.046,-190.3 493,-216 502.1,-237.351 520.981,-255.418 537.52,-268.114"/>
<polygon fill="#25a4d7" stroke="#25a4d7" points="492.862,-135.246 499.955,-126.883 494.246,-130.442 495.63,-125.637 495.63,-125.637 495.63,-125.637 494.246,-130.442 491.306,-124.391 492.862,-135.246 492.862,-135.246"/>
<polygon fill="#25a4d7" stroke="#25a4d7" points="537.827,-268.339 543.231,-277.881 541.86,-271.296 545.892,-274.252 545.892,-274.252 545.892,-274.252 541.86,-271.296 548.553,-270.623 537.827,-268.339 537.827,-268.339"/>
<text text-anchor="middle" x="516" y="-193.9" font-family="Times Roman,serif" font-size="14.00">guests</text>
</g>
<!-- Talk&#45;&gt;Message -->
<g id="edge46" class="edge"><title>Talk&#45;&gt;Message</title>
<path fill="none" stroke="#47ba08" d="M465.785,-99.6849C451.009,-96.4374 433.73,-92.8238 418,-90 363.187,-80.1603 348.884,-81.4349 294,-72 213.166,-58.1039 192.637,-55.6267 113,-36 108.96,-35.0042 104.787,-33.9115 100.608,-32.772"/>
<ellipse fill="none" stroke="#47ba08" cx="469.805" cy="-100.577" rx="4.00001" ry="4.00001"/>
<polygon fill="#47ba08" stroke="#47ba08" points="100.535,-32.7517 92.1216,-25.7189 95.721,-31.4018 90.9067,-30.0518 90.9067,-30.0518 90.9067,-30.0518 95.721,-31.4018 89.6917,-34.3847 100.535,-32.7517 100.535,-32.7517"/>
</g>
<!-- Talk&#45;&gt;Appearance -->
<g id="edge42" class="edge"><title>Talk&#45;&gt;Appearance</title>
<path fill="none" stroke="#b42244" d="M499.068,-81.6153C497.839,-70.5483 496.406,-57.6577 495.154,-46.3852"/>
<ellipse fill="none" stroke="#b42244" cx="499.535" cy="-85.8116" rx="4.00001" ry="4.00001"/>
<polygon fill="#b42244" stroke="#b42244" points="495.125,-46.1246 498.493,-35.6888 494.573,-41.1552 494.021,-36.1858 494.021,-36.1858 494.021,-36.1858 494.573,-41.1552 489.548,-36.6827 495.125,-46.1246 495.125,-46.1246"/>
</g>
<!-- Talk&#45;&gt;SocialShare -->
<g id="edge48" class="edge"><title>Talk&#45;&gt;SocialShare</title>
<path fill="none" stroke="#bf05c5" d="M513.872,-83.2073C519.861,-72.9392 527.995,-61.6638 538,-54 550.636,-44.3208 566.023,-37.1598 581.144,-31.8933"/>
<ellipse fill="none" stroke="#bf05c5" cx="511.822" cy="-86.9349" rx="4.00002" ry="4.00002"/>
<polygon fill="#bf05c5" stroke="#bf05c5" points="581.496,-31.7792 592.396,-32.9799 586.253,-30.2389 591.01,-28.6987 591.01,-28.6987 591.01,-28.6987 586.253,-30.2389 589.624,-24.4175 581.496,-31.7792 581.496,-31.7792"/>
</g>
<!-- Talk&#45;&gt;Talk -->
<g id="edge50" class="edge"><title>Talk&#45;&gt;Talk</title>
<path fill="none" stroke="#a5d323" d="M537.162,-115.984C544.617,-115.173 550,-112.512 550,-108 550,-103.488 544.617,-100.827 537.162,-100.016"/>
<ellipse fill="none" stroke="#a5d323" cx="533.139" cy="-116.081" rx="4" ry="4"/>
<ellipse fill="#a5d323" stroke="#a5d323" cx="533.139" cy="-99.9192" rx="4" ry="4"/>
<text text-anchor="middle" x="596.5" y="-103.9" font-family="Times Roman,serif" font-size="14.00">featured_talk</text>
</g>
<!-- Talk&#45;&gt;PgSearch::Document -->
<g id="edge52" class="edge"><title>Talk&#45;&gt;PgSearch::Document</title>
<path fill="none" stroke="#53ed57" d="M539.223,-102.48C580.8,-96.0932 650.015,-84.7997 709,-72 739.972,-65.2791 746.774,-59.4184 778,-54 867.243,-38.5145 891.054,-46.6684 981,-36 991.607,-34.7419 1002.72,-33.2834 1013.72,-31.7519"/>
<ellipse fill="none" stroke="#53ed57" cx="535.241" cy="-103.088" rx="4.00001" ry="4.00001"/>
<ellipse fill="#53ed57" stroke="#53ed57" cx="1017.75" cy="-31.1842" rx="4.00001" ry="4.00001"/>
<text text-anchor="middle" x="850.5" y="-58.9" font-family="Times Roman,serif" font-size="14.00">pg_search_document</text>
</g>
<!-- Talk&#45;&gt;ActsAsTaggableOn::Tagging -->
<g id="edge34" class="edge"><title>Talk&#45;&gt;ActsAsTaggableOn::Tagging</title>
<path fill="none" stroke="#83b5d3" d="M471.563,-92.6148C459.473,-86.3752 445.495,-79 433,-72 419.434,-64.4004 417.34,-60.011 403,-54 385.948,-46.8524 367.109,-40.8246 348.95,-35.8678"/>
<ellipse fill="none" stroke="#83b5d3" cx="475.258" cy="-94.5124" rx="4.00002" ry="4.00002"/>
<polygon fill="#83b5d3" stroke="#83b5d3" points="348.907,-35.8564 340.39,-28.9483 344.073,-34.5775 339.239,-33.2986 339.239,-33.2986 339.239,-33.2986 344.073,-34.5775 338.089,-37.649 348.907,-35.8564 348.907,-35.8564"/>
<text text-anchor="middle" x="462.5" y="-58.9" font-family="Times Roman,serif" font-size="14.00">taggings</text>
</g>
<!-- Talk&#45;&gt;ActsAsTaggableOn::Tagging -->
<g id="edge38" class="edge"><title>Talk&#45;&gt;ActsAsTaggableOn::Tagging</title>
<path fill="none" stroke="#65d58b" d="M465.754,-99.8522C450.974,-96.6292 433.7,-92.9888 418,-90 370.196,-80.8995 352.346,-95.9758 310,-72 303.513,-68.3271 292.874,-56.0518 283.461,-44.1316"/>
<ellipse fill="none" stroke="#65d58b" cx="469.775" cy="-100.735" rx="4.00001" ry="4.00001"/>
<polygon fill="#65d58b" stroke="#65d58b" points="283.325,-43.9555 280.766,-33.2925 280.266,-40.0007 277.206,-36.0459 277.206,-36.0459 277.206,-36.0459 280.266,-40.0007 273.647,-38.7993 283.325,-43.9555 283.325,-43.9555"/>
<text text-anchor="middle" x="354.5" y="-58.9" font-family="Times Roman,serif" font-size="14.00">tag_taggings</text>
</g>
<!-- Talk&#45;&gt;ActsAsTaggableOn::Tag -->
<g id="edge36" class="edge"><title>Talk&#45;&gt;ActsAsTaggableOn::Tag</title>
<path fill="none" stroke="#6c491c" d="M523.219,-84.7073C535.461,-71.861 549.976,-57.7638 558,-54 623.986,-23.0478 648.673,-44.999 721,-36 731.473,-34.6969 742.412,-33.2761 753.306,-31.8228"/>
<polygon fill="#6c491c" stroke="#6c491c" points="523.183,-84.7461 513.059,-88.9598 519.762,-88.3925 516.341,-92.0388 516.341,-92.0388 516.341,-92.0388 519.762,-88.3925 519.622,-95.1179 523.183,-84.7461 523.183,-84.7461"/>
<polygon fill="#6c491c" stroke="#6c491c" points="753.372,-31.814 763.883,-34.9413 758.328,-31.1477 763.283,-30.4814 763.283,-30.4814 763.283,-30.4814 758.328,-31.1477 762.684,-26.0216 753.372,-31.814 753.372,-31.814"/>
<text text-anchor="middle" x="592.5" y="-58.9" font-family="Times Roman,serif" font-size="14.00">base_tags</text>
</g>
<!-- Talk&#45;&gt;ActsAsTaggableOn::Tag -->
<g id="edge40" class="edge"><title>Talk&#45;&gt;ActsAsTaggableOn::Tag</title>
<path fill="none" stroke="#80018e" d="M539.301,-98.0808C564.272,-91.239 597.792,-81.6659 627,-72 648.63,-64.8418 653.105,-60.3023 675,-54 702.627,-46.0476 733.178,-39.1546 760.965,-33.5891"/>
<polygon fill="#80018e" stroke="#80018e" points="539.149,-98.122 528.319,-96.4041 534.325,-99.4342 529.5,-100.746 529.5,-100.746 529.5,-100.746 534.325,-99.4342 530.681,-105.089 539.149,-98.122 539.149,-98.122"/>
<polygon fill="#80018e" stroke="#80018e" points="761.255,-33.532 771.936,-36.0143 766.161,-32.5656 771.067,-31.5992 771.067,-31.5992 771.067,-31.5992 766.161,-32.5656 770.197,-27.184 761.255,-33.532 761.255,-33.532"/>
<text text-anchor="middle" x="690" y="-58.9" font-family="Times Roman,serif" font-size="14.00">tags</text>
</g>
</g>
</svg>
