<?xml version="1.0" encoding="UTF-8" standalone="no"?>
<!DOCTYPE svg PUBLIC "-//W3C//DTD SVG 1.1//EN"
 "http://www.w3.org/Graphics/SVG/1.1/DTD/svg11.dtd">
<!-- Generated by graphviz version 2.26.3 (20100126.1600)
 -->
<!-- Title: models_diagram Pages: 1 -->
<svg width="1066pt" height="298pt"
 viewBox="0.00 0.00 1066.00 298.00" xmlns="http://www.w3.org/2000/svg" xmlns:xlink="http://www.w3.org/1999/xlink">
<g id="graph1" class="graph" transform="scale(1 1) rotate(0) translate(4 294)">
<title>models_diagram</title>
<polygon fill="white" stroke="white" points="-4,5 -4,-294 1063,-294 1063,5 -4,5"/>
<!-- User -->
<g id="node1" class="node"><title>User</title>
<ellipse fill="none" stroke="black" cx="266" cy="-272" rx="32.8565" ry="18"/>
<text text-anchor="middle" x="266" y="-267.9" font-family="Times Roman,serif" font-size="14.00">User</text>
</g>
<!-- Account -->
<g id="node2" class="node"><title>Account</title>
<ellipse fill="none" stroke="black" cx="50" cy="-182" rx="50.0315" ry="18"/>
<text text-anchor="middle" x="50" y="-177.9" font-family="Times Roman,serif" font-size="14.00">Account</text>
</g>
<!-- User&#45;&gt;Account -->
<g id="edge4" class="edge"><title>User&#45;&gt;Account</title>
<path fill="none" stroke="#300fae" d="M225.184,-267.592C193.52,-262.956 149.238,-253.754 114,-236 98.5542,-228.218 83.6426,-216.007 72.1044,-205.164"/>
<ellipse fill="none" stroke="#300fae" cx="229.392" cy="-268.177" rx="4.00001" ry="4.00001"/>
<ellipse fill="#300fae" stroke="#300fae" cx="68.9347" cy="-202.098" rx="4.00002" ry="4.00002"/>
</g>
<!-- Comment -->
<g id="node4" class="node"><title>Comment</title>
<ellipse fill="none" stroke="black" cx="215" cy="-18" rx="57.1737" ry="18"/>
<text text-anchor="middle" x="215" y="-13.9" font-family="Times Roman,serif" font-size="14.00">Comment</text>
</g>
<!-- User&#45;&gt;Comment -->
<g id="edge2" class="edge"><title>User&#45;&gt;Comment</title>
<path fill="none" stroke="#3bf520" d="M242.84,-250.37C213.898,-221.586 165.877,-167.584 147,-110 142.016,-94.7961 140.171,-88.4696 147,-74 153.576,-60.0655 165.508,-48.4254 177.562,-39.432"/>
<ellipse fill="none" stroke="#3bf520" cx="245.852" cy="-253.322" rx="4.00002" ry="4.00002"/>
<polygon fill="#3bf520" stroke="#3bf520" points="177.665,-39.3603 188.44,-37.3219 181.764,-36.4966 185.862,-33.633 185.862,-33.633 185.862,-33.633 181.764,-36.4966 183.285,-29.9441 177.665,-39.3603 177.665,-39.3603"/>
</g>
<!-- Participation -->
<g id="node5" class="node"><title>Participation</title>
<ellipse fill="none" stroke="black" cx="227" cy="-92" rx="71.0724" ry="18"/>
<text text-anchor="middle" x="227" y="-87.9" font-family="Times Roman,serif" font-size="14.00">Participation</text>
</g>
<!-- User&#45;&gt;Participation -->
<g id="edge8" class="edge"><title>User&#45;&gt;Participation</title>
<path fill="none" stroke="#647b5b" d="M260.421,-246.25C253.17,-212.785 240.554,-154.559 233.07,-120.018"/>
<ellipse fill="none" stroke="#647b5b" cx="261.271" cy="-250.174" rx="4.00001" ry="4.00001"/>
<polygon fill="#647b5b" stroke="#647b5b" points="233.042,-119.885 235.322,-109.159 231.983,-114.998 230.924,-110.112 230.924,-110.112 230.924,-110.112 231.983,-114.998 226.526,-111.065 233.042,-119.885 233.042,-119.885"/>
</g>
<!-- Venue -->
<g id="node6" class="node"><title>Venue</title>
<ellipse fill="none" stroke="black" cx="380" cy="-182" rx="41.1906" ry="18"/>
<text text-anchor="middle" x="380" y="-177.9" font-family="Times Roman,serif" font-size="14.00">Venue</text>
</g>
<!-- User&#45;&gt;Venue -->
<g id="edge6" class="edge"><title>User&#45;&gt;Venue</title>
<path fill="none" stroke="#53f1a5" d="M287.347,-250.527C304.449,-236.065 328.502,-217.092 347.89,-202.777"/>
<ellipse fill="none" stroke="#53f1a5" cx="284.102" cy="-253.307" rx="4.00002" ry="4.00002"/>
<polygon fill="#53f1a5" stroke="#53f1a5" points="348.071,-202.646 358.803,-200.395 352.112,-199.702 356.154,-196.758 356.154,-196.758 356.154,-196.758 352.112,-199.702 353.504,-193.12 348.071,-202.646 348.071,-202.646"/>
</g>
<!-- User&#45;&gt;Venue -->
<g id="edge10" class="edge"><title>User&#45;&gt;Venue</title>
<path fill="none" stroke="#c0ae0a" d="M304.81,-259.857C318.846,-254.162 334.142,-246.314 346,-236 354.678,-228.452 361.91,-218.145 367.44,-208.558"/>
<polygon fill="#c0ae0a" stroke="#c0ae0a" points="304.696,-259.9 293.75,-259.254 300.024,-261.679 295.351,-263.459 295.351,-263.459 295.351,-263.459 300.024,-261.679 296.953,-267.664 304.696,-259.9 304.696,-259.9"/>
<polygon fill="#c0ae0a" stroke="#c0ae0a" points="367.47,-208.503 376.175,-201.835 369.842,-204.102 372.214,-199.7 372.214,-199.7 372.214,-199.7 369.842,-204.102 368.252,-197.565 367.47,-208.503 367.47,-208.503"/>
<text text-anchor="middle" x="432" y="-222.9" font-family="Times Roman,serif" font-size="14.00">participating_venues</text>
</g>
<!-- Event -->
<g id="node3" class="node"><title>Event</title>
<ellipse fill="none" stroke="black" cx="355" cy="-92" rx="39.1069" ry="18"/>
<text text-anchor="middle" x="355" y="-87.9" font-family="Times Roman,serif" font-size="14.00">Event</text>
</g>
<!-- Venue&#45;&gt;User -->
<g id="edge26" class="edge"><title>Venue&#45;&gt;User</title>
<path fill="none" stroke="#9dca76" d="M356.301,-205.454C338.862,-220.081 315.188,-238.683 296.377,-252.499"/>
<polygon fill="#9dca76" stroke="#9dca76" points="356.699,-205.115 367.23,-202.057 360.505,-201.873 364.312,-198.631 364.312,-198.631 364.312,-198.631 360.505,-201.873 361.394,-195.205 356.699,-205.115 356.699,-205.115"/>
<polygon fill="#9dca76" stroke="#9dca76" points="296.15,-252.663 285.411,-254.881 292.1,-255.595 288.049,-258.526 288.049,-258.526 288.049,-258.526 292.1,-255.595 290.688,-262.172 296.15,-252.663 296.15,-252.663"/>
</g>
<!-- Venue&#45;&gt;Event -->
<g id="edge22" class="edge"><title>Venue&#45;&gt;Event</title>
<path fill="none" stroke="#4dc6b6" d="M372.77,-155.97C369.625,-144.651 365.936,-131.371 362.737,-119.854"/>
<ellipse fill="none" stroke="#4dc6b6" cx="373.87" cy="-159.933" rx="4.00001" ry="4.00001"/>
<polygon fill="#4dc6b6" stroke="#4dc6b6" points="362.643,-119.514 364.302,-108.674 361.305,-114.696 359.966,-109.879 359.966,-109.879 359.966,-109.879 361.305,-114.696 355.63,-111.083 362.643,-119.514 362.643,-119.514"/>
</g>
<!-- Venue&#45;&gt;Participation -->
<g id="edge24" class="edge"><title>Venue&#45;&gt;Participation</title>
<path fill="none" stroke="#24767e" d="M348.362,-163.389C323.804,-148.944 289.709,-128.888 263.908,-113.711"/>
<ellipse fill="none" stroke="#24767e" cx="351.97" cy="-165.512" rx="4.00002" ry="4.00002"/>
<polygon fill="#24767e" stroke="#24767e" points="263.777,-113.633 257.439,-104.684 259.467,-111.098 255.157,-108.563 255.157,-108.563 255.157,-108.563 259.467,-111.098 252.876,-112.442 263.777,-113.633 263.777,-113.633"/>
</g>
<!-- Article -->
<g id="node7" class="node"><title>Article</title>
<ellipse fill="none" stroke="black" cx="454" cy="-92" rx="41.8891" ry="18"/>
<text text-anchor="middle" x="454" y="-87.9" font-family="Times Roman,serif" font-size="14.00">Article</text>
</g>
<!-- Venue&#45;&gt;Article -->
<g id="edge20" class="edge"><title>Venue&#45;&gt;Article</title>
<path fill="none" stroke="#e721f1" d="M393.118,-157.066C398.663,-147.537 405.56,-136.844 413,-128 416.828,-123.449 421.245,-118.965 425.731,-114.789"/>
<ellipse fill="none" stroke="#e721f1" cx="391.124" cy="-160.594" rx="4.00002" ry="4.00002"/>
<polygon fill="#e721f1" stroke="#e721f1" points="425.784,-114.742 436.246,-111.456 429.519,-111.418 433.254,-108.094 433.254,-108.094 433.254,-108.094 429.519,-111.418 430.263,-104.733 425.784,-114.742 425.784,-114.742"/>
</g>
<!-- ActsAsTaggableOn::Tagging -->
<g id="node14" class="node"><title>ActsAsTaggableOn::Tagging</title>
<ellipse fill="none" stroke="black" cx="656" cy="-92" rx="141.756" ry="18"/>
<text text-anchor="middle" x="656" y="-87.9" font-family="Times Roman,serif" font-size="14.00">ActsAsTaggableOn::Tagging</text>
</g>
<!-- Venue&#45;&gt;ActsAsTaggableOn::Tagging -->
<g id="edge12" class="edge"><title>Venue&#45;&gt;ActsAsTaggableOn::Tagging</title>
<path fill="none" stroke="#fb67af" d="M407.007,-161.35C423.283,-149.876 444.891,-136.284 466,-128 490.003,-118.58 516.706,-111.572 542.328,-106.377"/>
<ellipse fill="none" stroke="#fb67af" cx="403.624" cy="-163.782" rx="4.00002" ry="4.00002"/>
<polygon fill="#fb67af" stroke="#fb67af" points="542.649,-106.314 553.325,-108.819 547.557,-105.358 552.465,-104.402 552.465,-104.402 552.465,-104.402 547.557,-105.358 551.604,-99.9851 542.649,-106.314 542.649,-106.314"/>
<text text-anchor="middle" x="495.5" y="-132.9" font-family="Times Roman,serif" font-size="14.00">taggings</text>
</g>
<!-- Venue&#45;&gt;ActsAsTaggableOn::Tagging -->
<g id="edge16" class="edge"><title>Venue&#45;&gt;ActsAsTaggableOn::Tagging</title>
<path fill="none" stroke="#9ba631" d="M425.26,-172.571C454.108,-166.119 492.112,-156.796 525,-146 553.165,-136.755 583.841,-124.248 608.423,-113.599"/>
<ellipse fill="none" stroke="#9ba631" cx="421.284" cy="-173.45" rx="4.00001" ry="4.00001"/>
<polygon fill="#9ba631" stroke="#9ba631" points="608.708,-113.475 619.673,-113.592 613.289,-111.472 617.87,-109.469 617.87,-109.469 617.87,-109.469 613.289,-111.472 616.067,-105.346 608.708,-113.475 608.708,-113.475"/>
<text text-anchor="middle" x="616.5" y="-132.9" font-family="Times Roman,serif" font-size="14.00">tag_taggings</text>
</g>
<!-- ActsAsTaggableOn::Tag -->
<g id="node16" class="node"><title>ActsAsTaggableOn::Tag</title>
<ellipse fill="none" stroke="black" cx="937" cy="-92" rx="121.104" ry="18"/>
<text text-anchor="middle" x="937" y="-87.9" font-family="Times Roman,serif" font-size="14.00">ActsAsTaggableOn::Tag</text>
</g>
<!-- Venue&#45;&gt;ActsAsTaggableOn::Tag -->
<g id="edge14" class="edge"><title>Venue&#45;&gt;ActsAsTaggableOn::Tag</title>
<path fill="none" stroke="#c39792" d="M430.443,-176.713C487.524,-170.479 583.202,-159.269 665,-146 730.653,-135.35 804.66,-120.468 858.884,-109.024"/>
<polygon fill="#c39792" stroke="#c39792" points="430.188,-176.741 419.761,-173.345 425.217,-177.28 420.246,-177.819 420.246,-177.819 420.246,-177.819 425.217,-177.28 420.731,-182.293 430.188,-176.741 430.188,-176.741"/>
<polygon fill="#c39792" stroke="#c39792" points="858.99,-109.002 869.705,-111.331 863.881,-107.965 868.772,-106.929 868.772,-106.929 868.772,-106.929 863.881,-107.965 867.84,-102.527 858.99,-109.002 858.99,-109.002"/>
<text text-anchor="middle" x="796.5" y="-132.9" font-family="Times Roman,serif" font-size="14.00">base_tags</text>
</g>
<!-- Venue&#45;&gt;ActsAsTaggableOn::Tag -->
<g id="edge18" class="edge"><title>Venue&#45;&gt;ActsAsTaggableOn::Tag</title>
<path fill="none" stroke="#ad5239" d="M431.328,-180.556C533.852,-177.243 760.517,-167.654 835,-146 858.752,-139.095 883.315,-126.292 902.384,-114.885"/>
<polygon fill="#ad5239" stroke="#ad5239" points="431.211,-180.559 421.074,-176.377 426.213,-180.717 421.216,-180.875 421.216,-180.875 421.216,-180.875 426.213,-180.717 421.358,-185.373 431.211,-180.559 431.211,-180.559"/>
<polygon fill="#ad5239" stroke="#ad5239" points="902.48,-114.827 913.358,-113.437 906.743,-112.213 911.006,-109.6 911.006,-109.6 911.006,-109.6 906.743,-112.213 908.654,-105.764 902.48,-114.827 902.48,-114.827"/>
<text text-anchor="middle" x="893" y="-132.9" font-family="Times Roman,serif" font-size="14.00">tags</text>
</g>
<!-- Article&#45;&gt;Comment -->
<g id="edge28" class="edge"><title>Article&#45;&gt;Comment</title>
<path fill="none" stroke="#de3c55" d="M414.079,-77.6971C410.342,-76.4226 406.605,-75.1723 403,-74 357.513,-59.2084 305.35,-43.7913 267.528,-32.8873"/>
<ellipse fill="none" stroke="#de3c55" cx="417.926" cy="-79.0249" rx="4.00001" ry="4.00001"/>
<polygon fill="#de3c55" stroke="#de3c55" points="267.358,-32.8384 258.99,-25.7509 262.552,-31.4571 257.747,-30.0758 257.747,-30.0758 257.747,-30.0758 262.552,-31.4571 256.504,-34.4007 267.358,-32.8384 267.358,-32.8384"/>
</g>
</g>
</svg>
