<?xml version="1.0" encoding="UTF-8" standalone="no"?>
<!DOCTYPE svg PUBLIC "-//W3C//DTD SVG 1.1//EN"
 "http://www.w3.org/Graphics/SVG/1.1/DTD/svg11.dtd">
<!-- Generated by graphviz version 2.26.3 (20100126.1600)
 -->
<!-- Title: models_diagram Pages: 1 -->
<svg width="1378pt" height="1260pt"
 viewBox="0.00 0.00 1378.00 1260.00" xmlns="http://www.w3.org/2000/svg" xmlns:xlink="http://www.w3.org/1999/xlink">
<g id="graph1" class="graph" transform="scale(1 1) rotate(0) translate(4 1256)">
<title>models_diagram</title>
<polygon fill="white" stroke="white" points="-4,5 -4,-1256 1375,-1256 1375,5 -4,5"/>
<!-- User -->
<g id="node1" class="node"><title>User</title>
<polyline fill="none" stroke="black" points="302,-810.5 532,-810.5 "/>
<path fill="none" stroke="black" d="M532,-810.5C538,-810.5 544,-816.5 544,-822.5"/>
<polyline fill="none" stroke="black" points="544,-822.5 544,-1239.5 "/>
<path fill="none" stroke="black" d="M544,-1239.5C544,-1245.5 538,-1251.5 532,-1251.5"/>
<polyline fill="none" stroke="black" points="532,-1251.5 302,-1251.5 "/>
<path fill="none" stroke="black" d="M302,-1251.5C296,-1251.5 290,-1245.5 290,-1239.5"/>
<polyline fill="none" stroke="black" points="290,-1239.5 290,-822.5 "/>
<path fill="none" stroke="black" d="M290,-822.5C290,-816.5 296,-810.5 302,-810.5"/>
<text text-anchor="middle" x="417" y="-1234.9" font-family="Times Roman,serif" font-size="14.00">User</text>
<polyline fill="none" stroke="black" points="290,-1226.5 544,-1226.5 "/>
<text text-anchor="start" x="298" y="-1209.9" font-family="Times Roman,serif" font-size="14.00">id :integer</text>
<text text-anchor="start" x="298" y="-1192.9" font-family="Times Roman,serif" font-size="14.00">firstname :string</text>
<text text-anchor="start" x="298" y="-1175.9" font-family="Times Roman,serif" font-size="14.00">lastname :string</text>
<text text-anchor="start" x="298" y="-1158.9" font-family="Times Roman,serif" font-size="14.00">created_at :datetime</text>
<text text-anchor="start" x="298" y="-1141.9" font-family="Times Roman,serif" font-size="14.00">updated_at :datetime</text>
<text text-anchor="start" x="298" y="-1124.9" font-family="Times Roman,serif" font-size="14.00">email :string</text>
<text text-anchor="start" x="298" y="-1107.9" font-family="Times Roman,serif" font-size="14.00">encrypted_password :string</text>
<text text-anchor="start" x="298" y="-1090.9" font-family="Times Roman,serif" font-size="14.00">reset_password_token :string</text>
<text text-anchor="start" x="298" y="-1073.9" font-family="Times Roman,serif" font-size="14.00">reset_password_sent_at :datetime</text>
<text text-anchor="start" x="298" y="-1056.9" font-family="Times Roman,serif" font-size="14.00">remember_created_at :datetime</text>
<text text-anchor="start" x="298" y="-1039.9" font-family="Times Roman,serif" font-size="14.00">sign_in_count :integer</text>
<text text-anchor="start" x="298" y="-1022.9" font-family="Times Roman,serif" font-size="14.00">current_sign_in_at :datetime</text>
<text text-anchor="start" x="298" y="-1005.9" font-family="Times Roman,serif" font-size="14.00">last_sign_in_at :datetime</text>
<text text-anchor="start" x="298" y="-988.9" font-family="Times Roman,serif" font-size="14.00">current_sign_in_ip :string</text>
<text text-anchor="start" x="298" y="-971.9" font-family="Times Roman,serif" font-size="14.00">last_sign_in_ip :string</text>
<text text-anchor="start" x="298" y="-954.9" font-family="Times Roman,serif" font-size="14.00">provider :string</text>
<text text-anchor="start" x="298" y="-937.9" font-family="Times Roman,serif" font-size="14.00">uid :string</text>
<text text-anchor="start" x="298" y="-920.9" font-family="Times Roman,serif" font-size="14.00">slug :text</text>
<text text-anchor="start" x="298" y="-903.9" font-family="Times Roman,serif" font-size="14.00">last_request_at :datetime</text>
<text text-anchor="start" x="298" y="-886.9" font-family="Times Roman,serif" font-size="14.00">available :string</text>
<text text-anchor="start" x="298" y="-869.9" font-family="Times Roman,serif" font-size="14.00">image_file_name :string</text>
<text text-anchor="start" x="298" y="-852.9" font-family="Times Roman,serif" font-size="14.00">image_content_type :string</text>
<text text-anchor="start" x="298" y="-835.9" font-family="Times Roman,serif" font-size="14.00">image_file_size :integer</text>
<text text-anchor="start" x="298" y="-818.9" font-family="Times Roman,serif" font-size="14.00">image_updated_at :datetime</text>
</g>
<!-- Account -->
<g id="node2" class="node"><title>Account</title>
<polyline fill="none" stroke="black" points="11.5,-467 212.5,-467 "/>
<path fill="none" stroke="black" d="M212.5,-467C218.5,-467 224.5,-473 224.5,-479"/>
<polyline fill="none" stroke="black" points="224.5,-479 224.5,-743 "/>
<path fill="none" stroke="black" d="M224.5,-743C224.5,-749 218.5,-755 212.5,-755"/>
<polyline fill="none" stroke="black" points="212.5,-755 11.5,-755 "/>
<path fill="none" stroke="black" d="M11.5,-755C5.5,-755 -0.5,-749 -0.5,-743"/>
<polyline fill="none" stroke="black" points="-0.5,-743 -0.5,-479 "/>
<path fill="none" stroke="black" d="M-0.5,-479C-0.5,-473 5.5,-467 11.5,-467"/>
<text text-anchor="middle" x="112" y="-738.4" font-family="Times Roman,serif" font-size="14.00">Account</text>
<polyline fill="none" stroke="black" points="-0.5,-730 224.5,-730 "/>
<text text-anchor="start" x="7.5" y="-713.4" font-family="Times Roman,serif" font-size="14.00">id :integer</text>
<text text-anchor="start" x="7.5" y="-696.4" font-family="Times Roman,serif" font-size="14.00">timezone :string</text>
<text text-anchor="start" x="7.5" y="-679.4" font-family="Times Roman,serif" font-size="14.00">language_1 :string</text>
<text text-anchor="start" x="7.5" y="-662.4" font-family="Times Roman,serif" font-size="14.00">language_2 :string</text>
<text text-anchor="start" x="7.5" y="-645.4" font-family="Times Roman,serif" font-size="14.00">language_3 :string</text>
<text text-anchor="start" x="7.5" y="-628.4" font-family="Times Roman,serif" font-size="14.00">user_id :integer</text>
<text text-anchor="start" x="7.5" y="-611.4" font-family="Times Roman,serif" font-size="14.00">about :text</text>
<text text-anchor="start" x="7.5" y="-594.4" font-family="Times Roman,serif" font-size="14.00">created_at :datetime</text>
<text text-anchor="start" x="7.5" y="-577.4" font-family="Times Roman,serif" font-size="14.00">updated_at :datetime</text>
<text text-anchor="start" x="7.5" y="-560.4" font-family="Times Roman,serif" font-size="14.00">portrait_file_name :string</text>
<text text-anchor="start" x="7.5" y="-543.4" font-family="Times Roman,serif" font-size="14.00">portrait_content_type :string</text>
<text text-anchor="start" x="7.5" y="-526.4" font-family="Times Roman,serif" font-size="14.00">portrait_file_size :integer</text>
<text text-anchor="start" x="7.5" y="-509.4" font-family="Times Roman,serif" font-size="14.00">portrait_updated_at :datetime</text>
<text text-anchor="start" x="7.5" y="-492.4" font-family="Times Roman,serif" font-size="14.00">prefs :text</text>
<text text-anchor="start" x="7.5" y="-475.4" font-family="Times Roman,serif" font-size="14.00">website :string</text>
</g>
<!-- User&#45;&gt;Account -->
<g id="edge4" class="edge"><title>User&#45;&gt;Account</title>
<path fill="none" stroke="#8b13c6" d="M284.929,-856.111C269.006,-834.599 253.06,-812.852 238,-792 230.92,-782.197 223.67,-772.058 216.398,-761.815"/>
<ellipse fill="none" stroke="#8b13c6" cx="287.488" cy="-859.565" rx="4.00002" ry="4.00002"/>
<ellipse fill="#8b13c6" stroke="#8b13c6" cx="213.931" cy="-758.335" rx="4.00002" ry="4.00002"/>
</g>
<!-- Comment -->
<g id="node4" class="node"><title>Comment</title>
<polyline fill="none" stroke="black" points="290,-0.5 462,-0.5 "/>
<path fill="none" stroke="black" d="M462,-0.5C468,-0.5 474,-6.5 474,-12.5"/>
<polyline fill="none" stroke="black" points="474,-12.5 474,-157.5 "/>
<path fill="none" stroke="black" d="M474,-157.5C474,-163.5 468,-169.5 462,-169.5"/>
<polyline fill="none" stroke="black" points="462,-169.5 290,-169.5 "/>
<path fill="none" stroke="black" d="M290,-169.5C284,-169.5 278,-163.5 278,-157.5"/>
<polyline fill="none" stroke="black" points="278,-157.5 278,-12.5 "/>
<path fill="none" stroke="black" d="M278,-12.5C278,-6.5 284,-0.5 290,-0.5"/>
<text text-anchor="middle" x="376" y="-152.9" font-family="Times Roman,serif" font-size="14.00">Comment</text>
<polyline fill="none" stroke="black" points="278,-144.5 474,-144.5 "/>
<text text-anchor="start" x="286" y="-127.9" font-family="Times Roman,serif" font-size="14.00">id :integer</text>
<text text-anchor="start" x="286" y="-110.9" font-family="Times Roman,serif" font-size="14.00">content :text</text>
<text text-anchor="start" x="286" y="-93.9" font-family="Times Roman,serif" font-size="14.00">user_id :integer</text>
<text text-anchor="start" x="286" y="-76.9" font-family="Times Roman,serif" font-size="14.00">created_at :datetime</text>
<text text-anchor="start" x="286" y="-59.9" font-family="Times Roman,serif" font-size="14.00">updated_at :datetime</text>
<text text-anchor="start" x="286" y="-42.9" font-family="Times Roman,serif" font-size="14.00">article_id :integer</text>
<text text-anchor="start" x="286" y="-25.9" font-family="Times Roman,serif" font-size="14.00">commentable_id :integer</text>
<text text-anchor="start" x="286" y="-8.9" font-family="Times Roman,serif" font-size="14.00">commentable_type :string</text>
</g>
<!-- User&#45;&gt;Comment -->
<g id="edge2" class="edge"><title>User&#45;&gt;Comment</title>
<path fill="none" stroke="#bc1773" d="M349.747,-802.512C319.075,-686.654 286.248,-543.065 271,-412 260.523,-321.941 239.629,-293.067 271,-208 274.756,-197.815 279.773,-187.901 285.583,-178.408"/>
<ellipse fill="none" stroke="#bc1773" cx="350.83" cy="-806.588" rx="4.00001" ry="4.00001"/>
<polygon fill="#bc1773" stroke="#bc1773" points="285.708,-178.215 294.911,-172.252 288.419,-174.014 291.13,-169.813 291.13,-169.813 291.13,-169.813 288.419,-174.014 287.348,-167.373 285.708,-178.215 285.708,-178.215"/>
</g>
<!-- Participation -->
<g id="node5" class="node"><title>Participation</title>
<polyline fill="none" stroke="black" points="291.5,-251 432.5,-251 "/>
<path fill="none" stroke="black" d="M432.5,-251C438.5,-251 444.5,-257 444.5,-263"/>
<polyline fill="none" stroke="black" points="444.5,-263 444.5,-357 "/>
<path fill="none" stroke="black" d="M444.5,-357C444.5,-363 438.5,-369 432.5,-369"/>
<polyline fill="none" stroke="black" points="432.5,-369 291.5,-369 "/>
<path fill="none" stroke="black" d="M291.5,-369C285.5,-369 279.5,-363 279.5,-357"/>
<polyline fill="none" stroke="black" points="279.5,-357 279.5,-263 "/>
<path fill="none" stroke="black" d="M279.5,-263C279.5,-257 285.5,-251 291.5,-251"/>
<text text-anchor="middle" x="362" y="-352.4" font-family="Times Roman,serif" font-size="14.00">Participation</text>
<polyline fill="none" stroke="black" points="279.5,-344 444.5,-344 "/>
<text text-anchor="start" x="287.5" y="-327.4" font-family="Times Roman,serif" font-size="14.00">id :integer</text>
<text text-anchor="start" x="287.5" y="-310.4" font-family="Times Roman,serif" font-size="14.00">venue_id :integer</text>
<text text-anchor="start" x="287.5" y="-293.4" font-family="Times Roman,serif" font-size="14.00">user_id :integer</text>
<text text-anchor="start" x="287.5" y="-276.4" font-family="Times Roman,serif" font-size="14.00">created_at :datetime</text>
<text text-anchor="start" x="287.5" y="-259.4" font-family="Times Roman,serif" font-size="14.00">updated_at :datetime</text>
</g>
<!-- User&#45;&gt;Participation -->
<g id="edge8" class="edge"><title>User&#45;&gt;Participation</title>
<path fill="none" stroke="#9db5eb" d="M399.544,-802.164C388.384,-655.866 374.665,-476.031 367.291,-379.363"/>
<ellipse fill="none" stroke="#9db5eb" cx="399.858" cy="-806.279" rx="4" ry="4"/>
<polygon fill="#9db5eb" stroke="#9db5eb" points="367.272,-379.104 370.998,-368.79 366.891,-374.118 366.511,-369.133 366.511,-369.133 366.511,-369.133 366.891,-374.118 362.024,-369.475 367.272,-379.104 367.272,-379.104"/>
</g>
<!-- Venue -->
<g id="node6" class="node"><title>Venue</title>
<polyline fill="none" stroke="black" points="474,-475.5 664,-475.5 "/>
<path fill="none" stroke="black" d="M664,-475.5C670,-475.5 676,-481.5 676,-487.5"/>
<polyline fill="none" stroke="black" points="676,-487.5 676,-734.5 "/>
<path fill="none" stroke="black" d="M676,-734.5C676,-740.5 670,-746.5 664,-746.5"/>
<polyline fill="none" stroke="black" points="664,-746.5 474,-746.5 "/>
<path fill="none" stroke="black" d="M474,-746.5C468,-746.5 462,-740.5 462,-734.5"/>
<polyline fill="none" stroke="black" points="462,-734.5 462,-487.5 "/>
<path fill="none" stroke="black" d="M462,-487.5C462,-481.5 468,-475.5 474,-475.5"/>
<text text-anchor="middle" x="569" y="-729.9" font-family="Times Roman,serif" font-size="14.00">Venue</text>
<polyline fill="none" stroke="black" points="462,-721.5 676,-721.5 "/>
<text text-anchor="start" x="470" y="-704.9" font-family="Times Roman,serif" font-size="14.00">id :integer</text>
<text text-anchor="start" x="470" y="-687.9" font-family="Times Roman,serif" font-size="14.00">start_time :datetime</text>
<text text-anchor="start" x="470" y="-670.9" font-family="Times Roman,serif" font-size="14.00">description :text</text>
<text text-anchor="start" x="470" y="-653.9" font-family="Times Roman,serif" font-size="14.00">title :string</text>
<text text-anchor="start" x="470" y="-636.9" font-family="Times Roman,serif" font-size="14.00">created_at :datetime</text>
<text text-anchor="start" x="470" y="-619.9" font-family="Times Roman,serif" font-size="14.00">updated_at :datetime</text>
<text text-anchor="start" x="470" y="-602.9" font-family="Times Roman,serif" font-size="14.00">duration :integer</text>
<text text-anchor="start" x="470" y="-585.9" font-family="Times Roman,serif" font-size="14.00">summary :text</text>
<text text-anchor="start" x="470" y="-568.9" font-family="Times Roman,serif" font-size="14.00">featured_from :datetime</text>
<text text-anchor="start" x="470" y="-551.9" font-family="Times Roman,serif" font-size="14.00">user_id :integer</text>
<text text-anchor="start" x="470" y="-534.9" font-family="Times Roman,serif" font-size="14.00">image_file_name :string</text>
<text text-anchor="start" x="470" y="-517.9" font-family="Times Roman,serif" font-size="14.00">image_content_type :string</text>
<text text-anchor="start" x="470" y="-500.9" font-family="Times Roman,serif" font-size="14.00">image_file_size :integer</text>
<text text-anchor="start" x="470" y="-483.9" font-family="Times Roman,serif" font-size="14.00">image_updated_at :datetime</text>
</g>
<!-- User&#45;&gt;Venue -->
<g id="edge6" class="edge"><title>User&#45;&gt;Venue</title>
<path fill="none" stroke="#61b9d5" d="M492.921,-802.629C498.626,-786.977 504.33,-771.461 509.909,-756.434"/>
<ellipse fill="none" stroke="#61b9d5" cx="491.521" cy="-806.479" rx="4.00001" ry="4.00001"/>
<polygon fill="#61b9d5" stroke="#61b9d5" points="510.068,-756.005 517.773,-748.202 511.812,-751.319 513.555,-746.633 513.555,-746.633 513.555,-746.633 511.812,-751.319 509.337,-745.064 510.068,-756.005 510.068,-756.005"/>
</g>
<!-- User&#45;&gt;Venue -->
<g id="edge10" class="edge"><title>User&#45;&gt;Venue</title>
<path fill="none" stroke="#2464a4" d="M525.923,-800.858C526.973,-797.896 527.999,-794.942 529,-792 532.884,-780.581 536.488,-768.625 539.811,-756.536"/>
<polygon fill="#2464a4" stroke="#2464a4" points="525.893,-800.944 518.261,-808.819 524.193,-805.646 522.494,-810.348 522.494,-810.348 522.494,-810.348 524.193,-805.646 526.726,-811.878 525.893,-800.944 525.893,-800.944"/>
<polygon fill="#2464a4" stroke="#2464a4" points="539.827,-756.478 546.763,-747.984 541.122,-751.648 542.416,-746.819 542.416,-746.819 542.416,-746.819 541.122,-751.648 538.07,-745.654 539.827,-756.478 539.827,-756.478"/>
<text text-anchor="middle" x="605" y="-778.9" font-family="Times Roman,serif" font-size="14.00">participating_venues</text>
</g>
<!-- Event -->
<g id="node3" class="node"><title>Event</title>
<polyline fill="none" stroke="black" points="473.5,-208.5 614.5,-208.5 "/>
<path fill="none" stroke="black" d="M614.5,-208.5C620.5,-208.5 626.5,-214.5 626.5,-220.5"/>
<polyline fill="none" stroke="black" points="626.5,-220.5 626.5,-399.5 "/>
<path fill="none" stroke="black" d="M626.5,-399.5C626.5,-405.5 620.5,-411.5 614.5,-411.5"/>
<polyline fill="none" stroke="black" points="614.5,-411.5 473.5,-411.5 "/>
<path fill="none" stroke="black" d="M473.5,-411.5C467.5,-411.5 461.5,-405.5 461.5,-399.5"/>
<polyline fill="none" stroke="black" points="461.5,-399.5 461.5,-220.5 "/>
<path fill="none" stroke="black" d="M461.5,-220.5C461.5,-214.5 467.5,-208.5 473.5,-208.5"/>
<text text-anchor="middle" x="544" y="-394.9" font-family="Times Roman,serif" font-size="14.00">Event</text>
<polyline fill="none" stroke="black" points="461.5,-386.5 626.5,-386.5 "/>
<text text-anchor="start" x="469.5" y="-369.9" font-family="Times Roman,serif" font-size="14.00">id :integer</text>
<text text-anchor="start" x="469.5" y="-352.9" font-family="Times Roman,serif" font-size="14.00">start_time :datetime</text>
<text text-anchor="start" x="469.5" y="-335.9" font-family="Times Roman,serif" font-size="14.00">duration :integer</text>
<text text-anchor="start" x="469.5" y="-318.9" font-family="Times Roman,serif" font-size="14.00">venue_id :integer</text>
<text text-anchor="start" x="469.5" y="-301.9" font-family="Times Roman,serif" font-size="14.00">created_at :datetime</text>
<text text-anchor="start" x="469.5" y="-284.9" font-family="Times Roman,serif" font-size="14.00">updated_at :datetime</text>
<text text-anchor="start" x="469.5" y="-267.9" font-family="Times Roman,serif" font-size="14.00">record :boolean</text>
<text text-anchor="start" x="469.5" y="-250.9" font-family="Times Roman,serif" font-size="14.00">title :string</text>
<text text-anchor="start" x="469.5" y="-233.9" font-family="Times Roman,serif" font-size="14.00">recording :string</text>
<text text-anchor="start" x="469.5" y="-216.9" font-family="Times Roman,serif" font-size="14.00">end_at :datetime</text>
</g>
<!-- Venue&#45;&gt;User -->
<g id="edge26" class="edge"><title>Venue&#45;&gt;User</title>
<path fill="none" stroke="#9c4581" d="M522.948,-756.084C517.841,-770.572 512.521,-785.517 507.103,-800.604"/>
<polygon fill="#9c4581" stroke="#9c4581" points="522.954,-756.066 530.518,-748.126 524.614,-751.35 526.273,-746.633 526.273,-746.633 526.273,-746.633 524.614,-751.35 522.028,-745.14 522.954,-756.066 522.954,-756.066"/>
<polygon fill="#9c4581" stroke="#9c4581" points="507.022,-800.828 499.403,-808.714 505.33,-805.533 503.637,-810.238 503.637,-810.238 503.637,-810.238 505.33,-805.533 507.871,-811.761 507.022,-800.828 507.022,-800.828"/>
</g>
<!-- Venue&#45;&gt;Event -->
<g id="edge22" class="edge"><title>Venue&#45;&gt;Event</title>
<path fill="none" stroke="#b5aa2a" d="M557.076,-467.437C555.809,-452.186 554.535,-436.84 553.305,-422.026"/>
<ellipse fill="none" stroke="#b5aa2a" cx="557.412" cy="-471.483" rx="4" ry="4"/>
<polygon fill="#b5aa2a" stroke="#b5aa2a" points="553.288,-421.83 556.945,-411.491 552.874,-416.847 552.46,-411.864 552.46,-411.864 552.46,-411.864 552.874,-416.847 547.976,-412.236 553.288,-421.83 553.288,-421.83"/>
</g>
<!-- Venue&#45;&gt;Participation -->
<g id="edge24" class="edge"><title>Venue&#45;&gt;Participation</title>
<path fill="none" stroke="#ac9a44" d="M470.977,-468.464C449.212,-436.815 427.123,-404.695 408.574,-377.724"/>
<ellipse fill="none" stroke="#ac9a44" cx="473.528" cy="-472.173" rx="4.00002" ry="4.00002"/>
<polygon fill="#ac9a44" stroke="#ac9a44" points="408.348,-377.395 406.389,-366.605 405.515,-373.275 402.681,-369.155 402.681,-369.155 402.681,-369.155 405.515,-373.275 398.974,-371.705 408.348,-377.395 408.348,-377.395"/>
</g>
<!-- Article -->
<g id="node7" class="node"><title>Article</title>
<polyline fill="none" stroke="black" points="655.5,-234 796.5,-234 "/>
<path fill="none" stroke="black" d="M796.5,-234C802.5,-234 808.5,-240 808.5,-246"/>
<polyline fill="none" stroke="black" points="808.5,-246 808.5,-374 "/>
<path fill="none" stroke="black" d="M808.5,-374C808.5,-380 802.5,-386 796.5,-386"/>
<polyline fill="none" stroke="black" points="796.5,-386 655.5,-386 "/>
<path fill="none" stroke="black" d="M655.5,-386C649.5,-386 643.5,-380 643.5,-374"/>
<polyline fill="none" stroke="black" points="643.5,-374 643.5,-246 "/>
<path fill="none" stroke="black" d="M643.5,-246C643.5,-240 649.5,-234 655.5,-234"/>
<text text-anchor="middle" x="726" y="-369.4" font-family="Times Roman,serif" font-size="14.00">Article</text>
<polyline fill="none" stroke="black" points="643.5,-361 808.5,-361 "/>
<text text-anchor="start" x="651.5" y="-344.4" font-family="Times Roman,serif" font-size="14.00">id :integer</text>
<text text-anchor="start" x="651.5" y="-327.4" font-family="Times Roman,serif" font-size="14.00">venue_id :integer</text>
<text text-anchor="start" x="651.5" y="-310.4" font-family="Times Roman,serif" font-size="14.00">content :text</text>
<text text-anchor="start" x="651.5" y="-293.4" font-family="Times Roman,serif" font-size="14.00">user_id :integer</text>
<text text-anchor="start" x="651.5" y="-276.4" font-family="Times Roman,serif" font-size="14.00">created_at :datetime</text>
<text text-anchor="start" x="651.5" y="-259.4" font-family="Times Roman,serif" font-size="14.00">updated_at :datetime</text>
<text text-anchor="start" x="651.5" y="-242.4" font-family="Times Roman,serif" font-size="14.00">deleted_at :datetime</text>
</g>
<!-- Venue&#45;&gt;Article -->
<g id="edge20" class="edge"><title>Venue&#45;&gt;Article</title>
<path fill="none" stroke="#02c6b4" d="M595.713,-467.479C600.786,-454.35 606.821,-441.632 614,-430 620.456,-419.539 626.222,-420.606 635,-412 640.968,-406.149 647.017,-399.977 653.01,-393.684"/>
<ellipse fill="none" stroke="#02c6b4" cx="594.225" cy="-471.501" rx="4.00001" ry="4.00001"/>
<polygon fill="#02c6b4" stroke="#02c6b4" points="653.155,-393.53 663.288,-389.338 656.584,-389.891 660.013,-386.252 660.013,-386.252 660.013,-386.252 656.584,-389.891 656.738,-383.166 653.155,-393.53 653.155,-393.53"/>
</g>
<!-- ActsAsTaggableOn::Tagging -->
<g id="node14" class="node"><title>ActsAsTaggableOn::Tagging</title>
<ellipse fill="none" stroke="black" cx="968" cy="-310" rx="141.756" ry="18"/>
<text text-anchor="middle" x="968" y="-305.9" font-family="Times Roman,serif" font-size="14.00">ActsAsTaggableOn::Tagging</text>
</g>
<!-- Venue&#45;&gt;ActsAsTaggableOn::Tagging -->
<g id="edge12" class="edge"><title>Venue&#45;&gt;ActsAsTaggableOn::Tagging</title>
<path fill="none" stroke="#464cf6" d="M639.334,-468.926C651.74,-453.906 665.926,-440.362 682,-430 732.875,-397.202 760.42,-433.512 817,-412 864.369,-393.991 911.58,-358.582 940.284,-334.6"/>
<ellipse fill="none" stroke="#464cf6" cx="636.621" cy="-472.323" rx="4.00002" ry="4.00002"/>
<polygon fill="#464cf6" stroke="#464cf6" points="940.601,-334.331 951.137,-331.291 944.413,-331.096 948.225,-327.86 948.225,-327.86 948.225,-327.86 944.413,-331.096 945.314,-324.429 940.601,-334.331 940.601,-334.331"/>
<text text-anchor="middle" x="711.5" y="-434.9" font-family="Times Roman,serif" font-size="14.00">taggings</text>
</g>
<!-- Venue&#45;&gt;ActsAsTaggableOn::Tagging -->
<g id="edge16" class="edge"><title>Venue&#45;&gt;ActsAsTaggableOn::Tagging</title>
<path fill="none" stroke="#e5e740" d="M682.684,-525.238C769.024,-460.105 881.858,-374.984 936.124,-334.047"/>
<ellipse fill="none" stroke="#e5e740" cx="679.38" cy="-527.731" rx="4.00002" ry="4.00002"/>
<polygon fill="#e5e740" stroke="#e5e740" points="936.334,-333.888 947.027,-331.458 940.326,-330.877 944.317,-327.866 944.317,-327.866 944.317,-327.866 940.326,-330.877 941.607,-324.274 936.334,-333.888 936.334,-333.888"/>
<text text-anchor="middle" x="848.5" y="-434.9" font-family="Times Roman,serif" font-size="14.00">tag_taggings</text>
</g>
<!-- ActsAsTaggableOn::Tag -->
<g id="node16" class="node"><title>ActsAsTaggableOn::Tag</title>
<ellipse fill="none" stroke="black" cx="1249" cy="-310" rx="121.104" ry="18"/>
<text text-anchor="middle" x="1249" y="-305.9" font-family="Times Roman,serif" font-size="14.00">ActsAsTaggableOn::Tag</text>
</g>
<!-- Venue&#45;&gt;ActsAsTaggableOn::Tag -->
<g id="edge14" class="edge"><title>Venue&#45;&gt;ActsAsTaggableOn::Tag</title>
<path fill="none" stroke="#8c403a" d="M686.04,-580.429C800.662,-547.821 978.126,-490.103 1119,-412 1157.94,-390.411 1197.45,-357.509 1222.52,-334.946"/>
<polygon fill="#8c403a" stroke="#8c403a" points="685.804,-580.496 674.957,-578.885 680.992,-581.856 676.181,-583.216 676.181,-583.216 676.181,-583.216 680.992,-581.856 677.405,-587.546 685.804,-580.496 685.804,-580.496"/>
<polygon fill="#8c403a" stroke="#8c403a" points="1222.74,-334.745 1233.16,-331.338 1226.44,-331.378 1230.13,-328.011 1230.13,-328.011 1230.13,-328.011 1226.44,-331.378 1227.1,-324.684 1222.74,-334.745 1222.74,-334.745"/>
<text text-anchor="middle" x="1111.5" y="-434.9" font-family="Times Roman,serif" font-size="14.00">base_tags</text>
</g>
<!-- Venue&#45;&gt;ActsAsTaggableOn::Tag -->
<g id="edge18" class="edge"><title>Venue&#45;&gt;ActsAsTaggableOn::Tag</title>
<path fill="none" stroke="#f3a01e" d="M686.078,-601.113C810.863,-585.651 1009.43,-546.454 1150,-448 1190.71,-419.486 1220.73,-368.692 1236.49,-337.32"/>
<polygon fill="#f3a01e" stroke="#f3a01e" points="686.033,-601.119 675.565,-597.85 681.069,-601.718 676.105,-602.318 676.105,-602.318 676.105,-602.318 681.069,-601.718 676.645,-606.785 686.033,-601.119 686.033,-601.119"/>
<polygon fill="#f3a01e" stroke="#f3a01e" points="1236.53,-337.239 1244.96,-330.229 1238.72,-332.747 1240.92,-328.254 1240.92,-328.254 1240.92,-328.254 1238.72,-332.747 1236.87,-326.279 1236.53,-337.239 1236.53,-337.239"/>
<text text-anchor="middle" x="1186" y="-434.9" font-family="Times Roman,serif" font-size="14.00">tags</text>
</g>
<!-- Article&#45;&gt;Comment -->
<g id="edge28" class="edge"><title>Article&#45;&gt;Comment</title>
<path fill="none" stroke="#15524f" d="M658.607,-228.184C651.022,-220.939 643.098,-214.065 635,-208 589.149,-173.658 532.181,-145.336 483.357,-124.561"/>
<ellipse fill="none" stroke="#15524f" cx="661.478" cy="-230.992" rx="4.00002" ry="4.00002"/>
<polygon fill="#15524f" stroke="#15524f" points="483.242,-124.513 475.767,-116.49 478.633,-122.575 474.023,-120.638 474.023,-120.638 474.023,-120.638 478.633,-122.575 472.28,-124.787 483.242,-124.513 483.242,-124.513"/>
</g>
</g>
</svg>
