<?xml version="1.0" encoding="UTF-8" standalone="no"?>
<!DOCTYPE svg PUBLIC "-//W3C//DTD SVG 1.1//EN"
 "http://www.w3.org/Graphics/SVG/1.1/DTD/svg11.dtd">
<!-- Generated by graphviz version 2.26.3 (20100126.1600)
 -->
<!-- Title: G Pages: 1 -->
<svg width="881pt" height="290pt"
 viewBox="0.00 0.00 881.00 290.00" xmlns="http://www.w3.org/2000/svg" xmlns:xlink="http://www.w3.org/1999/xlink">
<g id="graph1" class="graph" transform="scale(1 1) rotate(0) translate(4 286)">
<title>G</title>
<polygon fill="white" stroke="white" points="-4,5 -4,-286 878,-286 878,5 -4,5"/>
<!-- EC2 -->
<g id="node1" class="node"><title>EC2</title>
<polygon fill="none" stroke="black" points="54,-36 2.13163e-14,-36 0,-1.77636e-14 54,-3.55271e-15 54,-36"/>
<text text-anchor="middle" x="27" y="-15.8" font-family="Bitstream Vera Sans" font-size="8.00">EC2</text>
</g>
<!-- Slack -->
<g id="node2" class="node"><title>Slack</title>
<polygon fill="none" stroke="black" points="645,-36 591,-36 591,-1.77636e-14 645,-3.55271e-15 645,-36"/>
<text text-anchor="middle" x="618" y="-15.8" font-family="Bitstream Vera Sans" font-size="8.00">Slack</text>
</g>
<!-- Icecast -->
<g id="node3" class="node"><title>Icecast</title>
<polygon fill="none" stroke="black" points="234,-36 180,-36 180,-1.77636e-14 234,-3.55271e-15 234,-36"/>
<text text-anchor="middle" x="207" y="-15.8" font-family="Bitstream Vera Sans" font-size="8.00">Icecast</text>
</g>
<!-- CloseIO -->
<g id="node4" class="node"><title>CloseIO</title>
<polygon fill="none" stroke="black" points="567,-36 513,-36 513,-1.77636e-14 567,-3.55271e-15 567,-36"/>
<text text-anchor="middle" x="540" y="-15.8" font-family="Bitstream Vera Sans" font-size="8.00">CloseIO</text>
</g>
<!-- StreamerFSM -->
<g id="node5" class="node"><title>StreamerFSM</title>
<ellipse fill="none" stroke="black" cx="244" cy="-264" rx="42.2213" ry="18"/>
<text text-anchor="middle" x="244" y="-261.8" font-family="Bitstream Vera Sans" font-size="8.00">StreamerFSM</text>
</g>
<!-- ControlCenter -->
<g id="node7" class="node"><title>ControlCenter</title>
<ellipse fill="none" stroke="black" cx="244" cy="-182" rx="43.8786" ry="18"/>
<text text-anchor="middle" x="244" y="-179.8" font-family="Bitstream Vera Sans" font-size="8.00">ControlCenter</text>
</g>
<!-- StreamerFSM&#45;&gt;ControlCenter -->
<g id="edge2" class="edge"><title>StreamerFSM&#45;&gt;ControlCenter</title>
<path fill="none" stroke="black" d="M244,-245.802C244,-235.398 244,-222.122 244,-210.377"/>
<polygon fill="black" stroke="black" points="244,-200.148 248.5,-210.148 244,-205.148 244,-210.148 244,-210.148 244,-210.148 244,-205.148 239.5,-210.148 244,-200.148 244,-200.148"/>
<text text-anchor="middle" x="278.5" y="-220.8" font-family="Bitstream Vera Sans" font-size="8.00">streamer_ready</text>
</g>
<!-- EC2Spawner -->
<g id="node9" class="node"><title>EC2Spawner</title>
<ellipse fill="none" stroke="black" cx="80" cy="-264" rx="40.9919" ry="18"/>
<text text-anchor="middle" x="80" y="-261.8" font-family="Bitstream Vera Sans" font-size="8.00">EC2Spawner</text>
</g>
<!-- ControlCenter&#45;&gt;EC2Spawner -->
<g id="edge4" class="edge"><title>ControlCenter&#45;&gt;EC2Spawner</title>
<path fill="none" stroke="black" d="M216.055,-195.973C188.571,-209.714 146.477,-230.761 116.393,-245.803"/>
<polygon fill="black" stroke="black" points="107.081,-250.459 114.013,-241.962 111.553,-248.223 116.026,-245.987 116.026,-245.987 116.026,-245.987 111.553,-248.223 118.038,-250.012 107.081,-250.459 107.081,-250.459"/>
<text text-anchor="middle" x="202.5" y="-220.8" font-family="Bitstream Vera Sans" font-size="8.00">spawn_server</text>
</g>
<!-- Client -->
<g id="node13" class="node"><title>Client</title>
<ellipse fill="none" stroke="black" cx="381" cy="-100" rx="27" ry="18"/>
<text text-anchor="middle" x="381" y="-97.8" font-family="Bitstream Vera Sans" font-size="8.00">Client</text>
</g>
<!-- ControlCenter&#45;&gt;Client -->
<g id="edge10" class="edge"><title>ControlCenter&#45;&gt;Client</title>
<path fill="none" stroke="black" d="M287.02,-178.081C328.492,-173.307 386.973,-163.607 401,-146 406.148,-139.538 404.733,-131.548 400.913,-124.049"/>
<polygon fill="black" stroke="black" points="395.573,-115.594 404.718,-121.646 398.243,-119.821 400.913,-124.049 400.913,-124.049 400.913,-124.049 398.243,-119.821 397.108,-126.452 395.573,-115.594 395.573,-115.594"/>
<text text-anchor="middle" x="451" y="-138.8" font-family="Bitstream Vera Sans" font-size="8.00">set_streaming_server</text>
</g>
<!-- EC2Reaper -->
<g id="node17" class="node"><title>EC2Reaper</title>
<ellipse fill="none" stroke="black" cx="66" cy="-100" rx="35.8748" ry="18"/>
<text text-anchor="middle" x="66" y="-97.8" font-family="Bitstream Vera Sans" font-size="8.00">EC2Reaper</text>
</g>
<!-- ControlCenter&#45;&gt;EC2Reaper -->
<g id="edge14" class="edge"><title>ControlCenter&#45;&gt;EC2Reaper</title>
<path fill="none" stroke="black" d="M201.062,-177.786C157.9,-172.683 95.3445,-162.637 78,-146 73.1531,-141.351 70.1751,-135.009 68.3676,-128.521"/>
<polygon fill="black" stroke="black" points="66.3903,-118.427 72.7288,-127.376 67.3515,-123.334 68.3127,-128.241 68.3127,-128.241 68.3127,-128.241 67.3515,-123.334 63.8966,-129.106 66.3903,-118.427 66.3903,-118.427"/>
<text text-anchor="middle" x="104" y="-138.8" font-family="Bitstream Vera Sans" font-size="8.00">reap_server</text>
</g>
<!-- IcecastObserver -->
<g id="node20" class="node"><title>IcecastObserver</title>
<ellipse fill="none" stroke="black" cx="207" cy="-100" rx="49.1506" ry="18"/>
<text text-anchor="middle" x="207" y="-97.8" font-family="Bitstream Vera Sans" font-size="8.00">IcecastObserver</text>
</g>
<!-- ControlCenter&#45;&gt;IcecastObserver -->
<g id="edge18" class="edge"><title>ControlCenter&#45;&gt;IcecastObserver</title>
<path fill="none" stroke="black" d="M204.641,-173.801C177.607,-167.279 145.178,-157.38 137,-146 127.316,-132.525 140.173,-121.923 157.4,-114.31"/>
<polygon fill="black" stroke="black" points="166.711,-110.603 159.086,-118.483 162.066,-112.452 157.421,-114.302 157.421,-114.302 157.421,-114.302 162.066,-112.452 155.756,-110.122 166.711,-110.603 166.711,-110.603"/>
<text text-anchor="middle" x="179.5" y="-138.8" font-family="Bitstream Vera Sans" font-size="8.00">new_icecast_server</text>
</g>
<!-- Techne -->
<g id="node25" class="node"><title>Techne</title>
<ellipse fill="none" stroke="black" cx="540" cy="-100" rx="27" ry="18"/>
<text text-anchor="middle" x="540" y="-97.8" font-family="Bitstream Vera Sans" font-size="8.00">Techne</text>
</g>
<!-- ControlCenter&#45;&gt;Techne -->
<g id="edge26" class="edge"><title>ControlCenter&#45;&gt;Techne</title>
<path fill="none" stroke="black" d="M287.73,-179.714C351.46,-175.747 466.17,-166.018 502,-146 510.766,-141.102 518.342,-133.318 524.372,-125.536"/>
<polygon fill="black" stroke="black" points="530.292,-117.228 528.154,-127.984 527.39,-121.3 524.489,-125.372 524.489,-125.372 524.489,-125.372 527.39,-121.3 520.824,-122.761 530.292,-117.228 530.292,-117.228"/>
<text text-anchor="middle" x="539" y="-138.8" font-family="Bitstream Vera Sans" font-size="8.00">create_task</text>
</g>
<!-- EC2Spawner&#45;&gt;EC2 -->
<g id="edge6" class="edge"><title>EC2Spawner&#45;&gt;EC2</title>
<path fill="none" stroke="black" d="M70.2068,-246.256C56.027,-219.445 30.4435,-166.573 21,-118 16.3576,-94.1216 18.5788,-66.4859 21.5496,-46.3258"/>
<polygon fill="black" stroke="black" points="23.1885,-36.2457 26.0253,-46.8382 22.386,-41.1809 21.5836,-46.1161 21.5836,-46.1161 21.5836,-46.1161 22.386,-41.1809 17.1419,-45.3939 23.1885,-36.2457 23.1885,-36.2457"/>
<text text-anchor="middle" x="44" y="-138.8" font-family="Bitstream Vera Sans" font-size="8.00">_create</text>
</g>
<!-- EC2Spawner&#45;&gt;ControlCenter -->
<g id="edge8" class="edge"><title>EC2Spawner&#45;&gt;ControlCenter</title>
<path fill="none" stroke="black" d="M80.4442,-245.629C81.6378,-236.17 84.6819,-225.154 92,-218 106.152,-204.165 153.576,-194.403 191.733,-188.568"/>
<polygon fill="black" stroke="black" points="201.71,-187.097 192.473,-193.008 196.763,-187.826 191.816,-188.556 191.816,-188.556 191.816,-188.556 196.763,-187.826 191.16,-184.104 201.71,-187.097 201.71,-187.097"/>
<text text-anchor="middle" x="120.5" y="-220.8" font-family="Bitstream Vera Sans" font-size="8.00">server_ready</text>
</g>
<!-- Client&#45;&gt;ControlCenter -->
<g id="edge24" class="edge"><title>Client&#45;&gt;ControlCenter</title>
<path fill="none" stroke="black" d="M360.499,-112.271C338.68,-125.33 303.799,-146.208 277.884,-161.719"/>
<polygon fill="black" stroke="black" points="269.128,-166.96 275.397,-157.963 273.418,-164.392 277.708,-161.824 277.708,-161.824 277.708,-161.824 273.418,-164.392 280.019,-165.685 269.128,-166.96 269.128,-166.96"/>
<text text-anchor="middle" x="355.5" y="-138.8" font-family="Bitstream Vera Sans" font-size="8.00">register_listener</text>
</g>
<!-- TalkFSM -->
<g id="node14" class="node"><title>TalkFSM</title>
<ellipse fill="none" stroke="black" cx="336" cy="-264" rx="28.8675" ry="18"/>
<text text-anchor="middle" x="336" y="-261.8" font-family="Bitstream Vera Sans" font-size="8.00">TalkFSM</text>
</g>
<!-- TalkFSM&#45;&gt;ControlCenter -->
<g id="edge12" class="edge"><title>TalkFSM&#45;&gt;ControlCenter</title>
<path fill="none" stroke="black" d="M330.585,-246.202C327.05,-236.912 321.649,-225.873 314,-218 306.272,-210.045 296.409,-203.516 286.541,-198.308"/>
<polygon fill="black" stroke="black" points="277.538,-193.894 288.498,-194.256 282.028,-196.095 286.517,-198.296 286.517,-198.296 286.517,-198.296 282.028,-196.095 284.536,-202.337 277.538,-193.894 277.538,-193.894"/>
<text text-anchor="middle" x="404" y="-220.8" font-family="Bitstream Vera Sans" font-size="8.00">talk_transition(started,ended,archived)</text>
</g>
<!-- EC2Reaper&#45;&gt;EC2 -->
<g id="edge16" class="edge"><title>EC2Reaper&#45;&gt;EC2</title>
<path fill="none" stroke="black" d="M57.5376,-82.2072C52.4112,-71.4287 45.7673,-57.4595 39.9863,-45.3046"/>
<polygon fill="black" stroke="black" points="35.5806,-36.0412 43.9395,-43.1391 37.7281,-40.5565 39.8757,-45.0719 39.8757,-45.0719 39.8757,-45.0719 37.7281,-40.5565 35.8119,-47.0047 35.5806,-36.0412 35.5806,-36.0412"/>
<text text-anchor="middle" x="67.5" y="-56.8" font-family="Bitstream Vera Sans" font-size="8.00">_destroy</text>
</g>
<!-- IcecastObserver&#45;&gt;Icecast -->
<g id="edge20" class="edge"><title>IcecastObserver&#45;&gt;Icecast</title>
<path fill="none" stroke="black" d="M207,-81.8015C207,-71.3976 207,-58.1215 207,-46.3768"/>
<polygon fill="black" stroke="black" points="207,-36.1476 211.5,-46.1475 207,-41.1476 207,-46.1476 207,-46.1476 207,-46.1476 207,-41.1476 202.5,-46.1476 207,-36.1476 207,-36.1476"/>
<text text-anchor="middle" x="223" y="-56.8" font-family="Bitstream Vera Sans" font-size="8.00">_status</text>
</g>
<!-- IcecastObserver&#45;&gt;ControlCenter -->
<g id="edge22" class="edge"><title>IcecastObserver&#45;&gt;ControlCenter</title>
<path fill="none" stroke="black" d="M215.013,-117.758C219.907,-128.604 226.263,-142.69 231.775,-154.908"/>
<polygon fill="black" stroke="black" points="235.972,-164.207 227.757,-156.943 233.915,-159.65 231.859,-155.092 231.859,-155.092 231.859,-155.092 233.915,-159.65 235.96,-153.241 235.972,-164.207 235.972,-164.207"/>
<text text-anchor="middle" x="259" y="-138.8" font-family="Bitstream Vera Sans" font-size="8.00">icecast_status</text>
</g>
<!-- Techne&#45;&gt;CloseIO -->
<g id="edge28" class="edge"><title>Techne&#45;&gt;CloseIO</title>
<path fill="none" stroke="black" d="M540,-81.8015C540,-71.3976 540,-58.1215 540,-46.3768"/>
<polygon fill="black" stroke="black" points="540,-36.1476 544.5,-46.1475 540,-41.1476 540,-46.1476 540,-46.1476 540,-46.1476 540,-41.1476 535.5,-46.1476 540,-36.1476 540,-36.1476"/>
<text text-anchor="middle" x="567.5" y="-56.8" font-family="Bitstream Vera Sans" font-size="8.00">_create_task</text>
</g>
<!-- * -->
<g id="node27" class="node"><title>*</title>
<ellipse fill="none" stroke="black" cx="536" cy="-264" rx="27" ry="18"/>
<text text-anchor="middle" x="536" y="-261.8" font-family="Bitstream Vera Sans" font-size="8.00">*</text>
</g>
<!-- Mediator -->
<g id="node29" class="node"><title>Mediator</title>
<ellipse fill="none" stroke="black" cx="618" cy="-182" rx="30.0979" ry="18"/>
<text text-anchor="middle" x="618" y="-179.8" font-family="Bitstream Vera Sans" font-size="8.00">Mediator</text>
</g>
<!-- *&#45;&gt;Mediator -->
<g id="edge30" class="edge"><title>*&#45;&gt;Mediator</title>
<path fill="none" stroke="black" d="M551.04,-248.96C563.368,-236.632 581.014,-218.986 595.097,-204.903"/>
<polygon fill="black" stroke="black" points="602.498,-197.502 598.609,-207.755 598.963,-201.037 595.427,-204.573 595.427,-204.573 595.427,-204.573 598.963,-201.037 592.245,-201.391 602.498,-197.502 602.498,-197.502"/>
<text text-anchor="middle" x="583.5" y="-220.8" font-family="Bitstream Vera Sans" font-size="8.00">*</text>
</g>
<!-- Archeon -->
<g id="node37" class="node"><title>Archeon</title>
<ellipse fill="none" stroke="black" cx="618" cy="-100" rx="28.9458" ry="18"/>
<text text-anchor="middle" x="618" y="-97.8" font-family="Bitstream Vera Sans" font-size="8.00">Archeon</text>
</g>
<!-- Mediator&#45;&gt;Archeon -->
<g id="edge38" class="edge"><title>Mediator&#45;&gt;Archeon</title>
<path fill="none" stroke="black" d="M618,-163.802C618,-153.398 618,-140.122 618,-128.377"/>
<polygon fill="black" stroke="black" points="618,-118.148 622.5,-128.148 618,-123.148 618,-128.148 618,-128.148 618,-128.148 618,-123.148 613.5,-128.148 618,-118.148 618,-118.148"/>
<text text-anchor="middle" x="641.5" y="-138.8" font-family="Bitstream Vera Sans" font-size="8.00">notification</text>
</g>
<!-- DJ -->
<g id="node30" class="node"><title>DJ</title>
<ellipse fill="none" stroke="black" cx="608" cy="-264" rx="27" ry="18"/>
<text text-anchor="middle" x="608" y="-261.8" font-family="Bitstream Vera Sans" font-size="8.00">DJ</text>
</g>
<!-- DJ&#45;&gt;Mediator -->
<g id="edge32" class="edge"><title>DJ&#45;&gt;Mediator</title>
<path fill="none" stroke="black" d="M610.219,-245.802C611.488,-235.398 613.107,-222.122 614.539,-210.377"/>
<polygon fill="black" stroke="black" points="615.787,-200.148 619.043,-210.619 615.182,-205.111 614.576,-210.074 614.576,-210.074 614.576,-210.074 615.182,-205.111 610.109,-209.529 615.787,-200.148 615.787,-200.148"/>
<text text-anchor="middle" x="636" y="-220.8" font-family="Bitstream Vera Sans" font-size="8.00">dj_callback</text>
</g>
<!-- AudioProgress -->
<g id="node32" class="node"><title>AudioProgress</title>
<ellipse fill="none" stroke="black" cx="698" cy="-264" rx="45.1095" ry="18"/>
<text text-anchor="middle" x="698" y="-261.8" font-family="Bitstream Vera Sans" font-size="8.00">AudioProgress</text>
</g>
<!-- AudioProgress&#45;&gt;Mediator -->
<g id="edge34" class="edge"><title>AudioProgress&#45;&gt;Mediator</title>
<path fill="none" stroke="black" d="M686.299,-246.586C679.901,-237.619 671.551,-226.761 663,-218 657.715,-212.585 651.626,-207.228 645.668,-202.367"/>
<polygon fill="black" stroke="black" points="637.714,-196.087 648.351,-198.752 641.639,-199.185 645.563,-202.284 645.563,-202.284 645.563,-202.284 641.639,-199.185 642.774,-205.815 637.714,-196.087 637.714,-196.087"/>
<text text-anchor="middle" x="704.5" y="-220.8" font-family="Bitstream Vera Sans" font-size="8.00">audio_progress</text>
</g>
<!-- PurchaseController -->
<g id="node34" class="node"><title>PurchaseController</title>
<ellipse fill="none" stroke="black" cx="817" cy="-264" rx="56.0796" ry="18"/>
<text text-anchor="middle" x="817" y="-261.8" font-family="Bitstream Vera Sans" font-size="8.00">PurchaseController</text>
</g>
<!-- PurchaseController&#45;&gt;Mediator -->
<g id="edge36" class="edge"><title>PurchaseController&#45;&gt;Mediator</title>
<path fill="none" stroke="black" d="M793.908,-247.597C779.511,-237.948 760.3,-226.093 742,-218 714.251,-205.729 681.181,-196.37 656.175,-190.274"/>
<polygon fill="black" stroke="black" points="646.333,-187.942 657.101,-185.869 651.198,-189.095 656.063,-190.248 656.063,-190.248 656.063,-190.248 651.198,-189.095 655.025,-194.627 646.333,-187.942 646.333,-187.942"/>
<text text-anchor="middle" x="805.5" y="-220.8" font-family="Bitstream Vera Sans" font-size="8.00">purchase_completed</text>
</g>
<!-- Archeon&#45;&gt;Slack -->
<g id="edge40" class="edge"><title>Archeon&#45;&gt;Slack</title>
<path fill="none" stroke="black" d="M618,-81.8015C618,-71.3976 618,-58.1215 618,-46.3768"/>
<polygon fill="black" stroke="black" points="618,-36.1476 622.5,-46.1475 618,-41.1476 618,-46.1476 618,-46.1476 618,-46.1476 618,-41.1476 613.5,-46.1476 618,-36.1476 618,-36.1476"/>
<text text-anchor="middle" x="640.5" y="-56.8" font-family="Bitstream Vera Sans" font-size="8.00">_message</text>
</g>
</g>
</svg>
