<svg version="1.1" id="Layer_1" xmlns="http://www.w3.org/2000/svg" xmlns:xlink="http://www.w3.org/1999/xlink" x="0px" y="0px"
   viewBox="0 0 28 28" style="enable-background:new 0 0 28 28;" xml:space="preserve">
<path d="M5.6,18c0,1-0.8,1.7-1.7,1.7S2.2,19,2.2,18v-7.2c0-1,0.8-1.7,1.7-1.7s1.7,0.8,1.7,1.7V18z M25.8,10.8c0-1-0.8-1.7-1.7-1.7
  s-1.7,0.8-1.7,1.7V18c0,1,0.8,1.7,1.7,1.7s1.7-0.8,1.7-1.7V10.8z M21.7,8.8H6.3c0-2.7,1.6-5,3.9-6.2L9,0.4C8.9,0.2,9,0.1,9.1,0
  C9.2,0,9.4,0,9.4,0.1l1.2,2.2c1-0.4,2.1-0.7,3.3-0.7s2.3,0.3,3.3,0.7l1.2-2.2C18.6,0,18.7,0,18.8,0c0,0,0.1,0,0.1,0
  C19,0.1,19.1,0.2,19,0.4l-1.2,2.2C20.1,3.8,21.7,6.1,21.7,8.8z M11.1,5.3c0-0.4-0.3-0.6-0.6-0.6S9.8,4.9,9.8,5.3
  c0,0.4,0.3,0.6,0.6,0.6S11.1,5.7,11.1,5.3z M18.2,5.3c0-0.4-0.3-0.6-0.6-0.6c-0.4,0-0.6,0.3-0.6,0.6c0,0.4,0.3,0.6,0.6,0.6
  C17.9,5.9,18.2,5.7,18.2,5.3z M6.3,9.4v11.2c0,1,0.8,1.9,1.9,1.9h1.2v3.8c0,1,0.8,1.7,1.7,1.7s1.7-0.8,1.7-1.7v-3.8h2.3v3.8
  c0,1,0.8,1.7,1.7,1.7s1.7-0.8,1.7-1.7v-3.8h1.2c1,0,1.9-0.8,1.9-1.9V9.4H6.3z"/>
</svg>
        