<svg version="1.1" id="Ebene_1" xmlns="http://www.w3.org/2000/svg" xmlns:xlink="http://www.w3.org/1999/xlink" x="0px" y="0px"
   viewBox="0 0 79.4 79.4" style="enable-background:new 0 0 79.4 79.4;" xml:space="preserve">
<path class="st0" d="M43,6.9C48.2,0,55.5,0,55.5,0s1.1,6.5-4.1,12.7c-5.5,6.6-11.8,5.6-11.8,5.6S38.4,13,43,6.9z M26.4,19.3
  c-9.2,0-19.1,8.3-19.1,24.1c0,16,11.6,36,20.9,36c3.2,0,8.2-3.2,13.1-3.2c4.9,0,8.5,3.1,13.1,3.1c10.1,0,17.6-21,17.6-21
  s-10.7-4.1-10.7-16.2c0-10.6,8.6-15,8.6-15s-4.4-7.9-15.5-7.9c-6.5,0-11.5,3.7-14.1,3.7C37.1,22.8,32.5,19.3,26.4,19.3z"/>
</svg>
