<svg version="1.1" id="Layer_1" xmlns="http://www.w3.org/2000/svg" xmlns:xlink="http://www.w3.org/1999/xlink" x="0px" y="0px"
   viewBox="0 0 28 28" enable-background="new 0 0 28 28" xml:space="preserve">
<g>
  <defs>
    <rect id="SVGID_1_" width="28" height="28"/>
  </defs>
  <clipPath id="SVGID_2_">
    <use xlink:href="#SVGID_1_"  overflow="visible"/>
  </clipPath>
  <path clip-path="url(#SVGID_2_)" d="M23,28h5V6h-5V28z M19,3.93c0.861-0.223,1.5-0.998,1.5-1.93c0-1.105-0.895-2-2-2
    c-1.104,0-2,0.895-2,2c0,0.932,0.639,1.707,1.5,1.93V6H4V3.93C4.861,3.707,5.5,2.932,5.5,2c0-1.105-0.895-2-2-2
    c-1.104,0-2,0.895-2,2c0,0.932,0.639,1.707,1.5,1.93V6H0v22h22V6h-3V3.93z M9,12c1.906,0,3.633,0.764,4.894,2H4.105
    C5.369,12.764,7.094,12,9,12 M3.26,15h11.48c0.422,0.605,0.752,1.277,0.967,2H2.295C2.51,16.277,2.838,15.605,3.26,15 M9,26
    c-1.906,0-3.631-0.764-4.895-2h9.789C12.633,25.236,10.906,26,9,26 M14.74,23H3.26c-0.422-0.604-0.75-1.277-0.965-2h13.412
    C15.492,21.723,15.162,22.396,14.74,23 M15.922,20H2.08C2.033,19.672,2,19.34,2,19s0.033-0.672,0.08-1h13.842
    C15.969,18.328,16,18.66,16,19S15.969,19.672,15.922,20 M19,15.5c-0.826,0-1.5-0.672-1.5-1.5s0.674-1.5,1.5-1.5
    c0.83,0,1.5,0.672,1.5,1.5S19.83,15.5,19,15.5 M20.5,10c0,0.828-0.67,1.5-1.5,1.5c-0.826,0-1.5-0.672-1.5-1.5
    c0-0.828,0.674-1.5,1.5-1.5C19.83,8.5,20.5,9.172,20.5,10"/>
</g>
</svg>
