<?xml version="1.0" encoding="utf-8"?>
<!-- Generator: Adobe Illustrator 19.1.0, SVG Export Plug-In . SVG Version: 6.00 Build 0)  -->
<!DOCTYPE svg PUBLIC "-//W3C//DTD SVG 1.1//EN" "http://www.w3.org/Graphics/SVG/1.1/DTD/svg11.dtd">
<svg version="1.1" id="Layer_1" xmlns="http://www.w3.org/2000/svg" xmlns:xlink="http://www.w3.org/1999/xlink" x="0px" y="0px"
	 viewBox="-625 1487 28 28" style="enable-background:new -625 1487 28 28;" xml:space="preserve">
<rect x="-625" y="1509" width="12" height="6"/>
<path d="M-609,1500.5c0-2.3,1.2-4.3,3.1-5.5h-11.5c-3.1,0-5.6,2.5-5.6,5.6v7.4h14V1500.5z M-620,1506c-0.6,0-1-0.4-1-1s0.4-1,1-1
	s1,0.4,1,1S-619.4,1506-620,1506 M-620,1503c-0.6,0-1-0.4-1-1s0.4-1,1-1s1,0.4,1,1S-619.4,1503-620,1503 M-616,1506
	c-0.6,0-1-0.4-1-1s0.4-1,1-1s1,0.4,1,1S-615.4,1506-616,1506 M-616,1503c-0.6,0-1-0.4-1-1s0.4-1,1-1s1,0.4,1,1S-615.4,1503-616,1503
	 M-612,1506c-0.6,0-1-0.4-1-1s0.4-1,1-1s1,0.4,1,1S-611.4,1506-612,1506 M-612,1503c-0.6,0-1-0.4-1-1s0.4-1,1-1s1,0.4,1,1
	S-611.4,1503-612,1503"/>
<path d="M-602,1487h-15v7h15V1487z M-604,1492h-11v-3h11V1492z"/>
<path d="M-601,1487v8h-1.5c-3,0-5.5,2.5-5.5,5.5v8.5h-4v6h15v-28H-601z"/>
</svg>
