<svg version="1.1" id="Layer_1" xmlns="http://www.w3.org/2000/svg" xmlns:xlink="http://www.w3.org/1999/xlink" x="0px" y="0px"
	 viewBox="0 0 28 28" style="enable-background:new 0 0 28 28;" xml:space="preserve">
<path d="M27,15h-1v-0.5c0-1.4-1.1-2.5-2.5-2.5c-1.4,0-2.5,1.1-2.5,2.5V17c0,0.6-0.4,1-1,1h-1V7c0.6,0,1-0.4,1-1s-0.4-1-1-1
	c0-2.8-2.2-5-5-5c-2.8,0-5,2.2-5,5v8H8c-0.6,0-1-0.4-1-1v-2c0-1.7-1.3-3-3-3s-3,1.3-3,3c-0.6,0-1,0.4-1,1s0.4,1,1,1v1
	c0,3.3,2.8,6,6.1,6H9v2H8c-0.6,0-1,0.4-1,1c0,0.6,0.4,1,1,1h1v5h10v-5h1.4c3.1,0,5.6-2.5,5.6-5.5V17h1c0.6,0,1-0.4,1-1
	C28,15.4,27.6,15,27,15"/>
</svg>
