<svg xmlns="http://www.w3.org/2000/svg" viewBox="0 0 28 28"><title>chain</title><g id="Layer_2" data-name="Layer 2"><g id="Layer_1-2" data-name="Layer 1"><path d="M16.15,8c.09-.21-.14-.8.07-1l2.56-2.56c.21-.21.8,0,1-.07L23.42.71a6.19,6.19,0,0,0-7.2,1.14L13.65,4.42a6.21,6.21,0,0,0-1.14,7.21Zm6.19.08L28,2.4,25.6,0,19.93,5.67Zm-18,11.75c.09-.21-.14-.8.07-1l2.57-2.56c.21-.21.79,0,1-.07l3.64-3.64a6.2,6.2,0,0,0-7.21,1.14L1.82,16.25A6.21,6.21,0,0,0,.68,23.46Zm3.48-2,2.4,2.4,9.7-9.7L17.5,8.1ZM23.65,8.22c-.09.21.14.8-.07,1L21,11.78c-.21.21-.79,0-1,.07l-3.64,3.64a6.2,6.2,0,0,0,7.2-1.14l2.56-2.57a6.21,6.21,0,0,0,1.15-7.2Zm-18,11.72L0,25.6,2.4,28l5.67-5.66Zm6.15.12c-.09.21.14.8-.07,1L9.19,23.62c-.21.21-.79,0-1,.07L4.55,27.32a6.2,6.2,0,0,0,7.2-1.14l2.56-2.57a6.21,6.21,0,0,0,1.14-7.2Z"/></g></g></svg>