<svg id="Layer_1" data-name="Layer 1" xmlns="http://www.w3.org/2000/svg" viewBox="0 0 100 96.96"><title>cloud-upload</title><path d="M83.71,62H62.87a0.5,0.5,0,0,1,0-1H83.71C92,61,99,53.65,99,45A15.65,15.65,0,0,0,87.52,30l-0.43-.12,0.06-.45a25.9,25.9,0,0,0,.26-3.47A22.86,22.86,0,0,0,64.64,3,22.59,22.59,0,0,0,44.15,15.87l-0.2.41-0.43-.17a13.25,13.25,0,0,0-5-.57h-0.9c-7.7,0-14.73,6.15-16,14.13L21.55,30H16.29a15.5,15.5,0,0,0,0,31H38.12a0.5,0.5,0,0,1,0,1H16.29a16.5,16.5,0,0,1,0-33h4.42c1.52-8,8.87-14.55,16.91-14.55l0.89,0a15.24,15.24,0,0,1,4.94.51A23.56,23.56,0,0,1,64.64,2,23.85,23.85,0,0,1,88.41,25.92a26.39,26.39,0,0,1-.21,3.18A16.72,16.72,0,0,1,100,45C100,54.19,92.54,62,83.71,62ZM59,80H74.81L49.95,55.19,25.19,80H41v9H59V80ZM57.86,93.5a0.5,0.5,0,0,0-.5-0.5H42.64a0.5,0.5,0,0,0,0,1H57.36A0.5,0.5,0,0,0,57.86,93.5Zm-2.33,5A0.5,0.5,0,0,0,55,98H45a0.5,0.5,0,0,0,0,1H55A0.5,0.5,0,0,0,55.52,98.5ZM60.1,45a0.5,0.5,0,0,0,.4-0.59,9.11,9.11,0,0,0-8.83-7.49,9.24,9.24,0,0,0-4,.8,11.91,11.91,0,0,0-23.22,4,15.29,15.29,0,0,0,.31,2.88,0.5,0.5,0,1,0,1-.19,14.3,14.3,0,0,1-.29-2.7,10.92,10.92,0,0,1,21.43-3.14l0.18,0.62,0.56-.32a7.89,7.89,0,0,1,4-1,8.11,8.11,0,0,1,7.84,6.68A0.5,0.5,0,0,0,60,45h0.1Z" transform="translate(0 -2.04)"/></svg>