<svg id="Layer_1" data-name="Layer 1" xmlns="http://www.w3.org/2000/svg" viewBox="0 0 28 28">
  <title>fireworks</title>
  <g>
    <path d="M27.5,24H25.71L27,22.73a.5.5,0,0,0-.71-.71L25,23.29V21.5a.5.5,0,0,0-1,0v1.79L22.73,22a.5.5,0,0,0-.71.71L23.29,24H21.5a.5.5,0,0,0,0,1h1.79L22,26.27a.5.5,0,0,0,.71.71L24,25.71V27.5a.5.5,0,0,0,1,0V25.71L26.27,27a.5.5,0,0,0,.71-.71L25.71,25H27.5a.5.5,0,0,0,0-1"/>
    <path d="M14,6.53V4.73L15.29,6A.5.5,0,0,0,16,5.29L14.73,4h1.79a.5.5,0,0,0,0-1H14.73L16,1.76a.5.5,0,0,0-.71-.71L14,2.32V.53a.5.5,0,1,0-1,0V2.32L11.76,1.05a.5.5,0,0,0-.71.71L12.32,3H10.53a.5.5,0,0,0,0,1h1.79L11.05,5.29a.5.5,0,0,0,.71.71L13,4.73V6.53a.5.5,0,1,0,1,0"/>
    <path d="M0,7.2C0,8.19,2.24,9,5,9s5-.81,5-1.8L5,0Z"/>
    <path d="M4.57,10.49,7,12.06v2.38L3,11.86V10.36A10.24,10.24,0,0,1,1,9.9V21c0,.75,1.28,1.65,3,1.91V28H6V22.91c1.72-.27,3-1.17,3-1.91V9.9a12.51,12.51,0,0,1-4,.6H4.57M7,20.5a3.1,3.1,0,0,1-.48.22L3,18.46V16.08l4,2.58Z"/>
    <path d="M22.72,8.08C25.2,9.3,27.56,9.56,28,8.66L26.67,0,19,4.27c-.44.89,1.22,2.6,3.7,3.81"/>
    <path d="M25.92,10.63a12.26,12.26,0,0,1-3.86-1.2l-.39-.21,1.5,2.49-1,2.14L19.66,9.77l.66-1.35a10.36,10.36,0,0,1-1.59-1.3l-4.88,10c-.33.67.42,2,1.85,3l-2.23,4.57,1.8.88L17.5,21c1.66.52,3.21.27,3.54-.4ZM19.46,19.3a3.19,3.19,0,0,1-.53,0L16.76,15.7l1-2.14,2.46,4.07Z"/>
  </g>
</svg>
