<?xml version="1.0" encoding="utf-8"?>

<!-- Generator: Adobe Illustrator 17.1.0, SVG Export Plug-In . SVG Version: 6.00 Build 0)  -->

<!DOCTYPE svg PUBLIC "-//W3C//DTD SVG 1.1//EN" "http://www.w3.org/Graphics/SVG/1.1/DTD/svg11.dtd">

<svg version="1.1" id="Layer_1" xmlns="http://www.w3.org/2000/svg" xmlns:xlink="http://www.w3.org/1999/xlink" x="0px" y="0px"

   viewBox="0 0 28 28" enable-background="new 0 0 28 28" xml:space="preserve">

<g>

  <defs>

    <rect id="SVGID_1_" width="28" height="28"/>

  </defs>

  <clipPath id="SVGID_2_">

    <use xlink:href="#SVGID_1_"  overflow="visible"/>

  </clipPath>

  <path clip-path="url(#SVGID_2_)" d="M28,16.364v-4.726l-4.276-0.476c-0.206-0.708-0.489-1.389-0.841-2.03l2.688-3.359L22.23,2.43

    l-3.361,2.688c-0.643-0.352-1.323-0.635-2.03-0.84L16.364,0h-4.726l-0.476,4.278c-0.707,0.205-1.388,0.488-2.029,0.84L5.772,2.429

    L2.43,5.77l2.689,3.362c-0.352,0.642-0.635,1.322-0.841,2.029L0,11.637v4.725l4.278,0.476c0.206,0.707,0.488,1.387,0.84,2.029

    l-2.689,3.36L5.77,25.57l3.362-2.688c0.644,0.353,1.324,0.635,2.029,0.841L11.636,28h4.726l0.476-4.277

    c0.706-0.205,1.388-0.488,2.03-0.84l3.36,2.688l3.342-3.341l-2.687-3.361c0.353-0.644,0.635-1.324,0.84-2.03L28,16.364z M18.501,14

    c0,2.481-2.019,4.5-4.5,4.5s-4.5-2.019-4.5-4.5s2.019-4.5,4.5-4.5S18.501,11.519,18.501,14"/>

</g>

</svg>

