<svg version="1.1" id="Layer_1" xmlns="http://www.w3.org/2000/svg" xmlns:xlink="http://www.w3.org/1999/xlink" x="0px" y="0px"
	 viewBox="0 0 28 28" enable-background="new 0 0 28 28" xml:space="preserve">
<g>
	<defs>
		<rect id="SVGID_1_" width="28" height="28"/>
	</defs>
	<clipPath id="SVGID_2_">
		<use xlink:href="#SVGID_1_"  overflow="visible"/>
	</clipPath>
	<path clip-path="url(#SVGID_2_)" d="M14,0C6.267,0,0,6.269,0,14.001C0,21.734,6.269,28,14,28c0.896,0,1.773-0.088,2.625-0.249
		c0.293-0.056,0.585-0.116,0.875-0.191c0.046-0.012,0.091-0.028,0.14-0.04C23.605,25.918,28,20.473,28,14.001
		C28,6.269,21.732,0,14,0 M9.021,3.845c-1.486,2.26-2.449,6.154-2.533,9.154H3.136C3.326,8.999,5.662,5.581,9.021,3.845
		 M3.136,14.999h3.352c0.084,3,1.047,6.893,2.533,9.154C5.662,22.418,3.326,18.999,3.136,14.999 M13,24.864
		c0-0.042-1.457,0.062-2.256-0.167c-1.961-1.948-3.114-5.698-3.219-9.698H13V24.864z M13,12.999H7.525
		c0.105-4,1.258-7.749,3.221-9.695C11.544,3.072,13,3.179,13,3.138V12.999z M24.863,12.999h-3.352c-0.084-3-1.047-6.894-2.533-9.154
		C22.337,5.581,24.673,8.999,24.863,12.999 M15,3.138c0,0.041,1.457-0.066,2.253,0.166c1.963,1.946,3.116,5.695,3.221,9.695H15
		V3.138z M17.253,24.697C16.457,24.926,15,24.822,15,24.864v-9.865h5.474C20.369,18.999,19.216,22.749,17.253,24.697 M18.98,24.153
		c1.484-2.261,2.447-6.154,2.531-9.154h3.352C24.673,18.999,22.337,22.418,18.98,24.153"/>
</g>
</svg>
