
<?xml version="1.0" encoding="utf-8"?>
<!-- Generator: Adobe Illustrator 17.1.0, SVG Export Plug-In . SVG Version: 6.00 Build 0)  -->
<!DOCTYPE svg PUBLIC "-//W3C//DTD SVG 1.1//EN" "http://www.w3.org/Graphics/SVG/1.1/DTD/svg11.dtd">
<svg version="1.1" id="Layer_1" xmlns="http://www.w3.org/2000/svg" xmlns:xlink="http://www.w3.org/1999/xlink" x="0px" y="0px"
   viewBox="0 0 28 28" enable-background="new 0 0 28 28" xml:space="preserve">
<rect x="9" width="19" height="4"/>
<g>
  <defs>
    <rect id="SVGID_1_" width="28" height="28"/>
  </defs>
  <clipPath id="SVGID_2_">
    <use xlink:href="#SVGID_1_"  overflow="visible"/>
  </clipPath>
  <path clip-path="url(#SVGID_2_)" d="M2,0C0.895,0,0,0.895,0,2c0,1.105,0.895,2,2,2c1.104,0,2-0.895,2-2C4,0.895,3.104,0,2,0"/>
  <rect x="9" y="8" clip-path="url(#SVGID_2_)" width="19" height="4"/>
  <path clip-path="url(#SVGID_2_)" d="M2,8c-1.105,0-2,0.895-2,2c0,1.105,0.895,2,2,2c1.104,0,2-0.895,2-2C4,8.895,3.104,8,2,8"/>
  <rect x="9" y="24" clip-path="url(#SVGID_2_)" width="19" height="4"/>
  <path clip-path="url(#SVGID_2_)" d="M2,24c-1.105,0-2,0.896-2,2c0,1.105,0.895,2,2,2c1.104,0,2-0.895,2-2C4,24.896,3.104,24,2,24"
    />
  <rect x="9" y="16" clip-path="url(#SVGID_2_)" width="19" height="4"/>
  <path clip-path="url(#SVGID_2_)" d="M2,16c-1.105,0-2,0.896-2,2c0,1.105,0.895,2,2,2c1.104,0,2-0.895,2-2C4,16.896,3.104,16,2,16"
    />
</g>
</svg>
