<svg id="Layer_1" data-name="Layer 1" xmlns="http://www.w3.org/2000/svg" viewBox="0 0 100 30.4"><title>Untitled-4</title><g id="Artwork_1" data-name="Artwork 1"><path d="M9.53,61.79c-0.92-1.49-1.82-3.09-2.23-3.74a3,3,0,0,0,1.47-2.95A3.49,3.49,0,0,0,5,51.48H0.13s-0.13,0-.13.14V62.08c0,0.16,0,.14.13,0.14h2.6c0.11,0,.13,0,0.13-0.14v-3l1.82,0s1.16,1.82,1.69,2.85c0.14,0.28.21,0.32,0.33,0.32H9.5c0.17,0,.22-0.11,0-0.43M5.76,55.32A1.39,1.39,0,0,1,4.43,56.9l-1.58,0v-3.1H4.42a1.3,1.3,0,0,1,1.35,1.47M22,62V60c0-.21,0-0.21-0.17-0.21l-4.64,0V58h4.43c0.14,0,.16,0,0.16-0.22V55.81c0-.19,0-0.22-0.16-0.22H17.14V53.8l4.53,0c0.13,0,.17-0.08.17-0.22V51.69c0-.19,0-0.21-0.17-0.21H14.51c-0.16,0-.14,0-0.14.16V62c0,0.19,0,.22.17,0.22h7.24c0.16,0,.17,0,0.17-0.22m14-6.4c0-2.44-1.41-4.12-3.77-4.12H27.44c-0.06,0-.14,0-0.14.14V62.08c0,0.16,0,.14.14,0.14H30c0.13,0,.14,0,0.14-0.14V59.53s1.79,0,2.25-.06c2-.24,3.56-1.27,3.56-3.87M33,55.51a1.49,1.49,0,0,1-1.55,1.65l-1.33,0V53.84h1.3A1.5,1.5,0,0,1,33,55.51m16.69,2.82V51.59c0-.11,0-0.11-0.08-0.11H47c-0.09,0-.09,0-0.09.11v7.06a1.67,1.67,0,0,1-3.33,0v-7c0-.13,0-0.13-0.11-0.13H40.85c-0.08,0-.08,0-0.08.09v6.59c0,2.61,1.46,4.32,4.48,4.32s4.47-1.62,4.47-4.17m14.83,1a2.56,2.56,0,0,0-2.2-2.63,2.37,2.37,0,0,0,1.9-2.38c0-1.77-1.17-2.82-3.12-2.82H55.59c-0.14,0-.19,0-0.19.16V62c0,0.21,0,.22.14,0.22h6a2.77,2.77,0,0,0,3-2.91m-3.18-4.59a0.93,0.93,0,0,1-1,1H58.23v-2h2.12a0.91,0.91,0,0,1,1,1m0.24,4.13A1,1,0,0,1,60.51,60H58.23V57.68h2.28a1.09,1.09,0,0,1,1.09,1.17m15.13,3.23v-2.3c0-.13,0-0.16-0.14-0.16l-4,.08V51.63c0-.13,0-0.14-0.14-0.14H69.91c-0.14,0-.14,0-0.14.14V62.08c0,0.16,0,.14.14,0.14h6.7c0.13,0,.13,0,0.13-0.14m7.49,0V51.63c0-.13,0-0.14-0.16-0.14H81.44c-0.14,0-.14,0-0.14.14V62.08c0,0.16,0,.14.14,0.14h2.63c0.14,0,.16,0,0.16-0.14M100,59.21c0-.1,0-0.17-0.14-0.21l-2.38-.65c-0.13,0-.14,0-0.19.11a2.31,2.31,0,0,1-2.22,1.33,2.62,2.62,0,0,1-2.64-2.88A2.66,2.66,0,0,1,95,54a2.38,2.38,0,0,1,2.31,1.44c0,0.08,0,.11.14,0.08l2.36-.92c0.06,0,.13-0.1,0-0.28a5.1,5.1,0,0,0-4.93-3A5.61,5.61,0,0,0,95,62.49a5.32,5.32,0,0,0,5-3.28" transform="translate(0 -32.09)"/><path d="M29.05,32.6c0.13-.27.11-0.28-0.09-0.28H26.5a0.27,0.27,0,0,0-.32.19c-0.46,1.3-2.2,5.76-2.2,5.76s-1.9-4.51-2.42-5.83a0.26,0.26,0,0,0-.29-0.13H18.58c-0.21,0-.21,0-0.08.28,1.95,4.18,3.39,7,5.18,10.56a0.26,0.26,0,0,0,.21.19,0.35,0.35,0,0,0,.24-0.22C26.07,39,27,36.94,29.05,32.6m14.7,5.12a5.62,5.62,0,1,0-5.62,5.61,5.56,5.56,0,0,0,5.62-5.61m-3,0a2.67,2.67,0,1,1-5.32,0,2.67,2.67,0,1,1,5.32,0m11.08,5.19V32.46c0-.13,0-0.14-0.16-0.14H49.08c-0.14,0-.14,0-0.14.14V42.91c0,0.16,0,.14.14,0.14h2.63c0.14,0,.16,0,0.16-0.14M67.63,40c0-.09,0-0.18-0.14-0.21l-2.38-.65c-0.13,0-.14,0-0.19.11a2.31,2.31,0,0,1-2.22,1.33,2.62,2.62,0,0,1-2.64-2.88,2.66,2.66,0,0,1,2.6-2.95A2.38,2.38,0,0,1,65,36.24c0,0.08,0,.11.14,0.08l2.36-.92c0.06,0,.13-0.09,0-0.28a5.1,5.1,0,0,0-4.93-3,5.61,5.61,0,0,0,.08,11.23,5.32,5.32,0,0,0,5-3.28m12.44,2.79v-2c0-.21,0-0.21-0.17-0.21l-4.64,0V38.79h4.43c0.14,0,.16,0,0.16-0.22V36.64c0-.19,0-0.22-0.16-0.22H75.26V34.62l4.53,0c0.13,0,.17-0.08.17-0.22V32.52c0-.19,0-0.21-0.17-0.21H72.63c-0.16,0-.14,0-0.14.16V42.83c0,0.19,0,.22.17,0.22H79.9c0.16,0,.17,0,0.17-0.22" transform="translate(0 -32.09)"/></g></svg>