<svg id="Layer_1" data-name="Layer 1" xmlns="http://www.w3.org/2000/svg" viewBox="0 0 28 28"><title>podcast</title><path d="M20,20.45A8.87,8.87,0,1,0,5.17,14,8.91,8.91,0,0,0,8,20.45,6.19,6.19,0,0,1,9.5,18.37a6.27,6.27,0,1,1,9,0A6.14,6.14,0,0,1,20,20.45m-6-2.3c-2.54,0-5,1.84-5,4.36V28H19V22.53c0-2.42-2.46-4.38-5-4.38M14,0A14.06,14.06,0,0,0,0,14c0,5.69,4,10.59,8,12.77V23.84c-2-2-5.44-5.65-5.44-9.86A11.42,11.42,0,0,1,13.91,2.59,11.54,11.54,0,0,1,25.4,14c0,4.21-3.39,7.89-5.4,9.86v2.91c4-2.18,8-7.08,8-12.77A14.06,14.06,0,0,0,14,0M10.8,13.93A3.2,3.2,0,1,0,14,10.68a3.22,3.22,0,0,0-3.2,3.24"/></svg>