<svg version="1.1" id="Layer_1" xmlns="http://www.w3.org/2000/svg" xmlns:xlink="http://www.w3.org/1999/xlink" x="0px" y="0px"
	 viewBox="0 0 28 28" style="enable-background:new 0 0 28 28;" xml:space="preserve">
<path d="M23.9,4.1C21.2,1.4,17.6,0,14,0S6.8,1.4,4.1,4.1c-5.5,5.5-5.5,14.3,0,19.8C6.8,26.6,10.4,28,14,28s7.2-1.4,9.9-4.1
	C29.4,18.4,29.4,9.6,23.9,4.1 M14,22c-0.8,0-1.5-0.7-1.5-1.5c0-0.8,0.7-1.5,1.5-1.5c0.8,0,1.5,0.7,1.5,1.5C15.5,21.3,14.8,22,14,22
	 M17.5,14.5c-1.7,0.8-2.4,1.3-2.5,2.5h-2c0-1.9,0.1-3.1,2.4-4.2c1-0.5,1.3-0.8,1.3-1.5c0-0.9-0.7-1.5-2.4-1.5
	c-1.5,0-2.6,0.7-3.5,1.7L9,9.4C10.2,8.1,12,7,14.3,7c3.1,0,5.2,1.3,5.2,4.2C19.5,13,18.4,14,17.5,14.5"/>
</svg>
