<svg id="Layer_1" data-name="Layer 1" xmlns="http://www.w3.org/2000/svg" viewBox="0 0 51.18 100"><title>radio-tower</title><path d="M53.49,35.91L53,34.57l-0.07-.14a9.3,9.3,0,1,0-5.83,0L47,34.57l-0.51,1.34A10.9,10.9,0,1,1,53.49,35.91ZM41.33,49.67l0.56-1.49a24,24,0,1,1,16.22,0l0.56,1.49A25.59,25.59,0,1,0,41.33,49.67ZM68.54,25.59A18.54,18.54,0,1,0,43.81,43.07l0.56-1.49a16.95,16.95,0,1,1,11.25,0l0.56,1.49A18.57,18.57,0,0,0,68.54,25.59ZM74.4,99.85a0.8,0.8,0,0,1-.47.15,0.54,0.54,0,0,1-.39-0.17L51,82.11V93.59a1,1,0,0,1-2,0V82.11L26.46,99.83a0.72,0.72,0,0,1-.91,0,0.84,0.84,0,0,1-.35-0.92L49,35.55v-6a3.74,3.74,0,0,1-3.09-3.9,4,4,0,0,1,4-4,4.1,4.1,0,0,1,4.11,4A3.71,3.71,0,0,1,51,29.5v6L74.78,98.92A0.85,0.85,0,0,1,74.4,99.85Zm-36-31L48.78,61l-5.83-4.36ZM48.93,80.3L37.32,71.61l-9.5,25.22ZM49,62.71l-10.55,7.9L49,78.51V62.71Zm0-22.64L43.33,55.12,49,59.37V40.07Zm8.15,16.85L51.44,61.2l10.2,7.64ZM51,40.07V59.68l5.76-4.32Zm0,38.44,10.55-7.9L51,62.71v15.8ZM72.18,96.82l-9.5-25.22L51.07,80.3Z" transform="translate(-24.41)"/></svg>