<svg id="Layer_1" data-name="Layer 1" xmlns="http://www.w3.org/2000/svg" xmlns:xlink="http://www.w3.org/1999/xlink" viewBox="0 0 28 28"><defs><style>.cls-1{fill:none;}.cls-2{clip-path:url(#clip-path);}</style><clipPath id="clip-path"><rect class="cls-1" width="28" height="28"/></clipPath></defs><title>share</title><g class="cls-2"><path d="M23,18a5,5,0,0,0-3.18,1.17L10,14.25c0-.09,0-0.17,0-0.25s0-.17,0-0.25l9.84-4.92A5,5,0,1,0,18,5c0,0.09,0,.17,0,0.25L8.18,10.17A5,5,0,0,0,5,9,5,5,0,0,0,5,19a5,5,0,0,0,3.18-1.17L18,22.75c0,0.08,0,.16,0,0.25a5,5,0,1,0,5-5M23,2a3,3,0,1,1-3,3,3,3,0,0,1,3-3M5,17a3,3,0,1,1,3-3,3,3,0,0,1-3,3m18,9a3,3,0,1,1,3-3,3,3,0,0,1-3,3"/></g></svg>