<svg id="Layer_1" data-name="Layer 1" xmlns="http://www.w3.org/2000/svg" viewBox="0 0 28 28"><title>sound</title><polygon points="4 10 0 10 0 18 4 18 12 24 12 4 4 10"/><path d="M21.65,0.21a0.87,0.87,0,1,0-1.14,1.33,16.4,16.4,0,0,1,0,24.92,0.87,0.87,0,1,0,1.14,1.33,18.14,18.14,0,0,0,0-27.58" transform="translate(0 0)"/><path d="M24.42,14A14.67,14.67,0,0,0,19.28,2.83a0.87,0.87,0,1,0-1.14,1.33,12.94,12.94,0,0,1,0,19.67,0.87,0.87,0,1,0,1.14,1.33A14.67,14.67,0,0,0,24.42,14" transform="translate(0 0)"/><path d="M20.72,14a10.08,10.08,0,0,0-3.53-7.67,0.88,0.88,0,0,0-1.14,1.33,8.34,8.34,0,0,1,0,12.67A0.87,0.87,0,0,0,16,21.57a0.87,0.87,0,0,0,1.23.1A10.08,10.08,0,0,0,20.72,14" transform="translate(0 0)"/></svg>