<svg version="1.1" id="Layer_1" xmlns="http://www.w3.org/2000/svg" xmlns:xlink="http://www.w3.org/1999/xlink" x="0px" y="0px"
   viewBox="0 0 24 24" style="enable-background:new 0 0 24 24;" xml:space="preserve">
<g id="Sound_wave_2_2_">
  <g>
    <path d="M1.5,15.5c-0.553,0-1-0.448-1-1v-5c0-0.552,0.447-1,1-1s1,0.448,1,1v5C2.5,15.052,2.053,15.5,1.5,15.5z"/>
  </g>
  <g>
    <path d="M4.5,19.5c-0.553,0-1-0.448-1-1v-13c0-0.552,0.447-1,1-1s1,0.448,1,1v13C5.5,19.052,5.053,19.5,4.5,19.5z"/>
  </g>
  <g>
    <path d="M7.5,23.5c-0.553,0-1-0.448-1-1v-21c0-0.552,0.447-1,1-1s1,0.448,1,1v21C8.5,23.052,8.053,23.5,7.5,23.5z"/>
  </g>
  <g>
    <path d="M10.5,22.5c-0.553,0-1-0.448-1-1v-19c0-0.552,0.447-1,1-1s1,0.448,1,1v19C11.5,22.052,11.053,22.5,10.5,22.5z"/>
  </g>
  <g>
    <path d="M13.5,18.5c-0.553,0-1-0.448-1-1v-11c0-0.552,0.447-1,1-1s1,0.448,1,1v11C14.5,18.052,14.053,18.5,13.5,18.5z"/>
  </g>
  <g>
    <path d="M16.5,22.5c-0.553,0-1-0.448-1-1v-19c0-0.552,0.447-1,1-1s1,0.448,1,1v19C17.5,22.052,17.053,22.5,16.5,22.5z"/>
  </g>
  <g>
    <path d="M19.5,18.5c-0.553,0-1-0.448-1-1v-11c0-0.552,0.447-1,1-1s1,0.448,1,1v11C20.5,18.052,20.053,18.5,19.5,18.5z"/>
  </g>
  <g>
    <path d="M22.5,15.5c-0.553,0-1-0.448-1-1v-5c0-0.552,0.447-1,1-1s1,0.448,1,1v5C23.5,15.052,23.053,15.5,22.5,15.5z"/>
  </g>
</g>

</svg>
