<?xml version="1.0" encoding="utf-8"?>
<!-- Generator: Adobe Illustrator 17.1.0, SVG Export Plug-In . SVG Version: 6.00 Build 0)  -->
<!DOCTYPE svg PUBLIC "-//W3C//DTD SVG 1.1//EN" "http://www.w3.org/Graphics/SVG/1.1/DTD/svg11.dtd">
<svg version="1.1" id="Layer_1" xmlns="http://www.w3.org/2000/svg" xmlns:xlink="http://www.w3.org/1999/xlink" x="0px" y="0px"
	 viewBox="0 0 28 28" enable-background="new 0 0 28 28" xml:space="preserve">
<g>
	<defs>
		<rect id="SVGID_1_" width="28" height="28"/>
	</defs>
	<clipPath id="SVGID_2_">
		<use xlink:href="#SVGID_1_"  overflow="visible"/>
	</clipPath>
	<path clip-path="url(#SVGID_2_)" d="M0,21c0,4,3,7,3,7l4.023-4.023l-1.466-8.74C4.178,15.993,0,18.493,0,21 M11,25l-2,3h10l-2-3H11
		z M22.451,15.24l-1.439,8.771L25,28c0,0,3-3,3-7C28,18.497,23.836,16.001,22.451,15.24 M14,0c-2.424,0.114-9.24,4.484-7.803,13.021
		L8.043,24H20l1.803-10.979C23.24,4.483,16.424,0.114,14,0 M14,18c-1.381,0-2.5-1.12-2.5-2.499c0-1.038,0.629-1.925,1.527-2.304
		C13.326,13.069,13.656,13,14,13c1.381,0,2.5,1.12,2.5,2.501C16.5,16.881,15.381,18,14,18 M14,10c-1.381,0-2.5-1.12-2.5-2.499
		c0-1.038,0.629-1.925,1.527-2.304C13.326,5.069,13.656,5,14,5c1.381,0,2.5,1.12,2.5,2.501C16.5,8.881,15.381,10,14,10"/>
</g>
</svg>
