<svg id="Layer_1" data-name="Layer 1" xmlns="http://www.w3.org/2000/svg" viewBox="0 0 28 28"><title>twitter</title><path d="M28,5.3a11.07,11.07,0,0,1-2.86,3C25.5,16.38,19.57,25.39,8.8,25.39A15.59,15.59,0,0,1,0,22.79a11.25,11.25,0,0,0,8.48-2.34,5.85,5.85,0,0,1-5.36-4,5.32,5.32,0,0,0,2.6-.1,5.78,5.78,0,0,1-4.63-5.72,5.61,5.61,0,0,0,2.6.73,5.85,5.85,0,0,1-1.77-7.7,16.34,16.34,0,0,0,11.87,6,5.75,5.75,0,0,1,9.78-5.26A11.62,11.62,0,0,0,27.27,3a5.82,5.82,0,0,1-2.55,3.17A11.18,11.18,0,0,0,28,5.3Z"/></svg>