<svg id="typewriter" xmlns="http://www.w3.org/2000/svg" viewBox="0 0 28 28"><title>typewriter</title><path d="M3,11H0v4H3V11Zm22,4h3V11H25v4ZM18,0V5h5Zm6,11H23V6H17V0H5V11H4v4H24V11ZM8,2h7V3H8V2ZM8,5h7V6H8V5ZM20,9H8V8H20V9Zm-3,7c0,1-1,1-3,1s-3,0-3-1H2.5L0,23a4.72,4.72,0,0,0,5,5H23a4.72,4.72,0,0,0,5-5l-2.5-7H17ZM3,20c0-.55.89-1,2-1s2,0.45,2,1-0.89,1-2,1-2-.45-2-1m5,4c-1.11,0-2-.45-2-1s0.89-1,2-1,2,0.45,2,1-0.89,1-2,1m1-4c0-.55.89-1,2-1s2,0.45,2,1-0.89,1-2,1-2-.45-2-1m5,4c-1.11,0-2-.45-2-1s0.89-1,2-1,2,0.45,2,1-0.89,1-2,1m1-4c0-.55.89-1,2-1s2,0.45,2,1-0.89,1-2,1-2-.45-2-1m5,4c-1.11,0-2-.45-2-1s0.9-1,2-1,2,0.45,2,1-0.89,1-2,1m3-3c-1.11,0-2-.45-2-1s0.9-1,2-1,2,0.45,2,1-0.89,1-2,1" transform="translate(0 0)"/></svg>