<svg version="1.1" id="Layer_1" xmlns="http://www.w3.org/2000/svg" xmlns:xlink="http://www.w3.org/1999/xlink" x="0px" y="0px"
   viewBox="0 0 30 30" style="enable-background:new 0 0 30 30;" xml:space="preserve">
  <path d="M24.9,13.6c-1.5-1.5-4.2-1.5-5.7,0l-9,9c-1.2,1.2-3.1,1.2-4.3,0s-1.2-3.1,0-4.3l2-2l1.6-1.6l0.1,0.1
    c0.3,0.3,0.8,0.5,1.4,0.5s1-0.2,1.4-0.5l0.9-0.9c0.2,0,0.4,0.1,0.5,0.1c0.9,0,1.8-0.4,2.6-1.2l4.5-4.5c0.2-0.2,0.2-0.5,0-0.7
    l-0.1-0.1l1.1-1.1c0.2-0.2,0.2-0.5,0-0.7L20.2,4l1.6-1.6c0.2-0.2,0.2-0.5,0-0.7s-0.5-0.2-0.7,0l-1.6,1.6l-1.6-1.6
    c-0.2-0.2-0.5-0.2-0.7,0L16,2.8l-0.1-0.1c-0.2-0.2-0.5-0.2-0.7,0l-4.5,4.5c-0.8,0.8-1.3,2-1.1,3.1l-0.9,0.9c-0.7,0.7-0.7,2,0,2.7
    L8.8,14l-1.6,1.6l-2,2c-1.6,1.6-1.6,4.1,0,5.7c1.6,1.6,4.1,1.6,5.7,0l9-9c1.1-1.1,3.1-1.1,4.3,0c1.2,1.2,1.2,3.1,0,4.3l-9,9
    c-0.2,0.2-0.2,0.5,0,0.7c0.1,0.1,0.2,0.1,0.4,0.1s0.3,0,0.4-0.1l9-9C26.4,17.8,26.4,15.2,24.9,13.6z M17.5,2.7L20.8,6L20,6.8
    l-3.3-3.3L17.5,2.7z"/>
</svg>
