<svg version="1.1" id="Layer_1" xmlns="http://www.w3.org/2000/svg" xmlns:xlink="http://www.w3.org/1999/xlink" x="0px" y="0px"
	 viewBox="0 0 28 28" enable-background="new 0 0 28 28" xml:space="preserve">

	<path d="M25.153,0c0.31,0,0.552,0.346,0.552,0.346s5.872,10.63-1.17,13.482l-3.826-1.392
		c-0.612-1.307-1.624-5.283,1.75-7.426c0,0,2.662-1.893,2.176-4.323c0,0-0.067-0.443,0.328-0.641C25.028,0.014,25.092,0,25.153,0
		 M13.919,1.704c1.875,0,3.63,0.605,3.946,2.662C18.141,6.162,15.874,8.655,16,11.5c0.054,1.235,1.873,2.42,3.04,2.623
		l-3.916,12.001l-1.213,0.679C12.332,27.481,10.389,28,8.503,28c-1.534,0-3.03-0.343-4.263-1.226
		C-1.054,22.983-0.798,14.651,1.784,9.35c1.701-3.497,4.732-5.878,8.419-7.031C11.182,2.012,12.581,1.704,13.919,1.704 M12,16
		c1.104,0,2-0.895,2-2c0-1.104-0.896-2-2-2c-1.105,0-2,0.896-2,2C10,15.105,10.896,16,12,16 M20.361,13.392l3.825,1.393L18.811,28
		l-2.868-1.044L20.361,13.392"/>

</svg>
