<?xml version="1.0" encoding="utf-8"?>
<!-- Generator: Adobe Illustrator 17.1.0, SVG Export Plug-In . SVG Version: 6.00 Build 0)  -->
<!DOCTYPE svg PUBLIC "-//W3C//DTD SVG 1.1//EN" "http://www.w3.org/Graphics/SVG/1.1/DTD/svg11.dtd">
<svg version="1.1" id="Layer_1" xmlns="http://www.w3.org/2000/svg" xmlns:xlink="http://www.w3.org/1999/xlink" x="0px" y="0px"
	 viewBox="0 0 28 28" enable-background="new 0 0 28 28" xml:space="preserve">
<g>
	<defs>
		<rect id="SVGID_1_" width="28" height="28"/>
	</defs>
	<clipPath id="SVGID_2_">
		<use xlink:href="#SVGID_1_"  overflow="visible"/>
	</clipPath>
	<path clip-path="url(#SVGID_2_)" d="M14,10.751c-3.723,0-6.75,3.028-6.75,6.751c0,3.72,3.027,6.749,6.75,6.749
		c3.722,0,6.75-3.029,6.75-6.749C20.75,13.779,17.722,10.751,14,10.751 M21,3.001L19,0H9L7,3.001H0v21h6
		C7.96,26.323,10.731,28,14,28c3.269,0,6.043-1.677,8-3.999h6v-21H21z M14,26.001c-4.688,0-8.5-3.813-8.5-8.5S9.312,9,14,9
		c4.689,0,8.5,3.815,8.5,8.502S18.689,26.001,14,26.001 M23.562,8.562c-0.588,0.585-1.535,0.584-2.121-0.002
		c-0.588-0.586-0.588-1.536-0.002-2.121c0.586-0.586,1.533-0.584,2.121,0.001C24.146,7.028,24.146,7.977,23.562,8.562"/>
</g>
</svg>
