<svg id="Layer_1" data-name="Layer 1" xmlns="http://www.w3.org/2000/svg" viewBox="0 0 28 28"><title>credit</title><path d="M14,0A14,14,0,1,0,28,14,14,14,0,0,0,14,0m0,26A12,12,0,1,1,26,14,12,12,0,0,1,14,26"/><path d="M14,3A11,11,0,1,0,25,14,11,11,0,0,0,14,3Zm-2.14,7.17A2,2,0,0,1,14,8a2,2,0,0,1,2.19,2.14v3.43A2,2,0,0,1,14,15.71a2,2,0,0,1-2.14-2.14V10.14Zm6,3v0.43h0a3.86,3.86,0,0,1-3.43,3.83v1.33A3.27,3.27,0,0,1,17,20H11a3.27,3.27,0,0,1,2.57-1.27V17.4a3.86,3.86,0,0,1-3.43-3.83h0V13.14H8V12.29h2.14V10.57H11v3a2.86,2.86,0,0,0,3,3,2.86,2.86,0,0,0,3-3v-3h0.86v1.71H20v0.86H17.86Z"/></svg>