<svg version="1.1" id="Layer_1" xmlns="http://www.w3.org/2000/svg" xmlns:xlink="http://www.w3.org/1999/xlink" x="0px" y="0px"
	 viewBox="0 0 28 28" enable-background="new 0 0 28 28" xml:space="preserve">
<g>
	<defs>
		<rect id="SVGID_1_" width="28" height="28"/>
	</defs>
	<clipPath id="SVGID_2_">
		<use xlink:href="#SVGID_1_"  overflow="visible"/>
	</clipPath>
	<path clip-path="url(#SVGID_2_)" d="M23.005,5c-0.395,0-0.774,0.057-1.144,0.144C21.237,2.205,18.63,0,15.505,0
		c-3.59,0-6.5,2.91-6.5,6.5c0,0.169,0.014,0.334,0.025,0.5H7.535c-0.01-0.167-0.03-0.331-0.03-0.5c0-1.101,0.225-2.149,0.628-3.105
		C7.471,3.144,6.755,3,6.005,3c-3.313,0-6,2.686-6,6s2.687,6,6,6h17c2.762,0,5-2.238,5-5S25.767,5,23.005,5 M18.005,17h-6v2h-5
		l8.018,9l7.982-9h-5V17z"/>
</g>
</svg>
