<svg id="Layer_1" data-name="Layer 1" xmlns="http://www.w3.org/2000/svg" viewBox="0 0 100 68.9"><title>logo</title><path d="M50,15.1L0,84H100Zm0,7.4L91.73,80H8.27Zm-1.09,33c0.17-.37.15-0.47-0.13-0.47H45.42a0.42,0.42,0,0,0-.43.33c-0.63,1.78-3,7.93-3,7.93s-2.6-6.24-3.32-8A0.38,0.38,0,0,0,38.26,55H34.57c-0.28,0-.28.12-0.11,0.47,2.67,5.73,4.64,9.69,7.09,14.51a0.39,0.39,0,0,0,.28.28,0.54,0.54,0,0,0,.33-0.33c2.67-5.71,4-8.51,6.75-14.45M65.3,69.34c-1.26-2-2.49-4.27-3.06-5.16,1.32-.63,2-2.13,2-4.13A4.86,4.86,0,0,0,59.14,55H52.41a0.5,0.5,0,0,0-.41.34V69.66a0.4,0.4,0,0,0,.41.34H56c0.15,0,0-.16,0-0.34v-4.1l2.57,0s1.62,2.57,2.36,4a0.64,0.64,0,0,0,.49.51h3.84C65.49,70,65.56,69.78,65.3,69.34Zm-7.06-6.78L56,62.63V58h2.29c1.26,0,1.81,1.06,1.81,2.21A2.11,2.11,0,0,1,58.24,62.57Z" transform="translate(0 -15.1)"/></svg>