<svg id="Layer_1" data-name="Layer 1" xmlns="http://www.w3.org/2000/svg" viewBox="0 0 28 28"><title>pin-outline</title><path d="M18.14,1.5L26.5,9.86a4.59,4.59,0,0,1-2.39.62A5.74,5.74,0,0,1,23,10.38l-0.52-.1-0.38.38-4.77,4.77-0.43.43,0.19,0.58a6.21,6.21,0,0,1-.56,5.4L13,18.32l-0.6-.6-0.69.5L4.53,23.47l5.25-7.21,0.5-.69L9.68,15,6.17,11.45a5.63,5.63,0,0,1,3.18-.91,7.32,7.32,0,0,1,2.22.36l0.58,0.18,0.43-.43,4.77-4.77,0.38-.38L17.62,5a4.91,4.91,0,0,1,.52-3.48M18.06,0a5.66,5.66,0,0,0-1.41,5.17L11.87,9.94a8.34,8.34,0,0,0-2.53-.4,6.49,6.49,0,0,0-4.66,1.84L9,15.67,0,28l12.33-9,4.29,4.29a7,7,0,0,0,1.44-7.19l4.77-4.77a6.74,6.74,0,0,0,1.28.13A5.4,5.4,0,0,0,28,9.94L18.06,0h0Z"/></svg>