<svg version="1.1" id="Layer_1" xmlns="http://www.w3.org/2000/svg" xmlns:xlink="http://www.w3.org/1999/xlink" x="0px" y="0px"
	 viewBox="0 0 28 28" enable-background="new 0 0 28 28" xml:space="preserve">
<g>
	<defs>
		<rect id="SVGID_1_" width="28" height="28"/>
	</defs>
	<clipPath id="SVGID_2_">
		<use xlink:href="#SVGID_1_"  overflow="visible"/>
	</clipPath>
	<path clip-path="url(#SVGID_2_)" d="M25.17,13.616c0.125,0.007,0.24,0.011,0.344,0.011c0.07,0,0.129-0.004,0.188-0.008
		c0.092-0.009,0.185-0.011,0.274-0.035C27.259,13.24,27.992,11.51,28,9.249c0.003-1.028-0.144-2.165-0.456-3.332
		C26.626,2.491,24.594,0,22.822,0c-0.159,0-0.316,0.02-0.469,0.061c-0.009,0.003-0.023,0.009-0.032,0.012
		c-0.081,0.023-0.159,0.055-0.236,0.089c-0.032,0.014-0.067,0.031-0.103,0.047c-1.586,0.832-2.13,4.044-1.2,7.519
		C21.644,10.94,23.483,13.329,25.17,13.616"/>
	<rect x="19" y="19" clip-path="url(#SVGID_2_)" width="9" height="9"/>
	<path clip-path="url(#SVGID_2_)" d="M14,16.999c0-2.201-1.794-3-3-3H5.743c-0.806,0-0.988-0.55-1-1c0-0.934,0.752-1.101,1-1.127
		l16.93,1.42c-1.211-1.176-2.249-3.041-2.857-5.306c-0.672-2.511-0.641-4.831-0.033-6.487c-0.149,0.11-13.072,6.809-13.23,6.893
		c-2.835,1.512-3.81,2.451-3.81,4.607c0,1.206,0.799,3,3,3h5.245c0.462,0.012,1.012,0.195,1.012,1V19H0v9h18v-9h-4V16.999z"/>
</g>
</svg>
