<svg version="1.1" id="Layer_1" xmlns="http://www.w3.org/2000/svg" xmlns:xlink="http://www.w3.org/1999/xlink" x="0px" y="0px"
	 viewBox="184.5 32.3 693 606.4" enable-background="new 184.5 32.3 693 606.4" xml:space="preserve">

<path fill="#21273D" d="M877.5,508.8c0,28.4-17.1,54-43.3,65c0,35.9-29.1,65-65,65s-65-29.1-65-65V443.8
	c0-28.3,18.1-52,43.3-61v-90.6c0-119.7-96.9-216.6-216.6-216.6s-216.6,96.9-216.6,216.6v90.6c25.2,8.9,43.3,32.8,43.3,61v129.9
	c0,35.9-29.1,65-65,65s-65-29.1-65-65c-26.3-11-43.3-36.5-43.3-65s17.1-54,43.3-65c0-28.3,18.1-52,43.3-61v-90.6
	c0-143.5,116.4-259.9,259.9-259.9s259.9,116.4,259.9,259.9v90.6c25.2,8.9,43.3,32.8,43.3,61C860.4,454.7,877.5,480.3,877.5,508.8z"
	/>
</svg>
