<?xml version="1.0" encoding="utf-8"?>
<!-- Generator: Adobe Illustrator 18.1.1, SVG Export Plug-In . SVG Version: 6.00 Build 0)  -->
<!DOCTYPE svg PUBLIC "-//W3C//DTD SVG 1.1//EN" "http://www.w3.org/Graphics/SVG/1.1/DTD/svg11.dtd">
<svg version="1.1" id="Layer_1" xmlns="http://www.w3.org/2000/svg" xmlns:xlink="http://www.w3.org/1999/xlink" x="0px" y="0px"
	 viewBox="184.5 32.3 693 606.4" enable-background="new 184.5 32.3 693 606.4" xml:space="preserve">
<linearGradient id="SVGID_1_" gradientUnits="userSpaceOnUse" x1="52.5293" y1="220.2653" x2="414.2168" y2="581.9528" gradientTransform="matrix(1.3535 0 0 -1.3535 266.4746 905.8164)">
	<stop  offset="0" style="stop-color:#2c46b0"/>
	<stop  offset="1" style="stop-color:#54C6C6"/>
</linearGradient>
<path fill="url(#SVGID_1_)" d="M877.5,508.8c0,28.4-17.1,54-43.3,65c0,35.9-29.1,65-65,65s-65-29.1-65-65V443.8
	c0-28.3,18.1-52,43.3-61v-90.6c0-119.7-96.9-216.6-216.6-216.6s-216.6,96.9-216.6,216.6v90.6c25.2,8.9,43.3,32.8,43.3,61v129.9
	c0,35.9-29.1,65-65,65s-65-29.1-65-65c-26.3-11-43.3-36.5-43.3-65s17.1-54,43.3-65c0-28.3,18.1-52,43.3-61v-90.6
	c0-143.5,116.4-259.9,259.9-259.9s259.9,116.4,259.9,259.9v90.6c25.2,8.9,43.3,32.8,43.3,61C860.4,454.7,877.5,480.3,877.5,508.8z"
	/>
</svg>
