<svg version="1.1" id="Laptop" xmlns="http://www.w3.org/2000/svg" xmlns:xlink="http://www.w3.org/1999/xlink" x="0px" y="0px"
	 viewBox="0 0 1040 693" enable-background="new 0 0 1040 693" xml:space="preserve">

<path fill="#21273D" d="M858,541.6c-8.6-12.9-60.8-91.2-60.8-91.2V138.6c0-38.2-31.2-69.3-69.3-69.3H312.1
	c-38.1,0-69.3,31.1-69.3,69.3v311.9c0,0-52.2,78.3-60.8,91.2c-8.5,12.8-8.5,20.2-8.5,30.1v17.3c0,17.3,17.3,34.6,34.6,34.6h623.8
	c17.3,0,34.6-17.3,34.6-34.6v-17.3C866.5,561.8,866.5,554.4,858,541.6z M416.1,554.4l20.8-34.7h166.3l20.8,34.7H416.1z M727.9,415.8
	H312.1V138.6h415.8V415.8z"/>
</svg>
