<svg version="1.1" id="Mic" xmlns="http://www.w3.org/2000/svg" xmlns:xlink="http://www.w3.org/1999/xlink" x="0px" y="0px"
	 viewBox="0 0 1040 693" enable-background="new 0 0 1040 693" xml:space="preserve">
<path fill="#21273D" d="M741.7,264.8v95.5c0,77.5-56.9,160.4-187.1,171.8v91.5h90.1c7.6,0,13.9,6.2,13.9,13.9v41.6
	c0,7.7-6.3,13.9-13.9,13.9H395.3c-7.6,0-13.9-6.2-13.9-13.9v-41.6c0-7.6,6.2-13.9,13.8-13.9h90.1v-91.5
	c-130.2-11.4-187.1-94.4-187.1-171.8v-95.5c0-7.7,6.2-13.9,13.9-13.9h20.8c7.6,0,13.9,6.2,13.9,13.9v95.5
	c0,46.3,36.5,124.7,173.2,124.7s173.2-78.4,173.2-124.7v-95.5c0-7.7,6.2-13.9,13.8-13.9h20.8C735.5,250.9,741.7,257.2,741.7,264.8z
	 M520,415.8c81.3,0,104-33.4,104-55.4V250.9H416.1v109.4C416.1,382.4,438.6,415.8,520,415.8z M624,55.4C624,33.4,601.3,0,520,0
	c-81.4,0-103.9,33.4-103.9,55.4v147H624V55.4z"/>
</svg>
