<svg version="1.1" id="Network" xmlns="http://www.w3.org/2000/svg" xmlns:xlink="http://www.w3.org/1999/xlink" x="0px" y="0px"
	 viewBox="0 0 1040 693" enable-background="new 0 0 1040 693" xml:space="preserve">

<path fill="#21273D" d="M356.2,239.6c6.9,0,13.7,1,20,3c23.9-26.8,50.4-51.2,79.1-72.8c-1.2-5.1-1.9-10.4-1.9-15.8
	c0-7.5,1.2-14.8,3.5-21.5c-32.2-23-67.1-42.4-104.3-57.3c-34.8,21.5-65.2,49.6-89.5,82.5c18,31.9,39.4,61.6,63.7,88.6
	C335.7,242,345.7,239.6,356.2,239.6z M288.4,307.4c0-9.5,2-18.6,5.5-26.8c-21.8-24-41.5-49.8-58.7-77.2c-21.7,43-34,91.6-34,143.1
	c0,59.6,16.4,115.3,44.9,163c10.2-57.3,29.5-111.5,56.1-161.2C293.6,337,288.4,322.8,288.4,307.4z M521.2,86.2
	c17.9,0,34.1,7,46.3,18.3c35.4-15.2,72.6-26.9,111.4-34.4c-46.8-27-101.1-42.5-158.9-42.5c-39.5,0-77.2,7.2-112.1,20.4
	c27.7,13.7,54.1,29.6,78.9,47.6C496.9,89.7,508.6,86.2,521.2,86.2z M622.6,405.7c4.2-8.8,10.2-16.6,17.6-22.7
	c-20-61.6-51.7-117.9-92.6-166.4c-8.1,3.5-17,5.3-26.5,5.3c-14.7,0-28.3-4.7-39.4-12.6c-24.6,18.7-47.4,39.6-68.1,62.5
	c6.5,10.4,10.3,22.6,10.3,35.7c0,7-1.1,13.9-3.1,20.3C480.4,367.4,548.9,394.7,622.6,405.7z M710.6,497.3
	c0.9,12.9,1.4,25.8,1.4,38.8c0,23-1.5,45.7-4.2,67.9c54.1-39.5,95.2-95.6,116-160.7c-24.6,6-49.8,10.2-75.6,12.6
	C742.2,474.6,728.4,489.5,710.6,497.3z M606.8,451.3c-78.7-13.1-151.7-43.1-215.2-86.1c-10.3,6.3-22.4,10-35.4,10
	c-4.8,0-9.4-0.5-13.9-1.4c-30.4,57.6-49.8,121.9-55.4,190c30.4,32.6,67.4,58.8,109,76.4C447.5,560.8,519.8,495.1,606.8,451.3z
	 M734,110.2c-51.1,5-99.9,17.8-145.3,37c0.2,2.3,0.3,4.5,0.3,6.8c0,10.7-2.6,20.8-7,29.8c45.4,53.3,80.6,115.4,102.9,183.3
	c27.6,0.6,51.2,17.4,61.3,41.4c30.7-3.1,60.6-9,89.3-17.5c2.1-14.6,3.2-29.5,3.2-44.6C838.8,252.8,798.4,168.5,734,110.2z
	 M640.9,487.5c-81.2,38-149.1,96.6-198.3,168.3c24.8,6.2,50.7,9.5,77.4,9.5c48.1,0,93.6-10.7,134.5-29.8c6.6-32.2,10-65.4,10-99.4
	c0-12.3-0.6-24.5-1.5-36.6C654.9,496.9,647.4,492.9,640.9,487.5z"/>
</svg>
