<svg version="1.1" id="Mic" xmlns="http://www.w3.org/2000/svg" xmlns:xlink="http://www.w3.org/1999/xlink" x="0px" y="0px"
	 viewBox="0 896.5 1280 1207" enable-background="new 0 896.5 1280 1207" xml:space="preserve">
<path fill="#21273D" d="M915.3,1268.1c-130,0-235.4,105.3-235.4,235.3c0,49.4,15.2,95.1,41.2,133H556.9
	c26-37.9,41.2-83.6,41.2-133c0-130-105.3-235.3-235.3-235.3c-129.9,0-235.3,105.3-235.3,235.3c0.1,129.9,105.4,235.3,235.4,235.3
	h552.5c129.9,0,235.3-105.3,235.3-235.3S1045.2,1268.1,915.3,1268.1z M229.8,1503.3c0-73.5,59.5-133,133-133s133,59.5,133,133
	c0,73.5-59.5,133-133,133S229.8,1576.8,229.8,1503.3z M915.3,1636.3c-73.5,0-133.1-59.5-133.1-133c0-73.5,59.5-133,133.1-133
	c73.4,0,133,59.5,133,133C1048.3,1576.8,988.8,1636.3,915.3,1636.3z"/>
</svg>
