<svg version="1.1" id="Thumbs_down" xmlns="http://www.w3.org/2000/svg" xmlns:xlink="http://www.w3.org/1999/xlink" x="0px"
	 y="0px" viewBox="0 0 20 20" style="enable-background:new 0 0 20 20;" xml:space="preserve">
<linearGradient id="SVGID_1_" gradientUnits="userSpaceOnUse" x1="360.5906" y1="187.1294" x2="811.3594" y2="637.8979" gradientTransform="matrix(1 0 0 -1 0 693)">
	<stop  offset="0" style="stop-color:#2c46b0"/>
	<stop  offset="1" style="stop-color:#54C6C6"/>
</linearGradient>
<path fill="#21273D" d="M6.352,12.638c0.133,0.356-3.539,3.634-1.397,6.291c0.501,0.621,2.201-2.975,4.615-4.602c1.331-0.899,4.43-2.811,4.43-3.868
	V3.617C14,2.346,9.086,1,5.352,1C3.983,1,2,9.576,2,10.939C2,12.306,6.221,12.282,6.352,12.638z M15,12.543c0.658,0,3-0.4,3-3.123
	V4.572c0-2.721-2.342-3.021-3-3.021c-0.657,0,1,0.572,1,2.26v6.373C16,11.952,14.343,12.543,15,12.543z"/>
</svg>
