<?xml version="1.0" encoding="utf-8"?>
<!-- Generator: Adobe Illustrator 18.1.1, SVG Export Plug-In . SVG Version: 6.00 Build 0)  -->
<!DOCTYPE svg PUBLIC "-//W3C//DTD SVG 1.1//EN" "http://www.w3.org/Graphics/SVG/1.1/DTD/svg11.dtd">
<svg version="1.1" id="User" xmlns="http://www.w3.org/2000/svg" xmlns:xlink="http://www.w3.org/1999/xlink" x="0px" y="0px"
	 viewBox="0 0 1040 693" enable-background="new 0 0 1040 693" xml:space="preserve">
<path fill="#21273D" d="M441.2,74.4c-35.2,26.2-44.7,67.7-42.9,89.7c2.2,27,7.7,62.1,7.7,62.1s-10.8,5.9-10.8,29.6
	c3.8,59.5,23.7,33.8,27.8,59.9c9.8,62.9,32.3,51.7,32.3,86c0,57.1-23.6,83.9-97.1,115.5C284.4,549,208.3,589,208.3,658.3V693H832
	v-34.6c0-69.3-76.1-109.3-150-141.1c-73.6-31.7-97.1-58.4-97.1-115.5c0-34.3,22.4-23.1,32.3-86c4.1-26.1,24-0.4,27.8-59.9
	c0-23.7-10.9-29.6-10.9-29.6s5.5-35.1,7.7-62.1c2.3-28.3-13.8-88.7-79.7-107.3c-11.5-11.8-19.3-30.5,16.1-49.3
	C500.6,3.9,482.5,44.5,441.2,74.4z"/>
</svg>
